<svg xmlns="http://www.w3.org/2000/svg" viewBox="0 0 72.228 8.649"><g fill="#4c9761"><path d="M.704 8.608c-.026.033-.08.046-.161.039a.851.851 0 0 1-.248-.059.996.996 0 0 1-.219-.111c-.062-.042-.086-.08-.073-.112.051-.13.125-.32.219-.57.094-.25.201-.539.321-.866.12-.328.249-.68.385-1.057.136-.377.276-.76.419-1.149.142-.39.284-.775.424-1.155a273.23 273.23 0 0 0 .695-1.918c.091-.25.163-.443.215-.58a2.39 2.39 0 0 0 .107-.414c.019-.126.05-.235.093-.325a.44.44 0 0 1 .194-.21c.088-.049.226-.073.414-.073.305.24.565.531.779.871.215.341.404.688.57 1.042.166.354.321.694.468 1.018.146.325.303.588.472.789a.284.284 0 0 0 .219.131c.094.01.2.007.317-.009.117-.016.235-.04.355-.073.12-.033.229-.054.326-.064a.452.452 0 0 1 .239.03c.061.029.092.095.092.199.027.137.016.244-.029.322a.479.479 0 0 1-.204.185 1.137 1.137 0 0 1-.302.097c-.111.019-.213.036-.307.049s-.172.029-.234.049c-.061.019-.086.048-.073.087l.258.799c.094.292.2.584.317.876.117.292.243.575.38.847.136.273.285.507.448.702a.435.435 0 0 1-.103.253 1.039 1.039 0 0 1-.243.234c-.094.064-.185.11-.272.136-.088.027-.152.016-.19-.03L5.057 4.966l-3.321.818c-.032.13-.081.32-.146.57s-.143.516-.233.799a10.95 10.95 0 0 1-.302.822 2.682 2.682 0 0 1-.351.633M3.382 1.46c-.085.331-.182.652-.292.964-.11.311-.224.61-.341.896-.117.286-.232.558-.346.818-.113.26-.212.5-.297.721.234 0 .468-.025.701-.073a6.05 6.05 0 0 0 .682-.185c.221-.075.435-.154.643-.239.207-.084.406-.162.594-.234a12.631 12.631 0 0 1-.214-.53 13.275 13.275 0 0 0-.706-1.535 2.927 2.927 0 0 0-.424-.603M9.927 8.521a.405.405 0 0 1-.229.064.845.845 0 0 1-.292-.044.574.574 0 0 1-.233-.147c-.062-.065-.077-.149-.044-.253.032-.052.076-.16.131-.326a29.227 29.227 0 0 0 .399-1.32c.075-.266.146-.527.215-.784.068-.256.133-.495.195-.716l.15-.545L6.83.788C6.753.697 6.723.626 6.743.573A.222.222 0 0 1 6.86.452a.542.542 0 0 1 .19-.054 1.144 1.144 0 0 1 .652.118c.172.084.385.244.638.481s.566.567.94.989c.373.422.842.974 1.407 1.656.246-.722.456-1.31.628-1.768a12.2 12.2 0 0 1 .458-1.091c.133-.269.255-.459.365-.57.11-.11.23-.175.36-.194.078 0 .155.008.229.024.075.016.129.076.161.18-.169.358-.33.752-.482 1.183-.153.432-.304.885-.453 1.359-.15.474-.299.963-.448 1.466a53.134 53.134 0 0 1-.467 1.495c-.163.493-.336.977-.522 1.451a16.75 16.75 0 0 1-.589 1.344M12.557 8.608c-.026.033-.08.046-.161.039a.851.851 0 0 1-.248-.059.974.974 0 0 1-.219-.111c-.062-.042-.087-.08-.073-.112.051-.13.125-.32.219-.57.094-.25.201-.539.321-.866l.385-1.057c.136-.377.276-.76.418-1.149l.424-1.155a173.228 173.228 0 0 0 .696-1.918c.091-.25.163-.443.215-.58.052-.149.088-.287.107-.414.019-.126.05-.235.092-.325a.447.447 0 0 1 .195-.21c.088-.049.226-.073.414-.073.305.24.565.531.779.871.215.341.404.688.57 1.042.166.354.321.694.467 1.018.146.325.304.588.473.789a.282.282 0 0 0 .219.131c.094.01.199.007.317-.009.116-.016.235-.04.355-.073.12-.033.229-.054.326-.064a.454.454 0 0 1 .239.03c.062.029.092.095.092.199.026.137.016.244-.029.322a.482.482 0 0 1-.205.185c-.09.045-.191.077-.301.097-.111.019-.213.036-.307.049s-.172.029-.234.049c-.061.019-.086.048-.073.087l.258.799c.094.292.2.584.317.876.117.292.243.575.379.847.137.273.286.507.449.702a.428.428 0 0 1-.103.253 1.039 1.039 0 0 1-.516.37c-.087.027-.151.016-.19-.03L16.91 4.966l-3.321.818c-.032.13-.081.32-.146.57s-.143.516-.234.799c-.091.282-.191.556-.302.822-.11.267-.227.478-.35.633m2.678-7.148c-.085.331-.182.652-.292.964-.11.311-.224.61-.341.896-.117.286-.232.558-.346.818-.113.26-.212.5-.297.721.234 0 .468-.025.701-.073a6.05 6.05 0 0 0 .682-.185c.221-.075.435-.154.643-.239.207-.084.406-.162.594-.234a12.631 12.631 0 0 1-.214-.53 13.275 13.275 0 0 0-.706-1.535 2.927 2.927 0 0 0-.424-.603M28.509 8.238a478.67 478.67 0 0 1-.229-1.898l-.175-1.461-.176-1.461c-.055-.461-.105-.864-.15-1.208a37.158 37.158 0 0 1-.088-.692.658.658 0 0 0-.097.191l-.117.33c-.053.147-.127.34-.224.58-.098.24-.239.547-.424.92-.185.374-.422.827-.711 1.359a72.182 72.182 0 0 1-1.076 1.899.348.348 0 0 1-.19.181c-.081.029-.169.015-.263-.04s-.192-.159-.292-.311c-.1-.153-.19-.366-.268-.638l-2.24-4.762a1.859 1.859 0 0 0-.146.467c-.046.214-.088.459-.127.735s-.074.571-.107.887a54.391 54.391 0 0 0-.155 1.782c-.02.269-.037.498-.049.686a3.813 3.813 0 0 0-.039.95 7.3 7.3 0 0 1 .024.866c-.01.257-.068.462-.175.614-.107.153-.32.213-.638.18-.136 0-.24-.033-.312-.102-.071-.068-.1-.174-.087-.317.026-.253.065-.589.117-1.007.051-.419.105-.871.16-1.354.055-.484.114-.976.175-1.476.062-.5.118-.962.166-1.387.049-.426.091-.785.127-1.077.036-.291.059-.474.073-.545a4.56 4.56 0 0 1 .088-.468.843.843 0 0 1 .146-.321.523.523 0 0 1 .262-.18c.111-.036.257-.053.439-.053.246.123.475.314.686.574.211.26.407.554.59.881.181.328.354.673.516 1.033l.462 1.022c.147.322.289.604.429.848.139.243.277.414.414.511L27.32.165c.221-.162.413-.205.575-.127.163.078.307.245.434.502.126.257.234.583.321.978.088.397.166.828.234 1.296.068.467.128.953.18 1.456l.151 1.456c.049.467.099.903.151 1.305.052.403.11.737.175 1.003.02.15-.019.262-.117.336a.622.622 0 0 1-.34.127.836.836 0 0 1-.37-.054c-.118-.045-.185-.114-.205-.205M35.034 8.307a6.94 6.94 0 0 0 .166-1.101c.039-.454.069-.949.092-1.485.023-.536.036-1.087.039-1.655.003-.569.003-1.106 0-1.612a825.189 825.189 0 0 0-.014-2.24c.188-.104.355-.164.501-.18.146-.017.304.053.473.209l-.117 7.139 5.22.107c.136.039.227.111.272.214a.398.398 0 0 1 .01.312.482.482 0 0 1-.248.253c-.126.065-.291.078-.492.039h-5.902zM42.816 8.608c-.026.033-.08.046-.161.039a.851.851 0 0 1-.248-.059 1.004 1.004 0 0 1-.22-.111c-.061-.042-.086-.08-.072-.112.051-.13.125-.32.219-.57.094-.25.201-.539.321-.866.12-.328.249-.68.385-1.057.136-.377.276-.76.418-1.149l.424-1.155c.14-.38.268-.732.385-1.056a196.687 196.687 0 0 1 .526-1.442c.052-.149.088-.287.107-.414.019-.126.05-.235.093-.325a.45.45 0 0 1 .194-.21c.088-.049.226-.073.414-.073.305.24.565.531.779.871.215.341.405.688.57 1.042.166.354.322.694.468 1.018.145.325.303.588.472.789a.284.284 0 0 0 .219.131c.094.01.199.007.317-.009.116-.016.235-.04.355-.073.12-.033.229-.054.326-.064a.454.454 0 0 1 .239.03c.062.029.092.095.092.199.026.137.016.244-.029.322a.482.482 0 0 1-.205.185c-.09.045-.191.077-.301.097-.111.019-.213.036-.307.049s-.172.029-.234.049c-.061.019-.086.048-.073.087l.258.799c.094.292.2.584.317.876.117.292.243.575.38.847.136.273.285.507.448.702a.428.428 0 0 1-.103.253 1.039 1.039 0 0 1-.516.37c-.087.027-.151.016-.19-.03l-1.714-3.622-3.321.818c-.032.13-.081.32-.146.57s-.143.516-.234.799c-.091.282-.191.556-.302.822-.11.267-.227.478-.35.633m2.678-7.148c-.084.331-.182.652-.292.964-.11.311-.224.61-.341.896-.117.286-.232.558-.345.818-.114.26-.213.5-.298.721.234 0 .468-.025.701-.073a6.05 6.05 0 0 0 .682-.185c.221-.075.436-.154.643-.239.208-.084.406-.162.594-.234a12.631 12.631 0 0 1-.214-.53 14.854 14.854 0 0 0-.316-.755c-.121-.266-.25-.526-.39-.78a2.927 2.927 0 0 0-.424-.603M50.101 8.131a2.44 2.44 0 0 0 .073-.531c.016-.257.027-.563.034-.92.006-.357.011-.752.015-1.184l.009-1.315c.003-.444.01-.881.02-1.309.01-.429.026-.819.048-1.169.023-.35.055-.65.098-.896.042-.246.099-.412.17-.497a.268.268 0 0 1 .141-.175c.075-.039.158-.067.249-.083s.178-.024.263-.024h.175c-.007.169-.012.402-.015.701a88.014 88.014 0 0 1-.039 1.885 99.61 99.61 0 0 1-.024.745 10.11 10.11 0 0 0 1.033-.619c.337-.23.662-.467.974-.711.311-.243.608-.48.89-.71.283-.231.549-.439.799-.624s.481-.333.691-.443c.211-.11.398-.165.561-.165.084 0 .157.032.219.097a.317.317 0 0 1 .092.224c0 .169-.13.371-.39.608-.259.237-.584.49-.973.76-.39.269-.812.547-1.266.833-.455.285-.877.558-1.266.818-.39.26-.715.498-.974.715-.26.218-.39.395-.39.532.143.09.383.21.721.36l1.14.506c.421.189.856.391 1.304.609.448.217.859.433 1.232.647.373.214.679.426.916.634s.352.399.346.574a.216.216 0 0 1-.049.151.34.34 0 0 1-.112.082.49.49 0 0 1-.132.04.9.9 0 0 1-.107.01c-.227-.065-.503-.196-.828-.395a42.762 42.762 0 0 0-1.148-.672c-.442-.25-.944-.504-1.505-.764a11.996 11.996 0 0 0-1.875-.672v2.434c-.02.033-.095.069-.224.107-.13.04-.268.066-.414.078a.935.935 0 0 1-.38-.033c-.107-.036-.141-.115-.102-.239M57.317 7.303c0-.078.027-.154.082-.229a1.72 1.72 0 0 1 .4-.375l.142-.097c.032.299.146.524.34.677.195.152.438.249.731.292.292.042.619.038.983-.015a7.121 7.121 0 0 0 1.091-.243c.363-.11.714-.242 1.052-.394a5.86 5.86 0 0 0 .866-.473c.241-.162.42-.32.536-.472.117-.153.136-.284.059-.395l-5.075-2.016a1.403 1.403 0 0 1-.238-.102 2.213 2.213 0 0 1-.268-.165 1.103 1.103 0 0 1-.214-.205.373.373 0 0 1-.088-.229c0-.305.112-.584.336-.838.225-.253.512-.478.862-.676.351-.198.74-.372 1.169-.521.428-.15.844-.275 1.247-.376a12.728 12.728 0 0 1 1.85-.325.922.922 0 0 1 .336-.039.89.89 0 0 1 .321.072.484.484 0 0 1 .214.176c.049.074.054.164.015.268-.039.097-.146.185-.321.263a4.094 4.094 0 0 1-.648.214c-.257.065-.542.128-.857.19-.315.062-.633.125-.954.19-.322.065-.63.135-.926.209a4.97 4.97 0 0 0-.779.258 1.5 1.5 0 0 0-.511.336.472.472 0 0 0-.127.433l.711.239c.319.107.674.232 1.067.375.392.143.8.296 1.222.458.422.162.813.324 1.174.487.36.162.67.316.93.462.259.146.425.271.497.375.148.234.209.46.18.677a1.282 1.282 0 0 1-.283.628 2.854 2.854 0 0 1-.628.57 6.81 6.81 0 0 1-.857.497 9.316 9.316 0 0 1-.974.409 13.6 13.6 0 0 1-.969.306 8.555 8.555 0 0 1-.847.191c-.257.042-.463.06-.619.053a1.599 1.599 0 0 1-.355 0 3.692 3.692 0 0 1-.969-.234 2.448 2.448 0 0 1-.458-.229 1.262 1.262 0 0 1-.331-.297.527.527 0 0 1-.117-.36M65.352 8.608c-.026.033-.079.046-.16.039a.851.851 0 0 1-.248-.059 1.004 1.004 0 0 1-.22-.111c-.062-.042-.086-.08-.073-.112.052-.13.125-.32.219-.57.095-.25.201-.539.322-.866l.384-1.057c.137-.377.276-.76.419-1.149l.424-1.155c.139-.38.268-.732.384-1.056l.312-.862c.091-.25.163-.443.214-.58a2.4 2.4 0 0 0 .108-.414c.019-.126.05-.235.092-.325a.447.447 0 0 1 .195-.21c.088-.049.225-.073.414-.073.305.24.565.531.779.871.214.341.404.688.57 1.042.165.354.321.694.467 1.018.146.325.304.588.472.789a.284.284 0 0 0 .219.131c.094.01.2.007.317-.009a2.78 2.78 0 0 0 .356-.073c.119-.033.228-.054.326-.064a.454.454 0 0 1 .239.03c.061.029.092.095.092.199.026.137.016.244-.029.322a.488.488 0 0 1-.205.185 1.126 1.126 0 0 1-.302.097c-.11.019-.213.036-.306.049a1.368 1.368 0 0 0-.234.049c-.062.019-.086.048-.074.087l.259.799c.094.292.199.584.316.876.117.292.244.575.38.847.136.273.286.507.448.702a.433.433 0 0 1-.102.253 1.058 1.058 0 0 1-.516.37c-.088.027-.151.016-.19-.03l-1.714-3.622-3.321.818-.147.57c-.064.25-.142.516-.233.799a10.95 10.95 0 0 1-.302.822 2.682 2.682 0 0 1-.351.633m2.679-7.148c-.085.331-.182.652-.293.964-.11.311-.224.61-.34.896-.117.286-.233.558-.346.818-.114.26-.213.5-.297.721.233 0 .467-.025.701-.073a6.05 6.05 0 0 0 .682-.185c.221-.075.434-.154.642-.239.208-.084.406-.162.595-.234a12.35 12.35 0 0 1-.215-.53c-.09-.238-.196-.489-.316-.755s-.251-.526-.39-.78a2.889 2.889 0 0 0-.423-.603"/></g></svg>