<svg xmlns="http://www.w3.org/2000/svg" viewBox="0 0 28.775 11.652"><g fill="#4c9761"><path d="M2.452.275h.178c.053 0 .086.022.107.076a.29.29 0 0 1 .032.102c.109 0 .217.006.319.012a.877.877 0 0 1 .313.08.53.53 0 0 0 .112-.135.868.868 0 0 1 .119-.135c.119 0 .226.043.313.135v.135c.113 0 .226.006.339.015A.686.686 0 0 0 4.63.502.686.686 0 0 1 4.84.47c.07 0 .139-.005.205-.017A.704.704 0 0 0 5.233.41.365.365 0 0 0 5.4.275c.086.022.178.049.264.092.081.037.161.022.231-.049.114.055.227.114.34.189.119.076.233.151.34.221.07 0 .145.01.221.032.076.017.14.054.188.103.113.092.211.184.303.28.091.097.172.199.242.312.048.157.069.324.069.496-.004.173-.043.34-.112.502a.425.425 0 0 1-.102.14c-.043.049-.043.102.01.173 0 .052.011.091.028.113a.494.494 0 0 1 .064.118c.037.409-.006.819-.14 1.224.091.07.129.156.113.253-.011.102-.022.2-.022.292 0 .381-.107.7-.318.948.184.112.329.263.436.452.114.193.178.404.201.637a.959.959 0 0 1 .043.209c.01.076.026.152.048.242a.638.638 0 0 1-.114.244.648.648 0 0 0-.112.209c.02.022.048.039.081.049.037.011.054.038.054.092a.263.263 0 0 1-.092.043.304.304 0 0 0-.092.043c0 .064.032.125.092.183a.65.65 0 0 1-.109.21.428.428 0 0 0-.069.243l.135-.135c.048.048.064.102.043.157a.366.366 0 0 1-.135.162c.022 0 .048 0 .081.005.037.005.054.021.054.038a1.438 1.438 0 0 0-.081.409c-.006.13-.011.27-.011.409 0 .162-.017.308-.059.443a2.511 2.511 0 0 1-.167.42c.032 0 .053-.005.059-.016l.032-.032a.42.42 0 0 1-.053.312c-.054.092-.13.189-.216.279a.406.406 0 0 1-.238.125.815.815 0 0 0-.264.102c-.14.017-.274.027-.408.022a1.093 1.093 0 0 0-.405.065c-.054.021-.082.069-.091.14a.317.317 0 0 1-.092.177c-.049 0-.087-.015-.114-.048a.592.592 0 0 0-.07-.086c-.161 0-.312.005-.453.021a3.8 3.8 0 0 1-.452.021.41.41 0 0 1-.27-.021.486.486 0 0 0-.274-.021 2.264 2.264 0 0 1-.507.097c-.179.016-.355 0-.534-.055-.054-.015-.091-.037-.113-.047-.027-.017-.065-.017-.114.005a3.351 3.351 0 0 1-.635.091 1.665 1.665 0 0 1-.636-.091c-.183 0-.361-.005-.544-.016a3.024 3.024 0 0 0-.545.016 5.452 5.452 0 0 1-.113-.114.286.286 0 0 1-.065-.112.87.87 0 0 0 0-.297.679.679 0 0 1 0-.291c0-.065.028-.092.086-.092v-.182c.012 0 .023-.006.033-.016.022-.018.038-.027.059-.027v-.092c.07 0 .141 0 .205.005.065.005.135.022.205.038a.884.884 0 0 1 .496-.135.282.282 0 0 0-.027-.135 1.089 1.089 0 0 1-.06-.134c0-.114-.005-.233-.015-.367a1.297 1.297 0 0 1 .015-.361 2.724 2.724 0 0 1 .038-.749 8.09 8.09 0 0 0 .097-.75h.092a.924.924 0 0 0-.032-.403.481.481 0 0 1 .075-.411c-.092-.252-.14-.5-.151-.749a3.29 3.29 0 0 0-.119-.749.913.913 0 0 0 .043-.156c.011-.054.028-.107.044-.155.021-.055.028-.098.011-.142-.017-.037-.033-.085-.055-.133a8.758 8.758 0 0 1-.043-.583 8.528 8.528 0 0 0-.048-.55.558.558 0 0 1 .021-.297.52.52 0 0 0 .027-.295 7.126 7.126 0 0 1-.065-.303 2.265 2.265 0 0 1-.026-.328.608.608 0 0 1 .005-.275.926.926 0 0 0 .038-.27c-.14 0-.269.006-.382.022a2.946 2.946 0 0 1-.389.021L0 1.542a.111.111 0 0 0 .037-.087c.006-.043.012-.074.012-.092 0-.112 0-.23.005-.355C.059.879.075.771.092.68A.998.998 0 0 1 .253.507C.306.465.36.415.409.367c.07 0 .141.006.205.011A.531.531 0 0 0 .819.367c.221-.043.447-.043.679 0-.032 0-.075.027-.135.086a.544.544 0 0 0 .243.038c.08 0 .156-.011.232-.026.075-.017.156-.033.237-.05A.892.892 0 0 1 2.317.41c.048.022.081.016.103-.016a.198.198 0 0 0 .032-.119M.684.955h-.14a.637.637 0 0 0 .162.043c.054.01.092.043.113.092.022.021.043.027.07.015a.297.297 0 0 1 .113-.015c0-.023.006-.043.022-.065a.134.134 0 0 0 .022-.07C1.024.976.997.986.954.992.916.998.884.998.862.998V.912h.049V.863a.23.23 0 0 1-.092.049.479.479 0 0 0-.135.043m-.14.184c.053 0 .092.004.113.009a.067.067 0 0 0 .07-.009c-.059-.066-.118-.066-.183 0m.049.133c0 .048.004.076.021.076s.026-.011.033-.022a.079.079 0 0 0 0-.048C.64 1.262.619 1.262.593 1.272m.678-.225c-.02 0-.037.01-.043.026a.25.25 0 0 1-.048.066c.021 0 .048-.012.091-.028.044-.011.072-.021.092-.021.022 0 .038.01.06.031.01.012.021.018.032.018.049-.022.092-.039.13-.055.031-.017.048-.059.048-.129a.447.447 0 0 0-.178.031c-.054.017-.112.039-.184.061m.044 1.81c.091 0 .108-.027.048-.091-.02 0-.037.01-.054.032-.016.02-.01.044.006.059m.275 4.128c0 .023.006.044.021.066a.12.12 0 0 1 .022.069h-.092c.055 0 .092.023.119.06.021.043.06.053.113.032 0-.032.027-.075.086-.135a.231.231 0 0 1-.226-.14.13.13 0 0 0 .07-.021.118.118 0 0 1 .07-.023v-.134a.164.164 0 0 0 .086.038.605.605 0 0 0 .091.006.201.201 0 0 0-.063-.044.227.227 0 0 1-.072-.048.224.224 0 0 0-.112.113.583.583 0 0 1-.113.161m.043-3.853c0 .026.01.044.027.044.01 0 .021-.006.026-.023.006-.016.006-.026 0-.038-.005-.01-.021-.005-.053.017m.048 2.856c.027 0 .042.011.042.028v.015c.023 0 .055.012.092.022a.291.291 0 0 0 .092.027v.043h-.226c0 .032-.016.06-.048.092.032 0 .053-.006.064-.017l.026-.032c.023 0 .044.011.072.027.02.011.048.022.064.022 0-.032.032-.075.091-.135a.24.24 0 0 0-.059-.049c-.021-.01-.032-.021-.032-.043h-.178zm0-3.945v.135c.039-.092.097-.135.178-.135 0-.01.006-.022.017-.031a.083.083 0 0 0 .031-.061c-.054.022-.092.038-.112.043l-.114.049m0 .183c0 .016 0 .038.005.049.006.016.034.016.087-.006 0-.021-.011-.038-.033-.053-.02-.017-.037-.011-.059.01m.042 1.224c0 .06-.015.103-.042.134.07 0 .114-.016.13-.053a.36.36 0 0 1 .096-.129v-.044a.311.311 0 0 0-.112.06c-.028.021-.049.032-.072.032m0 .771c0 .048.017.076.055.08.033.006.065.006.081.006.022 0 .037-.006.048-.022.012-.016.023-.021.043-.021a.223.223 0 0 1-.112-.022c-.027-.016-.06-.021-.115-.021m.362 2.037l-.043.049v-.049c-.059 0-.108.016-.135.049-.02.015-.054.021-.092.009a.778.778 0 0 0-.092-.009v.043c.092.021.19.021.297.005a.409.409 0 0 1 .297.086c0-.021.011-.038.043-.048.032-.006.043-.022.043-.043a.379.379 0 0 1-.135-.022.337.337 0 0 0-.134-.021c.033 0 .043-.006.043-.017v-.032h.091v-.043c-.047 0-.101-.011-.156-.022a.59.59 0 0 0-.162-.027c.061.064.108.092.135.092M1.773.955c.005.031.022.043.038.043.01 0 .021-.006.027-.022.005-.016.005-.027-.006-.038-.011-.01-.032-.004-.059.017m0 4.306l.042.091a.122.122 0 0 0 .072-.022c.02-.016.058-.021.112-.021-.032-.032-.049-.064-.049-.091-.02 0-.047 0-.091.005-.038.005-.07.016-.086.038m0 3.04c.016.021.054.032.114.043.053.01.107.027.155.049 0 .047-.016.08-.043.085-.032.01-.065.022-.092.028a.156.156 0 0 0-.075.026c-.021.017-.027.043-.017.087h.044c.032 0 .048-.018.048-.049v.092c.05 0 .081 0 .098-.006.015-.006.01-.032-.006-.086.038-.092.113-.135.226-.135 0-.021-.01-.042-.026-.07a.148.148 0 0 1-.022-.064.528.528 0 0 1-.205.015 1.421 1.421 0 0 0-.199-.015m.361.588c0 .02.016.043.043.07.033.021.048.048.048.063-.07.022-.14.038-.205.054a.36.36 0 0 1-.205-.006.483.483 0 0 1 .044.179c.054 0 .108 0 .161-.005a.255.255 0 0 0 .157-.082.21.21 0 0 0 .048-.064c.012-.016.022-.028.043-.028 0-.052-.01-.09-.031-.129-.016-.037-.055-.052-.103-.052m-.135-6.393c-.065.059-.108.092-.14.092h.14c-.011.021-.022.031-.032.043-.022.032-.037.049-.06.049.023 0 .033.004.043.021.012.016.027.022.049.022a.146.146 0 0 1 .065-.043l.113-.049v-.043h-.092v-.092h-.086zm0 7.297a.218.218 0 0 1-.069.049.194.194 0 0 0-.071.043l.091.049v.085c.055-.015.098-.031.135-.037.044 0 .087-.006.14-.006 0 .022.012.043.043.071.033.021.049.049.049.064h.043c0-.015-.021-.049-.059-.092-.043-.037-.037-.07.016-.085l-.14.042.091-.134-.091.092v-.092c-.027 0-.076.027-.135.092l.092-.092a.18.18 0 0 0-.135-.049m-.092-6.209a.918.918 0 0 0 .113-.059c.022-.021.06-.033.114-.033v-.016c0-.015-.016-.026-.049-.026a.323.323 0 0 0-.086.026.22.22 0 0 0-.092.108m.361 3.72c-.058.059-.091.102-.091.133a.41.41 0 0 0-.157-.031c-.053 0-.09.027-.113.074a.449.449 0 0 1 .104 0c.043.012.08.023.112.034a.2.2 0 0 0 .092.005c.027-.005.043-.033.053-.082.049 0 .097-.004.135-.004.044-.005.086-.022.141-.038l-.049-.049a.099.099 0 0 1-.065-.021.226.226 0 0 0-.113-.021h-.049zM1.95 3.041a.122.122 0 0 1-.016.059c-.004.021-.004.032.016.032h.227a.306.306 0 0 0-.227-.091m0 4.984a.38.38 0 0 0 .184.141c.07.016.13 0 .183-.049-.064 0-.107.016-.14.049 0-.022 0-.055-.005-.092a.148.148 0 0 0-.038-.092c-.033.033-.092.043-.184.043m.049-2.49c.027 0 .043.027.043.087.049-.017.087-.032.113-.043a.252.252 0 0 0 .07-.044h-.226zm0 5.439c.108 0 .211-.005.307-.022.097-.017.189-.021.281-.021a.19.19 0 0 0-.211-.027c-.07.037-.151.031-.242-.021-.022-.018-.043-.018-.07.015-.022.033-.049.054-.065.076m.173-6.3c.086.011.119-.022.096-.092h-.226c0 .049.043.08.13.092m-.06 5.869a.13.13 0 0 1-.07.021c.038.08.113.096.226.048-.058 0-.091-.032-.091-.091a.1.1 0 0 0-.065.022m-.027-8.139c.065 0 .092.017.092.049.033.027.048.086.048.178.049-.016.092-.049.135-.081a.188.188 0 0 1 .135-.054c-.027 0-.043-.006-.043-.016v-.027c-.022 0-.038.005-.049.022-.011.015-.021.021-.043.021a.371.371 0 0 1-.123-.075c-.027-.032-.082-.038-.152-.017m0 1.768h.183c0-.016-.004-.032-.021-.043s-.022-.028-.022-.049a.197.197 0 0 0-.14.049v.043zm.049-2.582c.048 0 .087-.01.113-.031.027-.023.049-.039.07-.06a.237.237 0 0 0-.118.026l-.065.065m0 6.209c0 .033.005.049.021.049.017 0 .027-.01.033-.028a.047.047 0 0 0 0-.037c-.006-.006-.021 0-.054.016m.091-5.805c0 .055-.01.098-.026.141-.011.038-.022.07-.022.091h.048v-.048c.071-.022.097-.049.092-.092-.011-.037-.043-.07-.092-.092m0 4.086c.028 0 .049-.006.059-.017l.033-.032a.547.547 0 0 0 .113.038c.022.005.043.011.065.011v-.049h-.092v-.043a.205.205 0 0 0-.112.028c-.023.021-.049.043-.066.064m.14-4.754c.007.011.033.011.087-.011 0-.016-.011-.037-.032-.053-.022-.011-.038-.011-.06.01 0 .022 0 .038.005.054m.038 1.85c0 .031.006.048.017.048.01 0 .015-.011.021-.027a.044.044 0 0 0 0-.039c-.006-.005-.015-.005-.038.018m.453 2.677c-.027 0-.059-.015-.087-.047l.044.133a.25.25 0 0 0-.188-.113.633.633 0 0 0-.222.027l.141.135c.048 0 .092-.011.135-.021a.347.347 0 0 1 .134-.028v.033c0 .032.016.049.043.059 0-.021 0-.049-.005-.08-.005-.038-.016-.055-.038-.055.07-.021.129-.037.173-.043a.853.853 0 0 0 .146-.047.43.43 0 0 1-.158-.033c-.058-.017-.096.005-.118.08m-.01-3.88c.015.06.053.108.102.162a.26.26 0 0 1-.113.043.226.226 0 0 0-.113.048c.047 0 .091-.01.113-.027a.232.232 0 0 1 .113-.021c.022.199.043.404.059.603.022.205.033.395.033.577a.364.364 0 0 1-.092.065c-.038.027-.07.048-.092.069.022 0 .043.006.07.022a.124.124 0 0 0 .07.022.206.206 0 0 0-.091.032.122.122 0 0 1-.049.016v.044c.033.011.043.021.033.032a.27.27 0 0 1-.054.037c-.022.017-.049.033-.075.055-.023.016-.038.037-.038.058.021-.021.059-.037.124-.042.059-.01.08.016.059.086 0 .054-.016.091-.049.113a.155.155 0 0 0-.043.113v.243c0 .091-.044.146-.134.167.07-.021.112 0 .134.06a.219.219 0 0 1 0 .167c-.049.07-.102.14-.156.205a.436.436 0 0 0-.113.204.74.74 0 0 0 .247-.038c.076-.027.157-.011.249.038a.522.522 0 0 1 .236-.092c.081-.011.173.022.264.092a.922.922 0 0 1 .168-.054.332.332 0 0 1 .193.012.611.611 0 0 0 .383.085c.151-.011.275-.022.389-.043 0 .021.005.043.021.069a.105.105 0 0 1 .022.066c.021-.048.053-.066.091-.054.042.016.086.032.134.054 0-.07.038-.103.109-.097.07.005.14.005.21.005.021 0 .043-.011.07-.043.026-.032.049-.042.07-.042a.628.628 0 0 1 .27-.012.33.33 0 0 0 .269-.08c.033-.033.075-.017.14.042 0-.048-.005-.107-.011-.173-.005-.064.032-.095.103-.095a.834.834 0 0 1-.103-.297.549.549 0 0 0-.129-.297.167.167 0 0 0 .048-.065.296.296 0 0 1 .044-.07c-.017-.048-.038-.102-.059-.156a.472.472 0 0 1-.033-.162.94.94 0 0 0-.065-.194c-.027-.064-.005-.119.065-.167a.62.62 0 0 0-.059-.134.371.371 0 0 1-.027-.14.152.152 0 0 1 0-.135c.016-.039.016-.07 0-.092-.021-.14-.038-.275-.054-.404a1.659 1.659 0 0 1 .006-.41h-.043c-.034 0-.049-.016-.049-.049 0-.016.021-.037.064-.064.038-.028.032-.065-.015-.114-.049.023-.098.038-.135.06a.273.273 0 0 1-.092.032v.135c-.07 0-.108-.027-.108-.075a.454.454 0 0 0-.027-.152c-.053.023-.092.023-.113.006a1.413 1.413 0 0 0-.113-.054c0 .054-.011.092-.028.113a.226.226 0 0 0-.021.113c-.092.022-.14-.005-.151-.08a.349.349 0 0 1 .017-.188c-.055 0-.092-.006-.114-.022a.217.217 0 0 0-.113-.022.301.301 0 0 1-.2.125c-.08.015-.118.08-.118.187a.326.326 0 0 1-.129-.086c-.038-.043-.054-.027-.054.043l-.226-.225a.948.948 0 0 1-.222.113.468.468 0 0 0-.183.112.392.392 0 0 1-.237-.075 1.925 1.925 0 0 1-.173-.15.279.279 0 0 1-.188.081c-.075.004-.151.009-.221.009 0 .049.011.104.033.157m-.033 4.511c.022.092.033.178.033.259 0 .081.032.146.102.194-.107 0-.184.048-.226.14a.421.421 0 0 0 .113-.065.216.216 0 0 1 .113-.027c.022.2.038.405.048.61.011.21.021.424.044.657a.599.599 0 0 1-.092.07c-.038.027-.07.049-.092.071h.14c-.022.015-.043.037-.07.058-.027.022-.065.027-.113.027l.092.092a.55.55 0 0 1-.092.071.686.686 0 0 0-.091.064c.021 0 .047-.012.091-.038.043-.022.07-.011.092.038.021.054.005.08-.038.086-.049.006-.081.006-.098.006h.136c-.049.054-.081.101-.087.162-.005.053-.005.111-.005.172a.965.965 0 0 1-.016.172.191.191 0 0 1-.075.129l.091.091c.022.108-.016.221-.114.325a.406.406 0 0 0-.112.355c.07-.021.139-.038.204-.054.065-.016.135.005.205.054a.767.767 0 0 1 .27-.092.376.376 0 0 1 .274.092.55.55 0 0 1 .254-.092.401.401 0 0 1 .291.092c.188.049.399.049.631 0 .032 0 .048.032.048.092.048 0 .097 0 .135.005.037.005.086.022.134.038 0-.028.006-.049.017-.06l.033-.026a.42.42 0 0 0 .172-.038c.043-.027.092-.017.145.038a.405.405 0 0 0 .043-.065c.011-.017.028-.027.043-.027.07-.021.151-.032.237-.038.086-.005.172-.011.264-.011.022-.015.055-.043.098-.075a.24.24 0 0 1 .173-.017.35.35 0 0 1 0-.312 1.418 1.418 0 0 1-.115-.297.93.93 0 0 0-.112-.296c.065-.059.091-.118.091-.178a.565.565 0 0 1-.091-.237c-.011-.086-.022-.172-.044-.264-.021-.021-.021-.048-.005-.091a.283.283 0 0 1 .049-.092.363.363 0 0 0-.044-.178.35.35 0 0 1-.048-.183c.022-.081.027-.162.016-.248s-.022-.172-.038-.258c-.01-.087-.027-.173-.037-.265a.757.757 0 0 1 .015-.269c.022-.054.017-.082-.015-.086-.027-.006-.055-.006-.075-.006l.134-.134c-.049-.055-.102-.066-.157-.043a.37.37 0 0 1-.155.043v.042c0 .033-.017.044-.049.044-.049 0-.064-.022-.043-.076.017-.049.017-.086 0-.102a1.891 1.891 0 0 0-.135-.049c-.044-.01-.075-.021-.092-.043a1.188 1.188 0 0 0-.048.135c-.011.043-.038.07-.086.091-.022 0-.044-.016-.065-.054a.218.218 0 0 1-.026-.08v-.14h-.184a.623.623 0 0 1-.243.107.206.206 0 0 0-.167.167.267.267 0 0 1-.043-.032c-.032-.01-.049-.027-.049-.059a.179.179 0 0 1-.058.049c-.017.005-.028.021-.028.042l-.274-.274a.276.276 0 0 1-.19.128.535.535 0 0 0-.215.104.314.314 0 0 1-.243-.049 1.289 1.289 0 0 1-.214-.183c-.081.113-.201.145-.362.091m-.183.183c-.016.05 0 .092.064.118.06.033.097.024.119-.026-.022-.054-.049-.085-.091-.097-.039-.016-.071-.016-.092.005m0-4.759c0 .016.021.038.053.049.039.016.066.016.086-.006.017-.021.006-.037-.037-.054-.049-.016-.081-.01-.102.011m.049 4.985c-.054.049-.049.071.015.054.06-.015.097-.031.119-.054 0-.021-.022-.032-.07-.032-.044 0-.064.011-.064.032m.77-1.179c.06.059.091.107.091.139a.862.862 0 0 0-.204.022.862.862 0 0 1-.204.021l-.136.135c.049 0 .092 0 .13-.006.032-.004.049-.031.049-.086.053 0 .08.022.085.055.006.037.006.08.006.129a.328.328 0 0 0 .113-.07.5.5 0 0 1 .114-.065c0-.064.016-.107.047-.135.05 0 .103 0 .157.011a.327.327 0 0 0 .161-.011C3.837 5.8 3.8 5.783 3.74 5.8a1.359 1.359 0 0 0-.156.053c-.022-.021-.037-.053-.044-.101-.01-.044-.042-.055-.091-.038m-.317-4.399c.009.033.02.048.037.048.016 0 .027-.01.032-.026 0-.011 0-.027-.011-.038-.01-.005-.032 0-.058.016M3.266.68c.07 0 .145.005.22.015a.17.17 0 0 1 .146.125h.027c.011 0 .032-.016.06-.049 0 .033.004.054.016.065l.031.027c.049 0 .092.005.135.022a.383.383 0 0 0 .136.027.295.295 0 0 0-.21-.13.55.55 0 0 1-.243-.102c-.049 0-.103 0-.156-.012a.338.338 0 0 0-.162.012m0 .635c.032.033.048.076.048.14.06-.064.103-.092.135-.092-.032-.031-.092-.048-.183-.048m.592 9.433c0 .031-.031.074-.092.135.049-.018.087-.033.115-.039.02-.005.058-.005.112-.005a.605.605 0 0 0 .061.065c.02.027.031.065.031.117.07 0 .124-.02.173-.052a.524.524 0 0 1 .139-.086.768.768 0 0 0-.172.015c-.044.011-.091-.011-.14-.059 0-.113-.075-.14-.227-.091m0 .273c.017 0 .033.006.043.028a.29.29 0 0 0 .044.06c.065-.06.092-.103.092-.135a.552.552 0 0 0-.113.016c-.054.011-.092.005-.114-.016h.017c.02 0 .031.016.031.047m.043-9.796c.049-.018.098-.023.136-.006.043.015.086.032.134.053a.062.062 0 0 1-.043-.059v-.032h-.227v.044zm.637 4.581c.069.02.145.047.226.075a.229.229 0 0 0 .227-.028c-.012 0-.022-.005-.033-.015-.022-.022-.037-.032-.059-.032-.033 0-.076.032-.135.09l.043-.09c-.091-.092-.177-.092-.269 0m.092 5.033a.209.209 0 0 1-.028.113c-.01.026-.021.049-.021.069.032.028.058.044.092.044 0-.021.005-.038.021-.044.017-.009.022-.026.022-.047-.071-.048-.077-.091-.022-.119.054-.033.109-.021.162.028.005 0 .016-.006.027-.018.021-.015.043-.026.058-.026a.354.354 0 0 0-.311 0m0-9.792c.005.026.021.043.037.043.011 0 .021-.006.027-.023.005-.015.005-.026-.006-.038-.01-.01-.032-.004-.058.018m.134-.049c.07.021.135.031.205.037.064.006.129.012.205.012-.022 0-.037-.012-.049-.022-.011-.017-.027-.027-.042-.027h-.319zm.227.501c.048-.022.085-.044.112-.06.027-.021.049-.032.071-.032h-.183v.092zm.587 4.263h-.043v.044a.243.243 0 0 1-.222.032c-.075-.032-.139-.012-.188.058-.049.022-.075.043-.08.071a.43.43 0 0 0-.012.113c.06-.064.092-.124.092-.184.092 0 .178.017.264.055.086.031.163.059.238.08V5.67c-.032.027-.049.049-.049.059v.033zm-.361.361a.145.145 0 0 0-.071.021.107.107 0 0 1-.063.022c.091.092.177.092.268 0a.098.098 0 0 1-.064-.022.142.142 0 0 0-.07-.021m-.092-4.581c0 .054.012.081.032.086a.188.188 0 0 0 .06.006c0-.022-.006-.038-.011-.06 0-.021-.032-.032-.081-.032m.318 9.567c.022 0 .043.01.071.027.021.01.042.021.064.021a.621.621 0 0 0 .07-.087c.022-.031.065-.049.114-.049l.043-.047a.36.36 0 0 0-.195.053 1.156 1.156 0 0 1-.167.082m.362-9.884c-.06.064-.119.09-.178.09.07 0 .144 0 .226-.005a.41.41 0 0 0 .226-.085c-.07 0-.14 0-.199-.006a.293.293 0 0 1-.167-.08l.092.086zm-.092 4.806c0 .022.021.038.053.055.039.015.066.01.087-.006.016-.055.005-.086-.038-.103-.049-.01-.081.005-.102.054m.226 4.76c.022.021.059.031.108.031.053 0 .075-.01.075-.031-.022-.017-.054-.027-.108-.027-.048 0-.075.01-.075.027m.275.183c-.048 0-.092.004-.129.004-.033.012-.054.023-.054.043 0 .049.037.061.108.028.07-.028.096-.054.075-.075m-.092-4.808c.033.032.092.049.183.049l-.047-.049h-.136zm.092-3.94c.021-.021.049-.032.091-.032.038 0 .071.027.092.075h.092v-.015c0-.023.011-.028.043-.028a1.173 1.173 0 0 1-.113-.048c-.027-.01-.065-.028-.114-.043-.058 0-.091.027-.091.091m.41 2.313c-.022.069-.07.113-.152.135-.08.021-.124.064-.124.135 0 .021-.016.031-.053.037-.032.005-.06.005-.081.005a.343.343 0 0 1 .113.071l.07.07a.178.178 0 0 0 .135-.05c-.06-.058-.076-.102-.043-.133l.269-.135-.134-.135zm-.276-3.132c.022.07.065.092.141.06a.153.153 0 0 1 .177.032c-.01.06-.031.097-.069.108a.734.734 0 0 1-.108.01c-.043 0-.081.006-.119.011-.031.006-.054.021-.065.054a.297.297 0 0 0 .157.011c.059-.006.107-.011.162-.011a.26.26 0 0 1 .064-.114c.028-.026.048-.048.07-.069a.627.627 0 0 0-.113-.044.191.191 0 0 1-.07-.048c-.107 0-.141-.044-.086-.135l-.141.135zm0 1.089c.022-.021.054-.043.092-.07.037-.022.071-.049.092-.065.049 0 .075.022.075.075a.104.104 0 0 1-.075.103c.011 0 .022 0 .032-.011a.077.077 0 0 1 .06-.032v-.043c.015-.021.054-.038.112-.054.055-.016.092 0 .113.054-.021.049-.015.059.017.037a.108.108 0 0 1 .075-.037l.135-.141c-.021 0-.054.006-.092.011a.156.156 0 0 0-.092.038l-.026-.032c-.011-.011-.017-.027-.017-.06a4.12 4.12 0 0 0-.113.108.212.212 0 0 1-.112.027c0-.021-.012-.043-.027-.064-.011-.028-.022-.049-.022-.071a.658.658 0 0 0-.151.092c-.048.038-.076.086-.076.135m0 1.358a.143.143 0 0 0 .141-.01.33.33 0 0 1 .135-.076.226.226 0 0 0-.162-.01.17.17 0 0 0-.114.096m.049-.544c.005.032.022.048.037.048.012 0 .022-.01.028-.021.006-.017.006-.032-.006-.038-.01-.01-.032-.005-.059.011m.452.226h-.452v.048a.59.59 0 0 1 .157.021.496.496 0 0 0 .162.023v.048a.263.263 0 0 0 .268 0h-.226l.044-.092h.139c.028-.031.043-.074.043-.134-.031 0-.075.026-.135.086m-.274 3.897c.054 0 .113.004.183.004a.237.237 0 0 1-.032.092c-.01.022-.01.033-.01.043a.926.926 0 0 0-.141.071.188.188 0 0 0-.086.113.334.334 0 0 1 .215-.075.221.221 0 0 0 .188-.109h-.09c.053-.048.097-.074.139-.08a.824.824 0 0 1 .135-.012c-.021-.069-.064-.09-.135-.074a.656.656 0 0 1-.183.031.19.19 0 0 0-.166-.058c-.06.011-.124.016-.195.016.071.016.129.033.178.038M6.44 4.172c.032 0 .075.033.135.092a.178.178 0 0 1 .07-.043.226.226 0 0 0 .071-.049.24.24 0 0 1-.092-.022.29.29 0 0 0-.092-.021h-.043c-.033 0-.049.015-.049.043m.049 2.086c-.033 0-.049.016-.049.049v.043a.495.495 0 0 1 .135-.039c.043-.004.086-.004.141-.004a.779.779 0 0 0-.119-.039.597.597 0 0 0-.108-.01m-.012.367c.017 0 .028-.012.034-.027a.038.038 0 0 0-.011-.039c-.011-.01-.028-.004-.06.017.011.032.022.049.037.049m.012-1.541a.222.222 0 0 1 .172 0c.065.016.097 0 .097-.05-.048 0-.097.006-.134.006a.433.433 0 0 0-.135.044m0 2.17c.005.033.022.05.032.05.016 0 .027-.011.033-.023a.063.063 0 0 0-.006-.043c-.011-.005-.033 0-.059.016m.135 1.726a.125.125 0 0 0-.076.032c-.033.016-.037.037-.016.058.049.023.092.006.118-.048.032-.047.023-.063-.026-.042m.134-6.484a.567.567 0 0 0-.038.113c-.004.028-.004.065-.004.114-.023 0-.055.005-.092.005a.183.183 0 0 0-.092.038.533.533 0 0 1 .226.048.962.962 0 0 0 .053-.162c.017-.053-.004-.107-.053-.156m-.226 5.303c0 .021.005.043.022.07a.141.141 0 0 1 .021.065.116.116 0 0 0 .07-.022.133.133 0 0 1 .071-.021c-.055 0-.092-.011-.119-.033-.022-.016-.043-.038-.065-.059m0 2.135a.199.199 0 0 0 .134.042l-.042.043c.026 0 .049 0 .058-.009l.034-.034c0-.048-.023-.075-.055-.075a.323.323 0 0 0-.129.033m.043-1.725c.022.021.037.032.049.032.011 0 .037-.011.092-.032-.023-.022-.038-.033-.05-.033a.472.472 0 0 0-.091.033m.049-5.94c0 .033.005.043.021.043s.028-.004.028-.021c.005-.016.005-.027 0-.037 0-.012-.023-.006-.049.015m.042 2.582c.07 0 .125.028.151.076a.603.603 0 0 0 .075.107c0-.011.007-.02.017-.026.021-.022.032-.043.032-.066a.283.283 0 0 0-.092-.042.188.188 0 0 1-.091-.049.127.127 0 0 0 .07-.021.098.098 0 0 1 .064-.021.105.105 0 0 1-.064-.022c-.026-.018-.064-.021-.112-.021 0 .058-.017.085-.05.085m0 4.263c0 .032.007.048.022.048.016 0 .028-.01.032-.026a.042.042 0 0 0 0-.038c-.004-.005-.021-.005-.054.016m.108-5.093c.06.032.098.022.118-.027.023-.054.011-.075-.037-.075-.044 0-.075.005-.097.026-.048.022-.042.049.016.076m-.016 3.778a.217.217 0 0 0 .07.049.19.19 0 0 1 .064.043c.049-.022.081-.049.087-.092.005-.037.005-.086.005-.135a.696.696 0 0 1-.226.135m0 2.177c0 .022 0 .043.006.06.005.022.032.032.085.032 0-.049-.004-.08-.01-.086-.005 0-.032-.006-.081-.006m.183-5.755c-.064.058-.107.086-.139.086a.4.4 0 0 0 .139.038c.038.005.081.01.135.01 0-.058-.016-.107-.049-.134l-.043.086-.031-.028c-.012-.01-.012-.031-.012-.058m-.092-1.59c.017 0 .05 0 .092-.006.038-.006.071-.016.086-.037l.049-.049a2.271 2.271 0 0 1-.135.049.225.225 0 0 0-.092.043m.023 4.623c.016 0 .027-.004.031-.021.006-.016.006-.027 0-.038-.004-.01-.026-.005-.054.017 0 .026.006.042.023.042m.112 1.451l-.135.14c.017 0 .05-.011.092-.021a.278.278 0 0 1 .086-.027c0-.061-.011-.092-.043-.092m-.043-3.854c.06 0 .086-.011.086-.042-.048-.022-.074-.022-.081-.006-.005.01-.005.032-.005.048m0 2.134c.005.027.022.044.038.044.011 0 .022-.006.028-.021.005-.018.005-.028-.006-.039-.011-.01-.032-.005-.06.016m.043 2.991c0 .049 0 .076.006.076a.768.768 0 0 0 .086-.033.121.121 0 0 0-.011-.048c-.005-.016-.032-.016-.081.005m.092-2.764c.021 0 .038-.017.06-.048.01-.006.021-.021.032-.044-.054-.048-.092-.048-.124.005-.028.06-.022.087.032.087m0-1.59a.234.234 0 0 1 .092-.113.19.19 0 0 0 .086-.114c-.028-.026-.043-.086-.043-.177a.607.607 0 0 1-.118.204c-.066.065-.071.131-.017.2M11.458.502a2.21 2.21 0 0 1 .296-.248c.103-.076.2-.162.292-.254a.085.085 0 0 1-.028.059.05.05 0 0 0-.015.033.888.888 0 0 0 .264.022.373.373 0 0 1 .236.069c.065.022.13.043.179.077a.213.213 0 0 0 .182.015l.044-.092c.07 0 .108.028.113.077.005.047.042.086.113.107.021 0 .044-.021.071-.055.02-.037.063-.063.112-.086.071.055.135.098.189.141.053.037.13.07.221.086a.347.347 0 0 1 .119.092.124.124 0 0 1 .016.135c.048-.016.08-.039.092-.065.005-.027.022-.064.042-.113.05.049.081.107.092.178.012.076-.022.134-.092.183.021 0 .043.005.07.022a.143.143 0 0 0 .065.027c-.011.155 0 .312.032.463.033.15.064.307.098.464.037.155.064.307.091.463.028.151.028.307.005.464.071 0 .114.026.13.076.016.052.032.101.054.155.092.292.129.593.112.905-.015.314.023.615.114.906.021.092.076.14.167.145a.479.479 0 0 1 .243.081c0 .05-.011.098-.033.135-.022.044-.038.087-.059.139.07.201.135.406.194.61.065.205.103.41.124.615.022.07.027.129.022.172a.286.286 0 0 0 .021.145c.092.162.173.319.237.48.065.162.108.334.129.518v.496c.222.415.356.868.405 1.363v.086c0 .055.01.108.026.162a.755.755 0 0 1 .023.156c.161.022.307.028.442.017.14-.011.274-.017.42-.017a.19.19 0 0 0 .086.113c.043.028.07.065.092.114 0 .092.004.188.016.296a.904.904 0 0 1-.016.297c-.022.016-.038.032-.06.043-.021.01-.032.027-.032.047 0 .018.005.049.011.088.005.042.016.07.038.091h-.135v.135a.595.595 0 0 1-.253.011l-.248-.054c-.07.02-.141.048-.211.081a.505.505 0 0 1-.242.053.917.917 0 0 0-.296 0 .42.42 0 0 1-.291-.042.838.838 0 0 0-.227.075.398.398 0 0 1-.231.015c-.179 0-.362.006-.551.012-.188.01-.382.005-.582-.012l-.269-.274a.303.303 0 0 0 .065-.194.43.43 0 0 1 .02-.167c0-.091.007-.179.017-.264a.54.54 0 0 0-.017-.237.367.367 0 0 0 .184-.178c.07 0 .151.005.238.022.08.015.172.021.264.021v.092c.07.021.145.021.227.005.08-.011.155-.033.225-.048-.021-.076-.026-.153-.021-.233a.396.396 0 0 0-.071-.226 3.1 3.1 0 0 1-.22-.544 8.207 8.207 0 0 0-.189-.544.958.958 0 0 0-.092-.248.92.92 0 0 1-.086-.248.335.335 0 0 0 .011-.168c-.011-.059-.011-.123-.011-.193 0-.065-.016-.108-.048-.141-.14 0-.275.012-.411.027a4.297 4.297 0 0 1-.403.022 2.16 2.16 0 0 0-.318.021 1.96 1.96 0 0 1-.318.022 1.088 1.088 0 0 0-.69-.043 2.861 2.861 0 0 1-.717.092c-.069.361-.14.722-.221 1.088-.075.361-.167.722-.275 1.083.092-.015.173-.031.248-.037.075 0 .156-.006.248-.006l.049-.043c.07.071.135.135.193.2.061.07.119.134.168.205v.183l-.134-.134c-.022.139-.022.285.004.43.028.146.038.286.038.431l-.269.269h-.41c-.031.034-.043.061-.043.092-.054 0-.097 0-.141.006-.037.006-.085.022-.135.037a.346.346 0 0 0-.069-.113c-.021-.022-.043-.048-.064-.065-.114 0-.227-.004-.34-.009a.951.951 0 0 1-.34-.081.846.846 0 0 0-.274.268.637.637 0 0 0-.184-.021c-.048.006-.107-.016-.177-.071-.022-.015-.033-.047-.038-.086-.006-.042-.012-.07-.012-.09a4.77 4.77 0 0 1-.403-.017 1.319 1.319 0 0 0-.366.017v.09l-.271-.274a2.87 2.87 0 0 1-.031-.409.89.89 0 0 0-.103-.404h-.048c-.028 0-.044-.017-.044-.049.07-.071.14-.135.211-.205a3.27 3.27 0 0 1 .242-.2c.07.016.141.038.211.049.069.016.15.016.242-.006l.043-.043c.075.016.135.043.184.065a.923.923 0 0 0 .183.07c.048-.021.07-.058.059-.124a1.061 1.061 0 0 1-.017-.194c0-.161.017-.318.049-.475.027-.155.043-.316.043-.478.049-.248.124-.481.227-.686.102-.209.22-.404.361-.582 0-.07-.006-.144-.011-.225a.588.588 0 0 1 .011-.227c.054-.231.107-.452.161-.652.055-.201.151-.394.292-.572.021-.053.016-.097-.022-.139a.126.126 0 0 1-.022-.135 4.16 4.16 0 0 0 .189-.792c.038-.26.082-.523.128-.793.092 0 .152.011.184.043a.843.843 0 0 1 .06-.135.237.237 0 0 0 .032-.092.414.414 0 0 0-.141.092.42.42 0 0 1-.135.092c-.02-.07-.015-.129.007-.167a.401.401 0 0 1 .102-.108l.125-.091c.048-.027.074-.075.085-.136-.07 0-.123.027-.151.076a.756.756 0 0 1-.124.151c.091-.543.21-1.082.351-1.621.14-.54.264-1.073.377-1.596M8.871 10.704a.118.118 0 0 0-.064.021.13.13 0 0 1-.071.023c.054.021.097.021.135.004.043-.01.087-.031.141-.048l.026.026c.012.012.032.018.065.018v-.044a.196.196 0 0 0 .135.044.221.221 0 0 0 .042-.07.312.312 0 0 1 .049-.066.67.67 0 0 0-.242.044.526.526 0 0 1-.216.048m.636.135c.011.026.021.044.038.044.015 0 .027-.006.032-.023.005-.016 0-.026-.005-.038-.012-.01-.033-.005-.065.017m.183.226a.154.154 0 0 0 .114.092c.053.011.107.022.156.043-.07 0-.135.005-.205.011a.924.924 0 0 0-.199.037c.07 0 .134.006.199.012.07.01.135.005.205-.012.032-.031.049-.075.049-.139-.055-.017-.103-.033-.162-.039-.055-.005-.109-.005-.157-.005m.043-.813c.022 0 .054-.006.092-.011.043-.006.07-.017.092-.038 0-.049-.033-.07-.092-.054-.059.016-.092.048-.092.103m.092.135c0 .058.032.058.092 0 0-.065-.033-.065-.092 0m.275-.772c0 .027-.048.043-.14.043.021 0 .038.012.049.023.009.015.02.026.043.026 0 .027.005.049.015.059l.033.027a.114.114 0 0 0 .064-.021.225.225 0 0 1 .113-.022c0-.022.012-.037.032-.043a.19.19 0 0 0 .06-.049.361.361 0 0 1-.135-.021.373.373 0 0 0-.134-.022m0 .863c-.021.016-.011.037.026.048.044.017.06.017.06-.005.054-.048.054-.081.011-.097-.049-.017-.081 0-.097.054m0-2.226v.14a1 1 0 0 0 .134-.07.266.266 0 0 0 .092-.113.27.27 0 0 0-.092.021.373.373 0 0 1-.134.022m.042.728c-.047.021-.042.042.017.075.059.033.103.021.118-.033 0-.015-.015-.037-.053-.048-.033-.015-.06-.015-.082.006m.227-1.699c-.01.012-.026.023-.043.023.108 0 .222-.011.329-.033.112-.021.215-.038.307-.059-.092-.092-.184-.113-.276-.06a.91.91 0 0 1-.273.102c-.017 0-.033.011-.044.027m-.043.793a.34.34 0 0 1 .113.065c.022.027.06.064.114.113 0-.028.016-.059.043-.086a.287.287 0 0 1-.135-.033.917.917 0 0 0-.135-.059m.178-1.224l-.027.027c-.01.012-.033.016-.064.016.031.033.074.044.14.044a.102.102 0 0 0 .064-.021.12.12 0 0 1 .069-.023.123.123 0 0 1-.069-.021c-.021-.016-.059-.022-.113-.022m-.043.63c.021.023.043.028.075.012.033-.016.038-.033.017-.055-.022-.02-.049-.02-.076-.005-.033.011-.038.033-.016.048m0 .502h.135c0 .071.027.114.075.129a.723.723 0 0 1 .15.055v-.049l-.091-.043h.091v-.318c-.047.021-.085.032-.112.043-.026.011-.065.027-.113.049l-.135.134zm.135.637h.225c-.026 0-.047-.006-.058-.018l-.033-.031c0-.07-.016-.082-.047-.027-.039.049-.066.076-.087.076m.134-3.945c0-.071.022-.147.054-.221.037-.076.017-.141-.054-.189-.016.07-.037.14-.047.205-.017.064 0 .134.047.205m-.044 1.265v.092h.184c-.02-.049-.054-.075-.092-.08-.042-.006-.069-.012-.092-.012m.044.911c-.016.027-.021.043-.005.048.016.006.033.006.042 0 .017-.005.028-.009.028-.026 0-.016-.021-.022-.065-.022m0-.727c.011.032.028.043.037.043.017 0 .028-.005.034-.022.005-.015 0-.027-.006-.037-.011-.011-.032-.006-.065.016m.367-.636l.043.048c-.102.049-.22.049-.362 0v.087c.05.02.104.02.168-.006a.476.476 0 0 1 .194-.037v-.044c.07 0 .129-.048.183-.14.059 0 .092.016.092.049v-.092a.944.944 0 0 0-.146.07 1.066 1.066 0 0 1-.172.065m-.319.997c0 .032.006.049.023.049.015 0 .027-.012.032-.027a.047.047 0 0 0 0-.037c-.005-.006-.027 0-.055.015m.092-.404h.404a.738.738 0 0 1-.204-.037c-.065-.027-.13-.018-.2.037m0 .086c.05.021.104.049.157.076.054.032.108.022.161-.027a.58.58 0 0 1-.145-.022.537.537 0 0 0-.173-.027m.043.459a.182.182 0 0 0 .114-.033.36.36 0 0 1 .113-.059c-.059 0-.108-.017-.135-.049-.059.065-.092.108-.092.141m.092-.819c.049.02.096.047.135.075a.12.12 0 0 0 .134.015c.034-.032.049-.075.049-.134-.054.016-.097.033-.145.038-.043.006-.103.006-.173.006m.269 1.044a.36.36 0 0 0-.134.087.333.333 0 0 1-.135.092h.135c.059-.06.107-.092.134-.092 0 .065-.01.108-.043.14.071-.021.13-.043.173-.065a.44.44 0 0 1 .146-.027c0-.059-.016-.092-.049-.092h-.135c-.027 0-.048-.004-.058-.016l-.034-.027zm-.226-2.268v.184c.065-.066.092-.109.092-.141h.032c.006 0 .016.006.021.016.006.011.017.021.038.033v-.049c-.032-.027-.091-.043-.183-.043m.092.679c-.059 0-.059.032 0 .091.048-.022.076-.044.076-.059 0-.022-.028-.032-.076-.032m.048-2.63v.092c.005.032.022.043.043.032.023-.011.033-.027.038-.054a.16.16 0 0 0-.005-.07c-.01-.016-.038-.016-.076 0m.086 4.08c.023 0 .034-.006.038-.022.006-.015.006-.027-.004-.038-.011-.011-.039-.005-.077.016.012.033.028.044.043.044m.092-3.714v.179a.341.341 0 0 1 .092-.066.78.78 0 0 0 .092-.069c-.033-.033-.092-.044-.184-.044m0 .405c.023 0 .043.01.06.031.01.011.021.017.032.017a.219.219 0 0 0 .113-.027c.028-.011.049-.021.071-.021v-.044a.39.39 0 0 0-.141.021.336.336 0 0 1-.135.023m.049.727v.092a.173.173 0 0 0 .113-.033c.022-.022.043-.038.065-.059 0-.022-.028-.032-.076-.032s-.086.01-.102.032m.178 1.179c.059 0 .091-.031.091-.09 0-.023-.015-.027-.053-.017a.386.386 0 0 1-.13.017c0 .059.033.09.092.09m-.043-2.585c.049 0 .102.01.156.032.054.015.098-.005.113-.075h-.226l-.043.043zm1.179-.454c-.053.071-.091.13-.118.172a.477.477 0 0 1-.108.147h-.048c-.032 0-.043-.017-.043-.049 0 .076.006.141.011.199.011.06-.005.104-.059.119.021.114.027.215.021.313 0 .097.021.188.07.28-.049 0-.086.016-.107.048a.238.238 0 0 0-.028.086c.022.092.028.179.022.265a.634.634 0 0 0 .022.231l-.135.141c0 .07.005.134.021.193.017.06.022.119.022.168-.049.021-.076.049-.081.092-.006.037-.006.069-.006.092 0 .161-.021.318-.053.468a.793.793 0 0 1-.221.388.307.307 0 0 1 0 .274.105.105 0 0 1-.065-.021.132.132 0 0 0-.07-.022.296.296 0 0 0 0 .195.22.22 0 0 1 0 .167.204.204 0 0 0 .07.043c.022.01.043.027.065.049-.022.048-.049.07-.092.059a.509.509 0 0 0-.135-.017v.092a.19.19 0 0 1 .092-.049.531.531 0 0 0 .135-.043.127.127 0 0 0 .043-.07.228.228 0 0 1 .049-.064c.02.021.048.043.08.064.038.028.055.006.055-.064l.274.269a.332.332 0 0 1 .178-.135.336.336 0 0 0 .183-.134c.091 0 .167.032.232.096.07.066.124.124.178.173l.134-.135c.071 0 .13.006.184.006.048.004.107.022.178.037a1.961 1.961 0 0 1-.205-.528 2.397 2.397 0 0 0-.206-.556 3.98 3.98 0 0 0 .071-.069.407.407 0 0 1 .113-.07.257.257 0 0 1-.092-.022.26.26 0 0 0-.092-.021.266.266 0 0 1 .066-.038l.081-.048c.026-.011.037-.026.037-.032 0-.012-.027-.016-.092-.016l.071-.07a.414.414 0 0 0 .07-.114c-.023.022-.043.038-.07.043-.027.01-.065.028-.114.049v-.092l-.049-.042a.262.262 0 0 0 .055-.141.517.517 0 0 0-.006-.156.522.522 0 0 1-.005-.151c0-.049.022-.092.048-.146h-.135a.396.396 0 0 1-.015-.189 1.15 1.15 0 0 1 .049-.173c.015-.058.037-.118.053-.171a.54.54 0 0 0 .005-.189c-.07.016-.129.032-.183.037-.048.005-.108.005-.178.005l.135-.134a.996.996 0 0 1-.124-.21.4.4 0 0 1-.011-.242.356.356 0 0 1-.14-.217.283.283 0 0 1 .048-.236.807.807 0 0 1-.069-.092c-.022-.043-.049-.07-.066-.092m-1.045 4.668c.048.053.086.065.114.037a.177.177 0 0 1 .113-.037l-.043-.044c-.022.023-.055.033-.092.039-.044.005-.07.005-.092.005m.362-4.894h-.27a.24.24 0 0 1 .113.092.556.556 0 0 1 .065.134c-.049 0-.086.006-.108.022a.237.237 0 0 1-.119.021.224.224 0 0 0 .092.049c.043.012.07.022.092.043l.059-.135a.246.246 0 0 0 .033-.091c.058 0 .107.016.135.048-.049-.102-.109-.134-.184-.091a.255.255 0 0 0 .118-.092c.022-.043.06-.07.113-.092V1.86a.738.738 0 0 1-.085.07.14.14 0 0 0-.054.113m-.319 1.315a.24.24 0 0 1 .227.134v-.134h-.227zm.141 3.762a.166.166 0 0 0-.064.032c-.038.017-.034.038.015.06.022 0 .054-.006.092-.011a.126.126 0 0 0 .092-.037c0-.018-.017-.033-.054-.039-.033 0-.065-.005-.081-.005m.112-5.4c.023-.027.06-.038.114-.038l.044-.048c-.12 0-.211.032-.27.091.048.022.086.016.112-.005m.023 5.309h-.135c.016 0 .043.01.065.022.026.015.047.026.07.026.02.017.043.032.069.043a.398.398 0 0 1 .066.044c0-.049.009-.087.031-.113.022-.022.038-.043.06-.066-.022 0-.044-.011-.07-.021a.108.108 0 0 0-.065-.027.247.247 0 0 1-.065.048.055.055 0 0 0-.026.044M11.954.912c-.005.026-.005.043.011.048a.063.063 0 0 0 .043 0c.015-.005.021-.011.015-.027-.005-.016-.026-.021-.069-.021m.231-.092c-.064 0-.064.027 0 .092.049-.022.076-.044.076-.065 0-.017-.027-.027-.076-.027m.405 6.392c.054.021.096.038.139.053.038.016.081.012.135-.011a.707.707 0 0 0-.135-.074c-.075-.028-.118-.016-.139.032m.879-4.986a.113.113 0 0 0-.06.043.3.3 0 0 1 .135.033l.135.059c.021-.021.043-.043.07-.059.021-.021.059-.033.113-.033 0-.021-.011-.043-.022-.07a.133.133 0 0 1-.028-.064c-.046.015-.096.033-.138.038a1.79 1.79 0 0 1-.173.005c0 .021-.011.038-.032.048m-.06.815c.049 0 .081.016.097.053.016.033.011.076-.005.13a.253.253 0 0 1 .086-.152.268.268 0 0 0 .092-.123.283.283 0 0 0-.135.032c-.043.021-.086.037-.135.06m.092 3.809c-.023.017-.027.043-.011.076.016.027.049.033.097.011.021-.017.015-.044-.011-.076-.032-.026-.059-.032-.075-.011m.269-3.766h-.183v.048a.21.21 0 0 0 .14.044l.085-.092c.034-.027.055-.043.066-.043h.026a.203.203 0 0 0-.134.043m-.183 4.22a.342.342 0 0 0 .162.01c.054-.006.107-.01.155-.01-.026 0-.048-.006-.058-.017l-.034-.033a.223.223 0 0 0-.112.027.236.236 0 0 1-.113.023m.183-.411h.226l.05-.043a.135.135 0 0 1-.07-.026c-.028-.012-.049-.021-.072-.021a.21.21 0 0 1-.064.047.144.144 0 0 0-.07.043m.092-2.672l.027.027c.01.01.032.016.065.016h.042c.033 0 .05-.016.05-.043-.066-.065-.125-.065-.184 0m0 2.943c.048 0 .086.021.114.053a.642.642 0 0 0 .07.087v-.05l.026.033c.011.011.032.017.059.017v-.05h.226c-.026 0-.043-.027-.043-.09a.883.883 0 0 0-.452 0m.134-2.674c.05.022.104.027.157.016a.983.983 0 0 1 .161-.016l-.043-.043c-.053.016-.097.032-.14.037-.038.006-.085.006-.135.006m0 1.498c0 .07.033.092.097.065.065-.022.125-.043.178-.065a.31.31 0 0 1-.14-.037c-.038-.027-.085-.017-.135.037m.184-.77a.186.186 0 0 0-.049.064.214.214 0 0 1-.043.07h.043l.183-.183a.179.179 0 0 1-.134.049m-.049-.863a.463.463 0 0 0 .14.037.902.902 0 0 0 .135.006c-.033-.027-.049-.058-.049-.091-.048 0-.091 0-.134-.01-.039-.012-.07.01-.092.058m.318 1.04a.392.392 0 0 0-.173.033c-.042.021-.092.038-.145.059.053 0 .081.027.092.075a.79.79 0 0 0 .048.152c0-.05-.01-.092-.027-.135-.01-.038-.021-.07-.021-.092.048-.021.096-.038.145-.054.043-.011.103.006.173.054a.508.508 0 0 1-.038-.113c-.005-.022-.005-.048-.005-.066-.033.028-.049.061-.049.087m-.226-.629c.048 0 .091 0 .113.003a.768.768 0 0 1 .113.039l.049-.042a.438.438 0 0 1-.162-.04c-.054-.026-.092-.015-.113.04m.183 2.084c-.054 0-.092.006-.113.022a.124.124 0 0 1-.07.021c.07.023.14.033.211.039.074.005.15.005.242.005-.049-.048-.054-.087-.006-.113.044-.021.075-.049.097-.065a.104.104 0 0 0-.091.006c-.028.016-.06.032-.092.053a.21.21 0 0 1-.086.043.106.106 0 0 1-.092-.011m-.092-.727v.043c.022 0 .043.011.071.027a.148.148 0 0 0 .064.022c-.021.021-.043.032-.064.043a.19.19 0 0 0-.071.049c.092.085.184.134.27.134a.193.193 0 0 0-.065-.049.135.135 0 0 1-.07-.043c-.021-.07.005-.113.075-.128.071-.017.109.015.109.086l-.049.042c.054.071.102.081.145.022a.979.979 0 0 1 .173-.156c-.027 0-.044-.033-.044-.092a5.1 5.1 0 0 1-.274.054.415.415 0 0 1-.27-.054m0 4.533c.033.031.043.074.043.135a.275.275 0 0 0 .066.048c.015.01.026.026.026.044a.337.337 0 0 0 .135-.028c.043-.021.086-.043.141-.064-.022-.07-.055-.092-.092-.066a.789.789 0 0 0-.092.066c-.103-.049-.13-.109-.092-.179-.026.027-.076.044-.135.044m.27-4.625a.418.418 0 0 0 .141-.021.347.347 0 0 1 .133-.022c-.032-.011-.048-.032-.048-.064v-.028a.452.452 0 0 1-.134.043.154.154 0 0 0-.092.092m.049 1.046c0 .026.005.043.02.043.017 0 .028-.005.033-.021.005-.017.005-.027 0-.039-.005-.009-.026-.004-.053.017m.092.269c-.022.054-.028.086-.017.097a.077.077 0 0 0 .059.037.183.183 0 0 0 .097.012c.038-.006.065-.012.086-.012a.34.34 0 0 1-.016.092c-.01.044-.005.07.016.092.06.06.135.092.227.092l-.135-.135c.059-.064.102-.092.135-.092v-.092a.82.82 0 0 1-.243-.031 2.344 2.344 0 0 1-.209-.06m.042.587c.048 0 .086-.021.097-.075.016-.048 0-.081-.054-.102-.048.021-.07.049-.059.092.011.038.016.07.016.085m.135-1.449a.178.178 0 0 0-.065.022c-.027.015-.049.027-.07.027.048 0 .086.005.113.022a.24.24 0 0 0 .114.021.204.204 0 0 0-.06-.043c-.021-.012-.032-.027-.032-.049m.318 1.994l.091.049c0 .022 0 .048-.005.092-.004.037-.032.069-.086.086-.022-.07-.06-.104-.119-.098a1.99 1.99 0 0 1-.199.012c.065 0 .092.026.092.086-.06 0-.092.031-.092.092a.104.104 0 0 0 .07-.028.54.54 0 0 1 .113-.064c.049 0 .098 0 .135-.006.044-.006.07-.032.091-.08.033 0 .049.026.049.086a.115.115 0 0 0 .086-.043.204.204 0 0 1-.043-.135c0-.021-.011-.044-.021-.07a.112.112 0 0 1-.022-.065c-.092 0-.14.027-.14.086m-.178 2c-.022.016-.043.032-.07.043-.027.01-.048.028-.07.043l.048.048c.022-.054.055-.075.113-.075.055 0 .109.012.157.027a.393.393 0 0 0 .172-.086 2.09 2.09 0 0 0 .146-.14.496.496 0 0 1-.248.092c-.097.01-.178.027-.248.048m0 .178v.092l-.092.091c.049-.022.092-.037.135-.054.037-.016.087-.011.135.006l.091-.043a.138.138 0 0 0-.081-.044c-.037-.011-.053-.044-.053-.092a.204.204 0 0 1-.135.044m-.048-1.494c0 .027.011.044.021.044.016 0 .027-.005.033-.022.005-.016.005-.026 0-.038-.006-.01-.022-.005-.054.016m.091.318a.246.246 0 0 1 .021.135c-.005.038.016.07.071.092.059 0 .102.011.134.043a.312.312 0 0 1 .227-.092.173.173 0 0 0-.135-.005c-.043.017-.086.032-.135.054-.064-.065-.075-.108-.048-.14h-.091l-.028-.026c-.01-.012-.016-.033-.016-.061m.41.362c0 .049.016.059.059.027.038-.027.048-.055.033-.076-.022 0-.043.012-.066.033-.01.01-.015.016-.026.016m.043.361c0 .032.006.049.021.049.016 0 .028-.011.033-.028a.04.04 0 0 0 0-.037c-.005-.011-.022-.005-.054.016M19.726.275h.178c.053 0 .087.022.107.076a.299.299 0 0 1 .033.102c.108 0 .216.006.318.012a.877.877 0 0 1 .313.08.767.767 0 0 0 .118-.135.607.607 0 0 1 .113-.135c.119 0 .226.043.313.135v.135c.112 0 .226.006.339.015a.684.684 0 0 0 .346-.058.686.686 0 0 1 .21-.032c.07 0 .139-.005.205-.017a.696.696 0 0 0 .188-.043.365.365 0 0 0 .167-.135c.086.022.178.049.264.092.087.037.162.022.232-.049a2.8 2.8 0 0 1 .339.189c.119.076.233.151.34.221.07 0 .146.01.221.032.076.017.14.054.188.103.114.092.211.184.303.28.092.097.173.199.242.312.048.157.075.324.069.496-.004.173-.043.34-.112.502a.411.411 0 0 1-.102.14c-.043.049-.043.102.01.173 0 .052.011.091.028.113.02.027.042.064.064.118.037.409-.006.819-.14 1.224.091.07.129.156.114.253-.012.102-.023.2-.023.292 0 .381-.102.7-.318.948.184.112.329.263.442.452.108.193.172.404.195.637a.959.959 0 0 1 .043.209c.01.076.026.152.048.242a.638.638 0 0 1-.114.244.668.668 0 0 0-.112.209.184.184 0 0 0 .081.049c.037.011.054.038.054.092a.263.263 0 0 1-.092.043.304.304 0 0 0-.092.043c0 .064.032.125.092.183a.63.63 0 0 1-.103.21.391.391 0 0 0-.075.243l.135-.135c.048.048.064.102.043.157a.33.33 0 0 1-.135.162c.022 0 .048 0 .081.005.037.005.054.021.054.038a1.474 1.474 0 0 0-.081.409c-.006.13-.011.27-.011.409 0 .162-.017.308-.059.443a2.511 2.511 0 0 1-.167.42c.033 0 .053-.005.064-.016l.027-.032a.42.42 0 0 1-.053.312 1.33 1.33 0 0 1-.216.279.403.403 0 0 1-.238.125.802.802 0 0 0-.263.102 2.6 2.6 0 0 1-.409.022 1.1 1.1 0 0 0-.406.065c-.053.021-.08.069-.091.14a.303.303 0 0 1-.091.177.141.141 0 0 1-.115-.048.485.485 0 0 0-.069-.086 4.14 4.14 0 0 0-.452.021 3.827 3.827 0 0 1-.453.021.413.413 0 0 1-.27-.021.486.486 0 0 0-.274-.021 2.264 2.264 0 0 1-.507.097 1.38 1.38 0 0 1-.533-.055c-.055-.015-.092-.037-.114-.047-.027-.017-.065-.017-.113.005a3.374 3.374 0 0 1-.636.091 1.665 1.665 0 0 1-.636-.091c-.178 0-.36-.005-.544-.016a3.026 3.026 0 0 0-.545.016 5.452 5.452 0 0 1-.113-.114.363.363 0 0 1-.064-.112.923.923 0 0 0 0-.297.649.649 0 0 1 0-.291c0-.065.027-.092.085-.092v-.182c.012 0 .023-.006.033-.016.022-.018.043-.027.059-.027v-.092c.07 0 .141 0 .205.005.065.005.135.022.205.038a.89.89 0 0 1 .501-.135.283.283 0 0 0-.032-.135 1.089 1.089 0 0 1-.06-.134c0-.114-.005-.233-.015-.367a1.336 1.336 0 0 1 .015-.361c-.02-.253-.01-.501.038-.749.043-.248.076-.496.097-.75h.092a.909.909 0 0 0-.032-.403.481.481 0 0 1 .075-.411c-.092-.252-.14-.5-.151-.749a3.29 3.29 0 0 0-.119-.749.913.913 0 0 0 .043-.156.779.779 0 0 1 .049-.155c.016-.055.022-.098.005-.142-.016-.037-.032-.085-.054-.133a8.135 8.135 0 0 1-.043-.583 8.528 8.528 0 0 0-.048-.55.548.548 0 0 1 .021-.297.52.52 0 0 0 .027-.295 7.247 7.247 0 0 1-.064-.303 2.133 2.133 0 0 1-.026-.328.594.594 0 0 1 .004-.275.926.926 0 0 0 .038-.27c-.14 0-.269.006-.382.022a2.946 2.946 0 0 1-.389.021l-.403-.409a.177.177 0 0 0 .037-.087c.006-.043.006-.074.006-.092 0-.112 0-.23.005-.355.005-.129.021-.237.038-.328.053-.071.107-.123.161-.173.053-.042.107-.092.156-.14.07 0 .141.006.205.011a.531.531 0 0 0 .205-.011c.221-.043.447-.043.679 0-.026 0-.075.027-.135.086a.544.544 0 0 0 .243.038c.08 0 .156-.011.232-.026.075-.017.156-.033.237-.05a.893.893 0 0 1 .242-.005c.049.022.081.016.103-.016a.198.198 0 0 0 .032-.119m-1.768.68h-.14a.637.637 0 0 0 .162.043c.054.01.092.043.113.092.022.021.043.027.07.015a.297.297 0 0 1 .113-.015c0-.023.006-.043.022-.065a.134.134 0 0 0 .022-.07c-.022.021-.049.031-.092.037-.038.006-.07.006-.092.006V.912h.049V.863a.23.23 0 0 1-.092.049.547.547 0 0 0-.135.043m-.14.184c.053 0 .092.004.119.009.021.011.042.006.063-.009-.058-.066-.118-.066-.182 0m.049.133c0 .048.004.076.021.076s.026-.011.033-.022a.079.079 0 0 0 0-.048c-.007-.016-.022-.016-.054-.006m.678-.225c-.021 0-.037.01-.043.026a.25.25 0 0 1-.048.066.28.28 0 0 0 .091-.028c.044-.011.071-.021.092-.021.022 0 .038.01.06.031.01.012.021.018.032.018.049-.022.092-.039.13-.055.031-.017.048-.059.048-.129a.447.447 0 0 0-.178.031c-.055.017-.113.039-.184.061m.049 1.81c.086 0 .103-.027.043-.091-.021 0-.038.01-.054.032-.016.02-.01.044.011.059m.27 4.128c0 .023.006.044.021.066a.12.12 0 0 1 .022.069h-.087c.049 0 .086.023.113.06.021.043.06.053.113.032 0-.032.027-.075.086-.135a.232.232 0 0 1-.226-.14.13.13 0 0 0 .07-.021.12.12 0 0 1 .07-.023v-.134a.168.168 0 0 0 .086.038c.044.006.075.006.091.006-.016-.022-.043-.034-.064-.044a.235.235 0 0 1-.071-.048.228.228 0 0 0-.112.113.558.558 0 0 1-.112.161m.043-3.853c0 .026.01.044.027.044.011 0 .021-.006.026-.023.006-.016.006-.026 0-.038-.005-.01-.022-.005-.053.017m.048 2.856c.027 0 .043.011.043.028v.015c.022 0 .054.012.091.022.044.016.071.027.092.027v.043h-.226c0 .032-.016.06-.048.092.032 0 .053-.006.065-.017l.026-.032c.022 0 .044.011.071.027.02.011.048.022.064.022 0-.032.032-.075.091-.135a.184.184 0 0 0-.059-.049c-.021-.01-.032-.021-.032-.043h-.178zm0-3.945v.135c.039-.092.097-.135.178-.135 0-.01.006-.022.017-.031a.083.083 0 0 0 .031-.061.79.79 0 0 1-.112.043l-.114.049m0 .183c0 .016 0 .038.005.049.006.016.034.016.087-.006 0-.021-.011-.038-.032-.053-.022-.017-.038-.011-.06.01m.043 1.224c0 .06-.016.103-.043.134.071 0 .114-.016.13-.053a.474.474 0 0 1 .096-.129v-.044c-.048.021-.092.038-.112.06-.027.021-.049.032-.071.032m0 .771c0 .048.017.076.054.08a.478.478 0 0 0 .081.006c.022 0 .037-.006.048-.022a.05.05 0 0 1 .043-.021.223.223 0 0 1-.112-.022c-.023-.016-.06-.021-.114-.021m.362 2.037l-.044.049v-.049c-.059 0-.108.016-.135.049-.021.015-.048.021-.092.009a.784.784 0 0 0-.091-.009v.043a.79.79 0 0 0 .296.005.402.402 0 0 1 .297.086c0-.021.011-.038.043-.048.032-.006.043-.022.043-.043a.383.383 0 0 1-.135-.022.337.337 0 0 0-.134-.021c.033 0 .043-.006.043-.017v-.032h.091v-.043c-.047 0-.101-.011-.156-.022a.59.59 0 0 0-.162-.027c.061.064.108.092.136.092M19.047.955c.005.031.022.043.038.043.011 0 .021-.006.027-.022.005-.016.005-.027-.006-.038-.01-.01-.032-.004-.059.017m0 4.306l.042.091a.117.117 0 0 0 .071-.022c.021-.016.059-.021.113-.021-.032-.032-.049-.064-.049-.091-.016 0-.047 0-.091.005-.037.005-.071.016-.086.038m0 3.04c.016.021.054.032.113.043.054.01.108.027.156.049 0 .047-.016.08-.043.085-.032.01-.065.022-.092.028a.156.156 0 0 0-.075.026c-.021.017-.027.043-.017.087h.044c.032 0 .048-.018.048-.049v.092c.05 0 .081 0 .098-.006.015-.006.01-.032-.006-.086.038-.092.113-.135.226-.135 0-.021-.01-.042-.021-.07a.111.111 0 0 1-.027-.064.528.528 0 0 1-.205.015 1.421 1.421 0 0 0-.199-.015m.361.588c0 .02.016.043.043.07.033.021.048.048.048.063-.069.022-.139.038-.206.054a.356.356 0 0 1-.204-.006.483.483 0 0 1 .044.179c.054 0 .108 0 .161-.005a.255.255 0 0 0 .157-.082.21.21 0 0 0 .048-.064c.012-.016.022-.028.043-.028 0-.052-.01-.09-.026-.129-.022-.037-.06-.052-.108-.052m-.136-6.393c-.065.059-.108.092-.14.092h.14c-.011.021-.022.031-.032.043-.022.032-.037.049-.06.049.023 0 .033.004.043.021.012.016.027.022.049.022a.146.146 0 0 1 .065-.043l.113-.049v-.043h-.09v-.092h-.088zm0 7.297a.218.218 0 0 1-.069.049.194.194 0 0 0-.071.043l.091.049v.085c.055-.015.099-.031.136-.037.043 0 .086-.006.139-.006 0 .022.017.043.043.071.033.021.049.049.049.064h.043c0-.015-.021-.049-.059-.092-.043-.037-.037-.07.016-.085l-.14.042.091-.134-.091.092v-.092c-.027 0-.075.027-.135.092l.092-.092c-.032-.033-.075-.049-.135-.049m-.091-6.209a.918.918 0 0 0 .113-.059.188.188 0 0 1 .114-.033v-.016c0-.015-.016-.026-.048-.026a.317.317 0 0 0-.087.026c-.043.022-.069.06-.092.108m.361 3.72c-.058.059-.091.102-.091.133a.41.41 0 0 0-.157-.031c-.053 0-.09.027-.113.074a.449.449 0 0 1 .104 0l.118.034c.032.01.064.01.086.005.027-.005.043-.033.053-.082.054 0 .098-.004.135-.004.043-.005.087-.022.141-.038l-.049-.049a.099.099 0 0 1-.065-.021.223.223 0 0 0-.113-.021h-.049zm-.319-4.263a.122.122 0 0 1-.016.059c-.004.021 0 .032.016.032h.227a.303.303 0 0 0-.227-.091m0 4.984a.38.38 0 0 0 .184.141c.07.016.13 0 .183-.049-.064 0-.107.016-.14.049 0-.022 0-.055-.005-.092-.005-.043-.016-.07-.038-.092-.032.033-.091.043-.184.043m.049-2.49c.027 0 .043.027.043.087.049-.017.087-.032.114-.043a.261.261 0 0 0 .069-.044h-.226zm0 5.439c.108 0 .211-.005.307-.022.097-.017.189-.021.281-.021-.07-.054-.141-.06-.211-.027-.07.037-.151.031-.242-.021-.022-.018-.043-.018-.07.015-.021.033-.048.054-.065.076m.173-6.3c.086.011.119-.022.096-.092h-.226c.001.049.045.08.13.092m-.059 5.869a.127.127 0 0 1-.07.021c.044.08.119.096.226.048-.058 0-.091-.032-.091-.091a.112.112 0 0 0-.065.022m-.026-8.139c.064 0 .091.017.091.049.033.027.048.086.048.178a.43.43 0 0 0 .135-.081.186.186 0 0 1 .135-.054c-.027 0-.043-.006-.043-.016v-.027c-.022 0-.038.005-.049.022-.005.015-.02.021-.043.021a.312.312 0 0 1-.118-.075c-.032-.032-.081-.038-.156-.017m0 1.768h.182c0-.016-.004-.032-.021-.043-.017-.011-.022-.028-.022-.049a.193.193 0 0 0-.139.049v.043zm.048-2.582c.048 0 .087-.01.113-.031.027-.023.049-.039.07-.06a.203.203 0 0 0-.113.026.894.894 0 0 0-.07.065m0 6.209c0 .033.005.049.022.049.016 0 .026-.01.032-.028a.047.047 0 0 0 0-.037c-.006-.006-.021 0-.054.016m.091-5.805c0 .055-.01.098-.021.141a.28.28 0 0 0-.027.091h.048v-.048c.071-.022.097-.049.092-.092-.011-.037-.043-.07-.092-.092m0 4.086c.028 0 .049-.006.06-.017l.032-.032a.567.567 0 0 0 .113.038c.022.005.043.011.065.011v-.049h-.092v-.043a.205.205 0 0 0-.112.028l-.066.064m.14-4.754c.006.011.032.011.086-.011 0-.016-.011-.037-.032-.053-.022-.011-.037-.011-.06.01 0 .022 0 .038.006.054m.038 1.85c0 .031.006.048.017.048.01 0 .016-.011.021-.027a.053.053 0 0 0 0-.039c-.006-.005-.015-.005-.038.018m.459 2.677c-.033 0-.064-.015-.092-.047l.043.133a.248.248 0 0 0-.188-.113.633.633 0 0 0-.222.027l.141.135c.049 0 .092-.011.135-.021a.352.352 0 0 1 .134-.028v.033c0 .032.016.049.049.059 0-.021-.006-.049-.011-.08-.006-.038-.016-.055-.038-.055.07-.021.129-.037.173-.043a.853.853 0 0 0 .146-.047.426.426 0 0 1-.158-.033c-.06-.017-.096.005-.112.08m-.018-3.88c.017.06.054.108.103.162a.234.234 0 0 1-.113.043.226.226 0 0 0-.113.048c.053 0 .091-.01.113-.027a.235.235 0 0 1 .113-.021l.065.603c.015.205.027.395.027.577a.364.364 0 0 1-.092.065c-.038.027-.07.048-.086.069.016 0 .037.006.065.022a.121.121 0 0 0 .07.022.206.206 0 0 0-.092.032.144.144 0 0 1-.043.016v.044c.027.011.037.021.027.032a.242.242 0 0 1-.054.037c-.022.017-.049.033-.075.055-.023.016-.038.037-.038.058.021-.021.064-.037.123-.042.06-.01.082.016.06.086 0 .054-.016.091-.043.113a.138.138 0 0 0-.049.113v.243c0 .091-.043.146-.134.167.07-.021.112 0 .134.06a.219.219 0 0 1 0 .167c-.049.07-.102.14-.156.205a.436.436 0 0 0-.113.204.735.735 0 0 0 .247-.038c.076-.027.157-.011.249.038a.522.522 0 0 1 .236-.092c.082-.011.173.022.265.092a.863.863 0 0 1 .167-.054.336.336 0 0 1 .194.012.614.614 0 0 0 .382.085c.15-.011.28-.022.389-.043 0 .021.005.043.021.069a.11.11 0 0 1 .022.066c.021-.048.053-.066.091-.054.043.016.086.032.135.054 0-.07.037-.103.108-.097.07.005.14.005.21.005.022 0 .043-.011.07-.043.026-.032.049-.042.07-.042a.628.628 0 0 1 .27-.012c.091.016.182-.011.274-.08.028-.033.076-.017.135.042 0-.048-.005-.107-.011-.173-.005-.064.032-.095.103-.095a.834.834 0 0 1-.103-.297.58.58 0 0 0-.124-.297.223.223 0 0 0 .043-.065.296.296 0 0 1 .044-.07c-.017-.048-.038-.102-.059-.156a.457.457 0 0 1-.028-.162 1.512 1.512 0 0 0-.07-.194c-.027-.064-.004-.119.07-.167a1.133 1.133 0 0 0-.064-.134.372.372 0 0 1-.028-.14.152.152 0 0 1 0-.135c.018-.039.018-.07 0-.092-.021-.14-.037-.275-.053-.404a1.709 1.709 0 0 1 .006-.41h-.044c-.033 0-.042-.016-.042-.049 0-.016.015-.037.059-.064.037-.028.031-.065-.017-.114-.048.023-.097.038-.134.06a.253.253 0 0 1-.092.032v.135c-.07 0-.108-.027-.108-.075a.454.454 0 0 0-.027-.152c-.053.023-.091.023-.113.006a1.547 1.547 0 0 0-.112-.054c0 .054-.012.092-.029.113a.351.351 0 0 0-.019.113c-.092.022-.141-.005-.152-.08a.349.349 0 0 1 .017-.188c-.049 0-.092-.006-.113-.022a.22.22 0 0 0-.114-.022.29.29 0 0 1-.2.125c-.08.015-.118.08-.118.187a.326.326 0 0 1-.129-.086c-.033-.043-.054-.027-.054.043l-.226-.225a1.045 1.045 0 0 1-.217.113.488.488 0 0 0-.188.112.394.394 0 0 1-.237-.075 1.925 1.925 0 0 1-.173-.15.279.279 0 0 1-.188.081c-.075.004-.151.009-.221.009 0 .049.01.104.031.157m-.031 4.511c.022.092.032.178.032.259 0 .081.033.146.103.194-.107 0-.184.048-.226.14a.342.342 0 0 0 .113-.065.219.219 0 0 1 .113-.027c.022.2.038.405.049.61.01.21.02.424.043.657a.599.599 0 0 1-.092.07c-.038.027-.07.049-.086.071h.135c-.023.015-.043.037-.07.058-.028.022-.065.027-.114.027l.092.092a.55.55 0 0 1-.092.071c-.038.026-.07.047-.091.064a.182.182 0 0 0 .091-.038c.043-.022.07-.011.092.038.022.054.005.08-.038.086-.043.006-.081.006-.097.006h.135c-.049.054-.081.101-.081.162a1.523 1.523 0 0 0-.011.172c0 .058-.006.118-.015.172a.196.196 0 0 1-.076.129l.091.091c.022.108-.015.221-.113.325a.404.404 0 0 0-.113.355c.07-.021.14-.038.204-.054.065-.016.136.005.206.054a.755.755 0 0 1 .269-.092c.092-.011.183.022.275.092a.545.545 0 0 1 .253-.092.401.401 0 0 1 .291.092c.188.049.399.049.631 0 .032 0 .048.032.048.092.048 0 .097 0 .135.005.043.005.086.022.135.038 0-.028.005-.049.016-.06l.033-.026a.398.398 0 0 0 .172-.038c.043-.027.092-.017.145.038a.405.405 0 0 0 .043-.065c.011-.017.028-.027.043-.027.069-.021.151-.032.237-.038.086-.005.173-.011.264-.011.022-.015.055-.043.098-.075a.241.241 0 0 1 .173-.017.35.35 0 0 1 0-.312 1.418 1.418 0 0 1-.115-.297.907.907 0 0 0-.112-.296c.065-.059.092-.118.092-.178-.049-.075-.081-.151-.092-.237s-.022-.172-.044-.264c-.021-.021-.021-.048-.005-.091a.283.283 0 0 1 .049-.092.308.308 0 0 0-.044-.178.347.347 0 0 1-.043-.183.734.734 0 0 0 .011-.248c-.011-.086-.022-.172-.038-.258-.01-.087-.027-.173-.037-.265a.757.757 0 0 1 .016-.269c.021-.054.016-.082-.016-.086-.028-.006-.054-.006-.075-.006l.139-.134c-.054-.055-.107-.066-.162-.043a.37.37 0 0 1-.155.043v.042c0 .033-.017.044-.049.044-.049 0-.064-.022-.043-.076.02-.049.02-.086 0-.102-.054-.021-.097-.038-.135-.049-.044-.01-.07-.021-.091-.043a.91.91 0 0 0-.049.135c-.005.043-.038.07-.085.091-.023 0-.044-.016-.066-.054a.218.218 0 0 1-.026-.08v-.14h-.184a.623.623 0 0 1-.243.107.206.206 0 0 0-.167.167.267.267 0 0 1-.043-.032c-.032-.01-.043-.027-.043-.059a.296.296 0 0 1-.064.049c-.017.005-.028.021-.028.042l-.274-.274a.277.277 0 0 1-.189.128.526.526 0 0 0-.216.104.315.315 0 0 1-.243-.049 1.588 1.588 0 0 1-.214-.183c-.081.113-.201.145-.362.091m-.184.183c-.016.05 0 .092.064.118.06.033.097.024.119-.026-.022-.054-.049-.085-.091-.097-.038-.016-.071-.016-.092.005m0-4.759c0 .016.021.038.053.049.039.016.066.016.087-.006.016-.021.005-.037-.038-.054-.048-.016-.081-.01-.102.011m.049 4.985c-.054.049-.049.071.015.054.06-.015.097-.031.119-.054 0-.021-.022-.032-.07-.032-.043 0-.064.011-.064.032m.77-1.179c.06.059.092.107.092.139-.07 0-.14.006-.205.022a.862.862 0 0 1-.204.021l-.135.135c.048 0 .091 0 .129-.006.032-.004.049-.031.049-.086.053 0 .08.022.086.055.005.037.005.08.005.129a.27.27 0 0 0 .113-.07.478.478 0 0 1 .114-.065c0-.064.016-.107.048-.135.048 0 .102 0 .156.011s.108.005.161-.011c-.02-.053-.057-.07-.111-.053-.06.016-.108.032-.162.053-.022-.021-.032-.053-.043-.101-.011-.044-.044-.055-.093-.038m-.316-4.399c.009.033.02.048.037.048.016 0 .027-.01.032-.026.005-.011 0-.027-.011-.038-.01-.005-.027 0-.058.016M20.54.68c.07 0 .146.005.22.015a.17.17 0 0 1 .146.125h.027c.011 0 .033-.016.06-.049 0 .033.004.054.016.065l.031.027c.049 0 .098.005.136.022a.373.373 0 0 0 .135.027.293.293 0 0 0-.21-.13.55.55 0 0 1-.243-.102c-.049 0-.103 0-.156-.012a.338.338 0 0 0-.162.012m0 .635c.032.033.048.076.048.14.06-.064.103-.092.135-.092-.032-.031-.091-.048-.183-.048m.592 9.433c0 .031-.031.074-.092.135.049-.018.087-.033.115-.039.026-.005.058-.005.112-.005.022.021.038.044.061.065.02.027.031.065.031.117.07 0 .124-.02.173-.052a.472.472 0 0 1 .145-.086.791.791 0 0 0-.178.015c-.043.011-.091-.011-.14-.059 0-.113-.075-.14-.227-.091m0 .273c.017 0 .033.006.044.028.01.021.027.043.043.06.065-.06.092-.103.092-.135a.552.552 0 0 0-.113.016c-.054.011-.092.005-.114-.016h.017c.021 0 .031.016.031.047m.043-9.796c.048-.018.097-.023.135-.006.043.015.086.032.14.053-.033-.01-.049-.032-.049-.059v-.032h-.226v.044zm.637 4.581c.069.02.145.047.226.075a.229.229 0 0 0 .227-.028c-.012 0-.022-.005-.033-.015a.072.072 0 0 0-.059-.032c-.032 0-.076.032-.135.09l.043-.09c-.091-.092-.178-.092-.269 0m.091 5.033a.218.218 0 0 1-.028.113c-.01.026-.021.049-.021.069.033.028.059.044.092.044 0-.021.005-.038.021-.044.016-.009.022-.026.022-.047-.071-.048-.076-.091-.022-.119.054-.033.108-.021.162.028.011 0 .016-.006.027-.018.021-.015.043-.026.059-.026a.356.356 0 0 0-.312 0m0-9.792c.005.026.021.043.038.043.01 0 .02-.006.026-.023.005-.015.005-.026-.006-.038-.01-.01-.031-.004-.058.018m.135-.049c.07.021.135.031.205.037.065.006.129.012.206.012a.07.07 0 0 1-.049-.022c-.012-.017-.028-.027-.043-.027h-.319zm.226.501c.048-.022.085-.044.113-.06.027-.021.048-.032.071-.032h-.184v.092zm.588 4.263h-.043v.044a.243.243 0 0 1-.222.032c-.075-.032-.134-.012-.187.058-.05.022-.076.043-.081.071a.443.443 0 0 0-.011.113c.064-.064.092-.124.092-.184.092 0 .177.017.263.055.086.031.166.059.238.08V5.67c-.032.027-.049.049-.049.059v.033zm-.36.361a.148.148 0 0 0-.072.021.104.104 0 0 1-.063.022c.092.092.177.092.268 0a.1.1 0 0 1-.064-.022.141.141 0 0 0-.069-.021M22.4 1.542c0 .054.011.081.032.086a.198.198 0 0 0 .06.006c0-.022-.006-.038-.006-.06-.007-.021-.034-.032-.086-.032m.316 9.567c.022 0 .043.01.071.027.021.01.041.021.064.021a.56.56 0 0 0 .069-.087.148.148 0 0 1 .114-.049l.044-.047a.36.36 0 0 0-.195.053 1.063 1.063 0 0 1-.167.082m.362-9.884c-.06.064-.119.09-.178.09.07 0 .145 0 .225-.005a.41.41 0 0 0 .227-.085c-.07 0-.135 0-.199-.006a.261.261 0 0 1-.161-.08l.086.086zm-.085 4.806c0 .022.015.038.047.055.039.015.065.01.086-.006.018-.055.006-.086-.037-.103-.049-.01-.082.005-.096.054m.225 4.76c.017.021.054.031.103.031.053 0 .076-.01.076-.031-.017-.017-.055-.027-.103-.027-.054 0-.076.01-.076.027m.269.183c-.048 0-.091.004-.129.004-.032.012-.054.023-.054.043 0 .049.037.061.108.028.071-.028.096-.054.075-.075m-.091-4.808c.032.032.091.049.182.049l-.047-.049h-.135zm.091-3.94c.021-.021.049-.032.091-.032.038 0 .071.027.092.075h.092v-.015c0-.023.011-.028.043-.028l-.113-.048c-.028-.01-.065-.028-.114-.043-.057 0-.091.027-.091.091m.41 2.313c-.022.069-.07.113-.152.135-.081.021-.124.064-.124.135 0 .021-.015.031-.048.037-.037.005-.065.005-.086.005a.354.354 0 0 1 .113.071l.07.07c.06 0 .103-.017.135-.05-.06-.058-.075-.102-.043-.133l.269-.135-.134-.135zm-.275-3.132c.022.07.065.092.141.06.069-.028.129-.016.178.032-.011.06-.032.097-.065.108-.038.005-.076.01-.113.01-.043 0-.081.006-.113.011-.037.006-.06.021-.071.054a.297.297 0 0 0 .157.011c.059-.006.107-.011.162-.011a.357.357 0 0 1 .064-.114c.028-.026.049-.048.07-.069a.627.627 0 0 0-.113-.044.191.191 0 0 1-.07-.048c-.107 0-.141-.044-.086-.135l-.141.135zm0 1.089c.022-.021.055-.043.092-.07.043-.022.071-.049.092-.065.049 0 .075.022.075.075a.104.104 0 0 1-.075.103c.011 0 .022 0 .032-.011a.077.077 0 0 1 .06-.032v-.043a.245.245 0 0 1 .113-.054c.054-.016.091 0 .112.054-.021.049-.015.059.017.037a.108.108 0 0 1 .075-.037l.135-.141c-.021 0-.048.006-.092.011a.175.175 0 0 0-.092.038l-.026-.032c-.011-.011-.017-.027-.017-.06-.053.049-.085.086-.112.108a.219.219 0 0 1-.113.027c0-.021-.012-.043-.022-.064-.016-.028-.027-.049-.027-.071a.658.658 0 0 0-.151.092c-.048.038-.076.086-.076.135m0 1.358a.143.143 0 0 0 .141-.01.33.33 0 0 1 .135-.076.226.226 0 0 0-.162-.01.168.168 0 0 0-.114.096m.049-.544c.011.032.022.048.037.048.017 0 .023-.01.028-.021.006-.017.006-.032-.005-.038-.011-.01-.033-.005-.06.011m.452.226h-.452v.048a.59.59 0 0 1 .157.021.496.496 0 0 0 .162.023v.048a.263.263 0 0 0 .268 0h-.226l.044-.092h.139c.028-.031.043-.074.043-.134-.026 0-.076.026-.135.086m-.275 3.897c.054 0 .113.004.183.004a.22.22 0 0 1-.032.092c-.005.022-.01.033-.01.043a.926.926 0 0 0-.141.071.192.192 0 0 0-.086.113.342.342 0 0 1 .215-.075.221.221 0 0 0 .188-.109h-.09c.053-.048.097-.074.139-.08a.891.891 0 0 1 .135-.012c-.021-.069-.064-.09-.135-.074a.624.624 0 0 1-.183.031.19.19 0 0 0-.166-.058c-.06.011-.124.016-.195.016.072.016.129.033.178.038m-.134-3.261c.032 0 .075.033.135.092a.178.178 0 0 1 .07-.043.215.215 0 0 0 .071-.049.244.244 0 0 1-.092-.022.29.29 0 0 0-.092-.021h-.043c-.033 0-.049.015-.049.043m.049 2.086c-.032 0-.049.016-.049.049v.043a.562.562 0 0 1 .135-.039c.043-.004.086-.004.141-.004a1.03 1.03 0 0 0-.114-.039c-.028-.004-.064-.01-.113-.01m-.013.367c.017 0 .028-.012.034-.027a.038.038 0 0 0-.011-.039c-.006-.01-.028-.004-.06.017.012.032.023.049.037.049m.013-1.541a.222.222 0 0 1 .172 0c.065.016.097 0 .097-.05-.048 0-.097.006-.134.006a.433.433 0 0 0-.135.044m0 2.17c.005.033.022.05.037.05.012 0 .022-.011.028-.023.004-.015.004-.031-.006-.043-.01-.005-.033 0-.059.016m.134 1.726a.125.125 0 0 0-.076.032c-.033.016-.037.037-.016.058.049.023.092.006.118-.048.033-.047.023-.063-.026-.042m.135-6.484a.642.642 0 0 0-.038.113c-.004.028-.004.065-.004.114-.022 0-.055.005-.092.005a.183.183 0 0 0-.092.038.533.533 0 0 1 .226.048.962.962 0 0 0 .053-.162c.017-.053-.004-.107-.053-.156m-.226 5.303c0 .021.006.043.022.07a.141.141 0 0 1 .021.065.116.116 0 0 0 .07-.022.135.135 0 0 1 .071-.021c-.055 0-.092-.011-.114-.033-.028-.016-.049-.038-.07-.059m0 2.135a.2.2 0 0 0 .135.042l-.043.043c.026 0 .049 0 .058-.009l.034-.034c0-.048-.022-.075-.055-.075a.315.315 0 0 0-.129.033m.042-1.725c.022.021.037.032.049.032.011 0 .037-.011.092-.032-.022-.022-.038-.033-.049-.033-.01 0-.037.011-.092.033m.049-5.94c0 .033.005.043.021.043s.028-.004.033-.021v-.037c-.005-.012-.027-.006-.054.015m.044 2.582c.07 0 .124.028.151.076a.56.56 0 0 0 .074.107c0-.011.007-.02.017-.026.021-.022.032-.043.032-.066a.293.293 0 0 0-.092-.042.188.188 0 0 1-.091-.049.127.127 0 0 0 .07-.021.098.098 0 0 1 .064-.021.105.105 0 0 1-.064-.022c-.026-.018-.064-.021-.112-.021 0 .058-.018.085-.049.085m0 4.263c0 .032.011.048.021.048.016 0 .028-.01.033-.026a.046.046 0 0 0-.001-.038c-.004-.005-.022-.005-.053.016m.107-5.093c.06.032.098.022.118-.027.023-.054.011-.075-.037-.075-.044 0-.075.005-.097.026-.048.022-.042.049.016.076m-.016 3.778a.217.217 0 0 0 .07.049.19.19 0 0 1 .064.043c.055-.022.081-.049.087-.092.005-.037.005-.086.005-.135a.696.696 0 0 1-.226.135m0 2.177c0 .022.006.043.006.06.005.022.032.032.085.032 0-.049-.004-.08-.01-.086-.005 0-.032-.006-.081-.006m.183-5.755c-.064.058-.107.086-.139.086a.4.4 0 0 0 .139.038c.038.005.087.01.135.01 0-.058-.016-.107-.048-.134l-.044.086-.026-.028c-.011-.01-.017-.031-.017-.058m-.092-1.59c.023 0 .05 0 .092-.006.038-.006.071-.016.087-.037l.048-.049a1.357 1.357 0 0 1-.135.049.272.272 0 0 0-.092.043m.023 4.623c.016 0 .027-.004.031-.021.006-.016.006-.027 0-.038-.004-.01-.026-.005-.054.017 0 .026.006.042.023.042m.111 1.451l-.135.14c.023 0 .05-.011.092-.021a.274.274 0 0 1 .087-.027c.001-.061-.011-.092-.044-.092m-.042-3.854c.06 0 .087-.011.087-.042-.049-.022-.075-.022-.081-.006-.006.01-.006.032-.006.048m0 2.134c.006.027.022.044.038.044.011 0 .022-.006.028-.021.005-.018.005-.028-.006-.039-.011-.01-.032-.005-.06.016m.042 2.991c0 .049.006.076.006.076a.468.468 0 0 0 .086-.033.121.121 0 0 0-.011-.048c.001-.016-.032-.016-.081.005m.093-2.764c.022 0 .038-.017.06-.048.01-.006.021-.021.032-.044-.054-.048-.092-.048-.123.005-.029.06-.017.087.031.087m0-1.59a.24.24 0 0 1 .092-.113.225.225 0 0 0 .092-.114c-.034-.026-.049-.086-.049-.177a.59.59 0 0 1-.118.204c-.065.065-.065.131-.017.2"/><path d="M24.743.76a3.91 3.91 0 0 1 .27-.253c.092-.076.184-.156.274-.247.017.021.038.042.061.07.02.021.031.058.031.112a.63.63 0 0 1 .496.087.802.802 0 0 0 .114-.135c.027-.038.047-.087.07-.134.048 0 .092 0 .135.004.038.005.086.022.133.038a.144.144 0 0 1 .038.092c.005.043.012.086.012.135.085 0 .177.005.269.016s.183-.011.275-.059c.108-.021.227-.038.344-.044a.355.355 0 0 0 .287-.182c.069.021.14.042.204.074.066.033.135.022.205-.032.091.054.189.097.286.129a.56.56 0 0 1 .258.189c.049.021.066.054.038.092-.026.044-.038.07-.038.091.049.109.086.226.113.34.028.113.049.243.071.382 0-.026.011-.043.043-.043h.043c-.048.07-.108.141-.178.205-.069.065-.13.135-.184.205-.069.049-.134.071-.193.059a1.109 1.109 0 0 0-.168-.016 2.802 2.802 0 0 0-.242-.043.52.52 0 0 1-.21-.091c.016.183.021.361.016.539-.01.171-.064.344-.151.502.017.02.038.037.065.047a.277.277 0 0 1 .07.044c.016.112.026.225.021.338-.005.119 0 .233.022.346 0 .086.011.172.021.248.017.075.028.156.028.248 0 .031.026.075.087.135-.061 0-.087.031-.087.092-.092.052-.14.113-.14.183.054 0 .091-.022.112-.054a.603.603 0 0 0 .071-.129c.048.344.075.689.07 1.045-.006.349 0 .701.02 1.04 0 .091.007.183.023.28.017.098.021.199.021.306a.305.305 0 0 0-.113.092c-.021.043-.048.087-.064.135-.022.022-.011.043.038.065a.345.345 0 0 0 .095.027c-.02.055-.052.081-.09.092a.182.182 0 0 0-.092.048c-.022.016-.017.038.016.065a.292.292 0 0 1 .076.113c-.048.055-.097.103-.135.151a.541.541 0 0 0-.092.215c.022-.021.049-.043.081-.069.037-.027.054-.049.054-.07.049.021.07.064.054.129-.016.064-.048.097-.097.097.026.032.075.048.135.048a1.456 1.456 0 0 0-.109.534c0 .178-.01.345-.026.506a.264.264 0 0 1-.032.135c-.022.043-.038.086-.06.141.049-.022.075-.011.081.037.006.044.011.076.011.097.049.14.054.27.006.383a2.24 2.24 0 0 0-.098.34c.071.022.146.048.227.08a.243.243 0 0 0 .226-.032.313.313 0 0 0 .091-.156.277.277 0 0 1 .092-.162c.016 0 .043.016.065.054.027.032.048.064.07.081.07 0 .129.027.172.074.049.055.092.104.146.153-.022.112-.022.23 0 .365.021.13.021.248 0 .361.021.092-.011.172-.092.244-.08.069-.156.139-.226.21v-.135a1.82 1.82 0 0 1-.679.135.815.815 0 0 1-.243-.034c-.07-.015-.139-.037-.209-.058a2.59 2.59 0 0 1-.545.092 1.282 1.282 0 0 1-.544-.092h-.772l-.226-.227a.49.49 0 0 0 .022-.34.664.664 0 0 1-.022-.339c.071 0 .103-.026.097-.075-.005-.049-.01-.086-.01-.107h.139v-.136c.049 0 .103.005.158.011a.52.52 0 0 1 .161.033c.069-.049.139-.087.211-.119a.39.39 0 0 1 .242-.016.467.467 0 0 1-.06-.291 5.44 5.44 0 0 0 .011-.297 2.17 2.17 0 0 1 .054-.679c.054-.221.087-.437.087-.635h.085a.553.553 0 0 0-.021-.314.33.33 0 0 1 .021-.274.38.38 0 0 0 .011-.205 3.278 3.278 0 0 0-.053-.205 14.116 14.116 0 0 1-.054-.475 1.664 1.664 0 0 0-.13-.479.538.538 0 0 0 .103-.226.546.546 0 0 0-.011-.226 2.163 2.163 0 0 1-.092-.475c-.011-.156-.021-.318-.043-.479a.423.423 0 0 1-.011-.195c.016-.058.037-.113.054-.167a.822.822 0 0 0-.027-.383.99.99 0 0 1-.065-.338c.054-.346.054-.68 0-1.002a3.475 3.475 0 0 1 0-.998l-.269.064a1.584 1.584 0 0 1-.27.027c.017-.049.032-.086.043-.113a.242.242 0 0 1 .044-.064h-.179a.915.915 0 0 0-.15-.124c-.054-.027-.076-.082-.076-.152a.726.726 0 0 0-.064-.306.321.321 0 0 1 .016-.282c-.026-.031-.075-.048-.135-.048V.76h-.135zm1.089.134h.178-.092c.032-.031.049-.052.049-.058V.803h-.049C25.892.771 25.87.76 25.859.76c-.011 0-.011.005-.011.022v.06c0 .026-.011.043-.016.052m.27-.182c-.022 0-.043.01-.075.032-.028.016-.022.038.032.059.015.011.043.006.064-.004.028-.017.043-.039.054-.055.012-.022.012-.037 0-.049-.011-.01-.032-.005-.075.017m-.043.226c.048.022.086.037.113.048.022.006.06.022.113.043.016.049.059.076.113.076.054 0 .092-.011.113-.032a1.018 1.018 0 0 1-.049-.135c-.01-.038-.037-.07-.085-.092v.092c-.054 0-.097 0-.141-.005a.766.766 0 0 1-.134-.039l-.043.044zm.268 9.841c0 .017.023.027.071.027.043 0 .064-.01.064-.027 0-.021-.015-.031-.048-.031a.12.12 0 0 0-.087.031m.362-3.174a.213.213 0 0 0 .14.043c0 .059-.015.092-.048.092-.048.021-.081.006-.092-.037a.636.636 0 0 0-.043-.147.186.186 0 0 0-.043.071 3.69 3.69 0 0 1-.049.113c-.048-.021-.097-.027-.14-.021-.049.005-.059.042-.037.113.07 0 .129.01.177.037.055.027.113.011.184-.037.058 0 .091.043.091.135a.163.163 0 0 1 .065-.044l.113-.048h-.086a.218.218 0 0 1-.049-.065.249.249 0 0 0-.043-.07c.048.021.086.021.102.006.022-.012.033-.033.033-.049h-.092c-.069-.055-.069-.098 0-.141.071-.037.129-.07.184-.086h-.092c-.049.049-.097.081-.135.086-.043.011-.086.028-.14.049m-.312-5.761c0 .032.005.048.021.048s.021-.011.027-.021c.006-.017.006-.032 0-.038-.006-.011-.021-.005-.048.011m.113-.588c.01 0 .021-.005.027-.022.006-.015.006-.027 0-.037-.006-.011-.022-.006-.055.016 0 .027.012.043.028.043m-.028.954c.076 0 .141.01.205.027l.205.065c0-.076-.026-.119-.076-.129-.048-.017-.101-.033-.15-.054a.39.39 0 0 0-.092.016c-.037.011-.069.005-.092-.016v.091zm.319 1.315c0 .016-.016.049-.059.092-.038.037-.033.07.016.086a.205.205 0 0 0-.135.055.503.503 0 0 1-.141.086h.141c.011 0 .016-.006.027-.017.022-.022.043-.032.059-.032v.091-.091a.22.22 0 0 0 .119-.028.34.34 0 0 1 .113-.064.132.132 0 0 1-.07-.022.142.142 0 0 0-.07-.021.165.165 0 0 1 .091-.043.19.19 0 0 0 .092-.049.521.521 0 0 0 .227.049.187.187 0 0 0-.092-.049.304.304 0 0 1-.092-.043h-.226zm-.319 3.352c0 .033.006.054.017.06l.032.032c.027 0 .076-.032.135-.092h-.184zm0 4.129c.023 0 .049-.011.087-.033.032-.021.054-.038.054-.059-.022-.022-.049-.022-.086-.01-.032.016-.055.048-.055.102m.092-5.896c-.016 0-.037.022-.054.059-.01.044.006.053.054.032.055 0 .081-.022.092-.059.011-.043-.022-.054-.092-.032m-.043-1.224c-.021.071-.011.119.038.135a.157.157 0 0 0 .14 0 .214.214 0 0 0-.086-.043c-.043-.011-.071-.043-.092-.092m0-.814c-.021.049-.005.076.043.076.055 0 .065-.027.049-.076h-.092zm0-1.498c0 .049.027.07.076.054.048-.016.086-.033.102-.054.022-.049 0-.07-.059-.054-.059.016-.098.032-.119.054m0 4.489c.049 0 .086.011.113.028.022.022.049.044.065.064 0-.054-.005-.092-.022-.112-.01-.028-.021-.049-.021-.072 0 .023-.016.039-.054.044a.21.21 0 0 0-.081.048m.043 1.904c0 .031.012.047.022.047.016 0 .027-.01.033-.026.005-.017.005-.027 0-.038-.006-.011-.022-.005-.055.017m.049-6.754a.184.184 0 0 0 .135-.048c.021-.048-.005-.066-.071-.054-.064.016-.086.048-.064.102m0 4.172c0 .026.006.043.021.043.017 0 .022-.006.033-.022v-.037c-.011-.012-.027-.006-.054.016m.043 4.123v.091h.092v.043h.091v.092h-.226a.186.186 0 0 0 .064.049c.028.01.049.021.071.043a.258.258 0 0 0 .156-.119c.037-.065.092-.071.162-.016v-.135c-.022-.021-.065-.027-.129-.01-.065.015-.098-.011-.098-.081-.021 0-.053 0-.091.004-.043.006-.071.017-.092.039m0-5.983c0 .028.011.043.021.043.017 0 .028-.006.033-.021.004-.016.004-.028 0-.037-.005-.012-.022-.006-.054.015m.092.545h.091v.086a.267.267 0 0 0-.183.092.3.3 0 0 1 .135-.022c.042.005.07 0 .091-.021.033-.023.043-.043.038-.07a.11.11 0 0 0-.038-.065.096.096 0 0 0-.076-.033c-.026 0-.048.011-.058.033m-.092 2.673c0 .021.011.032.021.042.017.012.022.027.022.05a.36.36 0 0 1 .07-.06.179.179 0 0 1 .113-.032.137.137 0 0 0 .071-.022.112.112 0 0 1 .064-.021l-.043-.049a1.12 1.12 0 0 1-.156.06.493.493 0 0 1-.162.032m.318 1.993a.576.576 0 0 0-.194.033c-.066.022-.103.055-.124.103.058 0 .124.032.183.091a.262.262 0 0 1 .135-.08.877.877 0 0 1 .135-.011.12.12 0 0 0-.022-.066.125.125 0 0 1-.021-.07.236.236 0 0 1-.049-.059c-.006-.021-.021-.032-.043-.032-.059 0-.092.032-.092.091h.092zm-.275-6.844h.092a.195.195 0 0 1 .07-.048.141.141 0 0 0 .07-.043c-.054 0-.092-.006-.113-.022a.124.124 0 0 0-.07-.021c-.034.027-.049.075-.049.134m0 8.386a.21.21 0 0 0 .14.011c.038-.016.086-.037.135-.054v.135h.032a.247.247 0 0 0 .06-.048l-.033-.027c-.011-.012-.016-.034-.016-.06-.049 0-.102 0-.156.006a.585.585 0 0 0-.162.037m.107-9.179a.1.1 0 0 1 .033.066.242.242 0 0 0 .043-.066.27.27 0 0 1 .049-.07c-.021 0-.044 0-.07-.004-.028-.006-.065-.022-.113-.039a.553.553 0 0 0 .058.113m-.058 5.008c0 .059.032.059.091 0 0-.059-.033-.059-.091 0m.043-2.178c.022.022.054.028.091.016a.462.462 0 0 1 .092-.016h.135c.021 0 .043.011.07.028.027.01.049.021.065.021v-.092c-.071.022-.114.011-.124-.032-.017-.038-.033-.059-.054-.059a.251.251 0 0 0-.172.053c-.049.038-.081.065-.103.081m.183-2.808c.059.059.092.103.092.135h-.227c.071.022.146.038.227.054s.156.01.226-.011a.6.6 0 0 0 .27-.059.432.432 0 0 1 .273-.027c0-.022-.009-.043-.02-.07a.132.132 0 0 1-.026-.07.973.973 0 0 0-.136.011.531.531 0 0 0-.135.037c-.048.022-.086.022-.112.006a.35.35 0 0 1-.071-.054v.032c0 .033.016.049.049.06-.054 0-.092.011-.113.032-.027.022-.049.037-.07.059v-.091l-.135.048c0-.011.005-.022.016-.033.016-.021.027-.037.027-.059l.135.044a.683.683 0 0 0-.065-.06.18.18 0 0 0-.113-.032l-.033.032c-.011.012-.027.016-.059.016m-.135 1.677h.178c.022 0 .038-.006.049-.022.011-.016.021-.021.043-.021-.049 0-.103 0-.156.005-.059.005-.097.016-.114.038m0 2.176c.017-.021.048-.032.092-.037a.829.829 0 0 1 .135-.01c0-.017-.011-.039-.022-.066-.015-.026-.027-.048-.027-.069-.016.021-.049.043-.086.069a.217.217 0 0 0-.092.113m0 .545c.017.022.033.028.043.028a.27.27 0 0 0 .092-.028c-.021-.021-.037-.032-.043-.032a.37.37 0 0 0-.092.032m.043.906c-.021.048 0 .081.055.096.053.017.08 0 .08-.052-.059-.061-.102-.077-.135-.044m0-4.215c.055 0 .097.006.135.021a.366.366 0 0 0 .141.023c0 .058-.017.107-.049.134.081-.081.097-.168.049-.269-.055 0-.098 0-.141.005-.038.005-.08.032-.135.086m.276 1.86a.162.162 0 0 0-.049.059c-.011.021-.038.027-.092.027 0 .064-.027.092-.086.092.017.021.048.043.086.07.043.026.07.048.092.064.021-.016.043-.033.07-.042a.237.237 0 0 0 .065-.043c-.016-.023-.049-.039-.086-.049-.044-.012-.071-.022-.092-.043.07 0 .129-.049.178-.135h-.086zm-.184 1.266c0 .033.005.049.022.049.015 0 .026-.011.033-.028a.059.059 0 0 0 0-.037c-.007-.012-.023-.006-.055.016m.092 1.541a.211.211 0 0 0-.049.07.118.118 0 0 1-.043.064.228.228 0 0 0 .092-.021.24.24 0 0 1 .092-.021c.026 0 .043-.032.043-.092h-.135zm0-2.22l-.049.043c.032.032.075.048.141.048.015-.022.032-.043.043-.07a.305.305 0 0 1 .043-.065.246.246 0 0 0-.086.022.257.257 0 0 1-.092.022m0 6.122c.026.027.092.043.178.043a.14.14 0 0 0 .07-.02.126.126 0 0 1 .07-.023c.016.07.064.098.134.081a.195.195 0 0 1 .184.054c.016 0 .043-.01.064-.022.027-.015.049-.027.069-.027-.058 0-.107-.01-.133-.043-.066 0-.109-.016-.14-.043a.435.435 0 0 1-.265-.027c-.086-.032-.161-.027-.231.027m.092-4.263a.11.11 0 0 1 .064.022.132.132 0 0 0 .07.021c.022-.069-.005-.108-.07-.112-.064-.006-.086.022-.064.069m.086-2.134c-.016 0-.043.027-.077.071-.026.048-.015.07.034.07.048 0 .086-.027.113-.088.026-.053 0-.069-.07-.053m-.086.592c0 .049 0 .077.005.081.004.006.032.011.081.011 0-.053 0-.08-.006-.086-.005-.006-.032-.006-.08-.006m.086.184c0 .027.01.043.027.043.011 0 .021-.006.026-.022.005-.015.005-.026 0-.037-.005-.01-.022-.006-.053.016m.231-1.455c0 .055 0 .107.011.162.012.054.054.092.124.113v-.183a.17.17 0 0 0-.07-.043.17.17 0 0 1-.065-.049m0 .502v.092a.146.146 0 0 0 .114-.055.392.392 0 0 1 .064-.086c-.022 0-.048.006-.091.01-.038.006-.07.016-.087.039m.043.905c-.02.032-.026.048-.017.054.012.005.023.005.039 0 .016-.006.022-.017.022-.032 0-.017-.012-.022-.044-.022m.544 5.755c-.048.021-.048.049.017.082.059.026.097.031.118.01 0-.048-.016-.08-.054-.097-.032-.016-.059-.011-.081.005"/></g></svg>