<svg xmlns="http://www.w3.org/2000/svg" viewBox="0 0 67.726 9.435"><g fill="#4c9761"><path d="M4.178 9.237C3.98 9.237.247 9.113 0 9.113c.037-.657.037-3.311.037-3.596V3.856C.037 3.657.011.669 0 .434c.297 0 3.533-.186 3.931-.236l.049.979c-.397 0-2.629.063-2.827.063v3.149c.223 0 1.81-.062 2.418-.136l.037.979c-.273 0-2.208-.049-2.455-.049v3.025c.298 0 1.959.037 2.976-.037l.049 1.066zM7.153 3.657c0-.26-.012-2.877-.062-3.223.706 0 2.083-.013 3.162.123 4.042.509 4.537 2.306 4.537 3.174 0 3.844-4.884 5.443-7.712 5.443.05-.569.075-3.645.075-3.979V3.657zm1.116 4.427c3.385-.298 5.307-2.294 5.307-4.03 0-1.884-2.096-2.728-5.307-2.691v6.721zM15.037 8.704C15.719 7.514 19.29.471 19.588 0h.024c1.092 1.761 4.031 7.353 4.874 8.642l-1.054.694c-.248-.471-1.563-3.012-1.699-3.211l-4.303.174c-.148.236-1.165 2.629-1.376 3.05l-1.017-.645zm6.324-3.372c-.136-.273-1.662-3.162-1.785-3.36-.186.273-1.612 3.31-1.724 3.508l3.509-.148zM25.227 9.051c.236-.521 2.89-8.518 2.951-8.816h.025c.384.781 2.715 5.368 3.088 5.989.434-.694 3.013-5.22 3.249-5.605h.024c.434 1.018 2.653 7.056 3.186 8.357l-1.065.459c-.31-.93-2.208-6.124-2.406-6.584-.447.695-2.641 4.576-3.15 5.382h-.024c-.72-1.339-2.257-4.352-2.754-5.481-.247.769-1.958 6.2-2.107 6.683l-1.017-.384zM38.505 8.704C39.186 7.514 42.758.471 43.056 0h.024c1.091 1.761 4.03 7.353 4.873 8.642l-1.054.694c-.248-.471-1.562-3.012-1.698-3.211l-4.303.174c-.149.236-1.166 2.629-1.377 3.05l-1.016-.645zm6.324-3.372c-.137-.273-1.662-3.162-1.786-3.36-.186.273-1.612 3.31-1.724 3.508l3.51-.148zM48.695 9.051c.236-.521 2.889-8.518 2.951-8.816h.025c.384.781 2.715 5.368 3.088 5.989.434-.694 3.012-5.22 3.248-5.605h.025c.434 1.018 2.654 7.056 3.187 8.357l-1.067.459c-.31-.93-2.207-6.124-2.406-6.584-.446.695-2.64 4.576-3.149 5.382h-.025c-.719-1.339-2.256-4.352-2.752-5.481-.248.769-1.959 6.2-2.108 6.683l-1.017-.384zM67.726 9.237c-.198 0-3.931-.124-4.179-.124.037-.657.037-3.311.037-3.596V3.856c0-.199-.025-3.187-.037-3.422.298 0 3.534-.186 3.931-.236l.05.979c-.398 0-2.629.063-2.827.063v3.149c.222 0 1.81-.062 2.417-.136l.038.979c-.273 0-2.208-.049-2.455-.049v3.025c.296 0 1.959.037 2.976-.037l.049 1.066z"/></g></svg>