<svg xmlns="http://www.w3.org/2000/svg" viewBox="0 0 125.941 10.178"><g fill="#4c9761"><path d="M0 .169h2.165v3.894h3.992V.169h2.165v9.84H6.157v-3.95H2.165v3.95H0zM14.058.098h1.996l4.217 9.91h-2.263l-.9-2.207h-4.161l-.9 2.207H9.84l4.218-9.91zm2.277 5.791l-1.308-3.19-1.307 3.19h2.615zM21.789.169h4.021c2.347 0 3.767 1.392 3.767 3.401v.029c0 2.277-1.771 3.458-3.978 3.458h-1.645v2.952h-2.165V.169zm3.88 4.962c1.083 0 1.715-.646 1.715-1.49v-.028c0-.97-.675-1.49-1.757-1.49h-1.673v3.008h1.715zM31.179.169H35.2c2.347 0 3.767 1.392 3.767 3.401v.029c0 2.277-1.771 3.458-3.978 3.458h-1.645v2.952h-2.165V.169zm3.88 4.962c1.083 0 1.715-.646 1.715-1.49v-.028c0-.97-.675-1.49-1.757-1.49h-1.673v3.008h1.715zM43.199 6.129L39.417.169h2.531l2.347 3.95 2.39-3.95h2.46l-3.781 5.918v3.922h-2.165zM54.712.169h1.996l4.611 6.058V.169h2.137v9.84h-1.842l-4.765-6.255v6.255h-2.137zM65.382 5.117v-.028C65.382 2.291 67.589 0 70.625 0c3.037 0 5.215 2.263 5.215 5.06v.029c0 2.798-2.207 5.089-5.243 5.089-3.037 0-5.215-2.264-5.215-5.061m8.195 0v-.028c0-1.687-1.237-3.093-2.98-3.093-1.743 0-2.952 1.377-2.952 3.064v.029c0 1.686 1.237 3.092 2.98 3.092 1.743 0 2.952-1.378 2.952-3.064M77.331 5.117v-.028C77.331 2.291 79.538 0 82.574 0c3.037 0 5.215 2.263 5.215 5.06v.029c0 2.798-2.207 5.089-5.243 5.089-3.037 0-5.215-2.264-5.215-5.061m8.195 0v-.028c0-1.687-1.237-3.093-2.98-3.093-1.743 0-2.952 1.377-2.952 3.064v.029c0 1.686 1.237 3.092 2.98 3.092 1.743 0 2.952-1.378 2.952-3.064M89.715.169h3.838c3.093 0 5.229 2.122 5.229 4.892v.028c0 2.768-2.136 4.92-5.229 4.92h-3.838V.169zm2.165 1.954v5.932h1.673c1.771 0 2.966-1.196 2.966-2.938v-.028c0-1.743-1.195-2.966-2.966-2.966H91.88zM100.708.169h2.164v7.872h4.906v1.968h-7.07zM109.41.169h7.422v1.926h-5.272v1.996h4.64v1.926h-4.64v2.066h5.342v1.926h-7.492zM118.154 8.574l1.279-1.531c.886.73 1.814 1.194 2.938 1.194.886 0 1.42-.35 1.42-.928v-.028c0-.548-.337-.828-1.983-1.251-1.981-.506-3.26-1.054-3.26-3.008v-.028c0-1.785 1.433-2.966 3.444-2.966 1.434 0 2.656.45 3.654 1.251l-1.125 1.631c-.871-.606-1.728-.971-2.557-.971-.83 0-1.266.38-1.266.858v.029c0 .646.422.857 2.123 1.293 1.996.519 3.12 1.236 3.12 2.951v.028c0 1.955-1.489 3.05-3.612 3.05a6.258 6.258 0 0 1-4.175-1.574"/></g></svg>