<svg xmlns="http://www.w3.org/2000/svg" viewBox="0 0 32.571 11.532"><g fill="#4c9761"><path d="M5.43 3.63L4.177 4.735c-.439-.611-.887-.918-1.343-.918a.819.819 0 0 0-.545.179c-.141.119-.212.252-.212.402 0 .148.051.29.152.422.137.178.551.558 1.24 1.142.646.54 1.037.88 1.174 1.021.343.346.586.677.729.994.143.316.215.661.215 1.035 0 .729-.252 1.331-.756 1.807-.504.475-1.161.713-1.971.713-.633 0-1.184-.155-1.654-.466-.47-.31-.872-.797-1.206-1.461l1.421-.858c.428.785.92 1.178 1.476 1.178.29 0 .534-.085.732-.254s.297-.365.297-.586c0-.202-.075-.403-.224-.604-.149-.202-.478-.51-.986-.924C1.748 6.768 1.122 6.158.84 5.729.557 5.3.416 4.873.416 4.446c0-.616.235-1.145.705-1.586.47-.441 1.049-.662 1.739-.662.443 0 .865.103 1.267.308.401.206.835.581 1.303 1.124M11.863 3.63L10.61 4.735c-.439-.611-.887-.918-1.343-.918a.819.819 0 0 0-.545.179c-.141.119-.211.252-.211.402 0 .148.05.29.151.422.137.178.551.558 1.241 1.142.645.54 1.036.88 1.173 1.021.343.346.586.677.729.994.143.316.215.661.215 1.035 0 .729-.252 1.331-.755 1.807-.505.475-1.162.713-1.972.713-.633 0-1.184-.155-1.654-.466-.469-.31-.872-.797-1.206-1.461l1.421-.858c.428.785.92 1.178 1.477 1.178.29 0 .534-.085.732-.254.197-.169.296-.365.296-.586 0-.202-.075-.403-.224-.604-.149-.202-.478-.51-.986-.924-.968-.789-1.594-1.399-1.876-1.828-.283-.429-.424-.856-.424-1.283 0-.616.235-1.145.704-1.586.471-.441 1.051-.662 1.74-.662.444 0 .865.103 1.267.308.401.206.835.581 1.303 1.124M16.344 2.423h1.715l3.418 8.885h-1.758l-.695-1.83h-3.626l-.723 1.83h-1.758l3.427-8.885zM15.862 0a.84.84 0 0 1 .616.254.832.832 0 0 1 .254.61c0 .241-.085.447-.254.616s-.375.253-.616.253a.83.83 0 0 1-.61-.253.84.84 0 0 1-.254-.616c0-.238.085-.441.254-.61a.832.832 0 0 1 .61-.254m1.35 4.778l-1.193 3.051h2.378l-1.185-3.051zM18.538 0c.242 0 .447.085.616.254a.832.832 0 0 1 .254.61.84.84 0 0 1-.254.616.838.838 0 0 1-.616.253.83.83 0 0 1-.61-.253.84.84 0 0 1-.254-.616c0-.238.085-.441.254-.61a.832.832 0 0 1 .61-.254M23.647 2.423h1.648l2.06 6.197 2.079-6.197h1.647l1.49 8.885h-1.636l-.952-5.612-1.888 5.612h-1.491l-1.871-5.612-.975 5.612h-1.65z"/></g></svg>