<svg xmlns="http://www.w3.org/2000/svg" viewBox="0 0 112.367 10.177"><g fill="#4c9761"><path d="M6.691 4.779c0-.267-.014-.703-.028-1.181-.169 1.575-1.631 2.685-3.233 2.685C1.476 6.283 0 5.046 0 3.219v-.028C0 1.42 1.49 0 3.373 0c1.069 0 1.884.422 2.46.998C6.593 1.757 7 2.966 7 4.779v.028c0 3.078-1.42 5.37-3.865 5.37-1.04 0-2.095-.479-2.84-1.223l.211-.225c.731.716 1.687 1.167 2.642 1.167 2.264 0 3.543-2.236 3.543-5.117m-.239-1.546v-.028c0-1.631-1.377-2.924-3.093-2.924-1.686 0-3.05 1.335-3.05 2.895v.029c0 1.673 1.349 2.797 3.135 2.797 1.631 0 3.008-1.237 3.008-2.769M9.446.168h4.02c1.28 0 2.221.323 2.826.928.45.449.703 1.068.703 1.827v.029c0 1.658-1.322 2.642-3.219 2.754l3.275 4.302h-.38L13.41 5.72H9.755v4.288h-.309V.168zm3.866 5.272c2.277 0 3.374-1.083 3.374-2.474v-.028c0-1.561-1.209-2.489-3.248-2.489H9.755V5.44h3.557zM19.722.168h.31v9.84h-.31zM22.113.168h.337l4.26 9.474L30.968.168h.324l-4.47 9.91h-.239zM33.275.168h6.874v.281h-6.565v4.47h5.96v.282h-5.96v4.526h6.634v.281h-6.943zM42.566.168h4.02c1.28 0 2.221.323 2.825.928.451.449.704 1.068.704 1.827v.029c0 1.658-1.322 2.642-3.219 2.754l3.275 4.302h-.38L46.53 5.72h-3.655v4.288h-.309V.168zm3.866 5.272c2.277 0 3.373-1.083 3.373-2.474v-.028c0-1.561-1.209-2.489-3.247-2.489h-3.683V5.44h3.557zM52.111 8.574l.226-.225c.997.97 2.262 1.518 3.696 1.518 1.841 0 3.022-.998 3.022-2.319v-.029c0-1.208-.731-1.855-3.219-2.36-2.432-.493-3.359-1.21-3.359-2.587v-.029c0-1.377 1.349-2.516 3.204-2.516 1.294 0 2.447.436 3.346 1.125l-.197.253C57.959.744 56.862.308 55.654.308c-1.729 0-2.868 1.069-2.868 2.222v.027c0 1.196.759 1.828 3.177 2.32 2.558.521 3.401 1.293 3.401 2.629v.028c0 1.462-1.278 2.614-3.36 2.614-1.503 0-2.838-.576-3.893-1.574M62.927 8.574l1.279-1.532c.886.73 1.814 1.195 2.938 1.195.886 0 1.42-.352 1.42-.928v-.028c0-.548-.338-.829-1.982-1.251-1.982-.506-3.261-1.055-3.261-3.009v-.028c0-1.785 1.434-2.966 3.444-2.966 1.434 0 2.656.45 3.654 1.252l-1.124 1.63c-.871-.605-1.729-.97-2.558-.97-.83 0-1.266.38-1.266.858v.027c0 .647.422.858 2.123 1.294 1.996.521 3.121 1.237 3.121 2.952v.028c0 1.954-1.491 3.05-3.613 3.05-1.49 0-2.994-.52-4.175-1.574M75.761.097h1.996l4.217 9.911h-2.263l-.9-2.207h-4.16l-.9 2.207h-2.207L75.761.097zm2.277 5.792l-1.307-3.191-1.307 3.191h2.614zM83.493.168h2.165V8.04h4.905v1.968h-7.07zM95.569.097h1.996l4.217 9.911h-2.263l-.9-2.207h-4.161l-.899 2.207h-2.208L95.569.097zm2.277 5.792l-1.308-3.191-1.307 3.191h2.615zM103.3.168h3.838c3.092 0 5.229 2.123 5.229 4.892v.028c0 2.769-2.137 4.92-5.229 4.92H103.3V.168zm2.165 1.954v5.932h1.673c1.771 0 2.966-1.195 2.966-2.938v-.028c0-1.743-1.195-2.966-2.966-2.966h-1.673z"/></g></svg>