<svg xmlns="http://www.w3.org/2000/svg" viewBox="0 0 90.859 10.178"><path d="M0 .244h1.911c.768 0 1.359.091 1.772.273.413.183.739.462.978.84.24.378.359.797.359 1.258 0 .43-.105.823-.315 1.176-.209.354-.517.64-.924.86.503.171.891.372 1.163.602.271.231.483.51.633.837.151.327.226.682.226 1.064 0 .778-.283 1.435-.852 1.973s-1.332.807-2.289.807H0V.244zm.949.948v3.103h.555c.673 0 1.168-.063 1.485-.188.317-.125.567-.322.753-.592.185-.27.277-.57.277-.9 0-.443-.155-.791-.466-1.044-.31-.252-.804-.379-1.482-.379H.949zm0 4.078v3.715H2.15c.709 0 1.228-.069 1.557-.207.33-.138.595-.355.795-.649.2-.294.301-.613.301-.955 0-.43-.141-.806-.422-1.127-.282-.321-.668-.54-1.161-.658-.33-.08-.904-.119-1.723-.119H.949zM11.68.244l4.519 9.69h-1.046l-1.525-3.188H9.454L7.945 9.934h-1.08l4.578-9.69h.237zm-.122 2.059L9.897 5.811h3.313l-1.652-3.508zm6.149 7.631V.244h.21l6.449 7.428V.244h.956v9.69h-.218l-6.396-7.337v7.337zm19.321-8.063l-.751.711a5.752 5.752 0 0 0-1.775-1.209c-.644-.273-1.271-.411-1.881-.411-.76 0-1.483.186-2.171.56a4.064 4.064 0 0 0-1.597 1.518 3.925 3.925 0 0 0-.566 2.026c0 .729.195 1.422.586 2.078a4.16 4.16 0 0 0 1.62 1.548c.69.375 1.445.563 2.266.563.997 0 1.84-.28 2.53-.843a3.327 3.327 0 0 0 1.225-2.187h-3.09v-.936h4.177c-.009 1.498-.453 2.687-1.334 3.568-.88.88-2.058 1.321-3.534 1.321-1.791 0-3.21-.611-4.255-1.831a4.868 4.868 0 0 1-1.206-3.261 5 5 0 0 1 .692-2.563A4.92 4.92 0 0 1 29.861.669C30.665.223 31.574 0 32.588 0c.821 0 1.594.148 2.319.445.724.296 1.431.772 2.121 1.426M39.445.244h.988V3.88L44.306.244h1.302l-4.654 4.348 5.016 5.342h-1.29L40.433 5.42v4.514h-.988zM52.03 0c1.468 0 2.696.49 3.685 1.469.988.98 1.483 2.185 1.483 3.617 0 1.418-.494 2.622-1.48 3.609-.986.989-2.189 1.483-3.609 1.483-1.437 0-2.65-.492-3.638-1.476-.989-.984-1.483-2.174-1.483-3.57 0-.931.225-1.794.675-2.589A4.932 4.932 0 0 1 49.505.675 4.97 4.97 0 0 1 52.03 0m.043.942c-.717 0-1.396.187-2.039.561a4.027 4.027 0 0 0-1.504 1.509 4.198 4.198 0 0 0-.541 2.117c0 1.151.399 2.123 1.197 2.917.799.793 1.761 1.19 2.887 1.19.752 0 1.448-.183 2.088-.547a3.924 3.924 0 0 0 1.498-1.497 4.21 4.21 0 0 0 .538-2.109 4.11 4.11 0 0 0-.538-2.087 4.02 4.02 0 0 0-1.514-1.493 4.099 4.099 0 0 0-2.072-.561m7.068-.698h.988V3.88L64.002.244h1.302L60.65 4.592l5.016 5.342h-1.29L60.129 5.42v4.514h-.988zm15.447.168c0 .092-.017.158-.049.2a.466.466 0 0 0-.075.185V.77l-.041-.042c-.019.019-.025.033-.021.042s-.002.023-.02.041a.73.73 0 0 0 .068.11c.028.037.06.082.096.137h-.137c.018-.036.014-.091-.014-.165a.095.095 0 0 0-.027.069.09.09 0 0 1-.028.069.265.265 0 0 1-.137.055v-.014c0-.009.014-.027.041-.055-.046-.018-.073-.034-.082-.048a.663.663 0 0 0-.07-.076.668.668 0 0 0 .07.275c-.055-.009-.119.023-.193.096 0 .019.005.037.014.056a.12.12 0 0 1 .014.054.254.254 0 0 1-.145-.041c-.041-.028-.071-.041-.089-.041a.416.416 0 0 0 .055-.069.205.205 0 0 1 .083-.068.132.132 0 0 1-.035-.076.335.335 0 0 0-.034-.103c.036 0 .075-.003.116-.007a.323.323 0 0 0 .118-.035.52.52 0 0 0-.118-.109l-.144-.097a.487.487 0 0 0-.062.042c-.023.018-.029.059-.02.123-.055.01-.112-.006-.172-.048a.183.183 0 0 1-.089-.158v.028c0 .018.014.032.041.041.018-.018.032-.028.041-.028s.023-.008.041-.027a.15.15 0 0 0-.075-.076.146.146 0 0 1-.076-.075.104.104 0 0 0-.028.075.106.106 0 0 1-.026.076c-.019.009-.037.032-.056.069-.018.036-.05.055-.096.055S73.17.82 73.192.811c.024-.009.012-.014-.034-.014-.045 0-.078.023-.096.069a.344.344 0 0 0-.027.124h-.193a.29.29 0 0 1-.047-.062.187.187 0 0 0-.077-.062c-.018.019-.004.05.042.096a.569.569 0 0 0-.303-.069c0-.055.033-.096.096-.123-.018-.055-.043-.087-.075-.096-.032-.01-.039-.014-.021-.014a.118.118 0 0 0 .035-.062.34.34 0 0 1 .035-.089c-.02-.019-.037-.021-.056-.007-.018.014-.027.03-.027.048a.168.168 0 0 1-.041-.055.245.245 0 0 0-.041-.055h-.193a.168.168 0 0 0-.055.123.163.163 0 0 0 .117.014.548.548 0 0 1 .117-.014.139.139 0 0 0-.035.083.721.721 0 0 0-.007.096c-.201.119-.302.284-.302.495v.076c0 .004.009.016.027.034.019-.018.057-.025.117-.021a.214.214 0 0 0 .158-.048v.027c0 .019-.009.038-.027.056a.263.263 0 0 0 .192.082c.046 0 .071-.004.075-.014.005-.009.007-.004.007.014a.155.155 0 0 0-.082-.007 7.038 7.038 0 0 0-.22.035c.009.009.042.013.097.013a.157.157 0 0 1-.021.069 1.24 1.24 0 0 0-.041.089.23.23 0 0 0-.021.09c0 .027.018.055.055.082-.019-.009-.041 0-.069.028a.354.354 0 0 0-.068.096v.013c0 .019.004.033.013.042.018 0 .035-.012.048-.035a.364.364 0 0 1 .049-.061c.018.018.045.025.082.02.036-.004.064.003.082.021-.082.128-.169.192-.261.192-.046 0-.071-.011-.075-.034a.128.128 0 0 0-.034-.062c-.037.037-.056.069-.056.096a.848.848 0 0 0-.254-.013 2.15 2.15 0 0 1-.268.013v.111c.009-.037-.002-.06-.034-.069a.258.258 0 0 1-.103-.069.306.306 0 0 1-.117.11.316.316 0 0 1-.158.054c-.047 0-.069-.006-.069-.02 0-.013-.009-.02-.027-.02 0 .027.013.05.041.068a.964.964 0 0 1 .206.09.393.393 0 0 0 .178.061c.037 0 .07-.007.097-.02a.134.134 0 0 1 .096-.007.23.23 0 0 1 .035.041c.004.01.029.014.075.014s.067-.012.062-.035c-.005-.022.016-.034.062-.034s.085.014.116.041a.542.542 0 0 0 .104.07c-.055.1-.06.164-.014.191a.244.244 0 0 0 .124.042.157.157 0 0 0 .116-.048.16.16 0 0 1 .117-.048c.046 0 .081.013.104.041.022.028.052.06.089.096.009-.009.018-.014.027-.014.018 0 .027.009.027.028a.201.201 0 0 1-.027.11c.018.11.06.219.124.329v6.749a1.243 1.243 0 0 1-.076.096.152.152 0 0 1-.117.055.178.178 0 0 0-.082.014.262.262 0 0 1-.096.013.195.195 0 0 1-.124-.041.53.53 0 0 0-.124-.069c-.009.083-.005.121.014.117.018-.005-.009-.007-.082-.007a.294.294 0 0 1-.124-.034.307.307 0 0 0-.138-.035.954.954 0 0 0-.206.035.993.993 0 0 1-.206.034.087.087 0 0 1-.082-.048c-.019-.032-.051-.048-.097-.048a.203.203 0 0 0-.103.021c-.023.014-.034.011-.034-.007a.11.11 0 0 0-.062-.034c-.023-.005-.043-.021-.062-.049-.018.019-.032.039-.041.062s-.023.034-.041.034a2.362 2.362 0 0 1-.048-.26 1.815 1.815 0 0 1-.021-.221c0-.036.018-.068.055-.096a.27.27 0 0 0 .083-.096.301.301 0 0 0-.069-.048.157.157 0 0 1-.069-.076V3.463c0-.118.025-.205.076-.261a.84.84 0 0 0 .144-.274c0 .045.022.091.069.137a.128.128 0 0 0 .034-.076c.005-.032-.002-.048-.021-.048.028.01.074-.004.138-.041-.073-.046-.126-.064-.158-.055a.782.782 0 0 1-.213 0 1.16 1.16 0 0 0-.014-.172 2.546 2.546 0 0 1-.021-.185.803.803 0 0 1 .007-.179.168.168 0 0 1 .097-.124 1.1 1.1 0 0 0-.166-.219c-.027-.028-.066-.042-.116-.042a.347.347 0 0 1-.116-.014.519.519 0 0 1-.028-.062c-.01-.022-.032-.043-.069-.061l-.151.137c-.046-.036-.115-.036-.207 0a.091.091 0 0 0-.02-.055.753.753 0 0 0-.048-.055h-.096a.779.779 0 0 1-.055.049c-.019.013-.019.029 0 .047-.019 0-.049.003-.09.007a1.205 1.205 0 0 1-.144.007c-.018-.027-.009-.087.028-.179-.019-.018-.023-.032-.014-.041.009-.009-.009-.013-.055-.013s-.067.011-.062.034c.004.023-.016.03-.062.02h-.247V.165c.055-.018.144-.032.268-.041a9.363 9.363 0 0 1 1.326 0 5.003 5.003 0 0 0 .618.055c.046 0 .08-.012.104-.035.022-.023.057-.033.103-.033.045 0 .096.015.151.047a.295.295 0 0 0 .151.048c.046 0 .078-.011.096-.034a.23.23 0 0 1 .083-.061h.123l-.068.068c-.028.027-.042.05-.042.068a.145.145 0 0 0 .083.028h.11c.046 0 .084-.023.117-.069.032-.046.071-.068.116-.068.046 0 .067.011.062.034-.004.023.016.034.062.034s.08-.013.104-.041a.11.11 0 0 1 .089-.041 2.6 2.6 0 0 1 .439-.021c.174.005.284.008.33.008.064 0 .11.004.138.013.027.009.043.02.048.034a.49.49 0 0 1 .013.062c.005.027.016.06.035.096.018-.018.025-.034.02-.048-.004-.014-.002-.025.007-.034A.223.223 0 0 1 73.983.2c.036-.014.032-.044-.014-.089a.559.559 0 0 0 .158.033.7.7 0 0 1 .172.035l.041-.014a.281.281 0 0 1 .076-.021c.032-.004.075-.006.13-.006.019.036.03.08.035.13.004.051.007.099.007.144m-4.92.893V.797c0-.045-.01-.069-.028-.069h-.124c-.055 0-.082.037-.082.11 0 .047.014.111.041.193.028.082.059.16.096.233l.097.041zm.316-.096c-.028 0-.055.023-.083.069-.027-.036-.055-.055-.082-.055-.028 0-.051-.018-.069-.055a.093.093 0 0 1-.027.069c-.01.009-.014.019-.014.027a.925.925 0 0 0 .116.062c.033.014.053.044.062.09l.028-.083a.571.571 0 0 1 .069-.124m.439.096v-.123a2.304 2.304 0 0 1-.158-.117c-.05-.041-.075-.085-.075-.131 0-.018.004-.022.014-.013.009.009.023.013.041.013.045 0 .078-.013.096-.041.019-.027.036-.041.055-.041a.366.366 0 0 0-.062-.048.293.293 0 0 1-.062-.048.71.71 0 0 0-.13.144c-.042.06-.062.103-.062.131 0 .046.002.069.007.069s.016.009.034.027h.055c.018 0 .046.009.083.028a1.02 1.02 0 0 1-.138.178.254.254 0 0 0 .158.007l.144-.035m.275-.535l-.165-.042c0 .046.007.085.021.117a.23.23 0 0 1 .02.076.23.23 0 0 0 .09-.076c.023-.032.034-.057.034-.075m.069.481h-.124l-.041.192h.124c0-.055-.005-.089-.014-.103-.009-.014.009-.043.055-.089m.151.041l-.055-.028-.041.097.055.013.041-.082zm.014-.343h-.082v.069h.082V.949zm.357-.207a.874.874 0 0 1-.302-.055.165.165 0 0 0-.041.069.174.174 0 0 1-.042.069h.166a.283.283 0 0 1 .13-.083c.041-.009.071-.009.089 0m-.165 3.643c-.018 0-.025-.014-.02-.042.004-.028-.016-.041-.062-.041h-.138l.11.055a.25.25 0 0 0 .11.028m-.096.357c-.018 0-.03.011-.034.034a.294.294 0 0 0-.007.062c.018 0 .034-.016.048-.048.014-.032.011-.048-.007-.048m.11-1.512v-.137l-.096.082c.008.018.021.027.034.027.014 0 .025.005.034.014.01.009.019.014.028.014m.096 1.209c-.018.009-.027.019-.027.028 0 .009-.005.018-.014.027-.009.01-.014.019-.014.028.019 0 .037-.009.055-.028.019-.018.019-.036 0-.055m-.041 5.181v-.137c.036.018.05.041.041.069a.172.172 0 0 1-.041.068m.261-6.638v-.11a.27.27 0 0 1-.055.082h-.138c0 .028.005.051.015.07a.138.138 0 0 0 .027.041.167.167 0 0 1 .076-.041.175.175 0 0 0 .075-.042m-.11 6.322c-.018 0-.036-.011-.055-.034-.018-.023-.028-.044-.028-.062a.478.478 0 0 0 .056.048c.018.014.027.031.027.048m.11-5.758a.224.224 0 0 0-.165-.069v.124c.046 0 .069.023.069.068.019-.017.039-.038.062-.061.022-.023.034-.044.034-.062m.042.412c-.056 0-.083-.023-.083-.068h-.124v.123a.15.15 0 0 1 .11.041l.097-.096zm.233 5.497c-.018 0-.025.005-.02.014.004.01-.017.014-.062.014-.046 0-.085-.023-.118-.069-.032-.046-.066-.068-.103-.068 0 .036-.018.078-.054.123-.037.046-.051.083-.041.11.036 0 .079.007.13.021.05.014.094.02.131.02.045 0 .076-.018.089-.055a1.47 1.47 0 0 1 .048-.11m-.069.509h-.124c0-.028-.027-.069-.082-.123.046-.019.085-.012.117.02s.061.067.089.103m-.068-7.284a.262.262 0 0 0-.056-.137c0 .027-.008.05-.027.068a.04.04 0 0 0-.013.028.072.072 0 0 0 .054.027c.009.01.023.014.042.014m0 .192h-.096v.069h.096v-.069zm.206 1.457a.868.868 0 0 1-.11-.096l-.11-.11-.028.027a.23.23 0 0 0-.027.097c0 .045.009.071.027.075a.125.125 0 0 1 .055.035c.019 0 .03-.009.034-.028.005-.018.031-.027.076-.027.046 0 .067.006.062.02-.004.014.002.017.021.007M71.715.811c0-.046-.023-.069-.068-.069.045 0 .068.023.068.069m.372 2.845a.733.733 0 0 1-.145-.014.243.243 0 0 1-.131-.069v.138c.046 0 .097-.01.152-.028a.441.441 0 0 1 .124-.027m-.042 1.58l-.041-.055-.041.042.055.041.027-.028zm.412-2.693l-.137.041v-.041l.124-.042.013.042zm.193-.646v.165c-.009 0-.018-.005-.027-.014a.05.05 0 0 0-.035-.014c-.014 0-.025-.009-.035-.027a.243.243 0 0 0 .049-.069c.014-.028.03-.041.048-.041m.041-1.594h-.096v.055h.096V.303zm-.028.467c-.018-.009-.036-.005-.054.013-.01.01-.014.023-.014.042l.068-.055zm.647.975l-.152-.027-.075.075c-.014.015-.018.028-.014.042.004.013.029.016.076.007a.316.316 0 0 0-.158.041.31.31 0 0 1-.145.041.172.172 0 0 1-.103-.034.18.18 0 0 0-.103-.035.283.283 0 0 0-.02-.082.255.255 0 0 1-.021-.082c.055 0 .096.009.123.027l.014-.014a.152.152 0 0 1 .042-.027c.009-.037.015-.083.021-.138a.349.349 0 0 1 .061-.165c.018.055.05.108.096.159.046.05.092.103.137.158a.335.335 0 0 0 .11-.069l.069-.069v.041c0 .019.014.028.042.028v.123zm-.55-.577c-.055.01-.083.06-.083.152 0-.056-.014-.161-.041-.317a.38.38 0 0 1 .096.069c.028.028.037.06.028.096m-.055 2.378h-.055v.096h.055v-.096zm.123-3.12h-.165c0 .028.005.046.014.055a.131.131 0 0 0 .028.041.29.29 0 0 1 .062-.047.32.32 0 0 0 .061-.049m-.082 3.601h-.069v.123h.069v-.123zm.028.618h-.056l-.041.11.055.028.042-.138zm-.028 2.268h-.069v.097h.069v-.097zm.289-6.02c0-.018-.019-.043-.055-.075a.17.17 0 0 0-.11-.048c.018.018.046.043.082.075.036.033.064.048.083.048m0 .179l-.124.041v-.055l.11-.041.014.055zm.082.508v-.027c0-.019-.009-.036-.028-.055.037.036.046.064.028.082m.275-1.044l-.055-.027-.041.096.055.013.041-.082zm0 1.347h-.055v-.165h.055v.165zm.261-.797a.179.179 0 0 0-.082.076.19.19 0 0 1-.083.075l-.041-.124a.187.187 0 0 1 .096-.041c.046-.009.083-.004.11.014m.096.288c0 .038.005.076.014.118a.166.166 0 0 1-.014.116c-.018 0-.025-.009-.02-.028.004-.018-.016-.027-.062-.027s-.062.002-.048.007c.014.005.021.016.021.034 0-.027.004-.06.013-.096a.516.516 0 0 0 .014-.124h.082zm.797.069h-.219c-.047 0-.101.034-.165.103a1.034 1.034 0 0 1-.207.172l-.192-.055c.018 0 .039-.014.062-.041.023-.028.057-.042.103-.042.046 0 .089-.034.131-.103a.807.807 0 0 1 .116-.157c-.009-.01-.013-.019-.013-.028-.009-.009-.014-.028-.014-.055l.069.068a.145.145 0 0 0 .11.042c.045 0 .068-.014.068-.042 0-.027.009-.049.028-.068a.38.38 0 0 1 .062.007.125.125 0 0 1 .061.034v.165zm-.247.344a.646.646 0 0 0-.233-.042.147.147 0 0 1 .082-.075c.036-.013.073-.03.11-.048.055.036.069.091.041.165M77.048.289A.433.433 0 0 1 77 .461a.74.74 0 0 0-.062.171v.261c-.046-.036-.069-.089-.069-.158a.574.574 0 0 0-.013-.144h-.097c-.009.018-.027.032-.055.041a.286.286 0 0 0-.096.069c.046.046.069.087.069.123-.064.083-.028.165.11.248a.155.155 0 0 0 .075-.069.167.167 0 0 1 .076-.069c0 .175.004.36.014.557.008.197.005.387-.014.571a.61.61 0 0 0-.302-.096.707.707 0 0 0 .116.116c.042.032.081.064.117.096a.333.333 0 0 1 .083.11.198.198 0 0 1 0 .144h.028a.247.247 0 0 1-.021.111c-.014.027-.017.036-.007.027-.01.009-.014.019-.014.027v.056a.12.12 0 0 1-.034-.069.127.127 0 0 0-.035-.069c-.018.018-.027.035-.027.048v.048a.396.396 0 0 1-.103-.117 2.805 2.805 0 0 1-.062-.116c.036 0 .059-.012.069-.035a.309.309 0 0 1 .068-.089l-.068-.055c-.028-.009-.048 0-.062.028a.785.785 0 0 1-.062.096v.055a.316.316 0 0 1-.11-.111c-.028-.045-.042-.077-.042-.095.037-.019.072-.035.104-.049.032-.014.066-.029.103-.048-.018-.036-.041-.057-.069-.062a.152.152 0 0 1-.082-.047l-.117.143-.117.145a.262.262 0 0 0 .083.075.214.214 0 0 0 .123.049v.123h-.109a.487.487 0 0 1-.021.145c-.014.041-.03.084-.049.13h-.123c0-.018-.007-.029-.021-.034-.013-.005-.02-.03-.02-.076s.018-.089.055-.131a.342.342 0 0 1 .082-.075c-.018-.018-.022-.025-.014-.021.009.005-.008.007-.055.007-.046 0-.068.007-.068.021v.048a1.022 1.022 0 0 1-.234-.261l.055-.357v.069c0 .027.009.05.027.068.046-.037.095-.057.145-.062s.103-.016.158-.034v-.124a.2.2 0 0 1-.138.007c-.045-.013-.096-.03-.151-.048.019 0 .041-.014.069-.041a.147.147 0 0 1 .11-.041c.036 0 .066-.03.089-.09a.4.4 0 0 1 .076-.131.193.193 0 0 1 .041-.027c.018-.009.023-.023.014-.041v-.055a.913.913 0 0 0 .068.061.163.163 0 0 0 .11.035c.046 0 .067-.011.062-.035-.004-.022.003-.038.021-.047a.192.192 0 0 1 .082-.014.344.344 0 0 0 .124-.027.326.326 0 0 0-.062-.049c-.023-.013-.016-.029.021-.048-.064-.036-.106-.052-.124-.048-.018.005-.041-.052-.069-.172a.09.09 0 0 0-.027.062.083.083 0 0 1-.028.062.323.323 0 0 1-.061.048.124.124 0 0 1-.063.021v-.028c0-.009.01-.023.028-.041a.348.348 0 0 1-.076-.048l-.075-.076c0 .047.009.092.028.138.018.046.036.087.055.123-.074 0-.138.037-.193.11-.009.019-.009.034 0 .048s.014.03.014.048a.298.298 0 0 1-.137-.034.29.29 0 0 0-.097-.034.347.347 0 0 0 .055-.076.185.185 0 0 1 .083-.075.125.125 0 0 1-.034-.076.37.37 0 0 0-.035-.103c.064.019.146.009.248-.027a.35.35 0 0 0-.152-.104c-.064-.022-.096-.057-.096-.103 0-.037.007-.071.021-.103a.292.292 0 0 0 .02-.117h.151c.064.028.09.054.076.076-.014.023-.002.058.035.103a.204.204 0 0 0 .041-.123.105.105 0 0 0-.055-.062.398.398 0 0 0-.069-.028c-.019-.004-.03-.011-.034-.021-.005-.009.015-.018.062-.027-.111 0-.161.009-.152.027.009.019-.005.028-.041.028-.046 0-.069-.011-.069-.035 0-.022-.023-.034-.069-.034-.073 0-.107.016-.103.048.005.032-.016.048-.062.048s-.068.007-.068.021v.048h-.041c-.01-.073-.033-.112-.069-.117-.037-.004-.032-.02.013-.048a.08.08 0 0 1 .015-.048c.008-.013-.01-.02-.056-.02-.064 0-.119.036-.165.109a.324.324 0 0 0 .076.097.157.157 0 0 0 .103.041.086.086 0 0 1-.062.027h-.062c-.018.019-.013.039.014.063a.11.11 0 0 1 .042.089.147.147 0 0 1-.09.034.96.96 0 0 1-.116.007c0-.074.001-.144.006-.213.004-.069.007-.14.007-.213 0-.018-.013-.037-.041-.055-.028-.018-.041-.051-.041-.097 0-.045.018-.091.054-.137.037-.046.056-.087.056-.124.082.01.146.012.192.008a.295.295 0 0 1 .096 0 .092.092 0 0 1 .049.034.633.633 0 0 1 .047.082l.048-.095c.014-.029.044-.042.09-.042s.068.011.068.034c0 .023.023.034.069.034a.165.165 0 0 0 .11-.034.939.939 0 0 0 .069-.062.35.35 0 0 1 .124.021.27.27 0 0 0 .082.02.175.175 0 0 1-.027.097c-.019.027.004.059.068.096V.111c.055-.019.119-.036.192-.049.074-.014.134-.021.179-.021.055 0 .098.034.131.103a.422.422 0 0 1 .048.145m-.068 4.343l-.042-1.746a.52.52 0 0 0-.151.103c-.055.051-.105.076-.151.076a.188.188 0 0 1-.131-.056c-.041-.036-.08-.055-.116-.055-.047 0-.093.04-.138.118-.046.078-.078.14-.096.186a.973.973 0 0 1 .123.116c.037.041.074.062.111.062.045 0 .056-.005.033-.014-.023-.009-.011-.014.035-.014s.067.021.062.062a.198.198 0 0 0 .021.117l-.056.055a10.221 10.221 0 0 1-.261-.137 1.912 1.912 0 0 1-.261-.179.206.206 0 0 1-.069-.096c-.018-.046-.05-.069-.096-.069-.083 0-.169.016-.261.048s-.169.021-.233-.034v2.227c0 .063.002.135.007.212l.013.241a.84.84 0 0 0 .034.206.595.595 0 0 0-.041.343c.018.138.028.243.028.316v.475c0 .16-.01.318-.028.474.018-.073.032-.142.041-.206.01-.064.023-.124.042-.179h.068a.57.57 0 0 1-.047.082c-.014.019-.017.046-.007.083.073 0 .121.023.144.068.023.046.025.106.006.179v-.034c0-.005.01-.016.028-.034l.069.068c.036-.027.052-.071.049-.13-.006-.059.02-.113.075-.159a.035.035 0 0 1-.028-.013.23.23 0 0 1-.042-.055l.056-.055h.041c.009 0 .023.01.041.027 0 .019.009.017.028-.006a.94.94 0 0 1 .082-.089l.069.068a1.2 1.2 0 0 0 .35-.048.94.94 0 0 1 .213-.048c.046 0 .09.023.131.069.041.045.085.086.131.123.018.065.031.117.041.158a.612.612 0 0 1 .014.131.354.354 0 0 1-.055.165c-.019 0-.021-.012-.007-.034.013-.023-.003-.035-.048-.035-.047 0-.055.007-.028.021.028.014.023.02-.014.02-.046 0-.061-.011-.048-.034.014-.023.012-.043-.007-.062a.107.107 0 0 0-.068-.007.4.4 0 0 1-.069.007l.048.096c.014.028.012.06-.007.096h-.082c-.019-.018-.023-.039-.014-.061a.176.176 0 0 0 .014-.062h-.124a.475.475 0 0 1-.124.302c-.027-.064-.023-.114.014-.151 0-.018-.016-.039-.048-.062s-.057-.034-.076-.034c-.054.073-.073.121-.054.144.018.023.022.062.013.116 0 .01-.002.017-.006.021-.005.005-.007.012-.007.021l-.014.014h-.11c-.046 0-.078-.012-.097-.035a1.066 1.066 0 0 0-.082-.089.215.215 0 0 0 .076-.13.758.758 0 0 0 .02-.117.148.148 0 0 1-.11-.042c0 .019-.006.04-.02.063-.014.022-.03.034-.048.034a.179.179 0 0 1-.041-.055c-.01-.018-.023-.028-.042-.028.027.028.042.06.042.096h-.11v.111a.552.552 0 0 0 .116.13c.041.032.08.066.117.103h-.233c.018-.018.045-.027.082-.027a.207.207 0 0 1-.103-.028 2.411 2.411 0 0 0-.103-.055.115.115 0 0 0-.034.048.143.143 0 0 1-.035.048c-.018-.073-.016-.13.007-.171.023-.042.025-.076.007-.104.009-.018 0-.036-.027-.055-.028-.018-.042-.05-.042-.096l-.027.963a.185.185 0 0 0 .061.109.515.515 0 0 0 .103.069c-.018.018-.039.025-.061.02a.378.378 0 0 0-.062-.006 2.999 2.999 0 0 0 0 .584c.018.197.028.392.028.584.036-.019.066-.034.088-.048a.203.203 0 0 1 .103-.021c.037 0 .056.009.056.028v.027c.073.009.146.014.219.014h.165c.046 0 .141-.012.282-.034.142-.023.236-.035.282-.035.046 0 .073.012.082.035.01.022.037.034.083.034.046-.055.094-.103.144-.144.05-.042.076-.085.076-.131s-.005-.071-.014-.076a.18.18 0 0 1-.041-.034.236.236 0 0 0-.048.069c-.014.027-.03.041-.048.041l-.055-.055.116-.137a.518.518 0 0 0 .076-.11.138.138 0 0 1-.082.034c-.037.005-.064-.002-.083-.021a1.18 1.18 0 0 1 .11-.096c.036-.027.055-.059.055-.096a.393.393 0 0 0-.082.007.213.213 0 0 1-.055.007.11.11 0 0 1-.042.013l-.082-.082c.018-.018.027-.032.027-.041 0-.009.009-.023.028-.041.018.018.016.034-.007.047-.023.014-.012.022.034.022s.055-.012.028-.035c-.028-.023-.019-.034.027-.034s.067.007.062.02c-.004.014.002.03.021.049a.26.26 0 0 1 .027-.09.58.58 0 0 0 .028-.213.12.12 0 0 1-.035-.068c-.004-.028-.011-.046-.02-.056a.394.394 0 0 0-.076-.055.347.347 0 0 1-.075-.054c.064-.028.114-.01.151.054a.2.2 0 0 0 .02-.116 1.087 1.087 0 0 1-.006-.09c-.037 0-.06.012-.069.034a.172.172 0 0 1-.041.062.27.27 0 0 1-.062-.075.639.639 0 0 0-.035-.075c.055-.019.08-.04.076-.063-.005-.022.002-.057.021-.103h.096a.388.388 0 0 1-.083-.068l.055-.056c.018.019.028.033.028.041v.028a2.14 2.14 0 0 1 .055-.151.369.369 0 0 0 .028-.137V5.58a.183.183 0 0 1-.042-.055.218.218 0 0 0-.041-.055.23.23 0 0 0-.048.068.263.263 0 0 1-.048.069c-.019-.036-.023-.066-.014-.089s.014-.053.014-.09h.055a.131.131 0 0 0 .096-.041c.008-.073-.005-.114-.041-.123-.037-.009-.083-.05-.138-.124a.142.142 0 0 1 .103-.014c.032.009.057.005.076-.014a.44.44 0 0 1-.041-.109c-.01-.036-.019-.056-.028-.056a.102.102 0 0 1-.041-.013c-.018-.009-.028-.032-.028-.069.028-.027.069-.041.124-.041h-.062a.09.09 0 0 1-.062-.027.508.508 0 0 0 .103-.062.48.48 0 0 0 .063-.103m-.894-1.925v-.151c-.037 0-.06.005-.069.014l-.041.041a.502.502 0 0 0-.103-.061.311.311 0 0 1-.089-.062 5.001 5.001 0 0 1-.075-.351 1.477 1.477 0 0 0-.09-.309c.018.073.009.128-.028.165h-.11v.234h.049c.013 0 .029.009.048.027a.135.135 0 0 0-.069.124l-.055-.041c-.046 0-.074.009-.082.027a.23.23 0 0 1-.042.055.516.516 0 0 0 .083.116c.036.042.073.081.109.118 0-.028.023-.064.069-.11a.35.35 0 0 1 .035.103c.004.032.025.057.062.075a.202.202 0 0 0 .109-.034.229.229 0 0 1 .124-.034c.037 0 .069.009.096.027.028.018.05.027.069.027m-.523-.852v-.123c-.018 0-.027-.014-.027-.041v-.042c-.018 0-.032.014-.041.042a.228.228 0 0 0-.014.068l-.137-.027c0 .101.028.169.082.206-.054-.037-.054-.074 0-.11l.137.027zM75.509.824l-.096-.041-.014.041.082.056.028-.056zm-.028 2.158l-.055-.028-.027.055.055.028.027-.055zm.22-.618h-.165a.543.543 0 0 0 .124-.192c0 .018.007.043.021.075a.31.31 0 0 1 .02.117m0 6.459h-.082v.055h.082v-.055zm.22-7.627a.19.19 0 0 0-.083.075.19.19 0 0 1-.082.076l-.042-.124a.189.189 0 0 1 .09-.041.169.169 0 0 1 .117.014m.096-.756a3.4 3.4 0 0 0-.13-.124c-.051-.046-.095-.069-.131-.069.018.074.053.122.103.144a.58.58 0 0 0 .158.049m-.027.549a.39.39 0 0 1-.234-.068V.797a.203.203 0 0 0 .076-.02.186.186 0 0 1 .075-.021l.083.082v.151zm-.042 6.446a.361.361 0 0 0-.11.096.73.73 0 0 0-.082.124c.046-.019.076-.046.089-.083a.449.449 0 0 1 .103-.137m-.013-4.92c.018-.018.021-.046.007-.083-.014-.036-.03-.045-.049-.027-.018 0-.02.014-.006.041a.223.223 0 0 0 .048.069m.082-1.031a.504.504 0 0 1-.075-.007c-.033-.004-.04-.007-.021-.007 0 .056-.002.101-.007.138a.71.71 0 0 0-.007.096.047.047 0 0 0-.02-.041c-.014-.009.002-.014.048-.014s.067.012.062.034c-.005.023.002.035.02.035a.169.169 0 0 0 .014-.117.548.548 0 0 1-.014-.117m.014 2.406l-.055-.042-.028.028.042.054.041-.04zM76.1.756h-.055l-.042-.082.055-.014.042.096zm.234 8.507c0 .009-.005.018-.015.027a.09.09 0 0 1-.068.028c-.046 0-.06-.007-.041-.02.018-.015.018-.03 0-.048l-.096.095a.223.223 0 0 0-.062-.041c-.023-.008-.035-.036-.035-.082s.007-.076.021-.089a.065.065 0 0 0 .02-.048h.165c0 .045.037.105.111.178m-.22-2.075c.018-.018.009-.037-.028-.055a.128.128 0 0 0-.055-.014c0 .018.009.03.027.034a.133.133 0 0 1 .056.035m.013 2.707l-.096.055v-.055l.083-.041.013.041zm.124-1.594h-.124v.069h.124v-.069zm.179-.824c-.037-.083-.078-.124-.124-.124l-.069.041v.137a.248.248 0 0 1 .11-.027c.037 0 .064-.009.083-.027m.384-5.773c0-.101-.036-.151-.11-.151-.045 0-.075.005-.089.014-.014.009-.044.013-.089.013-.046 0-.074.023-.083.069-.009.046-.036.069-.082.069-.037 0-.065.009-.083.027-.008.01-.013.019-.013.028a.3.3 0 0 0 .13 0c.023-.009.062-.028.117-.055.046.037.071.069.075.096.005.028.03.041.076.041.037 0 .055-.004.055-.013v-.014c.018.018.028.032.028.041 0 .009.008.014.027.014 0-.037.007-.064.021-.083.013-.018.02-.05.02-.096m-.247 5.058v-.124h-.233v.234c.018 0 .038.007.061.02a.12.12 0 0 0 .062.021.374.374 0 0 0 .055-.075.332.332 0 0 1 .055-.076m-.11.33h-.124v-.055h.124v.055zm.179-2.117a.252.252 0 0 0-.062-.082c-.023-.019-.034-.036-.034-.055a.148.148 0 0 0 .034-.048c.004-.014-.003-.03-.021-.048a.274.274 0 0 0-.048.068c-.014.028-.044.041-.089.041-.046 0-.064.014-.055.042.009.027.004.041-.014.041.055 0 .11.012.165.034.055.023.096.025.124.007m-.069 3.284a.216.216 0 0 0-.062-.041c-.023-.008-.035-.004-.035.014h-.123c.037 0 .066.021.09.062a.204.204 0 0 0 .089.09c.027-.028.041-.069.041-.125m-.124-5.084h-.055v.083h.055v-.083zm.193 6.157c0-.046-.007-.078-.021-.096a.093.093 0 0 1-.021-.055.828.828 0 0 1-.192.357c.018 0 .036.009.055.027l.027.027a.78.78 0 0 0 .103-.123.23.23 0 0 0 .049-.137m-.069-4.824a.097.097 0 0 0-.069.027c-.009.01-.018.014-.028.014.019.037.033.06.042.069.009.009.014.018.014.027 0-.018.007-.041.02-.069a.144.144 0 0 0 .021-.068m.055 4.521c0-.036-.009-.063-.028-.082l-.082-.041v.192a.208.208 0 0 0 .055-.007c.018-.004.037.002.055.021v-.083zm.082-1.47v-.152h-.151c.036 0 .064.01.083.028l-.042.042c-.009.009-.013.022-.013.04a.24.24 0 0 1 .123.042m.207-3.518a.778.778 0 0 0-.069-.131.26.26 0 0 0-.096-.089c0 .018-.014.027-.042.027-.009.009-.018.014-.027.014.036.037.08.071.13.103s.085.057.104.076m-.069.054a.048.048 0 0 0-.041.021.275.275 0 0 1-.042.048c-.027-.046-.055-.069-.082-.069v.165h.124l.041-.165zm-.11 2.076a.205.205 0 0 1-.034.11.107.107 0 0 0-.008.11c.019-.018.031-.05.035-.096s.007-.087.007-.124m8.534 1.897c0 .046-.006.075-.02.09a.145.145 0 0 0-.034.047.227.227 0 0 1 .02.125 1.681 1.681 0 0 0-.007.15l-.027.028c-.009.009-.014.028-.014.055a2.294 2.294 0 0 0-.062-.117.11.11 0 0 0-.103-.061.198.198 0 0 0-.116.033.193.193 0 0 1-.117.035 1.06 1.06 0 0 1-.22-.035.707.707 0 0 1-.234-.088c.046 0 .082-.01.11-.028 0-.018-.012-.035-.034-.049a.172.172 0 0 1-.062-.075.652.652 0 0 1-.124.096.244.244 0 0 1-.124.042c.018-.046.039-.094.062-.145.023-.05.035-.098.035-.144s-.028-.083-.083-.11a.336.336 0 0 0-.11-.041c0-.009-.005-.019-.014-.028l-.041-.041c0 .018-.012.039-.034.062-.023.023.002.044.075.062-.091.037-.137.101-.137.192a.35.35 0 0 0 .124.035c.046.004.087.006.123.006l-.096.083c.009 0 .014-.004.014-.014a.125.125 0 0 0-.014-.055h-.123l-.056.055a.577.577 0 0 1 .207.152h-.11c-.046 0-.062-.008-.048-.022.013-.013.011-.029-.007-.047a.25.25 0 0 0-.055.006c-.019.005-.027.03-.027.076v.123h-.028c-.009 0-.028.015-.055.042a1.204 1.204 0 0 1-.062-.069.178.178 0 0 0-.076-.055.755.755 0 0 0-.185-.041.64.64 0 0 1-.24-.082c0-.019.001-.053.006-.104.005-.05.016-.084.034-.103a.085.085 0 0 1 .028.062v.062a.492.492 0 0 0 .248.055c.018-.018.032-.025.04-.021.01.005.015-.016.015-.062a.169.169 0 0 0-.035-.11.388.388 0 0 1-.062-.123c-.037.018-.045.039-.027.062s.022.044.013.061v.056a.227.227 0 0 0-.075-.049.225.225 0 0 0-.076-.021c0-.018.005-.033.014-.047.009-.014.014-.044.014-.09a.099.099 0 0 0-.062-.096.122.122 0 0 1-.075-.096.611.611 0 0 1-.008-.165 2.1 2.1 0 0 0 .008-.151l.048-.048a1.08 1.08 0 0 1 .048-.048.102.102 0 0 0-.076-.028c-.032 0-.048.009-.048.028a.837.837 0 0 0-.035-.22.559.559 0 0 1-.006-.261l.027-.165c.009-.055.023-.119.042-.193-.01.01-.019.014-.028.014a.058.058 0 0 1-.041.014l.013-.014c.01-.009.016-.014.021-.014s.016-.008.035-.027c0-.018-.012-.035-.035-.048-.023-.014-.044-.012-.062.007.037-.083.032-.184-.013-.303a.455.455 0 0 0 .247-.069c-.019-.073-.055-.1-.11-.082s-.129.009-.22-.027a1.183 1.183 0 0 0-.117.253c-.032.097-.071.2-.117.31.037.046.055.124.055.234 0 .11-.013.229-.041.357a2.672 2.672 0 0 1-.11.378 1.75 1.75 0 0 1-.137.296c0 .008.004.013.014.013.009.01.027.014.054.014v.302a.175.175 0 0 1-.033.103.171.171 0 0 0-.035.104.363.363 0 0 0-.137.034.424.424 0 0 1-.152.035.254.254 0 0 1-.096-.014.197.197 0 0 0-.083-.014c0-.019.012-.044.035-.076a.622.622 0 0 1 .062-.076.141.141 0 0 1-.034-.041c-.005-.009-.03-.013-.076-.013-.047 0-.078.009-.096.027-.019.019-.028.036-.028.055 0-.019-.009-.041-.027-.069a.522.522 0 0 0-.056-.069c.056-.017.104-.036.145-.054a.64.64 0 0 0 .131-.083v-.124c0-.046-.013-.066-.035-.061-.023.004-.039-.003-.048-.021l.014-.014c.009-.009.013-.015.013-.02 0-.005.01-.016.028-.034l-.041-.042c-.01-.009-.037-.014-.083-.014h-.165c0 .009.005.018.014.028 0 .018.009.028.027.028-.045.027-.064.084-.054.171a.943.943 0 0 1 0 .226c-.028-.026-.046-.07-.055-.129a.537.537 0 0 0-.042-.145.17.17 0 0 0-.041.069.172.172 0 0 1-.041.068.201.201 0 0 0-.027-.11c-.019 0-.037.01-.056.028-.018.019-.027.019-.027 0l-.014-.014a.054.054 0 0 1-.027-.007.072.072 0 0 0-.028-.007c.018-.018.025-.043.021-.075a.166.166 0 0 1 .021-.103l-.069-.055h-.083c-.018.045-.004.068.041.068l-.041.207a.334.334 0 0 0-.089.014.377.377 0 0 1-.103.013c-.046 0-.069-.007-.069-.02 0-.014-.009-.03-.027-.049l-.055.056c-.019.018-.028.036-.028.054-.018 0-.039-.013-.062-.041a.451.451 0 0 1-.061-.096.064.064 0 0 1-.069.014c-.027-.01-.042.009-.042.055 0 .064.028.114.083.151h.055a.328.328 0 0 0-.096.131 1.53 1.53 0 0 1-.083.158v-.042c0-.046.014-.082.041-.11l-.068-.055a.563.563 0 0 1-.069-.302l.027.027c.028.028.042.019.042-.027 0-.045-.014-.066-.042-.062a.073.073 0 0 1-.068-.02c.018-.019.029-.044.034-.076s.007-.067.007-.103c0-.019-.012-.037-.034-.055a.568.568 0 0 1-.048-.041 3.403 3.403 0 0 1-.124-.474 3.968 3.968 0 0 0-.123-.488 1.993 1.993 0 0 0-.097-.255 3.723 3.723 0 0 1-.109-.254.265.265 0 0 1-.042.035.202.202 0 0 0-.042.034c-.018.376-.024.648-.02.818.004.169.007.318.007.446a.17.17 0 0 1-.042.035.196.196 0 0 0-.041.034c-.008.037.023.092.096.165v.728l-.027.028c-.009.009-.018.014-.028.014-.008 0-.013.004-.013.014-.036-.019-.089-.014-.158.013a.477.477 0 0 1-.172.042c-.018 0-.053-.003-.103-.008a1.607 1.607 0 0 0-.158-.006c-.055 0-.106-.002-.151-.008a1.344 1.344 0 0 0-.11-.006.349.349 0 0 0-.179.041l-.137.082.068-.068c-.018-.019-.032-.027-.041-.027h-.082c-.046 0-.067-.006-.062-.014.004-.009-.016-.014-.062-.014-.082 0-.142.046-.178.137a.219.219 0 0 1-.076-.02.204.204 0 0 0-.076-.021c0-.074.007-.126.021-.158a.16.16 0 0 1 .041-.062.078.078 0 0 1 .041-.014c.014 0 .021-.005.021-.014 0-.045-.005-.066-.014-.062a.23.23 0 0 0-.041.035v-.027c0-.019.009-.037.028-.056a.142.142 0 0 1-.076-.089c-.014-.041-.048-.07-.103-.089.128.019.204.039.227.062.022.023.043.034.061.034.028 0 .042-.004.042-.014 0-.009-.005-.016-.014-.02a.022.022 0 0 1-.014-.021c0-.009.009-.014.028-.014.045 0 .05.012.014.035-.037.023-.033.034.013.034s.078-.011.096-.034c.019-.023.046-.035.083-.035.046 0 .073-.011.082-.034a.167.167 0 0 0 .014-.062c.009.009.032.042.069.096a.171.171 0 0 1 .123-.054.582.582 0 0 0-.048.054c-.013.019.003.028.048.028a.291.291 0 0 0 .248-.138.743.743 0 0 1-.2-.027c-.032-.009-.048-.016-.048-.02 0-.005.037-.017.11-.035l-.041-.041c-.009-.009-.037-.014-.082-.014-.046 0-.074.009-.083.028l-.041.082h-.124c0-.064-.023-.11-.069-.138-.036.019-.08.047-.13.083a.25.25 0 0 1-.144.055.229.229 0 0 0-.124.034.253.253 0 0 1-.137.035c-.019.073-.016.112.006.117.023.004.012.039-.034.102a.218.218 0 0 0 .055.042.218.218 0 0 1 .055.041h-.124c-.018.019-.025.046-.02.082.004.037-.012.07-.049.097-.054-.019-.086-.06-.096-.124a12.29 12.29 0 0 1-.027-.206l.055-2.378v.014c0 .009.009.023.028.041l.054-.041a1.651 1.651 0 0 1-.089-.179.475.475 0 0 1-.048-.178V2.653c.055.018.117.037.186.055a.486.486 0 0 1 .171.082.191.191 0 0 1 .062-.041.177.177 0 0 0 .062-.041.714.714 0 0 1-.178-.247c-.047-.101-.106-.152-.18-.152h-.061c.004 0-.007.01-.035.028V.798c.01 0 .028-.005.056-.014.027-.009.05-.004.068.014.018-.018.023-.039.014-.062a.352.352 0 0 1-.014-.117c-.018 0-.029-.006-.034-.02a.14.14 0 0 0-.034-.049.124.124 0 0 0-.035.069.133.133 0 0 1-.034.069c0-.083.004-.167.013-.254a.976.976 0 0 0-.013-.282l.069-.069c.348 0 .737.005 1.168.014.43.009.824.004 1.182-.014l.055.055a.27.27 0 0 1 .041.055.538.538 0 0 0 .034.248.648.648 0 0 1 .035.274c.036.129.068.271.096.427.027.155.078.307.151.453l-.076-.076c-.023-.022-.057-.034-.103-.034s-.068.012-.068.034c0 .023-.023.035-.069.035h-.096v.083a.194.194 0 0 0 .062.04.291.291 0 0 0 .103.014c.036 0 .086.002.15.007.065.005.11.029.138.075a.765.765 0 0 1 .124.33c.018.129.05.248.096.358.156.449.321.87.495 1.264a.253.253 0 0 0 .089-.076.399.399 0 0 0 .035-.075.475.475 0 0 1 .034-.082c.013-.028.043-.051.089-.069l-.014-.014c-.009 0-.018-.002-.027-.007s-.018-.007-.028-.007l.165-.487c.065-.188.136-.388.213-.599a37.128 37.128 0 0 0 .433-1.236 1.46 1.46 0 0 1 .103-.062.217.217 0 0 0 .09-.09c-.019-.017-.037-.039-.056-.061-.018-.023-.036-.035-.054-.035.064-.119.11-.226.137-.323.027-.096.053-.173.076-.233s.055-.106.096-.138c.041-.031.108-.048.199-.048h2.24v5.072a1.318 1.318 0 0 1-.062-.11l-.061-.124c-.019-.009-.032 0-.041.027a.293.293 0 0 1-.069.097.66.66 0 0 0 .124.096c.045.027.096.06.15.096v2.831zm-5.36 1.966a.375.375 0 0 1-.192.041.926.926 0 0 1-.13-.021.328.328 0 0 1-.172-.089c-.019.036-.041.059-.068.069a1.125 1.125 0 0 0-.111.041h-.11a.716.716 0 0 0-.02-.165.614.614 0 0 1-.021-.151.122.122 0 0 0-.062-.035.368.368 0 0 1-.089-.034l-.124.123c.019.019.035.03.048.035.014.004.03.016.048.034v.193h-.302c0-.074-.002-.154-.007-.241a2.199 2.199 0 0 0-.034-.282c-.019-.009-.037-.015-.055-.02s-.046.002-.082.02c0 .019.013.033.041.041a.2.2 0 0 0 .068.014c-.045.037-.05.074-.013.11a.038.038 0 0 1-.028-.013.033.033 0 0 1-.021-.007c-.004-.005-.011-.007-.02-.007-.037.036-.055.066-.055.089s.004.044.014.062a.41.41 0 0 0 .034.055.11.11 0 0 1 .021.069.288.288 0 0 1-.151.11l-.399-.041c.018-.037.039-.074.062-.111.023-.036.034-.077.034-.123s-.014-.078-.041-.096a.842.842 0 0 0-.096-.055c0-.037.036-.078.11-.124.009-.018-.003-.037-.035-.055s-.066-.023-.103-.014V8.7c.009.028.042.042.096.042h.069c0 .036.002.07.007.103a.126.126 0 0 0 .035.075l-.042.041c.019.019.032.026.042.021.008-.005.036-.007.082-.007s.068-.007.068-.02c0-.014.023-.021.069-.021s.064-.011.055-.034.009-.035.055-.035.076.003.089.007c.014.005.03.007.049.007a.304.304 0 0 1-.096.22l.054.055a.382.382 0 0 0 .145-.089.613.613 0 0 1 .172-.117c.008 0 .013-.005.013-.014 0-.009-.013-.027-.041-.055h.11c.018-.018.023-.037.014-.055a.121.121 0 0 1-.014-.055c.046-.018.096-.041.151-.069a.35.35 0 0 1 .151-.041c.046 0 .074.007.083.021a.445.445 0 0 0 .041.048c.018-.019.027-.051.027-.096.018 0 .042.009.069.027.028.018.05.027.069.027a.153.153 0 0 0-.083.028c.055.028.081.044.076.048-.005.005.002.03.021.076.018.009.038-.003.062-.035a.798.798 0 0 0 .061-.103c.028.019.062.03.103.035.042.005.08.007.117.007a.21.21 0 0 0 .042.116c.027.042.04.085.04.131v1.045zm-1.979-7.999h-.068v.096h.068v-.096zm.069-.041c.019-.019.021-.046.007-.083a.216.216 0 0 0-.048-.082l.041.165zm.124 5.648c-.018 0-.041-.011-.068-.034-.028-.023-.051-.035-.069-.035l.041.165c.018 0 .034-.011.048-.034a.366.366 0 0 1 .048-.062m.097-2.336c-.083-.064-.152-.097-.207-.097a.104.104 0 0 0 .089.062.343.343 0 0 1 .118.035m-.11-3.587h-.083v.055h.083v-.055zm0 .302h-.083v.055h.083v-.055zm.054 3.601l-.054-.055-.028.027.041.055.041-.027zm.082-4.371V1.21l-.15-.041v.055l.15.027zm-.109 4.522c-.027 0-.041.033-.041.096 0-.018.011-.039.034-.061.023-.023.025-.035.007-.035m.151-4.123v-.124a.13.13 0 0 1-.096-.041l-.069-.069v.165c.036 0 .062.012.076.035.014.023.043.034.089.034m-.068 4.219h-.097v.055h.097v-.055zm.123 3.78a.44.44 0 0 0-.082-.111c-.037-.036-.056-.073-.056-.109a.534.534 0 0 0-.027.068.503.503 0 0 0-.027.062l-.028.062c.018 0 .036-.011.055-.034.018-.023.037-.035.055-.035.009.028.023.041.041.041h.028c.009.01.014.017.014.021 0 .005.004.012.013.021 0 .009.005.014.014.014m0-7.793c.018-.037.023-.073.014-.11s-.014-.073-.014-.109c0 .09-.027.151-.082.178.018 0 .036.009.055.027.009.009.018.014.027.014m.096 7.641l-.041.041-.041-.054.027-.042.055.055zm.124-7.49a.595.595 0 0 0-.13.014c-.042.009-.063.023-.063.041.019-.018.03-.023.035-.014.004.01.029.014.075.014a.093.093 0 0 0 .069-.027c.009-.009.014-.018.014-.028m.069 2.996a.092.092 0 0 1-.056-.02c-.018-.014-.027-.029-.027-.049 0 .02-.009.037-.027.056a1.426 1.426 0 0 0-.055.055c.018.018.036.027.055.027.009.009.018.013.027.013a.043.043 0 0 0 .041-.026.186.186 0 0 1 .042-.056m.316-3.188a.24.24 0 0 1-.097-.096.242.242 0 0 0-.096-.097.9.9 0 0 0-.11.069.372.372 0 0 0-.082.082.191.191 0 0 1 .041.062.181.181 0 0 0 .041.062h.179c.046 0 .073-.009.082-.027a.188.188 0 0 1 .042-.055m-.138.522a1.265 1.265 0 0 0-.13-.11.293.293 0 0 1-.104-.124v.165c.019 0 .049.012.09.035a.29.29 0 0 0 .144.034m.11 5.979c-.009 0-.027.014-.055.041-.036-.019-.05-.046-.041-.083.009-.036-.009-.055-.055-.055s-.064.007-.055.021c.009.013.014.03.014.048a.13.13 0 0 0-.062-.035.369.369 0 0 0-.062-.006 1.38 1.38 0 0 0 .179-.234h.123c0 .028-.022.055-.068.082a.683.683 0 0 0 .068.11.186.186 0 0 1 .042.111h-.028zm-.123-6.322h-.083v.055h.083v-.055zM78.82.88l-.055-.013-.041.082.041.027.055-.096zm-.04.33h-.055v.165h.055V1.21zm.055.206l-.015-.041-.083.041v.041l.098-.041zm.067.124c-.018-.019-.045-.021-.082-.007a.245.245 0 0 0-.083.048.26.26 0 0 0 .083-.021.298.298 0 0 1 .082-.02m.069 3.106v-.124c-.037-.055-.078-.082-.124-.082-.018 0-.029.023-.034.068a1.011 1.011 0 0 0-.007.097l.083-.069c.018.019.022.039.013.062a.172.172 0 0 0-.013.062c0-.018.009-.03.027-.035.019-.004.038.002.055.021m-.054-2.419l-.055-.027-.042.096.055.013.042-.082zm.22-.289h-.261a.287.287 0 0 1-.007.062.123.123 0 0 1-.034.062c.018 0 .036.009.055.028.009.009.018.013.027.013a.473.473 0 0 0 .151-.082c.046-.037.069-.064.069-.083m-.097-.755l-.082-.083a2.238 2.238 0 0 0-.055.124 1.343 1.343 0 0 1-.055.124.242.242 0 0 1 .076-.048c.032-.014.056-.012.076.006 0-.018.007-.039.02-.061a.121.121 0 0 0 .02-.062m-.013 3.586a.091.091 0 0 1-.055-.02c-.018-.014-.037-.011-.055.007-.018 0-.02.018-.007.055.014.037.03.073.048.11a.12.12 0 0 0-.013-.124c.018-.018.046-.028.082-.028m-.041-2.432l-.055-.041-.028.069.055.027.028-.055zm.041 7.628h-.069v-.123h.069v.123zm.564-8.7c0-.045-.007-.073-.021-.082a.046.046 0 0 1-.021-.041h-.205c-.047 0-.097.032-.152.095-.055.065-.105.097-.151.097a.12.12 0 0 1 .117.075c.022.051.057.076.103.076a.245.245 0 0 0 .11-.021.25.25 0 0 0 .068-.048c.019.018.028.033.028.041v.028a.38.38 0 0 1 .076-.103.163.163 0 0 0 .048-.117m-.413 4.948h-.096v.055h.096v-.055zm-.013-4.481h-.069v.096h.069v-.096zm.026 2.818h-.055v.165h.055V4.55zm.069.371h-.055l-.041.124.055.014.041-.138zm-.013 1.663l-.027-.055-.055.027.027.055.055-.027zm.206 1.333a.123.123 0 0 1-.062-.021c-.023-.013-.044-.011-.062.007-.018-.018-.036-.022-.055-.013-.018.009-.027.036-.027.082v.109a.283.283 0 0 0 .13-.082c.032-.036.058-.063.076-.082m-.027-5.511c-.018-.009-.028-.021-.028-.034a.05.05 0 0 0-.014-.035.038.038 0 0 1-.013-.028c0 .019-.005.028-.014.028-.01 0-.018.005-.028.014a.108.108 0 0 1-.041.014c.028.027.074.041.138.041m-.042 1.306h-.096v.055h.096v-.055zm.055 5.909a.172.172 0 0 0-.041-.117c-.027-.031-.041-.039-.041-.02 0 .046.009.075.027.089a.59.59 0 0 1 .055.048m.097-1.869l-.056-.014-.042.083.055.027.043-.096zm.041.605h-.055l-.083-.152.055-.027.083.179zm.041 1.236c.019 0 .007.017-.034.049a.284.284 0 0 0-.09.117v-.166c.019 0 .04-.004.062-.013.023-.009.043-.005.062.013m.028-1.69l-.055-.096-.042.014.042.082h.055zm.013-7.325h-.096v.055h.096V.578zm.069.357l-.014-.041-.082.041v.041l.096-.041zm.178 3.738a.23.23 0 0 0-.082-.048.204.204 0 0 1-.082-.048l-.083.083a.222.222 0 0 0 .124.02c.046-.004.087-.007.123-.007m-.137 3.217l-.027.027-.055-.055.041-.028.041.056zm.041-6.474h-.054l-.042.165h.055l.041-.165zm.028 1.333l-.028-.041-.082.082.028.042.082-.083zm.412-.659a.235.235 0 0 0-.027-.117.429.429 0 0 0-.055-.076c-.046 0-.087.028-.124.082v.145a.493.493 0 0 1-.014.13.177.177 0 0 0-.04.063.095.095 0 0 1-.042.048.2.2 0 0 1 .034.096c.005.036-.015.055-.061.055h-.179v.068a.248.248 0 0 1 .124-.02l.137.02c0-.073.014-.128.041-.165l.082-.102.083-.097a.19.19 0 0 0 .041-.13m-.316 3.463l-.165-.041v.124a.2.2 0 0 0 .082-.028.33.33 0 0 0 .083-.055m.014-3.986l-.055-.054-.027.027.04.055.042-.028zm.124 3.753c0-.046-.028-.088-.082-.124a.215.215 0 0 0-.09.082.186.186 0 0 0-.034.082.196.196 0 0 0 .124.042l.082-.082zm.082-4.316l-.041-.11-.055.027.041.083h.055zm.165.33l-.027-.028-.124.11.041.041.11-.123zm-.069 3.147l-.027.041-.055-.055.041-.041.041.055zm.109-1.086l-.055-.027-.041.096.055.013.041-.082zm.125.729c0-.019-.018-.032-.055-.042-.037-.008-.064.005-.083.042h.138zm-.028.33l-.041-.056-.041.028.055.055.027-.027zm.11.206l-.055-.014-.041.082.055.028.041-.096zm.261.495v-.124l-.082-.083a.298.298 0 0 1-.062.049.264.264 0 0 0-.062.048.17.17 0 0 1 .083.151.294.294 0 0 0 .062-.007.125.125 0 0 0 .061-.034m0-.564a.188.188 0 0 0-.082-.083.233.233 0 0 0-.083-.027v.124a.366.366 0 0 0 .062.048c.023.013.044.02.062.02.009-.009.014-.018.014-.027 0-.009.005-.019.014-.027a.04.04 0 0 1 .013-.028m1.086 5.332a.334.334 0 0 0-.11.021.369.369 0 0 1-.123.021l-.083.069c-.018-.064-.037-.095-.055-.09s-.005-.016.041-.062c-.027-.036-.073-.055-.137-.055a.649.649 0 0 1-.007.083c-.005.036.012.078.048.124a.199.199 0 0 0-.075.02.338.338 0 0 1-.131.021.315.315 0 0 0-.014-.097 2.13 2.13 0 0 0-.041-.109 1.184 1.184 0 0 1-.165.206h-.123a2.558 2.558 0 0 0-.069-.124.264.264 0 0 1-.042-.138V9.36a.715.715 0 0 0 .103-.048c.005-.004.003-.007-.006-.007s-.016-.007-.021-.021c-.004-.014.016-.043.062-.089a1.404 1.404 0 0 1-.103-.055.391.391 0 0 0-.117-.041 1.763 1.763 0 0 1-.055-.165c-.018-.064-.028-.119-.028-.165s.003-.071.007-.076l.035-.034a.69.69 0 0 0 .151.048.79.79 0 0 0 .165.021c.046 0 .069-.005.069-.014 0-.009.023-.014.069-.014.045 0 .068.012.068.035s.009.043.028.061l.068-.054.103.034c.014.004.014.012 0 .02a.492.492 0 0 0-.048.042c-.018.018-.027.046-.027.082.018.019.022.025.013.021-.009-.005.009-.007.056-.007.054 0 .1-.037.137-.11.018-.009.05-.009.096 0s.078.005.096-.014a.216.216 0 0 0-.027.117c0 .05.004.094.014.131a.89.89 0 0 0 .062.055c.022.018.034.036.034.054a.807.807 0 0 1-.007.103.322.322 0 0 1-.035.103v.509a.199.199 0 0 0 .124.041m-1.072-7.434l-.055-.056-.027.042.041.054.041-.04zm.014.082h-.082v.055h.082v-.055zm.22 5.428a.133.133 0 0 0-.096-.041c.009 0 .023.01.041.028l.014.013c-.064.028-.119.033-.165.014 0 .037.004.06.014.068l.027.028a.375.375 0 0 1 .131-.034c.05-.004.093-.007.13-.007a.336.336 0 0 1-.096-.069m.096-2.968l-.192-.041a.225.225 0 0 0-.049.082.28.28 0 0 0-.02.083h.151a.769.769 0 0 1 .069-.062c.028-.023.041-.044.041-.062m.027 4.7l-.082-.068c-.019.018-.014.041.014.068.028.028.041.05.041.069-.037 0-.053.007-.048.02a.149.149 0 0 1 .007.049.242.242 0 0 0-.096-.049c-.046-.013-.069-.039-.069-.075 0-.055.005-.092.014-.11a.191.191 0 0 1 .027-.042l.11.056a.18.18 0 0 1 .082.082m-.027-.193h-.165v-.055h.165v.055zm.687-1.044a1.773 1.773 0 0 1-.178-.343c-.019 0-.033.004-.042.013-.009.01-.036.014-.082.014s-.064-.002-.055-.007.005-.016-.014-.034c.019-.018.025-.037.021-.056-.005-.018.002-.036.021-.054-.019.018-.044.014-.076-.014a.294.294 0 0 1-.076-.096h-.137c.036.092.014.161-.069.206 0 .019.014.037.041.055a.416.416 0 0 1 .069.055.17.17 0 0 1-.069.041c-.027.01-.041.023-.041.042.018.018.049.027.089.027h.09c-.028-.055-.023-.11.013-.165.028.019.058.03.09.034a.34.34 0 0 1 .103.035v.247c.128-.045.229-.045.302 0m-.096.838a.82.82 0 0 1-.082-.006.649.649 0 0 0-.083-.007c0 .027-.018.059-.055.096-.046-.064-.046-.133 0-.206.046.037.08.053.103.048a.065.065 0 0 1 .062.02v-.178c0 .018.005.03.014.034.009.005-.009.007-.055.007a.129.129 0 0 1-.11-.055 1.16 1.16 0 0 0-.096-.11c-.019.074-.026.147-.021.22s-.012.147-.048.22c-.019-.019-.016-.035.007-.048.023-.014.011-.021-.035-.021-.045 0-.078.016-.096.048a.305.305 0 0 1-.055.076.688.688 0 0 1 .042.247.253.253 0 0 0 .068.049c.028.013.041.029.041.047 0-.018-.006-.032-.02-.041-.014-.008.002-.013.048-.013s.076-.007.089-.021l.049-.048c.018.018.022.041.013.069a.222.222 0 0 0-.013.068l.082-.041v-.151h-.151a.38.38 0 0 1-.007.062c-.005.023-.03.034-.076.034s-.064.002-.055.007.005-.002-.014-.021a.653.653 0 0 0 .049-.034c.004-.004 0-.007-.014-.007a.08.08 0 0 1-.041-.013c-.014-.01-.021-.028-.021-.056 0-.046.004-.077.014-.096a.12.12 0 0 0 .013-.055c.037 0 .064.017.083.048.018.033.05.048.096.048a.172.172 0 0 0 .103-.034.331.331 0 0 1 .09-.048c-.019-.028-.014-.053.013-.076a.755.755 0 0 0 .069-.062m-.289-.865h-.151v-.055h.151v.055zm.454-4.329a.2.2 0 0 1-.124-.042l-.11.11v.124a.52.52 0 0 0 .117-.083c.041-.036.079-.073.117-.109m-.124 5.483h-.055v-.096h.055v.096zm.262-6.666a.134.134 0 0 0-.021-.062.117.117 0 0 1-.021-.061.52.52 0 0 0-.151.103.496.496 0 0 0-.11.13l.083-.068.068.068c.028-.055.078-.091.152-.11m.315 6.103c0 .045-.009.078-.027.096s-.041.046-.069.082c-.009.019-.006.037.007.055.014.019.016.037.007.055a.33.33 0 0 1-.061.117c-.033.041-.067.08-.104.117a.176.176 0 0 1 .104.179.61.61 0 0 1-.104.275h-.164V9.91c.045 0 .091-.023.137-.069a.167.167 0 0 0-.083-.11.373.373 0 0 1-.123-.124.432.432 0 0 0 .089-.234c.004-.082.007-.159.007-.233 0-.027-.005-.043-.014-.048l-.021-.013c-.005-.005-.007-.023-.007-.056a.91.91 0 0 1 .028-.172.098.098 0 0 1-.013-.041c0-.009-.01-.022-.028-.041a.365.365 0 0 0-.041.048c-.01.014-.033.021-.069.021v-.124a.942.942 0 0 0 .151-.11c.027-.027.078-.041.151-.041 0 .046.014.096.042.151a1.74 1.74 0 0 0 .165.275c.027.037.04.06.04.069m-.137-3.285a.513.513 0 0 0-.124-.055.446.446 0 0 0-.123-.028c.036.019.077.037.123.056a.344.344 0 0 0 .124.027m.81-2.543a.054.054 0 0 0-.007-.027.057.057 0 0 1-.007-.027c-.01-.01-.013-.019-.013-.028a.191.191 0 0 1-.061-.158c.004-.059.006-.103.006-.13 0 .045-.032.068-.096.068-.046 0-.059-.007-.041-.02.018-.015.005-.016-.041-.007h-.096a.408.408 0 0 1-.131.144.25.25 0 0 1-.123.035c-.042 0-.085.001-.131.006a.26.26 0 0 0-.137.062.123.123 0 0 1 .034.062.114.114 0 0 0 .034.061h.124c.036-.1.064-.146.082-.137l.145.096c.04.028.08.051.116.069.028-.028.042-.069.042-.123a.316.316 0 0 0-.049-.042.047.047 0 0 1-.02-.041c.018-.018.032-.028.041-.028h.014c.046.019.087.074.124.165h.191zm-.645 5.566h-.096v.055h.096v-.055zm.11-1.099a.25.25 0 0 0-.075-.089.105.105 0 0 1-.049-.09.202.202 0 0 1-.034.11.107.107 0 0 0-.007.11.276.276 0 0 0 .082-.02.26.26 0 0 1 .083-.021m.165-4.315l-.165.055h.123l.042-.055zm.081.343l-.103.055c-.032.018-.043.055-.034.111a.236.236 0 0 0 .089-.083.613.613 0 0 0 .048-.083m.029-1.814h-.138a.172.172 0 0 0 .069.041c.028.009.049-.004.069-.041m.329 2.653V4.44a.94.94 0 0 1-.33-.068v.301a.23.23 0 0 1 .124.035.204.204 0 0 0 .11.035c0-.038.008-.067.027-.09l.069-.089m-.123.357l-.206-.083v.055l.178.069.028-.041zm.054-3.986a.311.311 0 0 1-.034-.116c-.005-.042-.016-.072-.035-.09a.09.09 0 0 0-.068.028.04.04 0 0 1-.028.013.44.44 0 0 1 .069.186c.009.068.013.13.013.186.046-.028.087-.069.124-.124s.024-.083-.041-.083m-.054.385l-.041-.055-.041.041.054.055.028-.041zm.096 2.749v-.041l-.165-.042v.055l.165.028zm-.082.536v-.124a.225.225 0 0 0-.055.041c-.01.01-.014.019-.014.028.009-.009.023-.007.041.007.019.014.028.029.028.048m.082.398a.204.204 0 0 0-.075.021.214.214 0 0 1-.076.021c.009 0 .023.009.041.027a.04.04 0 0 0 .028.013l.082-.082zm.069-1.415a.247.247 0 0 0-.13.007c-.042.013-.063.025-.063.034v.124a.69.69 0 0 0 .11-.069.279.279 0 0 0 .083-.096m-.124-.111c.018-.017.023-.045.014-.082a.644.644 0 0 0-.041-.11.17.17 0 0 1 .014.11c-.01.037-.005.065.013.082m.124-.508a.096.096 0 0 0-.069.028c-.009.009-.018.013-.027.013a.258.258 0 0 1 .041.124.175.175 0 0 0 .041-.082.39.39 0 0 0 .014-.083m2.034 6.652v-.467h-.082c-.01.018-.014.039-.014.062s-.009.043-.028.061a.51.51 0 0 0-.206.042l-.165.069a7.558 7.558 0 0 0-.117-.145.74.74 0 0 1-.089-.13.372.372 0 0 1-.124.082.374.374 0 0 0-.123.082l-.028-.013V9.25h.014c.055-.027.064-.062.027-.103-.037-.042-.05-.076-.041-.103a1.062 1.062 0 0 0-.083.144.17.17 0 0 1-.082.089.12.12 0 0 1 .062.021c.023.014.043.03.062.048 0-.018.004-.032.014-.041 0-.009.004-.018.013-.028a.344.344 0 0 1 .028.096c0 .019-.01.038-.028.056-.054.018-.11.039-.165.062s-.105.034-.151.034-.089-.005-.13-.014a3.558 3.558 0 0 1-.117-.027c-.055-.055-.083-.104-.083-.145s-.05-.062-.151-.062a.203.203 0 0 0-.103.021c-.023.014-.053.03-.089.048-.018-.018-.027-.032-.027-.041v-.014l-.055.041c.045.129.057.198.034.206-.023.01-.034.028-.034.055 0 .01.004.012.013.008.009-.005.016-.002.021.006.004.01.006.026.006.049a.317.317 0 0 1-.04.116v.083a.52.52 0 0 1 .055.068.368.368 0 0 0 .054.069.548.548 0 0 0 .165.014.48.48 0 0 1 .261.069c0-.092.042-.138.124-.138.046 0 .099.017.158.048a.343.343 0 0 0 .158.049.104.104 0 0 0 .083-.035c.018-.023.045-.034.082-.034.046 0 .073.005.082.013.009.01.019.023.028.042l.027.055a.185.185 0 0 1 .117-.049c.051-.005.085-.006.103-.006a.307.307 0 0 0 .104-.048c.032-.023.07-.035.116-.035s.062.005.049.014c-.014.009.002.014.048.014.082 0 .144-.039.185-.117a.486.486 0 0 0 .062-.227m-1.979-.55c.018-.018.021-.038.007-.061a.298.298 0 0 0-.049-.062c0 .018.003.039.008.062a.114.114 0 0 0 .034.061m.769-7.215a.206.206 0 0 0-.027-.103.2.2 0 0 1-.028-.103.214.214 0 0 1-.028.151c-.063 0-.1-.004-.109-.013a.04.04 0 0 1-.013-.028v-.083c0-.018.008-.036.027-.055h.11c-.028-.055-.064-.132-.11-.233s-.124-.152-.234-.152a.669.669 0 0 0-.192.076c-.101.051-.151.113-.151.186 0 .027.02.082.062.165.041.082.079.169.116.261.074-.018.144-.039.213-.062s.126-.034.172-.034c.046 0 .076.004.089.013.013.009.048.014.103.014m-.48 1.636a1.562 1.562 0 0 1-.111-.159.329.329 0 0 1-.054-.171c0-.046.023-.081.068-.103a.209.209 0 0 0 .097-.09h-.124a.318.318 0 0 0-.089.158.56.56 0 0 1-.062.158.43.43 0 0 1 .116.179.527.527 0 0 0 .076.151l.083-.123zm-.166-.798l-.041-.055-.041.042.055.055.027-.042zM83.37.908l-.014-.056-.082.042v.055l.096-.041zm0 4.191l-.014-.054-.082.04v.056l.096-.042zm-.015 2.845h-.068v.097h.068v-.097zm.056-5.181l-.041-.055-.042.041.056.055.027-.041zm.206 6.226a.132.132 0 0 0-.082-.034.273.273 0 0 1-.082-.021.287.287 0 0 1-.056.096.193.193 0 0 1-.054.041.872.872 0 0 0 .137-.013.24.24 0 0 0 .137-.069m-.096-1.113l-.041-.11-.055.027.041.083h.055zm.193-3.821a.998.998 0 0 0-.083-.069.273.273 0 0 1-.082-.095v.164h.165zm.206-1.003l-.234-.042a.872.872 0 0 0 .117.049c.041.014.08.012.117-.007m-.028 4.769c0 .009-.004.018-.013.027a.102.102 0 0 0-.021.028.124.124 0 0 1-.021.027l-.082-.082h.137zm.096 1.086c-.018 0-.034-.016-.048-.049-.013-.032-.011-.048.007-.048 0 .01.005.019.014.028a.093.093 0 0 1 .027.069M84.29.935a.11.11 0 0 1-.055-.014.445.445 0 0 0-.138-.013l-.067.068V1.1c.036 0 .073.007.109.021a.266.266 0 0 0 .083.021.395.395 0 0 0 .068-.207m.522 2.392a1.478 1.478 0 0 0-.089-.11 1.609 1.609 0 0 0-.076-.083.124.124 0 0 1-.007.09c-.013.032-.029.047-.048.047a1.6 1.6 0 0 1-.123-.095.332.332 0 0 1-.111-.179c-.018 0-.036.009-.054.027a.1.1 0 0 1-.042.014l.076.22a.44.44 0 0 0 .103.165.268.268 0 0 1-.137.082c-.046.01-.106.028-.179.055a.19.19 0 0 1 .11.028.186.186 0 0 0-.103.103.345.345 0 0 0-.035.144c0 .046.002.092.007.138a.27.27 0 0 0 .138.212c.041.023.071.03.089.021-.018-.036-.044-.082-.075-.137-.033-.055-.012-.114.061-.178l.048.095c.014.028.016.051.007.069a.17.17 0 0 1 .069-.041.176.176 0 0 0 .069-.041c-.092-.037-.126-.115-.103-.234a.574.574 0 0 1 .089-.247c.055-.01.115-.032.179-.069s.111-.069.137-.096m-.535-.77v.165c.018 0 .032-.005.041-.014.009-.009.014-.018.014-.027.046-.046.027-.087-.055-.124m.11 5.319h-.069v.137h.069v-.137zm.165-4.852l-.082-.164-.042.013.069.151h.055zm-.069 5.085h-.055v-.123h.055v.123zm.427-3.504v-.22c.008-.046-.005-.094-.042-.144-.037-.051-.078-.077-.124-.077s-.057.006-.034.015.011.013-.034.013c-.046 0-.071-.015-.076-.048a.504.504 0 0 1-.007-.075 2.101 2.101 0 0 0-.103.11c-.032.036-.048.064-.048.082.018 0 .029-.004.034-.014.005-.008.03-.013.076-.013.064 0 .121.05.172.151a.515.515 0 0 0 .186.22m.041 4.453a1.512 1.512 0 0 0-.165-.055 1.981 1.981 0 0 1-.165-.055.028.028 0 0 1-.007.02c-.005.005-.007.012-.007.021l-.014.014c-.055-.037-.096-.055-.123-.055a.44.44 0 0 1 .089.131c.023.05.043.093.062.13a.81.81 0 0 1 .151-.042c.055-.008.087-.004.096.015 0-.019.009-.04.027-.062a.694.694 0 0 1 .056-.062m-.385-7.532c-.018 0-.03.016-.035.048a.137.137 0 0 0 .007.076c.028-.018.039-.039.035-.062a.287.287 0 0 1-.007-.062m.206 6.762l-.165-.055a.113.113 0 0 1 .11 0c.037.018.055.037.055.055m.11-4.302c-.019-.055-.039-.089-.062-.103a.128.128 0 0 0-.062-.02.177.177 0 0 0-.041.061.181.181 0 0 1-.041.062h.206zm-.028-.302l-.027-.042-.124.07.028.055.123-.083zm.041-.715l-.123-.123-.028.041.11.123.041-.041zm.015 5.759a1.37 1.37 0 0 1-.124-.089c-.028-.023-.037-.058-.028-.103.019 0 .043.006.076.02.032.014.057.03.076.048v.124zm-.056-2.076l-.041-.054-.041.027.055.055.027-.028zm.056 1.086c-.019 0-.035.014-.049.042-.014.027-.03.041-.048.041.018.018.039.013.062-.014s.035-.05.035-.069m.274 1.004v.261a.279.279 0 0 1-.096-.083c-.027-.036-.06-.055-.096-.055a.2.2 0 0 0 .041-.123h.151zm-.041-3.203h-.068v.138h.068v-.138zM87.629.853a.187.187 0 0 0-.082.165.38.38 0 0 0-.007-.062.136.136 0 0 0-.034-.062 2.119 2.119 0 0 0-.048.158.568.568 0 0 1-.076.158h-.123l-.055-.068a.152.152 0 0 0-.028.089v.144c-.036.037-.087.046-.151.027l-.076.076a.145.145 0 0 0-.048.103h-.192a.23.23 0 0 1-.048-.068.167.167 0 0 0-.076-.069c-.019.019-.021.034-.007.048l.048.048a.76.76 0 0 0-.288-.055.09.09 0 0 1-.028-.068c0-.028.009-.037.028-.028.018-.009.032-.011.041-.007.009.005.022-.002.041-.021v-.055a.148.148 0 0 0-.103-.061 1.08 1.08 0 0 0-.13-.008c-.065 0-.069.019-.014.056a.173.173 0 0 1-.034-.041.265.265 0 0 0-.035-.042l-.014-.013c-.009 0-.013.023-.013.068 0 .037.007.092.02.165.014.073.021.142.021.207a.26.26 0 0 0 .069.047c.027.014.05.03.068.049a1.643 1.643 0 0 1-.055.103 2.371 2.371 0 0 0-.054.102c.063.065.127.097.192.097.045 0 .07-.005.075-.014.005-.009.007-.004.007.014h-.274l-.028.289c.036.027.052.066.048.116-.005.051.011.076.048.076.046 0 .071-.002.075-.007.005-.004.017.002.035.02a.677.677 0 0 1-.234.152.135.135 0 0 0-.027-.069.52.52 0 0 0-.055-.068V.99c0-.046.013-.079.041-.103l.076-.062c.022-.018.039-.036.048-.054s-.005-.046-.041-.083c-.01.009-.019.014-.028.014-.009.009-.027.013-.055.013.009-.018.012-.054.007-.109a4.378 4.378 0 0 1-.007-.316l.124.027c.018 0 .041-.018.069-.055-.019-.046-.021-.075-.007-.09a.306.306 0 0 1 .089-.047c-.018-.018-.028-.037-.028-.056V.015c.019 0 .042.009.069.027a.191.191 0 0 0 .11.027h.302a.229.229 0 0 0 .124-.034.229.229 0 0 1 .124-.034c.045 0 .098.009.158.027l.172.055a.368.368 0 0 1-.007.062c-.005.023-.016.03-.035.021a.69.69 0 0 1-.013.103.485.485 0 0 0 .041.281c.018.038.055.056.11.056.027.018.045.059.055.123a.327.327 0 0 0 .069.165l.054-.041zm3.23 8.74h-.11a.136.136 0 0 0-.034.049.153.153 0 0 1-.034.048c0 .018.004.034.013.048.009.014.036.021.083.021h.055c-.01 0-.005-.009.014-.027v.274l-.241-.117a.629.629 0 0 1-.213-.157h-.124c-.018.018-.027.054-.027.109v.151h-.921v-.069a.216.216 0 0 0-.028-.096c-.045.028-.075.069-.089.124s-.076.083-.186.083c-.037 0-.057-.016-.061-.049-.005-.031-.03-.048-.076-.048s-.057.005-.035.014c.023.01.012.014-.033.014-.047 0-.058-.007-.035-.021.023-.013.025-.029.007-.048a.357.357 0 0 1-.069.096c-.027.028-.064.042-.11.042s-.103-.012-.171-.035a.745.745 0 0 0-.227-.034c.046-.046.041-.147-.014-.302a.92.92 0 0 0-.083.206c-.027.092-.078.137-.151.137a.602.602 0 0 0-.13.014.612.612 0 0 1-.131.014c-.046 0-.071-.012-.075-.035-.005-.022-.03-.034-.076-.034a.983.983 0 0 0-.206.034.945.945 0 0 1-.206.035.195.195 0 0 1-.117-.035c-.032-.022-.071-.034-.117-.034s-.129.012-.247.034a1.58 1.58 0 0 1-.248.035.76.76 0 0 1-.13-.014 1.077 1.077 0 0 0-.186-.014l-.054-.083V6.296a.205.205 0 0 0 .178-.028.412.412 0 0 0-.117-.083.17.17 0 0 1-.089-.082v-2.68a.237.237 0 0 0 .041-.055c.009-.018.036-.028.083-.028.045 0 .077-.011.096-.034a.241.241 0 0 1 .082-.062c0 .019.014.035.042.048a.153.153 0 0 0 .068.021c0 .027-.023.065-.068.11.109.027.171.025.185-.007.014-.032.044-.048.089-.048.046 0 .081.03.103.089.023.06.058.09.104.09.045 0 .08.006.103.02s.052.03.089.048a.172.172 0 0 1 .062-.041.187.187 0 0 0 .061-.041.12.12 0 0 0-.068-.034.124.124 0 0 1-.069-.035v-.048c0-.014-.009-.03-.028-.048l-.027.028a.06.06 0 0 1-.041.013.038.038 0 0 1-.014-.027.04.04 0 0 1-.013-.028.114.114 0 0 0-.014-.041h.048c.014 0 .03-.009.048-.028h-.014c-.009 0-.016-.002-.02-.006-.005-.005-.012-.007-.021-.007l-.11-.055.343.027a.429.429 0 0 0-.055.076.356.356 0 0 1-.054.076.272.272 0 0 0 .233.109.488.488 0 0 0 .103-.013.235.235 0 0 0 .117-.069.613.613 0 0 0-.124-.096.52.52 0 0 1-.137-.137c-.009-.01-.014-.03-.014-.062a.237.237 0 0 0-.027-.104.25.25 0 0 0-.042.11c-.018 0-.032-.006-.041-.021a.367.367 0 0 0-.041-.047c-.018.018-.027.034-.027.047v.049c-.019-.019-.039-.023-.062-.014a.171.171 0 0 1-.062.014c0-.037.019-.074.055-.11-.036-.064-.069-.083-.096-.055.036-.028.05-.059.041-.096s.041-.064.151-.083l.055.042c0-.028.019-.069.055-.124-.018-.019-.034-.025-.048-.021a.143.143 0 0 1-.048.007v-.233h.11c.027-.028.041-.088.041-.179.037.082.066.185.089.309.023.124.048.241.076.35a.261.261 0 0 0 .089.062.309.309 0 0 1 .09.062l.041-.041c.009-.009.027-.014.055-.014.018.028.004.064-.042.11.019.019.039.028.062.028s.044.004.062.014c.018.027.044.061.076.102a.508.508 0 0 0 .103.104l-.014.013h.055c.046 0 .078-.011.096-.034s.051-.035.096-.035h.798c-.019.019-.058.033-.118.042a.515.515 0 0 1-.199-.014c0 .018-.004.033-.013.041-.009.009-.014.037-.014.083a.368.368 0 0 0 .055.206c.018.036.05.069.096.096a.242.242 0 0 0 .11.041c.009.028.025.051.048.069s.044.046.062.082c.018-.018.027-.05.027-.095.019.018.056.01.11-.021a.307.307 0 0 1 .152-.049c.064 0 .123.012.179.035a.354.354 0 0 1 .109.062.366.366 0 0 1 .076-.103c.032-.033.048-.039.048-.021l.055.055c.046-.018.073-.048.083-.089a.661.661 0 0 0 .013-.124v-.124c0-.041.014-.075.041-.103l.069.069c.019-.018.021-.041.007-.069a.157.157 0 0 1-.021-.069h.496l.026.028c.01.01.014.018.014.028 0 .008.005.018.014.027-.009.019-.007.034.007.048.014.013.021.044.021.089a.692.692 0 0 1-.035.172.807.807 0 0 0-.034.227.266.266 0 0 1-.083-.021.385.385 0 0 0-.137-.02h-.014c-.009 0-.014.018-.014.055 0 .046.012.073.035.082.022.01.043.023.061.041.019 0 .037-.013.056-.041a.208.208 0 0 1 .083-.069c.054.046.068.106.04.179a.347.347 0 0 0-.027.179c.027.091.046.19.055.295.009.106.014.209.014.309l-.303.138a.725.725 0 0 1-.302.069c-.019 0-.08-.002-.186-.007a7.316 7.316 0 0 0-.344-.007 7.3 7.3 0 0 1-.343-.007 5.86 5.86 0 0 0-.185-.007c-.046 0-.069.005-.069.014 0 .009-.01.023-.028.041a6.3 6.3 0 0 0-.824.055.626.626 0 0 0-.097.083c-.027.21-.043.426-.047.645-.005.22.02.477.075.77v-.014a.022.022 0 0 0-.014-.02c-.009-.005-.018-.016-.028-.034a2.148 2.148 0 0 0 0 .481.696.696 0 0 1-.082.439h-.103c-.05 0-.043.028.021.083.082 0 .128.004.137.014l-.068.082h-.083l-.068-.069a.406.406 0 0 0-.055.069.133.133 0 0 0-.028.069c-.018 0-.032-.012-.041-.035-.01-.023-.033-.034-.069-.034l-.069.054.069.069c-.046.046-.067.098-.062.158s-.011.103-.048.13l-.068-.069a.149.149 0 0 0-.041.11c-.01-.027-.01-.049 0-.068a.143.143 0 0 0 .013-.056.165.165 0 0 0-.021-.068.621.621 0 0 0-.102-.123.533.533 0 0 0-.248.192c.064.102.133.189.206.262a.191.191 0 0 1 .014.124.182.182 0 0 0 .014.123.35.35 0 0 1 .124.021.301.301 0 0 0 .109.021.174.174 0 0 0-.096.027h.247a.828.828 0 0 0-.123-.103.338.338 0 0 1-.11-.131V8.33h.096c0-.046-.014-.078-.041-.097.018 0 .034.01.048.027.014.019.03.037.048.056.018 0 .032-.012.041-.035a.171.171 0 0 0 .014-.062.197.197 0 0 0 .124.041c0 .019-.01.058-.028.118a.303.303 0 0 1-.069.13.574.574 0 0 1 .076.089c.014.024.043.035.089.035h.124c.009 0 .014-.005.014-.014 0-.009.004-.023.013-.041a.157.157 0 0 1-.013-.069c0-.027-.01-.05-.028-.069a.167.167 0 0 0 .041-.076c.009-.031.037-.047.082-.047.157 0 .271.046.344.137.019-.064.069-.096.151-.096.037 0 .044.012.021.034-.023.023-.011.034.035.034.045 0 .073-.006.082-.02.009-.014.037-.02.083-.02.045 0 .151-.005.316-.014.164-.009.311-.005.439.014.009-.009.014-.026.014-.048v-.179c0-.096-.002-.238-.007-.426l-.02-.777h1.58v2.638zM86.255.661l-.013-.055-.083.055v.041l.096-.041zm.041.11l-.027-.056-.082.042v.055l.109-.041zm.028 2.363l-.137.042v-.055l.123-.028.014.041zm.028-2.803h-.124v.068h.124V.331zm.824 2.007l-.137-.028a.36.36 0 0 0-.09.068c-.013.019-.018.035-.013.048.004.014.029.017.075.007h-.178c0 .074.004.152.013.234a.861.861 0 0 1-.013.261h-.152c-.036 0-.06-.032-.068-.096a1.513 1.513 0 0 0-.028-.151c-.009-.018-.03-.032-.062-.042a.55.55 0 0 1-.103-.041.128.128 0 0 0 .035-.054.257.257 0 0 0 .006-.055c.064 0 .12-.009.165-.028a.094.094 0 0 0-.069-.028h-.054a.204.204 0 0 0-.021-.075.204.204 0 0 1-.021-.076h.062c.023 0 .043.01.062.028l.014-.014a.169.169 0 0 1 .041-.028.406.406 0 0 0 .027-.151c0-.054.019-.105.056-.151a.528.528 0 0 0 .096.151c.045.055.091.106.137.151a.304.304 0 0 0 .11-.068l.069-.069a.06.06 0 0 0 .013.041c0 .028.01.041.028.041v.125zM86.626.29h-.165c0 .018.009.039.028.062a.658.658 0 0 0 .055.061.187.187 0 0 0 .041-.061.172.172 0 0 1 .041-.062m-.082.989h-.069v.123h.069v-.123zm.082.467c-.055.019-.082.073-.082.165 0-.055-.014-.16-.041-.316.091.037.132.087.123.151m.028.783h-.151v.069h.151v-.069zm-.055 1.045c0-.018-.012-.034-.035-.048a.315.315 0 0 1-.061-.048c0 .019.011.039.034.062.023.022.044.034.062.034m.206 5.483c-.028-.028-.074-.041-.138-.041 0 .018-.013.039-.041.062-.027.022-.05.043-.069.061.037 0 .074.007.11.021a.23.23 0 0 1 .083.048l.055-.151zm-.082-.384h-.082v-.056h.082v.056zm.054-4.604l-.054-.055-.028.041.041.041.041-.027zm.165 3.6a.252.252 0 0 0-.02-.083.25.25 0 0 1-.021-.082.64.64 0 0 0-.206.123c.018 0 .05.007.096.021a.488.488 0 0 0 .151.021m-.041-6.185l-.055-.137a.315.315 0 0 1-.013-.165.167.167 0 0 0-.062.014.172.172 0 0 1-.062.013.373.373 0 0 0 .089.158c.051.061.085.1.103.117m-.11 2.118h-.082v.055h.082v-.055zm.028 5.772c0-.018-.009-.035-.028-.048a.093.093 0 0 0-.055-.021h.041c.028 0 .042-.014.042-.041v.11zm.096-7.71l-.138.041V1.65l.111-.041.027.055zm.124 6.102h-.124v.054h.124v-.054zm-.056-5.594v-.027c0-.018-.009-.036-.027-.055.046.027.055.055.027.082m.11-.839c-.018 0-.033-.014-.048-.041a.171.171 0 0 1-.02-.069.133.133 0 0 1-.055.11h.123zm-.027 8.013h-.083v.055h.083v-.055zm.247-6.487c0-.056-.006-.099-.02-.131s-.021-.057-.021-.076a1.097 1.097 0 0 1-.124.193c.019 0 .046.002.083.007a.65.65 0 0 0 .082.007M87.272.908h-.082v.124h.082V.908zm.041 8.397h-.096v.055h.096v-.055zm.207-7.628a.304.304 0 0 0-.076.076.289.289 0 0 1-.076.076l-.055-.124a.196.196 0 0 1 .097-.041c.045-.01.082-.005.11.013m-.028-.906h-.137v.164a.207.207 0 0 0 .103-.082c.022-.037.034-.064.034-.082m.096.713a.295.295 0 0 1-.117-.027 1.799 1.799 0 0 1-.116-.056v-.122a.262.262 0 0 0 .082-.021.29.29 0 0 1 .083-.021l.068.083v.164zm-.027 6.433a.6.6 0 0 0-.206.22c.055-.018.089-.046.103-.082a.413.413 0 0 1 .103-.138m-.055-4.397h-.069v.15h.069v-.15zm.123-1.554c0 .037.002.076.007.117a.206.206 0 0 1-.02.117c-.019 0-.023-.012-.014-.034.009-.023-.009-.035-.055-.035s-.065.005-.055.014c.009.009.014.023.014.041 0-.028.004-.059.014-.096a.583.583 0 0 0 .013-.124h.096zm-.082 1.031a.256.256 0 0 1-.048-.069c-.014-.027-.012-.041.007-.041.017-.018.034-.009.048.028.013.036.011.064-.007.082m.22-.55c0 .092-.002.183-.007.275a5.022 5.022 0 0 0-.007.275 5.047 5.047 0 0 1-.233-.261c.008-.064.018-.124.027-.179.009-.046.016-.087.02-.124.005-.036.012-.055.021-.055v.069a.09.09 0 0 0 .028.069.243.243 0 0 1 .075-.048.204.204 0 0 1 .076-.021m.013 1.457v-.481.097l-.068-.042a.197.197 0 0 0-.11.027l-.082.055a.317.317 0 0 0 .075.055c.032.019.066.037.103.055-.037.018-.057.037-.062.055-.005.019-.025.037-.061.055-.019-.018-.028-.032-.028-.041-.009-.009-.014-.018-.014-.027 0 .018.002.041.007.068a.115.115 0 0 0 .035.069.181.181 0 0 0 .068-.048c.009-.014.032-.029.069-.048.018.037.034.066.048.089.014.023.02.043.02.062M87.629.523l-.096.041V.523l.083-.055.013.055zm.014 3.862l-.055-.055-.041.028.055.055.041-.028zm.028-3.298l-.042.027-.041-.055.028-.027.055.055zm.041.15h-.055l-.041-.082.055-.013.041.095zm2.969-.013c0 .046-.01.11-.028.193a.509.509 0 0 0 0 .233 1.741 1.741 0 0 0-.219.083.543.543 0 0 1-.193.055.195.195 0 0 1-.117-.035.181.181 0 0 0-.103-.034c-.037 0-.074.023-.11.069-.036.046-.078.068-.124.068a.73.73 0 0 1-.144-.014.938.938 0 0 0-.144-.013.5.5 0 0 0-.118.013.387.387 0 0 1-.116.014 2.52 2.52 0 0 1-.151-.007 4.278 4.278 0 0 0-.234-.007 4.343 4.343 0 0 1-.371-.013c-.046 0-.075-.016-.09-.048-.013-.032-.002-.057.035-.076-.064-.036-.105-.053-.124-.048-.018.005-.041-.053-.068-.172a.09.09 0 0 0-.028.069c0 .027-.009.05-.027.069a.175.175 0 0 1-.124.054V1.65c0-.018.009-.032.027-.041a.348.348 0 0 1-.075-.048l-.076-.076c0 .046.009.092.028.138.018.046.036.087.055.123-.046-.009-.102.012-.165.063a.345.345 0 0 0-.124.157c-.055-.055-.096-.082-.124-.082a.406.406 0 0 0 .056-.075.174.174 0 0 1 .082-.076.132.132 0 0 1-.035-.076.327.327 0 0 0-.034-.103.356.356 0 0 0 .234-.028.301.301 0 0 0-.144-.096c-.06-.018-.09-.05-.09-.096s.007-.084.021-.117a.27.27 0 0 0 .02-.103h.152c.064.018.089.041.075.069-.014.027-.007.06.021.096L88 1.265c.01-.009.014-.015.014-.02s.005-.012.014-.021c.009-.018.007-.039-.007-.062a.366.366 0 0 0-.048-.062V.977l.11-.055a.844.844 0 0 1 .165-.055v-.11l-.083.041c-.073 0-.133-.035-.178-.103-.047-.069-.078-.104-.096-.104-.047 0-.064.005-.056.015.009.009.014.022.014.041a.858.858 0 0 0-.041-.262.26.26 0 0 1 .083.021.255.255 0 0 0 .082.021c-.009.018-.007.046.007.082a.174.174 0 0 1-.007.124l.055.055c.036-.037.041-.069.014-.097h.027c.018 0 .036.01.055.028.037-.045.078-.091.124-.137.045-.046.082-.087.11-.123V.29c.018 0 .032.011.041.034a.177.177 0 0 0 .041.061c.055-.026.092-.091.11-.192a.102.102 0 0 0-.062-.062.211.211 0 0 1-.075-.048c.155-.036.252-.041.289-.014a.177.177 0 0 0 .11.042c.045 0 .061-.004.047-.014-.014-.009-.016-.023-.006-.041.045-.009.096-.021.15-.034a.628.628 0 0 1 .262-.014c.046.004.073.057.082.158V.18c0 .008.009.018.028.027h.083c.018-.019.022-.039.013-.062s-.013-.043-.013-.062c.081 0 .183-.009.302-.027a3.754 3.754 0 0 1 .7-.034c.102.004.175.025.221.061v1.141zM87.753 2.31a.123.123 0 0 1-.062-.021.366.366 0 0 1-.062-.048h.11l.014-.083v.152zm.165 7.463a.095.095 0 0 1-.069.027c-.046 0-.057-.007-.034-.021.023-.013.025-.029.006-.047a.453.453 0 0 1-.054.047.484.484 0 0 0-.055.048.133.133 0 0 0-.055-.034c-.018-.004-.028-.029-.028-.076 0-.045.007-.077.021-.096a.088.088 0 0 0 .021-.055h.164c0 .019.007.044.021.076a.35.35 0 0 0 .076.103c0 .009-.005.019-.014.028M87.863.125a.148.148 0 0 0-.075.075.16.16 0 0 1-.076.076l-.055-.124a.187.187 0 0 1 .096-.041c.046-.009.082-.004.11.014m.069.714a.284.284 0 0 1-.097.103.255.255 0 0 0-.096.131c0-.055-.027-.083-.082-.083.036-.018.078-.038.123-.062.047-.022.097-.052.152-.089m-.069 7.944h-.124v.069h.124v-.069zm.179-.33a.18.18 0 0 0-.083-.041.394.394 0 0 0-.082-.014v.165a.212.212 0 0 1 .082-.089c.037-.023.064-.03.083-.021m.206-3.683a.203.203 0 0 0-.069-.082c-.028-.019-.041-.037-.041-.056.046-.027.055-.059.027-.096a.462.462 0 0 0-.055.069.093.093 0 0 1-.082.041c-.046 0-.064.014-.055.042.009.027.005.041-.014.041a.45.45 0 0 1 .159.034c.059.023.102.025.13.007m-.069 3.972a.19.19 0 0 0-.061-.042c-.024-.008-.035-.004-.035.014h-.124c.037 0 .064.021.083.062a.167.167 0 0 0 .082.089c.037-.027.055-.068.055-.123m.206-8.631a.167.167 0 0 1-.116.123c-.06.019-.081.079-.062.179a.295.295 0 0 1-.138-.035.287.287 0 0 0-.096-.034V.22h.11a.054.054 0 0 0 .014-.061.327.327 0 0 1-.014-.117h.192c0 .019.014.034.041.048a.164.164 0 0 0 .069.021m-.206 4.191a.27.27 0 0 0-.069.028.108.108 0 0 1-.041.014.364.364 0 0 0 .041.069c.01.009.014.018.014.027 0-.018.009-.041.027-.068a.135.135 0 0 0 .028-.07m.055 5.291V9.51c0-.036-.009-.064-.027-.082l-.097-.04v.205a.172.172 0 0 0 .062-.013c.023-.01.044-.005.062.013m.247-8.08c0-.101-.002-.207-.006-.316a6.669 6.669 0 0 1-.007-.303c-.037.055-.078.11-.124.165a.57.57 0 0 1-.137.124.245.245 0 0 1 .068.11c.009.037.016.068.021.096.004.028.012.055.02.082.01.028.037.055.083.083.027-.028.046-.041.055-.041h.027zm.041-.907c-.018-.01-.027-.018-.027-.028 0-.009-.004-.018-.014-.028a.036.036 0 0 1-.013-.027c-.046.037-.09.076-.131.117s-.071.08-.089.117a.284.284 0 0 1 .137-.076.283.283 0 0 0 .137-.075m-.041 9.193h-.055c-.018 0-.036.009-.054.027l-.097-.082.028-.028c.018-.018.027-.036.027-.054a.108.108 0 0 0-.014.041c0 .018.019.028.056.028.045 0 .064-.012.054-.035-.009-.023-.004-.034.014-.034a.12.12 0 0 1 .035.069c.004.028.006.05.006.068m-.027-5.908c-.028 0-.055.022-.082.068-.046-.046-.074-.068-.083-.068v.164h.124l.041-.164zm.096 5.057l-.096.096a.13.13 0 0 0-.041.096.315.315 0 0 1-.048-.061c-.014-.023-.03-.035-.049-.035 0-.018.014-.043.042-.076a.376.376 0 0 0 .068-.13c.019 0 .035.014.049.042.013.026.039.05.075.068m-.055.303l-.123-.084-.028.042.124.082.027-.04zm.027-4.261a.141.141 0 0 0-.041-.034.124.124 0 0 1-.027-.021c-.009-.009-.018-.014-.028-.014 0 .063.033.087.096.069m.083 4.233h-.069v.124h.069v-.124zm.028-9.112h-.055v.123h.055V.111zm.233 9.716a2.585 2.585 0 0 0-.116-.054c-.041-.019-.081-.037-.117-.056v-.124a.41.41 0 0 1 .117.104c.041.05.08.094.116.13m.055-9.372a.554.554 0 0 0-.02-.152.428.428 0 0 1-.021-.123v.054c0 .037-.009.065-.027.083-.028-.027-.041-.055-.041-.083 0 .019.006.03.02.035.013.005-.002.007-.048.007s-.074-.009-.082-.028c-.01-.018-.023-.018-.042 0 .037.046.08.088.131.124.05.037.094.064.13.083m.317 9.084c-.065.11-.138.206-.221.288a.551.551 0 0 0-.075-.061.732.732 0 0 1-.076-.062c.037.009.076 0 .117-.028.041-.027.08-.05.117-.068a.326.326 0 0 1-.076-.11.149.149 0 0 0-.075-.083.173.173 0 0 0-.124.055c0 .01.005.018.013.028.01.009.023.013.042.013-.019 0-.029.007-.035.021-.004.014.003.03.021.048a.381.381 0 0 1-.068-.007.126.126 0 0 1-.069-.034.175.175 0 0 0 .041-.083.212.212 0 0 1 .055-.096.26.26 0 0 0-.007-.131 1.199 1.199 0 0 0-.048-.143h.028c.009 0 .022.008.04.027a1.84 1.84 0 0 0 .042-.206.418.418 0 0 1 .069-.179c0 .037.011.062.034.075.023.015.017.031-.02.049a.16.16 0 0 0 .068.041.17.17 0 0 1 .069.041c.019 0 .029-.009.034-.027.005-.019.016-.027.034-.027v.397H89.1c-.027 0-.05.01-.069.028v.096c.019.019.042.026.069.021s.05-.007.068-.007c.019.019.03.039.035.062a.118.118 0 0 0 .035.062M89.76.99a.314.314 0 0 1-.124-.089.525.525 0 0 0-.097-.089 4.357 4.357 0 0 0-.143-.055.386.386 0 0 0-.131-.028c-.101 0-.199.012-.295.034-.097.024-.172.012-.227-.034v.234-.096c.073.037.149.073.227.11a.477.477 0 0 0 .185.055.175.175 0 0 0 .103-.035.174.174 0 0 1 .103-.034.56.56 0 0 0 .172.041.617.617 0 0 0 .227-.014m-.88 3.67c0 .036-.021.066-.062.089-.041.023-.062.053-.062.089 0 .046.009.069.028.069.018 0 .028.01.028.028 0-.046.011-.092.033-.138a.3.3 0 0 0 .035-.137m.11-.948h-.152v-.124h.125c0 .009-.024.037-.069.082.018.018.034.028.048.028.014 0 .03.004.048.014m0 5.511v-.056l-.152-.027v.042l.152.041zm.22-7.944a1.01 1.01 0 0 1-.042-.124c-.009-.036-.022-.055-.041-.055h-.041c-.018-.018-.046-.027-.083-.027h-.054l-.041.124h.055a.076.076 0 0 0 .054-.028.091.091 0 0 1 .028.068v.069l.082-.069c.028.047.055.06.083.042m-.151 7.807V9.03l-.151-.027v.041l.151.042zm.151-4.619v-.233a.12.12 0 0 1-.062-.021.131.131 0 0 0-.062-.02.617.617 0 0 1-.075.062c-.032.022-.044.057-.034.103v.109h.233zm.055 3.944h-.261v.055h.261v-.055zm.041-4.699a.248.248 0 0 0-.082.02.268.268 0 0 1-.082.021.312.312 0 0 0-.015-.076c-.008-.032-.032-.048-.068-.048a.715.715 0 0 0 .247-.041v.124zm-.151 4.824h-.069v.083h.069v-.083zm.069-8.04l-.056-.014-.054.124.041.027.069-.137zm-.028 3.518h-.082v.055h.082v-.055zm.179-.632h-.124v-.055h.124v.055zm.207-2.791c-.028-.09-.063-.139-.104-.143-.041-.005-.094-.039-.158-.104a.09.09 0 0 1-.028.069.04.04 0 0 0-.013.028.299.299 0 0 1 .117.062.389.389 0 0 1 .062.088h.124zm-.07 3.354h-.124V4h.124v-.055zm-.082 5.443a.18.18 0 0 0 .041-.083c.009-.036-.005-.064-.041-.082v.165zm.288-1.375h-.164a.707.707 0 0 1 .048.138.2.2 0 0 1-.007.137.387.387 0 0 0 .062-.096.86.86 0 0 0 .061-.179M89.595.317c.018-.018.022-.041.013-.069a.165.165 0 0 0-.041-.068c0 .018.005.04.015.068a.27.27 0 0 1 .013.069m.467 8.521c0-.046-.005-.076-.014-.089a.088.088 0 0 1-.014-.049.098.098 0 0 1-.055-.02c-.018-.014-.05-.021-.096-.021s-.108.033-.185.096c-.078.065-.113.12-.103.166v.123a.546.546 0 0 1 .165-.034c.063-.005.118-.007.165-.007.046 0 .079-.016.102-.048s.035-.071.035-.117M89.994.536a.926.926 0 0 1-.303-.082.749.749 0 0 1 .096.116c.027.042.06.08.096.117 0-.037.014-.066.042-.089a.917.917 0 0 0 .069-.062m.04.206c-.018-.009-.027-.018-.027-.028 0-.008-.005-.018-.013-.027-.01-.009-.015-.018-.015-.027-.018.036-.043.057-.075.061a.504.504 0 0 1-.075.007v.124c.027.009.063 0 .109-.028a.26.26 0 0 0 .096-.082m.715 7.531l-.172-.068a3.2 3.2 0 0 1-.213-.097c-.073-.036-.139-.08-.199-.13s-.094-.107-.103-.172h-.192a.203.203 0 0 0 0 .11 4.92 4.92 0 0 0 .075.302.393.393 0 0 1 .021.097c0 .046-.014.073-.041.082a.256.256 0 0 0-.096.069.73.73 0 0 0 .068.11c.028.036.041.064.041.082.037 0 .073-.011.11-.034s.074-.035.111-.035c.027 0 .063-.015.109-.047a2.35 2.35 0 0 0 .144-.111c.051-.041.106-.077.165-.11a.39.39 0 0 1 .172-.048m-.77-7.942l-.054-.055-.042.027.055.056.041-.028zm.33 3.243v-.165h-.164a.298.298 0 0 1-.138-.027c0 .036-.007.064-.021.082-.013.019-.02.051-.02.096 0 .047.015.074.048.083a.178.178 0 0 1 .076.041.388.388 0 0 0 .034-.103.126.126 0 0 1 .035-.076.202.202 0 0 0 .075.048.204.204 0 0 0 .075.021m-.082.193h-.193v.068h.193v-.068zM90.199.564c-.018 0-.04.014-.069.042l-.068.068c.018.019.043.021.076.007.031-.014.038-.025.021-.034-.019-.019-.016-.032.006-.041.023-.01.034-.023.034-.042m.11 4.04a.333.333 0 0 1-.034-.11.895.895 0 0 1-.007-.082h-.123a.82.82 0 0 0 .006.11c.005.036.016.064.035.082h.123z" fill="#4c9761"/></svg>