<svg xmlns="http://www.w3.org/2000/svg" viewBox="0 0 45.655 10.177"><g fill="#4c9761"><path d="M4.79 10.177a5.045 5.045 0 0 1-1.956-.367 4.33 4.33 0 0 1-1.511-1.033 4.677 4.677 0 0 1-.975-1.605C.116 6.546 0 5.849 0 5.082c0-.78.116-1.483.348-2.109a4.604 4.604 0 0 1 .975-1.599A4.277 4.277 0 0 1 2.824.358 5.032 5.032 0 0 1 4.751 0c.589 0 1.14.084 1.65.254A4.29 4.29 0 0 1 7.75.971a3.678 3.678 0 0 1 1.375 2.59H7.233a2.092 2.092 0 0 0-.224-.809 1.82 1.82 0 0 0-.503-.601 2.283 2.283 0 0 0-.758-.377 3.42 3.42 0 0 0-.978-.13c-.429 0-.82.076-1.172.228a2.486 2.486 0 0 0-.911.665c-.253.293-.45.653-.591 1.08a4.661 4.661 0 0 0-.211 1.465c0 .542.07 1.026.211 1.453.141.426.338.788.591 1.085.254.297.558.524.913.682.356.159.748.237 1.177.237.615 0 1.14-.089 1.576-.269s.802-.461 1.101-.842V6.395H5.011V4.699h4.263v5.322H7.857l-.234-.708a3.482 3.482 0 0 1-1.218.646c-.47.146-1.009.218-1.615.218M19.809 10.022h-2.054l-1.079-2.821h-3.451l-1.027 2.821h-1.949L14.038.156h1.755l4.016 9.866zm-3.705-4.387l-1.196-3.126-1.131 3.126h2.327zM30.305 10.021h-1.787V3.704l-2.125 6.317h-1.547l-2.112-6.317v6.317h-1.781V.155h2.392l2.281 7.033L27.92.155h2.385zM37.096 10.177a5.045 5.045 0 0 1-1.956-.367 4.33 4.33 0 0 1-1.511-1.033 4.693 4.693 0 0 1-.975-1.605c-.232-.626-.347-1.323-.347-2.09 0-.78.115-1.483.347-2.109s.557-1.159.975-1.599A4.277 4.277 0 0 1 35.13.358 5.032 5.032 0 0 1 37.057 0c.589 0 1.14.084 1.651.254.511.168.961.408 1.349.717.387.31.701.684.942 1.122.24.437.384.927.432 1.468H39.54a2.11 2.11 0 0 0-.225-.809 1.82 1.82 0 0 0-.503-.601 2.273 2.273 0 0 0-.758-.377 3.42 3.42 0 0 0-.978-.13 2.94 2.94 0 0 0-1.173.228 2.499 2.499 0 0 0-.91.665c-.253.293-.45.653-.591 1.08a4.69 4.69 0 0 0-.211 1.465c0 .542.071 1.026.211 1.453.141.426.338.788.591 1.085.254.297.559.524.914.682.355.159.747.237 1.176.237.615 0 1.141-.089 1.576-.269.436-.18.803-.461 1.102-.842V6.395h-2.444V4.699h4.263v5.322h-1.417l-.234-.708a3.482 3.482 0 0 1-1.218.646c-.47.146-1.008.218-1.615.218M43.822.155h1.833v9.866h-1.833z"/></g></svg>