<svg xmlns="http://www.w3.org/2000/svg" viewBox="0 0 99.675 10.178"><g fill="#4c9761"><path d="M5.374 9.182a.67.67 0 0 1-.039.2c-.027.08-.023.208.013.384 0 .018-.009.038-.027.06a.63.63 0 0 1-.053.06h-.849a.418.418 0 0 0 .026-.292 1.776 1.776 0 0 1-.053-.332 2.698 2.698 0 0 0-.271.319.655.655 0 0 1-.313.239.57.57 0 0 1-.298.026 1.119 1.119 0 0 0-.299-.013.303.303 0 0 0-.106.106.974.974 0 0 1-.172.079.5.5 0 0 1-.159.04c-.045 0-.107-.029-.186-.086a.529.529 0 0 0-.213-.1c.018-.017.014-.033-.013-.046a.367.367 0 0 1-.093-.073h-.08a.526.526 0 0 0-.039.106.192.192 0 0 0 .013.12.919.919 0 0 1-.258.02 4.88 4.88 0 0 0-.22-.007c-.035 0-.102-.031-.198-.093a3.497 3.497 0 0 0-.279-.159.332.332 0 0 1-.053-.033c-.018-.013-.027-.042-.027-.087 0-.07.067-.145.199-.225 0-.018-.009-.035-.026-.053l-.053-.053a.36.36 0 0 0-.153.106.624.624 0 0 1-.179.133 16.045 16.045 0 0 0-.166-.219 1.299 1.299 0 0 1-.139-.219C.602 9.072.6 9.046.604 9.01c.004-.035.015-.058.033-.066 0-.018-.011-.027-.033-.027H.545a8.788 8.788 0 0 0-.133-.272.29.29 0 0 1 0-.272c0-.044-.031-.075-.093-.093l-.067-.232a10.356 10.356 0 0 1-.073-.265 4.045 4.045 0 0 1-.053-.233 1.07 1.07 0 0 1-.02-.132v-.146c.053-.018.107-.034.16-.047a1.09 1.09 0 0 0 .146-.046.302.302 0 0 1 .159-.013c.061.009.119.013.172.013 0-.035-.022-.066-.066-.093a12.017 12.017 0 0 1-.245-.093.677.677 0 0 0-.207-.053.241.241 0 0 0-.092.013.117.117 0 0 1-.053.014 9.564 9.564 0 0 1-.053-.452A4.641 4.641 0 0 1 0 6.184V3.835c0-.018.007-.073.02-.166.013-.093.031-.203.053-.332a9.815 9.815 0 0 0 .1-.763 3.71 3.71 0 0 1 .312-1.167C.64 1.08.83.812 1.055.604c.226-.208.482-.36.77-.458.287-.097.599-.145.935-.145.142 0 .294.008.458.026.164.018.327.051.491.099.163.049.316.111.458.186.141.076.256.166.345.272.212.257.365.518.458.783.093.265.157.491.192.677.017.053.016.084-.007.092a.212.212 0 0 0-.059.04c.008.018.035.027.079.027.009.053.018.111.026.173l.027.172c.009.053.009.102 0 .146s-.027.071-.053.08c0 .008.004.013.013.013.009.009.027.013.054.013 0 .036-.003.08-.007.133a.333.333 0 0 1-.06.159h-1.3a.867.867 0 0 1-.146-.013c-.053-.008-.08-.053-.08-.133 0-.044.013-.079.04-.106l.093-.093a.402.402 0 0 0-.06-.047.13.13 0 0 0-.06-.019 4.487 4.487 0 0 1-.053-.146.485.485 0 0 1-.026-.146c0-.045.011-.071.034-.08a.15.15 0 0 1 .059-.013.302.302 0 0 1 .013.112c0 .059.04.109.119.153h.014c.017 0 .026-.017.026-.053 0-.097-.044-.164-.132-.199.044-.017.101 0 .173.053h.039a3.3 3.3 0 0 1-.06-.166c-.022-.066-.055-.099-.099-.099-.044 0-.058.011-.04.033.017.022.004.033-.04.033-.035 0-.089-.042-.159-.126a.714.714 0 0 0-.212-.179c0-.036.013-.066.039-.093a.364.364 0 0 1 .093-.066c-.017-.027-.028-.029-.033-.007s-.029.033-.073.033-.073-.015-.086-.047c-.013-.03-.042-.046-.087-.046h-.119v.04c0 .018.011.042.033.073s.042.065.06.1v.053l-.033-.033c-.005-.005-.029-.007-.073-.007-.035 0-.071.031-.106.093-.036.062-.115.106-.239.133a.34.34 0 0 0 .059-.206 3.156 3.156 0 0 0-.019-.206.627.627 0 0 1 .059-.053c.023-.018.033-.044.033-.079a.375.375 0 0 0 .167.012.178.178 0 0 1 .112.014V1.54c.018-.035.014-.067-.013-.094a.322.322 0 0 1-.066-.092c.035-.017.046-.035.032-.054-.013-.017-.001-.035.034-.052a.516.516 0 0 0-.159-.127c-.062-.03-.085-.108-.067-.232h-.079a.576.576 0 0 0 .133-.04 2.17 2.17 0 0 1-.067-.092.633.633 0 0 0-.079-.093c-.027.044-.085.066-.173.066V.61c.062-.008.106-.028.133-.059A.192.192 0 0 0 2.78.445l.013-.12a.241.241 0 0 1 .033-.099C2.809.209 2.795.199 2.787.199h-.04c-.018.018-.022.04-.013.066a.216.216 0 0 1 .013.067.234.234 0 0 0-.172-.067c-.045 0-.091-.002-.14-.006s-.095.016-.139.06c.017.018.031.027.04.027h.039c.018.026.033.07.047.132.013.062.042.093.086.093.045 0 .064-.004.06-.013-.005-.009.002-.013.02-.013v.251c-.045 0-.067.023-.067.067-.044-.018-.082-.031-.113-.04S2.353.796 2.336.77l-.04.053v.093a.19.19 0 0 0 .053.04.185.185 0 0 1 .053.04l.013-.014c0-.009.002-.015.007-.019.004-.005.007-.016.007-.034-.018 0-.032-.006-.04-.02a.045.045 0 0 0-.04-.02c.035 0 .08.027.132.08h.094l.079-.093C2.636.859 2.605.849 2.561.849A.799.799 0 0 0 2.647.83c.014-.005.025 0 .033.013.009.013.018.031.027.053s.031.051.067.086c-.018 0-.031.018-.04.053a.556.556 0 0 1-.04.107c.08.079.146.119.199.119l-.013-.007c.008.005-.009.007-.054.007-.044 0-.064.018-.059.053.004.035-.016.053-.06.053s-.062-.007-.053-.02.004-.02-.013-.02l-.053.053a.402.402 0 0 1 .047.06c.012.022.028.033.045.033 0 .018-.011.035-.033.053-.022.019-.042.036-.059.053 0 .01.004.013.013.013.009.009.026.014.053.014 0 .045-.002.115-.007.213-.004.097-.055.163-.152.198.009.009.04.013.093.013 0 .018-.012.043-.034.074-.021.03-.024.055-.006.072-.018-.017-.035-.024-.053-.02a.198.198 0 0 1-.053.007c-.018.018-.02.038-.007.06s.015.051.007.086a.257.257 0 0 1-.087.112 1.546 1.546 0 0 0-.112.101 2.495 2.495 0 0 0-.086-.101c-.022-.021-.02-.067.006-.138a.166.166 0 0 1-.06-.014.229.229 0 0 0-.086-.013.167.167 0 0 0-.04.08c-.009.035-.022.044-.04.026h-.039c-.009 0-.022.009-.04.027-.009.017.002.031.033.04a.278.278 0 0 1 .086.039.188.188 0 0 0 .04.18c.044.048.102.064.172.046a.153.153 0 0 1-.026.04.112.112 0 0 0-.013.053l-.08-.067c-.017.018-.031.038-.04.06s-.022.042-.039.06c.017.018.035.027.053.027h.053c-.027.026-.04.066-.04.12a.147.147 0 0 1-.06-.015.36.36 0 0 0-.112-.013l-.014.013c-.008.01-.013.018-.013.027.018.018.047.03.086.033.04.005.069.016.086.034a3.433 3.433 0 0 1-.053.105.253.253 0 0 0-.027.107.209.209 0 0 1-.125-.066 2.736 2.736 0 0 0-.113-.12h-.093a.293.293 0 0 0-.132.033.287.287 0 0 1-.133.033.09.09 0 0 0-.027.067.242.242 0 0 1-.013.079c-.018.009-.038.013-.06.013s-.042.009-.059.027v.12a.375.375 0 0 1 .072.152c.014.058.042.1.087.126l-.013.014h.052a.495.495 0 0 0 .226-.087c.097-.057.186-.104.266-.139-.045.177-.067.35-.067.518-.009 0-.013-.005-.013-.014l-.026-.053h-.014c-.009 0-.022.009-.04.027 0 .018.012.042.034.072a.172.172 0 0 1 .032.1.468.468 0 0 0-.086.014.713.713 0 0 1-.139.012v-.145c.017 0 .04-.009.067-.027.026-.017.035-.044.026-.08-.036.018-.076.027-.12.027s-.084.004-.119.013a.206.206 0 0 0-.073.1 1.678 1.678 0 0 0-.033.112.447.447 0 0 0-.093.014.202.202 0 0 0-.093.053v.12l.12.059c.043.022.088.033.132.033s.102-.018.173-.053a.924.924 0 0 1 .238-.079v1.619c-.052 0-.114.004-.185.013a.703.703 0 0 0-.173.04c.009.053.054.079.133.079.08 0 .155-.022.225-.066v.225c0 .142.021.31.06.505.04.194.096.389.166.584.071.194.155.371.252.53.098.16.2.274.306.345a.714.714 0 0 1 .178-.033.687.687 0 0 0 .18-.033c.035-.008.088-.053.159-.133.071-.079.144-.164.219-.252.075-.088.139-.172.192-.252a.474.474 0 0 0 .08-.146V5.985h-.982a.526.526 0 0 1-.093-.279 4.064 4.064 0 0 1-.013-.318v-.836c.035 0 .055-.007.059-.02.004-.013.029-.02.073-.02.036 0 .042.011.02.033-.022.022-.011.033.033.033a.139.139 0 0 0 .1-.046.153.153 0 0 1 .113-.047c.036 0 .091.007.165.02l.18.033c.035.01.08.01.133 0 .053-.009.106-.012.159-.012s.106.006.159.019.098.038.133.073l.026.066c.018 0 .031-.013.041-.039a.165.165 0 0 1 .039-.067 1.087 1.087 0 0 0 .292-.052l-.027.052c-.017.035.018.071.107.106l.013-.013.026-.053c.009-.018.002-.04-.02-.066s-.033-.049-.033-.067a.698.698 0 0 0 .173.007.884.884 0 0 1 .185.007.31.31 0 0 0 .04.079c.018.027.049.04.093.04.088 0 .124-.044.106-.133.071.027.149.065.233.113.084.049.156.091.219.126.008.115.017.252.026.411.009.16.013.262.013.306a.549.549 0 0 1-.006.08 1.22 1.22 0 0 0-.007.172c0 .088-.002.219-.007.391a34.13 34.13 0 0 0-.006.737.617.617 0 0 1-.14.205.575.575 0 0 1-.099.067.182.182 0 0 0-.066.053c-.018.022-.027.072-.027.153 0 .044.004.075.013.093l.04.079h.093l.173-.172v1.486a.235.235 0 0 1-.007.119.482.482 0 0 0-.02.146c0 .018.011.033.033.046.022.014.033.042.033.086M.836 3.822H.717c-.035.018-.062.038-.08.06s-.026.042-.026.06h.106l.119-.12zm.054 4.71v-.04a.186.186 0 0 0-.081-.039.34.34 0 0 0-.079-.013l.113.046c.031.014.047.029.047.046m.039.107c-.017-.036-.051-.055-.099-.06a1.122 1.122 0 0 0-.1-.007c.018 0 .044.018.079.054.036.035.062.07.081.106 0-.036.004-.058.012-.067l.027-.026zm.027-1.154c0 .017-.016.026-.046.026H.836v.12l.074-.074c.03-.03.046-.055.046-.072m.212-1.036c-.177 0-.278.014-.305.04 0 .036.005.068.013.1.009.03.014.055.014.072 0-.079.008-.132.026-.159l.033.033c.005.005.028.007.073.007.044 0 .075-.011.093-.033a.63.63 0 0 1 .053-.06M.956 9.01h-.08v.066h.08V9.01zm.371-6.793a.109.109 0 0 0-.06-.101.349.349 0 0 1-.085-.059c0 .018-.014.04-.041.066-.026.027-.039.05-.039.067.053-.009.097.018.132.079-.044.018-.077.023-.099.014s-.04-.025-.054-.047a.374.374 0 0 1-.032-.073.188.188 0 0 0-.04-.066c0 .018.004.033.013.046s.004.03-.013.047H.956c-.018 0-.036.009-.054.027a.791.791 0 0 0 .12.046.165.165 0 0 1 .093.059c.008.019.02.04.033.067a.278.278 0 0 0 .047.066.279.279 0 0 0 .132-.238m0 6.289a.18.18 0 0 0-.066-.06.158.158 0 0 1-.066-.06l.066-.079a.058.058 0 0 1-.04-.013.46.46 0 0 1-.053-.04c.027-.027.04-.042.04-.047 0-.004-.005-.011-.013-.019a.069.069 0 0 1-.02-.034c-.005-.013.002-.041.02-.085-.018 0-.027.017-.027.052s-.009.062-.027.08a.362.362 0 0 0-.139-.027h-.1a.352.352 0 0 0 .134.12l-.027.198c.017 0 .046.012.086.034s.068.033.087.033c.017 0 .035.013.052.04a.423.423 0 0 0 .053.066c0-.018.007-.044.021-.079a.258.258 0 0 0 .019-.08m.041-5.984l-.014-.04-.08.04v.052l.094-.052zm.423 7.244h-.066a.089.089 0 0 1-.066-.026c.018-.071.04-.135.066-.192a.312.312 0 0 0 .027-.18.73.73 0 0 1-.186.027h-.133l-.053.206a.327.327 0 0 1-.079.152.379.379 0 0 1 .199-.066c.044 0 .077.022.1.066.021.045.05.067.085.067.045 0 .069-.005.074-.014a.213.213 0 0 1 .032-.04m-.225-6.475l-.013.04-.185-.066v-.053l.198.079zm-.079.146a.878.878 0 0 0-.06-.027.152.152 0 0 1-.059-.039c.079 0 .119.022.119.066m.304-.743a.686.686 0 0 1-.158.04.332.332 0 0 0-.133.04.996.996 0 0 0 .152-.014.236.236 0 0 0 .139-.066m-.118-.756l-.08-.08-.04.026.08.08.04-.026zm.782 7.802a.121.121 0 0 0-.073-.033.206.206 0 0 1-.086-.033c.026-.009.04-.018.04-.027l-.014-.013a1.584 1.584 0 0 1-.205-.067 2.461 2.461 0 0 1-.18-.079.451.451 0 0 1-.119.126.286.286 0 0 0-.093.099c.027 0 .049.009.066.027.009.009.018.013.027.013l.04-.093h.106c.044 0 .089.007.133.02a.157.157 0 0 0 .119-.006c.018.008.027.024.027.046s.022.033.066.033.075-.002.093-.006a.193.193 0 0 1 .053-.007m-.53-7.152l-.014-.04-.08.04v.053l.094-.053zm.238-.598l-.026-.039-.08.079.026.041.08-.081zm.199-.344c-.017 0-.033-.014-.046-.04-.013-.027-.012-.049.006-.066a.138.138 0 0 0-.093.033c-.026.022-.049.033-.066.033a.31.31 0 0 1 .04.159l.026-.047a.51.51 0 0 1 .133-.072m.04-1.42l-.08-.159-.039.013.066.146h.053zm.013 9.302c-.018.009-.026.018-.026.026 0 .009-.005.018-.014.027a.115.115 0 0 0-.013.039c.035 0 .058-.01.067-.033.008-.021.004-.041-.014-.059m.265-4.817c-.017 0-.03.011-.039.033s-.014.042-.014.06c.018 0 .036-.016.053-.047.018-.03.018-.046 0-.046m.2 3.848h-.106a.526.526 0 0 1-.053.046c-.018.014-.027.042-.027.087 0 .044.009.072.027.086a.526.526 0 0 1 .053.046c.017-.035.042-.079.072-.132.031-.053.042-.098.034-.133m.106-7.152c-.009.009-.014.018-.014.026-.008.009-.013.018-.013.027s-.005.018-.013.027h-.12l.04-.12c.018 0 .038.002.06.006a.13.13 0 0 1 .06.034m.066 7.736c-.053-.035-.08-.08-.08-.133 0 .018-.016.026-.046.026h-.073l.053.107a.2.2 0 0 1 .027.079.1.1 0 0 0 .06-.026.627.627 0 0 0 .059-.053m0-8.254h-.159v.053h.159V.889zm-.026.226l-.04-.053-.04.027.053.053.027-.027zm.623-.212a.232.232 0 0 1-.112-.034.262.262 0 0 0-.126-.032c-.098 0-.173.028-.226.086a1.151 1.151 0 0 0-.159.231.15.15 0 0 1 .099.041.17.17 0 0 0 .113.04.155.155 0 0 0 .1-.04.493.493 0 0 1 .099-.067.195.195 0 0 1 .026.107.552.552 0 0 0 .113-.173c.031-.071.055-.124.073-.159m-.451.372l-.04-.014-.053.08.053.026.04-.092zm.159.052l-.013-.04-.079.04v.053l.092-.053zm.106 4.498l-.052-.053-.027.027.04.053.039-.027zm.982 2.588c0-.027-.006-.046-.019-.059a.27.27 0 0 1-.04-.054.28.28 0 0 1-.034-.086.531.531 0 0 1 0-.172c0-.009-.002-.016-.006-.02a.027.027 0 0 1-.007-.02v-.014a.576.576 0 0 0-.079-.066.435.435 0 0 1-.067-.053.399.399 0 0 1-.019.113c-.014.04-.016.068-.007.087.07.087.084.154.039.198a.232.232 0 0 1-.172.066.225.225 0 0 1-.132-.046.368.368 0 0 1-.094-.086h-.119a5.367 5.367 0 0 0-.047.212.99.99 0 0 0-.019.173c0 .035.008.09.026.165a.462.462 0 0 0 .08.18.73.73 0 0 1 .179-.034c.067-.004.13-.011.192-.019a.721.721 0 0 0 .173-.047.182.182 0 0 0 .106-.126c.018-.009.029-.02.033-.034.004-.013.007.003.007.047l.026-.305zm-.65-2.76L3.742 5.6l-.026.04.039.039.04-.026zm.119-4.87h-.093v.066h.093V.783zm.2 2.057a.67.67 0 0 1-.126-.133 6.547 6.547 0 0 0-.113-.146c-.018.018-.031.027-.04.027s-.013.022-.013.066.011.078.033.1l.059.06c-.035.035-.052.062-.052.079a.683.683 0 0 1 .252-.053m.172 4.618c0-.027-.022-.076-.066-.146-.044-.071-.102-.107-.173-.107a.756.756 0 0 0-.119.04c-.071.027-.106.067-.106.12 0 .106.035.194.106.266h.318a.17.17 0 0 1 .02-.087.159.159 0 0 0 .02-.086m-.239-.438h-.185v.066h.185V7.02zm-.039-1.712c0-.018-.016-.031-.047-.04s-.055.005-.072.04h.119zm.146.571a.26.26 0 0 1-.08-.02.239.239 0 0 0-.08-.02c-.044.035-.066.071-.066.106v.093l.126-.066a.24.24 0 0 0 .1-.093M4.114.717h-.16v.066h.16V.717zM4.1 9.236l-.053-.014-.053.12.04.013.066-.119zm.292-3.888l-.026-.053-.12.079.027.053.119-.079zm-.013-2.574h-.093v.066h.093v-.066zm.186 3.41h-.066v.318h.066v-.318zm.411 1.632l-.225-.079c-.018.035-.014.07.013.105.026.036.048.053.066.053a.156.156 0 0 0 .073-.026.354.354 0 0 0 .073-.053m-.093-5.719l-.013-.053-.08.04v.052l.093-.039zm.12 4.273v-.12a.09.09 0 0 1-.053-.02.091.091 0 0 0-.054-.019c-.017.017-.024.044-.019.079a.77.77 0 0 1 .006.08h.12zm.252 1.326c.017-.017.022-.053.013-.105-.009-.054-.013-.071-.013-.054a.595.595 0 0 0-.232-.006.31.31 0 0 1-.14.006c.018.036.035.069.053.1s.036.064.054.1c.026-.027.066-.041.119-.041v-.053c0-.035.009-.061.027-.079.079.044.119.088.119.132m-.08 1.009a.19.19 0 0 0-.053-.04.225.225 0 0 1-.053-.039.37.37 0 0 0-.079.106.18.18 0 0 1-.08.079l.08.053c.035 0 .07-.017.106-.053a.405.405 0 0 0 .079-.106m0-.955h-.093v.066h.093V7.75zm.133.424h-.159c.017.036.044.049.079.04a.167.167 0 0 0 .08-.04m6.183-.531c0 .071-.02.161-.06.272a1.682 1.682 0 0 1-.159.325 1.162 1.162 0 0 1-.232.272.414.414 0 0 1-.266.113.124.124 0 0 1-.092-.04.364.364 0 0 0-.093-.066c0 .017-.018.037-.054.059-.035.023-.012.042.067.06a.225.225 0 0 0-.126-.02.533.533 0 0 0-.139.033v-.238c-.036-.018-.069-.027-.1-.027s-.06-.009-.086-.027c-.045.036-.053.089-.027.16a.587.587 0 0 1-.079-.007.129.129 0 0 1-.08-.033c0-.018.011-.029.033-.034a.118.118 0 0 0 .06-.032.812.812 0 0 0-.06-.054c-.022-.018-.033-.035-.033-.052.071-.072.093-.142.067-.213h.119a.345.345 0 0 0 .079.1c.036.03.062.038.08.019-.018.019-.026.034-.026.047s-.01.029-.028.047c.018.017.023.03.014.039s.009.013.053.013.073-.004.087-.013a.078.078 0 0 1 .046-.013c0 .062.026.106.079.133a.278.278 0 0 0 .027-.126V8.2c.106.009.168-.03.186-.119a.629.629 0 0 0 0-.252c-.098.008-.162.029-.192.059a.206.206 0 0 0-.06.107.33.33 0 0 0 0 .133.327.327 0 0 1 0 .125c-.018-.018-.033-.055-.047-.113a.982.982 0 0 0-.046-.152.113.113 0 0 0-.033.066.129.129 0 0 1-.033.067c0-.045-.009-.076-.027-.094-.018 0-.036.01-.054.027-.017.018-.026.018-.026 0l-.013-.013c-.018-.017-.035-.027-.053-.027.018-.017.022-.039.013-.066-.008-.026-.004-.062.014-.106l-.054-.053h-.079c-.035.053-.022.079.04.079l-.04.186a.212.212 0 0 0-.093.02.244.244 0 0 1-.106.02c-.044 0-.064-.007-.06-.02.004-.013-.002-.029-.02-.047a.447.447 0 0 1-.053.047.056.056 0 0 0-.026.047c-.018 0-.038-.013-.06-.04a.496.496 0 0 1-.06-.093c-.018.018-.042.022-.073.013-.031-.008-.047.009-.047.053 0 .045.007.075.02.093a.218.218 0 0 0 .073.053h.04a.655.655 0 0 0-.133.292c-.017 0-.03-.007-.039-.02s-.022-.028-.04-.046l-.013.013c-.018.018-.027.031-.027.04v-.12c.018 0 .037.003.06.007a.062.062 0 0 0 .059-.02.107.107 0 0 0-.059-.033c-.023-.004-.038-.011-.046-.02.018 0 .018-.024 0-.073-.018-.048-.045-.068-.08-.06v-.159a.13.13 0 0 1 .053.013c.018.01.035.013.053.013.018-.026.014-.055-.013-.086a.164.164 0 0 1-.04-.112c0-.045.007-.067.02-.067s.028-.008.047-.026a36.223 36.223 0 0 1 .079-1.181l.033-.266a2 2 0 0 0 .02-.265c0-.23-.004-.482-.013-.756a12.153 12.153 0 0 1 0-.81.283.283 0 0 1 .099-.1.27.27 0 0 1 .139-.046c.036 0 .06.011.074.034.013.021.041.033.086.033a.518.518 0 0 0 .159-.033.47.47 0 0 1 .159-.034c.018-.079.06-.175.126-.285.067-.11.1-.187.1-.232a.459.459 0 0 0-.026-.133 2.907 2.907 0 0 0-.054-.146c-.053.018-.097.075-.132.173-.036.097-.04.168-.014.212-.053.018-.112.04-.179.066a.458.458 0 0 1-.166.041.676.676 0 0 1-.133-.014c-.044-.009-.088-.013-.132-.013s-.075-.009-.093-.027l-.053-.053c-.018-.23-.042-.462-.073-.697-.031-.234-.06-.467-.086-.696a.74.74 0 0 1-.1-.153 2.68 2.68 0 0 0-.139-.232 1.202 1.202 0 0 0-.179-.213.332.332 0 0 0-.232-.092.396.396 0 0 0-.153.046 1.357 1.357 0 0 0-.179.099.653.653 0 0 0-.133.166 6.343 6.343 0 0 1-.133.219c-.017 0-.03-.011-.039-.033a.21.21 0 0 0-.04-.06l-.046.047-.047.046a.035.035 0 0 1-.026-.013.163.163 0 0 1-.047-.006.178.178 0 0 0-.059-.007.082.082 0 0 0-.027.06.08.08 0 0 1-.027.059.146.146 0 0 0 .04.033.238.238 0 0 0 .08.007c.044 0 .097-.031.159-.093l.079.08a.346.346 0 0 0-.053.079.773.773 0 0 1-.052.093l-.06.027a1.94 1.94 0 0 1-.073.027 1.71 1.71 0 0 1-.2.159c-.088.062-.154.092-.199.092a.378.378 0 0 1-.198-.066 1.003 1.003 0 0 1-.12.146 2.122 2.122 0 0 0-.133.146c.018.018.024.029.02.033-.004.005.015.007.06.007.018 0 .06-.007.126-.02l.226-.046c.084-.018.17-.038.259-.06l.238-.06v.212c0 .045-.006.067-.019.067-.014 0-.025.009-.034.027-.009.203-.02.404-.033.603s-.033.409-.059.63a.18.18 0 0 1 0 .133c-.018.018-.039.035-.06.053-.022.018-.033.049-.033.093 0 .045.006.068.019.073a.083.083 0 0 1 .034.02c.008.097.026.216.052.359.027.141.031.274.014.397a2.226 2.226 0 0 0 0 .691c.008.097.027.258.053.484.027.225.053.426.079.603.009.018.009.042 0 .074-.008.03-.008.055 0 .072 0 .018.007.04.021.066l.039.087a.185.185 0 0 1 .014.099.195.195 0 0 1-.06.107 1 1 0 0 1 .166.212.958.958 0 0 0 .166.213v.119h-.412c-.08 0-.139.015-.179.046-.04.031-.082.06-.126.086l.053-.08c-.009-.008-.044-.012-.106-.012-.044 0-.064-.007-.06-.02.005-.013-.016-.02-.06-.02a.133.133 0 0 0-.106.046c-.026.031-.048.06-.066.086-.018 0-.045-.004-.08-.013s-.062-.013-.079-.013c.008-.142.033-.215.073-.219.04-.005.06-.015.06-.033 0-.045-.007-.062-.02-.054a.347.347 0 0 0-.047.04v-.026c0-.018.009-.036.027-.053a.145.145 0 0 1-.073-.086.14.14 0 0 0-.087-.086c.125.008.197.023.219.046.022.022.042.033.06.033.035 0 .04-.011.013-.033-.026-.023-.018-.033.027-.033.044 0 .048.01.013.033-.036.022-.031.033.013.033.045 0 .074-.011.087-.033.013-.023.042-.033.086-.033.062 0 .093-.031.093-.094a.852.852 0 0 0 .066.094c.053-.036.093-.053.119-.053a.248.248 0 0 0-.045.06c-.014.021.001.032.045.032s.08-.011.107-.032a.392.392 0 0 1 .093-.06c-.036-.036-.069-.073-.1-.113s-.069-.06-.112-.06c-.045 0-.074.006-.087.02a.295.295 0 0 0-.047.073H7.51a.238.238 0 0 0-.013-.066.167.167 0 0 0-.04-.067.93.93 0 0 0-.126.08.243.243 0 0 1-.14.053c-.043 0-.084.011-.119.033s-.079.033-.132.033c-.018.071-.018.111 0 .119.017.009.008.045-.027.107a.13.13 0 0 0 .047.033.125.125 0 0 1 .046.033h-.093a.708.708 0 0 1-.033.193.666.666 0 0 0-.033.178c0 .045.011.1.033.166.022.067.046.131.073.193H6.94l-.027.027c.018.017.031.024.04.019a.283.283 0 0 1 .079-.006c.045 0 .067-.004.067-.013 0-.01.022-.013.066-.013.044 0 .062-.012.053-.034s.009-.033.053-.033h.133a.264.264 0 0 1-.093.212l.053.053a.359.359 0 0 0 .126-.086.622.622 0 0 1 .166-.112c.009 0 .014-.005.014-.014 0-.017-.009-.035-.027-.053h.106c.018-.018.022-.034.014-.047a.072.072 0 0 1-.014-.046c.044-.018.093-.04.146-.066a.325.325 0 0 1 .146-.04c.044 0 .071.007.08.02a.216.216 0 0 0 .04.046c.017-.017.024-.033.019-.046a.16.16 0 0 1-.007-.047c.018 0 .042.007.074.02.03.014.054.02.073.02-.036 0-.062.013-.08.04.053.026.077.04.073.04s.002.026.02.08c.018 0 .037-.014.06-.04a.529.529 0 0 0 .059-.093c.044.017.1.037.166.059.067.022.122.034.166.034s.084-.012.119-.034a.226.226 0 0 1 .12-.033c.018 0 .053.009.106.027l.16.053c.017.017.023.033.019.046-.004.013.002.029.02.047.018 0 .02-.014.007-.04-.014-.026.002-.04.046-.04s.057.006.04.02c-.018.013-.018.028 0 .046a.378.378 0 0 0 .033-.139c.004-.057.029-.086.073-.086s.093.011.146.033.101.033.146.033c.044 0 .066-.007.066-.02s.022-.02.067-.02c.044 0 .066.014.066.04a.09.09 0 0 0 .027.067l.066-.067.093.033c.008.005.006.014-.007.027l-.046.047a.087.087 0 0 0-.027.066c.018.018.022.027.013.027h.054c.044 0 .075-.014.093-.041l.053-.079c.017-.009.048-.009.093 0 .044.009.074.004.093-.013-.045.07-.049.136-.014.198.035.063.062.116.08.16l-.027.026c-.009.009-.031.014-.066.014a.47.47 0 0 1 .006-.067.07.07 0 0 0-.02-.066c-.008 0-.017.005-.026.013-.009.009-.014.027-.014.053-.008-.035-.035-.064-.079-.086s-.084-.051-.119-.086c-.045.044-.065.113-.06.205.004.094.002.171-.007.233v-.027c0-.008-.008-.022-.026-.04-.106.062-.146.146-.119.252a.536.536 0 0 1-.147-.013.211.211 0 0 0-.066-.014c-.027.151-.08.244-.159.279a.69.69 0 0 1-.279.054c-.035 0-.055-.012-.06-.034-.004-.022-.028-.033-.072-.033a.229.229 0 0 0-.106.027c-.036.018-.058.04-.067.066-.053.018-.126.04-.219.066-.093.027-.162.04-.206.04s-.106-.011-.185-.033a.436.436 0 0 0-.226-.007h.013c.009 0 .027-.013.053-.04-.044-.017-.15-.013-.318.014a.302.302 0 0 1-.04-.113.296.296 0 0 1 0-.126.093.093 0 0 0-.066-.026.208.208 0 0 1-.093-.027.349.349 0 0 0-.04.046 1.432 1.432 0 0 1-.053.074c0 .008.004.012.013.012 0 .01.009.014.027.014-.071.018-.124.015-.159-.007a.2.2 0 0 1-.08-.086.765.765 0 0 1-.047-.113.407.407 0 0 0-.059-.113c-.036 0-.062.009-.08.027 0 .018.011.031.033.039.023.01.042.014.06.014v.12c-.018-.018-.042-.031-.073-.04s-.056-.005-.073.013c0-.08-.025-.128-.073-.146-.049-.018-.06-.062-.033-.133h-.04c-.008-.008-.035.027-.08.106-.203-.088-.378-.269-.524-.543a4.515 4.515 0 0 1-.358-.916 7.483 7.483 0 0 1-.206-1.015 6.765 6.765 0 0 1-.066-.83V3.901c0-.221.024-.5.073-.836.049-.336.124-.672.226-1.008.101-.337.229-.644.385-.923.154-.278.338-.48.55-.603l-.027.026c-.008.009-.013.027-.013.053l.053.053a.897.897 0 0 0 .16-.179.467.467 0 0 1 .199-.165c.053-.027.123-.054.212-.081a4.342 4.342 0 0 1 .571-.126c.097-.012.181-.019.252-.019.017 0 .066.004.146.013l.278.033c.107.013.215.031.326.053.109.023.205.042.284.06 0 .026.023.075.067.146l.033-.033c.005-.005.029-.007.073-.007.097 0 .206.042.325.126.119.085.234.182.345.292.111.111.206.225.286.345.079.119.132.215.159.285a.534.534 0 0 0 .086.16c.04.052.069.11.086.172l.067.206c.026.084.048.17.066.258.035.151.06.306.073.465s.029.314.046.464c.018.019.027.034.027.047s.004.029.013.046a.619.619 0 0 1 0 .173c-.009.07-.013.137-.013.199l.013.013c.018.018.031.026.04.026a.606.606 0 0 1 .02.213 1.365 1.365 0 0 1-.033.239c0 .008.004.018.013.026.009.009.013.016.013.02s.005.011.014.02a1.954 1.954 0 0 0 0 .325c.008.12.008.237 0 .352-.009 0-.014.004-.014.013-.009.009-.013.018-.013.027s-.005.018-.013.026c.044.177.062.383.053.617a15.99 15.99 0 0 0-.013.604.125.125 0 0 1 .013.046c0 .013.009.03.027.047a1.05 1.05 0 0 1-.008.258c-.012.102-.024.198-.032.286-.009.08-.009.179 0 .298.008.12.008.237 0 .352.026.036.053.073.079.113.027.039.04.082.04.126m-4.485.199a.435.435 0 0 0-.046.053c-.014.018-.029.027-.047.027l-.027-.16c.018 0 .038.014.06.04.023.027.042.04.06.04m0-5.733h-.093v.053h.093v-.053zm0 .306h-.093v.053h.093v-.053zm.106 3.171a.874.874 0 0 0-.113-.073.21.21 0 0 0-.086-.033.122.122 0 0 0 .086.067c.04.008.078.022.113.039m-.053.293l-.053-.054-.04.04.054.053.039-.039zm.08-4.207v-.054l-.16-.039v.053l.16.04zm-.107 4.365c-.018 0-.029.009-.033.027s-.006.035-.006.053c0-.018.01-.035.033-.053.022-.018.024-.027.006-.027m.147-3.98v-.133a.144.144 0 0 1-.094-.033.82.82 0 0 1-.065-.06v.159c.034 0 .059.009.072.027s.042.03.087.04M7.112 6.13h-.093v.053h.093V6.13zm.12-3.875a.154.154 0 0 0 .013-.105.435.435 0 0 1-.013-.107.255.255 0 0 1-.02.1.1.1 0 0 1-.073.059.09.09 0 0 1 .066.027l.027.026zm.092 7.378l-.039.027-.053-.053.039-.027.053.053zm.12-7.231c-.124 0-.186.017-.186.052.017-.017.029-.021.033-.013.004.009.029.013.073.013a.086.086 0 0 0 .066-.026c.009-.009.014-.018.014-.026m.066 2.879c-.053 0-.08-.018-.08-.053 0 .018-.01.033-.032.047a.305.305 0 0 0-.061.046c.009.017.018.026.027.026.009 0 .018.005.027.013.008.01.018.014.026.014.018 0 .033-.011.046-.033a.402.402 0 0 1 .047-.06m.16-2.574a1.299 1.299 0 0 0-.126-.107.193.193 0 0 1-.087-.119v.172c.018 0 .047.01.087.027a.297.297 0 0 0 .126.027M7.775 8.2h-.119a2.092 2.092 0 0 1-.172.213c.044 0 .079.013.106.039a.966.966 0 0 1 .093-.106.452.452 0 0 0 .092-.146m.027-5.998a.243.243 0 0 1-.093-.086.23.23 0 0 0-.093-.086.627.627 0 0 0-.053.212c0-.035.031-.052.093-.052.044 0 .075.006.093.019s.035.012.053-.007m-.132.173h-.093v.053h.093v-.053zm-.014-.743H7.59v.159h.066v-.159zm.027-.319l-.04-.026-.04.092.04.014.04-.08zm.026.518l-.013-.054-.08.041v.052l.093-.039zm.066.12c-.017-.018-.044-.023-.079-.014a.172.172 0 0 0-.08.04.361.361 0 0 0 .08-.014.397.397 0 0 1 .079-.012m.014.649l-.053-.013-.04.08.053.027.04-.094zm.119-.994l-.079-.08a3.29 3.29 0 0 1-.06.113 3.284 3.284 0 0 0-.06.112.158.158 0 0 1 .08-.039c.035-.009.062-.005.08.013 0-.018.006-.038.02-.06a.119.119 0 0 0 .019-.059m-.026 8.439h-.053v-.093h.053v.093zm.159-8.333h-.159v.053h.159v-.053zm-.027.411h-.053v.093h.053v-.093zm.359-.557h-.2c0 .017-.008.035-.026.052-.009.009-.013.018-.013.027l.093.08a.528.528 0 0 0 .146-.159m-.08 8.187a.304.304 0 0 0-.06-.047c-.021-.013-.033-.042-.033-.086 0-.018.015-.011.047.02.03.031.046.069.046.113m.173-.027c.017 0 .009.013-.027.04s-.066.066-.093.119v-.159a.144.144 0 0 0 .06-.014c.022-.008.042-.003.06.014m1.008-.172c-.018-.027-.049-.04-.093-.04s-.048.011-.013.033c.035.022.031.033-.013.033-.045 0-.062-.011-.054-.033.009-.022-.008-.033-.052-.033-.045 0-.069.024-.074.073-.004.048-.024.082-.059.099-.036-.035-.069-.055-.1-.059a.471.471 0 0 0-.073-.007.587.587 0 0 0-.04.099c-.008.032-.022.043-.039.034-.018-.018-.025-.034-.021-.047.005-.013-.015-.02-.059-.02s-.071.005-.079.014l-.04.039.159.107.026-.014v.014c.018.044.023.079.014.105a.514.514 0 0 1-.027.067c.018 0 .038-.013.06-.04a.852.852 0 0 1 .06-.066c.017.018.013.033-.014.046-.027.014-.018.02.027.02.035 0 .055-.028.059-.086a.405.405 0 0 1 .033-.139l.107.026a.125.125 0 0 0-.033.046c-.005.014.002.021.019.021a.489.489 0 0 0 .2-.073.353.353 0 0 0 .172-.18c-.018 0-.035-.013-.053-.039M8.983 1.42l-.04-.093-.053.013.04.08h.053zm.106 7.935c-.071.026-.106.07-.106.132a.18.18 0 0 1 .079-.08c.036-.017.045-.034.027-.052m.212-.889c-.035 0-.071-.014-.106-.04s-.062-.04-.079-.04l-.08.053v.12c.035 0 .067.018.093.053-.018.017-.031.026-.04.026h-.027c.081 0 .133-.009.16-.026a.118.118 0 0 1-.04.013h-.013a.235.235 0 0 1 .066-.099 1.15 1.15 0 0 0 .066-.06m0-.12a.164.164 0 0 0-.039.027.12.12 0 0 1-.054.013V8.2a.568.568 0 0 1 .061.073c.021.031.032.055.032.073m.346-5.48l-.054-.053-.04.027.053.053.041-.027zm.013.079h-.093v.053h.093v-.053zm.106 6.383a.234.234 0 0 1-.113-.033.212.212 0 0 0-.087-.033c0 .079.01.155.027.225a.864.864 0 0 1 .027.213c0-.009.005-.018.013-.027l.014-.013c.008-.009.013-.031.013-.067a.198.198 0 0 0-.013-.079.135.135 0 0 0 .053-.08.221.221 0 0 1 .066-.106m-.079-7.974l-.054-.16-.04.014.054.146h.04zm.185 6.826a.141.141 0 0 0-.093-.033c.009 0 .016.002.02.007.004.004.011.006.02.006l.013.013a.208.208 0 0 1-.093.027h-.066c0 .027.004.045.014.053a.132.132 0 0 0 .026.04.455.455 0 0 1 .126-.04.803.803 0 0 1 .126-.013.45.45 0 0 1-.093-.06m.093 1.48h-.16v-.053h.16v.053zm.252-.027c-.018 0-.033.013-.047.04-.013.027-.01.049.007.066-.017-.017-.035-.02-.053-.006a.09.09 0 0 1-.053.02c0-.018.004-.044.013-.08a.361.361 0 0 0 .014-.08c.017 0 .037.007.059.02.022.014.042.02.06.02m.039-1.062h-.159v.067h.159v-.067zm.134.863l-.08-.079v.199l.08-.12zm.464-.544l-.146-.04a.861.861 0 0 1-.106.133v-.119c.035-.036.073-.069.113-.1a.2.2 0 0 1 .126-.047c.017 0 .024.021.02.06a.912.912 0 0 0-.007.113m.398-5.135a.547.547 0 0 0-.292 0 .828.828 0 0 1 .066.279h.146c-.035 0-.062-.013-.079-.04a.627.627 0 0 0 .159-.239m8.015 4.327c0 .044-.006.073-.02.086a.168.168 0 0 0-.033.046.228.228 0 0 1 .02.12 1.311 1.311 0 0 0-.007.146l-.027.026c-.008.009-.013.027-.013.054a3.202 3.202 0 0 0-.059-.114c-.023-.039-.056-.059-.1-.059s-.082.011-.113.033a.189.189 0 0 1-.113.033 1.09 1.09 0 0 1-.212-.033.682.682 0 0 1-.225-.086.192.192 0 0 0 .105-.026c0-.018-.011-.034-.033-.047s-.042-.038-.059-.073a.651.651 0 0 1-.12.093.23.23 0 0 1-.119.039c.018-.044.037-.09.059-.139.022-.049.034-.095.034-.139s-.027-.08-.079-.106a.318.318 0 0 0-.107-.04c0-.009-.004-.018-.013-.027l-.04-.039c0 .017-.011.037-.033.059-.023.022.002.042.073.06-.089.035-.133.097-.133.185.035.019.075.03.119.034.045.004.084.006.12.006l-.093.08c.008 0 .013-.004.013-.013a.13.13 0 0 0-.013-.053h-.12l-.052.053a.55.55 0 0 1 .198.146h-.105c-.045 0-.06-.007-.047-.02s.011-.029-.007-.047a.241.241 0 0 0-.053.007c-.017.005-.026.029-.026.073v.12h-.027c-.009 0-.027.013-.053.04a.897.897 0 0 1-.059-.067.165.165 0 0 0-.074-.053.715.715 0 0 0-.179-.04.607.607 0 0 1-.232-.08c0-.017.002-.05.007-.099.003-.049.015-.082.033-.099a.08.08 0 0 1 .027.059v.06a.477.477 0 0 0 .238.053c.018-.018.031-.024.04-.02.009.005.014-.015.014-.06 0-.044-.012-.08-.034-.106s-.042-.066-.06-.119c-.035.018-.044.037-.027.059.019.023.023.042.014.06v.053a.241.241 0 0 0-.073-.046.206.206 0 0 0-.073-.02c0-.018.005-.033.013-.047.009-.013.014-.041.014-.086a.095.095 0 0 0-.06-.093.12.12 0 0 1-.073-.093.609.609 0 0 1-.007-.159c.005-.062.007-.111.007-.146l.047-.046.045-.047a.098.098 0 0 0-.072-.026c-.031 0-.047.009-.047.026a.774.774 0 0 0-.033-.212.534.534 0 0 1-.006-.252l.026-.159c.009-.053.022-.115.04-.186-.009.009-.018.014-.027.014-.008.008-.022.013-.039.013l.013-.013c.009-.01.016-.014.02-.014s.015-.009.033-.027c0-.017-.011-.033-.033-.046-.022-.014-.042-.011-.06.006.035-.079.031-.176-.013-.291a.446.446 0 0 0 .239-.067c-.018-.07-.053-.097-.106-.08-.054.019-.124.01-.213-.026a1.218 1.218 0 0 0-.113.246 4.908 4.908 0 0 1-.112.299c.035.043.053.119.053.225s-.014.221-.04.345a2.764 2.764 0 0 1-.106.365 1.685 1.685 0 0 1-.133.285c0 .009.004.013.014.013.008.009.026.014.052.014v.292c0 .035-.011.068-.033.099s-.033.064-.033.099a.37.37 0 0 0-.133.034.4.4 0 0 1-.146.033.228.228 0 0 1-.093-.013.174.174 0 0 0-.079-.014c0-.018.011-.042.033-.073s.042-.055.06-.073a.15.15 0 0 1-.033-.04c-.005-.008-.029-.013-.073-.013-.045 0-.076.009-.093.027-.018.018-.027.035-.027.053a.136.136 0 0 0-.026-.067.563.563 0 0 0-.053-.066c.053-.018.099-.035.139-.053a.562.562 0 0 0 .126-.079v-.12c0-.044-.011-.064-.033-.06-.022.005-.038-.002-.047-.02l.014-.013c.008-.008.013-.015.013-.02 0-.004.009-.015.027-.033-.018-.018-.032-.03-.04-.04-.009-.008-.036-.013-.08-.013h-.159c0 .009.004.018.013.026 0 .018.009.027.027.027-.045.027-.063.082-.054.166a.887.887 0 0 1 0 .219.22.22 0 0 1-.052-.126.46.46 0 0 0-.041-.139.155.155 0 0 0-.039.066.17.17 0 0 1-.04.066.196.196 0 0 0-.026-.106c-.018 0-.036.009-.054.027-.017.017-.026.017-.026 0l-.013-.014a.054.054 0 0 1-.027-.007.065.065 0 0 0-.026-.006c.017-.018.024-.042.02-.073a.163.163 0 0 1 .019-.1l-.066-.052h-.08c-.017.044-.004.066.04.066l-.04.199a.298.298 0 0 0-.085.013.368.368 0 0 1-.101.013c-.043 0-.066-.006-.066-.02 0-.013-.009-.028-.026-.046l-.053.053c-.018.018-.026.035-.026.053-.019 0-.039-.013-.061-.04a.542.542 0 0 1-.06-.092c-.017.017-.039.022-.065.013-.027-.009-.04.009-.04.053 0 .062.026.111.079.146h.053a.327.327 0 0 0-.092.126 1.898 1.898 0 0 1-.08.152v-.039c0-.045.013-.08.04-.107l-.067-.052a.554.554 0 0 1-.066-.292l.027.026c.026.027.039.018.039-.026 0-.045-.013-.064-.039-.06a.073.073 0 0 1-.067-.02.127.127 0 0 0 .033-.073.772.772 0 0 0 .007-.1c0-.017-.012-.035-.034-.053s-.037-.03-.046-.039a3.202 3.202 0 0 1-.119-.459 3.945 3.945 0 0 0-.119-.47 1.91 1.91 0 0 0-.093-.246 4.291 4.291 0 0 1-.107-.246.183.183 0 0 1-.039.034.168.168 0 0 0-.04.033c-.017.363-.024.626-.02.789.004.164.006.308.006.432a.15.15 0 0 1-.04.033.202.202 0 0 0-.039.033c-.009.036.022.088.093.159v.704l-.027.027c-.009.008-.018.012-.027.012s-.013.005-.013.014c-.035-.018-.085-.014-.152.013a.463.463 0 0 1-.166.04c-.018 0-.051-.002-.099-.007-.049-.005-.1-.006-.153-.006s-.102-.003-.146-.007a.99.99 0 0 0-.107-.007.34.34 0 0 0-.172.04l-.133.08.067-.066c-.018-.018-.031-.027-.04-.027h-.08c-.044 0-.064-.004-.06-.013.005-.009-.015-.014-.059-.014-.079 0-.137.045-.172.133a.206.206 0 0 1-.073-.02.212.212 0 0 0-.073-.02.44.44 0 0 1 .019-.153.151.151 0 0 1 .04-.059c.014-.009.027-.013.04-.013s.02-.005.02-.014c0-.044-.005-.064-.014-.059a.17.17 0 0 0-.039.033v-.027c0-.017.008-.035.026-.053a.146.146 0 0 1-.073-.086c-.013-.04-.046-.069-.099-.086.124.017.196.037.219.06.022.022.042.032.06.032.026 0 .04-.004.04-.013 0-.008-.005-.015-.014-.019-.009-.005-.013-.012-.013-.02 0-.009.009-.014.027-.014.044 0 .048.011.012.034-.035.022-.03.032.014.032s.075-.01.093-.032c.018-.023.044-.034.079-.034.044 0 .071-.011.08-.033s.013-.042.013-.06c.009.009.032.04.067.093a.165.165 0 0 1 .119-.053.559.559 0 0 0-.047.053c-.013.018.003.027.047.027a.283.283 0 0 0 .239-.133.97.97 0 0 1-.192-.026c-.032-.009-.047-.016-.047-.02 0-.005.035-.016.106-.034a1.826 1.826 0 0 1-.04-.039c-.009-.009-.035-.013-.079-.013-.045 0-.071.008-.08.026l-.04.08h-.119c0-.062-.022-.106-.066-.133a.911.911 0 0 0-.126.079.24.24 0 0 1-.14.054.228.228 0 0 0-.119.032.241.241 0 0 1-.133.034c-.018.071-.015.108.007.113.022.004.011.037-.033.099a.19.19 0 0 0 .053.04.223.223 0 0 1 .053.04h-.12c-.017.018-.024.044-.02.079.005.036-.01.067-.046.093-.053-.018-.084-.057-.093-.119a6.216 6.216 0 0 1-.026-.199l.053-2.296v.014c0 .009.008.022.026.039l.053-.039a1.737 1.737 0 0 1-.086-.173.45.45 0 0 1-.046-.172V2.854c.053.017.113.035.179.052a.452.452 0 0 1 .166.081.18.18 0 0 1 .059-.041.166.166 0 0 0 .06-.04.686.686 0 0 1-.173-.239c-.044-.097-.101-.145-.172-.145h-.06c.004 0-.006.008-.033.026V1.062a.199.199 0 0 0 .053-.013c.027-.009.049-.005.067.013.017-.018.022-.037.013-.06a.332.332 0 0 1-.013-.112c-.018 0-.029-.007-.033-.02a.136.136 0 0 0-.034-.047.116.116 0 0 0-.033.067.116.116 0 0 1-.033.066c0-.08.004-.161.013-.246a.943.943 0 0 0-.013-.272l.066-.066c.336 0 .712.005 1.128.013.416.01.796.005 1.141-.013l.054.053c.017.018.03.035.039.053a.525.525 0 0 0 .033.239.622.622 0 0 1 .034.265c.034.125.066.262.092.412.027.151.075.296.146.438l-.072-.073c-.022-.022-.056-.033-.1-.033s-.066.011-.066.033c0 .022-.023.033-.067.033h-.093v.079a.163.163 0 0 0 .059.04.286.286 0 0 0 .101.014c.034 0 .084.002.146.006.062.005.106.029.132.073a.733.733 0 0 1 .12.319c.017.124.048.239.092.344.151.435.31.841.478 1.221a.235.235 0 0 0 .086-.073.479.479 0 0 0 .034-.072.422.422 0 0 1 .033-.08c.013-.027.042-.048.086-.066l-.014-.014a.062.062 0 0 1-.026-.006.068.068 0 0 0-.026-.007l.159-.471c.061-.181.13-.374.205-.577a41.784 41.784 0 0 0 .418-1.194c.027-.018.061-.038.1-.06a.204.204 0 0 0 .086-.086.63.63 0 0 1-.053-.06c-.017-.022-.035-.033-.053-.033.062-.115.106-.219.133-.312.027-.093.051-.168.073-.226a.307.307 0 0 1 .093-.133c.039-.03.103-.046.192-.046h2.163v4.897a1 1 0 0 1-.06-.106l-.059-.12c-.018-.009-.032 0-.04.026a.285.285 0 0 1-.066.094.566.566 0 0 0 .118.092c.045.027.094.058.147.093v2.734zm-5.175 1.897a.36.36 0 0 1-.186.04.936.936 0 0 1-.126-.02.316.316 0 0 1-.166-.086c-.018.035-.039.057-.066.066a1.741 1.741 0 0 0-.106.04h-.107a.679.679 0 0 0-.019-.16.562.562 0 0 1-.02-.146.126.126 0 0 0-.06-.032.384.384 0 0 1-.086-.034l-.12.12a.138.138 0 0 0 .046.033.13.13 0 0 1 .047.033v.186h-.292c0-.071-.002-.148-.006-.232a2.218 2.218 0 0 0-.034-.272.278.278 0 0 0-.052-.02c-.019-.004-.045.002-.081.02 0 .018.014.031.04.04a.25.25 0 0 0 .067.013c-.045.035-.049.071-.013.106-.01 0-.018-.005-.027-.013-.009 0-.016-.002-.02-.007-.005-.005-.011-.007-.02-.007-.035.036-.053.064-.053.087 0 .022.005.042.014.059a.261.261 0 0 0 .033.054.105.105 0 0 1 .019.066.275.275 0 0 1-.145.106l-.385-.04c.017-.035.037-.07.059-.106a.221.221 0 0 0 .034-.12c0-.044-.014-.075-.04-.092a.958.958 0 0 0-.093-.054c0-.035.035-.074.106-.119.009-.018-.002-.035-.033-.053a.127.127 0 0 0-.099-.013v-.73c.008.026.039.04.092.04h.067c0 .035.002.068.006.1a.122.122 0 0 0 .034.072l-.04.04c.017.018.031.025.04.02a.242.242 0 0 1 .079-.006c.045 0 .066-.007.066-.02 0-.014.023-.021.066-.021.045 0 .062-.01.054-.033-.009-.021.008-.033.053-.033.044 0 .073.003.086.007a.137.137 0 0 0 .047.007c0 .079-.032.15-.094.212l.054.053a.353.353 0 0 0 .139-.086.6.6 0 0 1 .166-.113c.009 0 .013-.005.013-.014 0-.008-.013-.026-.04-.052h.106c.018-.018.022-.036.014-.053a.124.124 0 0 1-.014-.054 1.74 1.74 0 0 0 .146-.066.329.329 0 0 1 .146-.04c.045 0 .071.007.08.02a.255.255 0 0 0 .04.046c.018-.017.026-.048.026-.092.018 0 .041.009.066.026.027.018.049.027.067.027a.143.143 0 0 0-.079.026c.052.027.077.042.073.046-.005.005.002.029.019.074.018.009.038-.002.06-.033s.042-.064.06-.1c.026.018.06.029.099.033a.924.924 0 0 0 .113.007c0 .035.013.073.04.113.026.039.04.081.04.126v1.008zm-1.911-7.723h-.066v.093h.066v-.093zm.066-.039c.018-.018.02-.044.007-.08a.222.222 0 0 0-.046-.079l.039.159zm.12 5.453c-.018 0-.04-.011-.066-.033-.027-.022-.049-.033-.067-.033l.04.159c.018 0 .033-.011.046-.033a.346.346 0 0 1 .047-.06m.093-2.255c-.08-.062-.146-.093-.199-.093a.101.101 0 0 0 .086.059c.04.005.078.016.113.034m-.107-3.463h-.079v.053h.079v-.053zm0 .291h-.079v.054h.079v-.054zm.054 3.477l-.054-.053-.026.026.04.053.04-.026zm.08-4.22v-.04l-.147-.04v.054l.147.026zm-.107 4.366c-.027 0-.04.031-.04.093 0-.018.011-.038.034-.06.021-.022.024-.033.006-.033m.146-3.981v-.119a.13.13 0 0 1-.093-.04l-.066-.067v.16c.035 0 .059.011.073.033.013.022.041.033.086.033m-.066 4.074h-.093v.053h.093v-.053zm.119 3.648a.404.404 0 0 0-.08-.106c-.035-.035-.053-.07-.053-.106a.525.525 0 0 0-.026.067 1.123 1.123 0 0 0-.027.059c-.009.022-.017.042-.026.06.017 0 .035-.011.053-.033.017-.022.035-.033.053-.033.008.026.022.04.039.04h.027c.009.008.014.015.014.019 0 .005.004.011.013.02 0 .009.004.013.013.013m0-7.523a.147.147 0 0 0 .013-.106.435.435 0 0 1-.013-.107c0 .089-.026.147-.08.173.018 0 .036.009.054.027.009.009.017.013.026.013m.093 7.378l-.04.039-.04-.052.027-.041.053.054zm.119-7.232a.573.573 0 0 0-.126.013c-.04.009-.059.023-.059.04.017-.017.028-.022.033-.013.004.008.028.013.073.013a.088.088 0 0 0 .066-.027.035.035 0 0 0 .013-.026m.067 2.893a.088.088 0 0 1-.053-.02c-.018-.014-.027-.029-.027-.047 0 .018-.009.036-.026.053l-.054.054c.018.017.036.026.054.026.008.009.017.014.026.014.018 0 .031-.01.04-.027a.19.19 0 0 1 .04-.053m.305-3.079a.234.234 0 0 1-.093-.092.233.233 0 0 0-.093-.094.742.742 0 0 0-.106.067.352.352 0 0 0-.08.079c.018.018.031.038.04.06s.022.042.04.06h.173c.044 0 .07-.009.079-.027a.223.223 0 0 1 .04-.053m-.133.504a1.094 1.094 0 0 0-.126-.106.274.274 0 0 1-.099-.119v.159a.22.22 0 0 1 .086.033.27.27 0 0 0 .139.033m.107 5.772c-.009 0-.027.014-.054.04-.035-.018-.049-.044-.039-.079.008-.035-.01-.053-.054-.053s-.061.006-.053.02a.078.078 0 0 1 .014.046.116.116 0 0 0-.06-.033.27.27 0 0 0-.06-.007c.053-.053.111-.128.173-.226h.119c0 .027-.022.054-.066.08a.637.637 0 0 0 .066.106c.027.036.04.071.04.106h-.026zm-.12-6.103h-.079v.053h.079v-.053zm.027-1.075l-.054-.014-.039.081.039.026.054-.093zm-.04.318h-.053v.159h.053V1.46zm.053.199l-.013-.04-.08.04v.04l.093-.04zm.066.119c-.018-.017-.044-.019-.079-.006a.22.22 0 0 0-.08.047.253.253 0 0 0 .08-.021.289.289 0 0 1 .079-.02m.066 2.999v-.119c-.035-.053-.075-.079-.119-.079-.018 0-.029.022-.033.066a.933.933 0 0 0-.007.093l.08-.067c.018.018.022.038.013.06s-.013.042-.013.06c0-.018.008-.028.027-.033.017-.005.035.002.052.019m-.052-2.335l-.054-.026-.039.093.052.013.041-.08zm.212-.278h-.253a.337.337 0 0 1-.006.059.112.112 0 0 1-.033.06c.018 0 .035.009.053.027a.04.04 0 0 0 .027.013.509.509 0 0 0 .146-.08c.043-.035.066-.062.066-.079m-.093-.731l-.08-.078a1.387 1.387 0 0 0-.053.119 1.542 1.542 0 0 1-.053.119.242.242 0 0 1 .073-.047c.031-.013.055-.01.073.007 0-.017.006-.037.02-.06a.118.118 0 0 0 .02-.06m-.014 3.464a.084.084 0 0 1-.053-.02c-.017-.013-.035-.011-.052.006-.019 0-.021.018-.007.054a.971.971 0 0 0 .046.106.115.115 0 0 0-.013-.119c.017-.018.044-.027.079-.027m-.04-2.349l-.052-.039-.027.066.053.026.026-.053zm.04 7.365h-.066v-.12h.066v.12zm.544-8.399c0-.045-.006-.071-.02-.081-.012-.008-.019-.021-.019-.039h-.199c-.045 0-.093.031-.146.093-.053.062-.102.093-.146.093.053 0 .09.025.112.073.023.048.056.073.1.073s.08-.007.107-.02a.272.272 0 0 0 .065-.047c.018.018.027.031.027.04v.027c.018-.036.042-.069.073-.1s.046-.068.046-.112m-.398 4.776h-.093v.053h.093V6.29zm-.013-4.326h-.066v.093h.066v-.093zm.027 2.721h-.053v.16h.053v-.16zm.066.358h-.053l-.04.12.053.013.04-.133zm-.013 1.605l-.027-.052-.053.026.027.053.053-.027zm.199 1.288a.125.125 0 0 1-.06-.02c-.022-.014-.042-.011-.06.006-.017-.017-.035-.022-.052-.013-.018.009-.027.035-.027.08v.106a.28.28 0 0 0 .126-.08l.073-.079m-.027-5.321c-.018-.009-.027-.02-.027-.033a.049.049 0 0 0-.012-.034.033.033 0 0 1-.013-.026c0 .018-.005.026-.014.026-.009 0-.018.005-.027.014a.112.112 0 0 1-.04.013c.027.026.072.04.133.04m-.039 1.26h-.093v.053h.093v-.053zm.052 5.706a.168.168 0 0 0-.04-.113c-.025-.031-.039-.037-.039-.019 0 .044.009.072.027.086a.43.43 0 0 1 .052.046m.093-1.805l-.053-.013-.04.08.054.026.039-.093zm.04.584h-.053l-.08-.146.054-.026.079.172zm.04 1.195c.018 0 .007.015-.033.046a.267.267 0 0 0-.086.112v-.158a.166.166 0 0 0 .06-.014c.021-.008.041-.004.059.014m.027-1.633l-.054-.092-.039.013.039.079h.054zM13.853.85h-.093v.054h.093V.85zm.066.345l-.013-.04-.08.04v.04l.093-.04zm.173 3.609a.228.228 0 0 0-.08-.046.223.223 0 0 1-.079-.047l-.08.08a.213.213 0 0 0 .119.02c.045-.005.084-.007.12-.007m-.133 3.105l-.026.027-.053-.053.039-.027.04.053zm.04-6.25h-.053l-.04.16h.053l.04-.16zm.026 1.287l-.026-.04-.08.081.027.039.079-.08zm.399-.636a.222.222 0 0 0-.027-.113.354.354 0 0 0-.053-.073c-.044 0-.085.026-.12.079v.14a.52.52 0 0 1-.013.126.176.176 0 0 0-.04.059.085.085 0 0 1-.039.047.225.225 0 0 1 .033.092c.004.036-.016.054-.06.054h-.172v.066a.255.255 0 0 1 .119-.02c.035.005.08.011.133.02a.27.27 0 0 1 .039-.159l.08-.1.079-.092a.187.187 0 0 0 .041-.126m-.306 3.343l-.159-.04v.12a.207.207 0 0 0 .079-.026.296.296 0 0 0 .08-.054m.014-3.848l-.054-.053-.026.026.04.054.04-.027zm.119 3.623c0-.044-.027-.084-.08-.12a.22.22 0 0 0-.086.08.177.177 0 0 0-.033.079.19.19 0 0 0 .119.04l.08-.079zm.079-4.167l-.039-.106-.054.027.041.079h.052zm.16.319l-.026-.027-.12.106.039.04.107-.119zm-.066 3.039l-.027.039-.053-.053.039-.04.041.054zm.105-1.049l-.053-.027-.039.093.053.013.039-.079zm.12.703c0-.017-.017-.031-.053-.04-.036-.008-.062.005-.08.04h.133zm-.027.319l-.039-.053-.04.026.053.054.026-.027zm.107.199l-.053-.014-.04.08.053.026.04-.092zm.252.478v-.12l-.08-.08c-.018.018-.037.034-.059.047s-.043.029-.06.047c.053.035.08.084.08.145a.268.268 0 0 0 .059-.007.11.11 0 0 0 .06-.032m0-.544a.177.177 0 0 0-.08-.08.2.2 0 0 0-.079-.026v.119a.305.305 0 0 0 .059.047.12.12 0 0 0 .06.019c.009-.009.013-.017.013-.027 0-.008.005-.017.014-.026 0-.009.004-.018.013-.026m1.048 5.148a.302.302 0 0 0-.106.02.35.35 0 0 1-.119.02l-.08.066c-.018-.062-.036-.09-.053-.086-.018.004-.005-.015.04-.06-.027-.035-.071-.053-.133-.053 0 .018-.003.044-.006.079-.005.036.01.076.045.12a.202.202 0 0 0-.072.02.332.332 0 0 1-.126.02.284.284 0 0 0-.014-.093 1.255 1.255 0 0 0-.04-.106 1.06 1.06 0 0 1-.159.199h-.119a1.755 1.755 0 0 0-.066-.12.25.25 0 0 1-.04-.132v-.438a.56.56 0 0 0 .099-.047c.004-.004.002-.006-.006-.006-.009 0-.016-.006-.02-.02-.004-.013.015-.042.06-.086a1.822 1.822 0 0 1-.1-.053.365.365 0 0 0-.113-.04 1.426 1.426 0 0 1-.053-.16.568.568 0 0 1-.026-.159c0-.044.001-.068.006-.072l.034-.034a.773.773 0 0 0 .305.066c.044 0 .066-.004.066-.013 0-.008.022-.013.066-.013.045 0 .066.011.066.033s.009.042.027.06l.066-.053.1.033c.014.005.014.011 0 .02a.25.25 0 0 0-.046.04c-.018.017-.027.044-.027.079.018.018.022.025.013.02-.008-.004.009-.007.053-.007.053 0 .097-.035.133-.105.018-.009.049-.009.093 0 .044.008.075.004.093-.014-.018.027-.026.065-.026.113s.003.09.012.126a.63.63 0 0 0 .06.053c.022.018.034.035.034.053a.785.785 0 0 1-.007.1.36.36 0 0 1-.033.099v.491c.035.026.075.04.119.04m-1.035-7.179l-.053-.053-.027.04.04.053.04-.04zm.014.08h-.08v.053h.08v-.053zm.211 5.241a.126.126 0 0 0-.092-.039c.009 0 .022.008.04.026l.013.013c-.062.027-.115.031-.159.013 0 .036.004.058.013.067l.026.027a.352.352 0 0 1 .126-.034c.049-.004.091-.006.126-.006a.368.368 0 0 1-.093-.067m.093-2.866l-.185-.04a.228.228 0 0 0-.047.08.26.26 0 0 0-.02.08h.146a.887.887 0 0 1 .067-.06c.026-.022.039-.042.039-.06m.027 4.538l-.08-.066c-.017.018-.013.04.014.066.026.026.039.049.039.066-.035 0-.05.007-.046.02a.166.166 0 0 1 .007.047.234.234 0 0 0-.093-.047c-.044-.013-.066-.037-.066-.072 0-.054.004-.089.013-.107a.146.146 0 0 1 .026-.039l.106.052a.172.172 0 0 1 .08.08m-.027-.186h-.159v-.053h.159v.053zm.664-1.008a1.657 1.657 0 0 1-.172-.332.06.06 0 0 0-.041.013c-.008.009-.035.014-.079.014s-.062-.002-.053-.007c.009-.004.004-.015-.014-.033.018-.018.025-.035.02-.053-.004-.018.003-.035.021-.053-.018.018-.043.013-.074-.014a.291.291 0 0 1-.072-.092h-.133c.035.088.013.154-.067.198 0 .019.014.036.04.054a.435.435 0 0 1 .067.053.167.167 0 0 1-.067.04c-.026.009-.04.022-.04.039.018.018.047.027.087.027h.086c-.027-.053-.022-.106.013-.159a.217.217 0 0 0 .086.033.316.316 0 0 1 .1.033v.239c.124-.044.221-.044.292 0m-.093.81c-.018 0-.044-.003-.079-.007-.036-.004-.063-.007-.08-.007 0 .026-.018.058-.053.093-.045-.062-.045-.128 0-.199.044.036.077.051.099.047a.061.061 0 0 1 .06.019v-.172c0 .017.004.028.014.033.008.005-.01.007-.054.007a.125.125 0 0 1-.106-.054.974.974 0 0 0-.093-.105.661.661 0 0 0-.019.212.428.428 0 0 1-.047.212c-.018-.018-.016-.033.007-.047.022-.013.01-.02-.034-.02s-.075.016-.093.047a.32.32 0 0 1-.053.073c.027.071.04.15.04.239.018.017.04.033.066.046.027.014.04.029.04.047 0-.018-.007-.031-.02-.04s.003-.014.047-.014.073-.006.086-.019l.047-.047c.017.018.021.04.013.066a.195.195 0 0 0-.013.067l.079-.04v-.146h-.146a.27.27 0 0 1-.007.06c-.004.022-.028.033-.072.033-.045 0-.062.002-.054.007.009.004.005-.003-.013-.02a.46.46 0 0 0 .046-.033c.005-.005 0-.007-.013-.007s-.026-.004-.039-.013c-.013-.009-.02-.027-.02-.053 0-.044.004-.075.013-.093a.115.115 0 0 0 .013-.053c.036 0 .062.015.08.046.017.032.048.047.092.047a.168.168 0 0 0 .101-.034.316.316 0 0 1 .086-.046c-.018-.027-.014-.051.013-.073s.048-.042.066-.059m-.279-.837h-.146v-.053h.146v.053zm.438-4.179a.196.196 0 0 1-.119-.04l-.106.106v.12a.577.577 0 0 0 .112-.08c.04-.036.078-.071.113-.106m-.119 5.294h-.053v-.093h.053v.093zm.252-6.435a.115.115 0 0 0-.02-.061.115.115 0 0 1-.02-.059.523.523 0 0 0-.146.099.5.5 0 0 0-.106.126l.08-.066.066.066c.027-.052.075-.087.146-.105m.305 5.891c0 .045-.009.075-.026.093a.85.85 0 0 0-.067.079.051.051 0 0 0 .007.054c.013.017.015.035.007.052a.304.304 0 0 1-.06.113c-.031.04-.064.078-.1.113a.169.169 0 0 1 .1.172.572.572 0 0 1-.1.266h-.159v-.12c.044 0 .088-.021.133-.066a.159.159 0 0 0-.08-.106.374.374 0 0 1-.119-.119.414.414 0 0 0 .086-.226c.005-.079.007-.154.007-.225 0-.027-.005-.042-.014-.047a.077.077 0 0 1-.02-.013c-.004-.005-.006-.022-.006-.054a.87.87 0 0 1 .026-.165.118.118 0 0 1-.013-.04c0-.008-.009-.022-.026-.04a.287.287 0 0 0-.04.047c-.009.013-.031.02-.066.02v-.12a.849.849 0 0 0 .145-.106c.027-.027.075-.039.146-.039 0 .044.014.092.04.145a2.134 2.134 0 0 0 .159.266c.027.035.04.057.04.066m-.133-3.171a.468.468 0 0 0-.119-.053.416.416 0 0 0-.119-.027c.034.018.075.036.119.053a.32.32 0 0 0 .119.027m.784-2.455a.072.072 0 0 0-.007-.027.048.048 0 0 1-.007-.026c-.009-.009-.013-.018-.013-.026a.19.19 0 0 1-.06-.153c.005-.057.007-.1.007-.126 0 .044-.031.066-.093.066-.045 0-.057-.007-.04-.02.018-.014.004-.015-.039-.007h-.094a.376.376 0 0 1-.126.14.243.243 0 0 1-.119.033c-.04 0-.082.002-.126.006a.257.257 0 0 0-.133.061.107.107 0 0 1 .033.059.128.128 0 0 0 .033.06h.12c.035-.097.062-.142.08-.133l.139.093a.926.926 0 0 0 .113.067c.026-.027.039-.067.039-.12-.017-.018-.033-.031-.046-.04s-.02-.022-.02-.04c.018-.018.031-.027.04-.027h.013c.044.019.084.071.12.16h.186zm-.624 5.374h-.093v.053h.093v-.053zm.106-1.061a.23.23 0 0 0-.073-.087.1.1 0 0 1-.047-.086.207.207 0 0 1-.032.106.1.1 0 0 0-.007.106.262.262 0 0 0 .079-.02.258.258 0 0 1 .08-.019m.159-4.167l-.159.053h.12l.039-.053zm.08.331a1.811 1.811 0 0 0-.1.054c-.031.017-.042.053-.033.106.035-.018.064-.045.086-.08s.038-.062.047-.08m.027-1.751h-.133a.156.156 0 0 0 .066.04c.026.009.049-.004.067-.04m.318 2.561v-.119a.87.87 0 0 1-.318-.067v.292c.043 0 .083.011.119.033.035.022.07.034.106.034 0-.036.009-.065.027-.086l.066-.087m-.12.345l-.198-.08v.054l.172.066.026-.04zm.054-3.848a.316.316 0 0 1-.034-.112c-.004-.041-.015-.069-.033-.087a.088.088 0 0 0-.066.027c-.009.008-.018.013-.027.013a.409.409 0 0 1 .067.179c.008.066.013.126.013.179a.385.385 0 0 0 .119-.119c.035-.054.022-.08-.039-.08m-.054.371l-.039-.052-.04.039.053.053.026-.04zm.093 2.654v-.04l-.159-.039v.053l.159.026zm-.079.518v-.119a.172.172 0 0 0-.053.039c-.009.009-.014.018-.014.027.009-.009.022-.006.04.006.018.014.027.03.027.047m.079.385a.187.187 0 0 0-.073.02.206.206 0 0 1-.073.02c.009 0 .022.008.04.026a.038.038 0 0 0 .027.014l.079-.08zm.067-1.367a.247.247 0 0 0-.127.007c-.039.013-.059.024-.059.033v.12a.974.974 0 0 0 .106-.067.28.28 0 0 0 .08-.093m-.12-.107c.018-.017.022-.044.014-.079a.691.691 0 0 0-.04-.106c.017.036.022.071.013.106s-.005.062.013.079m.12-.49a.094.094 0 0 0-.067.026c-.009.009-.018.014-.026.014a.24.24 0 0 1 .039.119.159.159 0 0 0 .04-.08.364.364 0 0 0 .014-.079M19.2 9.581V9.13h-.08c-.008.018-.012.037-.012.059s-.009.042-.027.06c-.071 0-.137.014-.199.04s-.115.049-.159.066l-.113-.139a.746.746 0 0 1-.086-.126c-.036.035-.076.062-.12.08s-.084.044-.119.079l-.027-.013v-.013h.014c.053-.027.061-.06.026-.1-.036-.039-.049-.073-.04-.099a1.013 1.013 0 0 0-.079.139.173.173 0 0 1-.08.086c.017 0 .038.007.059.021a.275.275 0 0 1 .061.045c0-.017.004-.03.013-.039 0-.009.004-.018.013-.027.017.045.027.075.027.093s-.01.035-.027.053a2.573 2.573 0 0 0-.159.06.367.367 0 0 1-.146.033.633.633 0 0 1-.126-.013l-.113-.026c-.053-.054-.08-.1-.08-.14 0-.039-.049-.06-.146-.06a.187.187 0 0 0-.099.021c-.022.012-.051.028-.086.045-.018-.017-.027-.03-.027-.039v-.013l-.053.04c.044.123.055.19.033.198-.023.009-.033.027-.033.054 0 .008.005.011.013.006.009-.004.016-.002.02.007.005.009.007.024.007.046s-.013.06-.04.113v.08c.017.017.035.04.053.066s.036.049.053.066a.52.52 0 0 0 .159.013c.097 0 .182.023.252.067 0-.088.04-.133.12-.133.044 0 .095.015.153.047a.326.326 0 0 0 .153.046c.034 0 .061-.011.079-.033.017-.022.044-.033.079-.033.045 0 .071.004.08.013s.017.022.027.04l.026.053a.17.17 0 0 1 .113-.046c.048-.005.081-.007.1-.007a.3.3 0 0 0 .099-.047.188.188 0 0 1 .112-.033c.045 0 .061.005.047.013-.013.01.002.014.047.014.079 0 .139-.038.179-.113a.474.474 0 0 0 .059-.219m-1.91-.531c.017-.018.02-.037.007-.06a.38.38 0 0 0-.047-.059c0 .018.002.038.007.059a.11.11 0 0 0 .033.06m.743-6.966a.195.195 0 0 0-.027-.1.19.19 0 0 1-.026-.099.21.21 0 0 1-.027.146c-.062 0-.097-.005-.106-.013-.009-.009-.013-.018-.013-.027v-.08c0-.017.009-.035.026-.053h.107a5.722 5.722 0 0 1-.107-.225.23.23 0 0 0-.225-.146.615.615 0 0 0-.187.073c-.097.049-.146.108-.146.179 0 .027.021.08.06.159.04.08.078.164.113.252.071-.017.14-.037.206-.06a.543.543 0 0 1 .166-.032c.044 0 .073.004.086.013s.047.013.1.013m-.464 1.579a1.387 1.387 0 0 1-.107-.152.326.326 0 0 1-.053-.167c0-.044.022-.077.066-.099a.199.199 0 0 0 .094-.086h-.121a.317.317 0 0 0-.086.153.514.514 0 0 1-.06.152.412.412 0 0 1 .114.172c.031.08.055.129.073.147l.08-.12zm-.16-.769l-.04-.054-.04.04.054.053.026-.039zm.026-1.726l-.013-.053-.079.04v.054l.092-.041zm0 4.047l-.013-.052-.079.04v.052l.092-.04zm-.013 2.747h-.066v.093h.066v-.093zm.053-5.003l-.04-.053-.039.04.052.054.027-.041zm.2 6.012a.131.131 0 0 0-.08-.033.275.275 0 0 1-.08-.021.27.27 0 0 1-.053.093.185.185 0 0 1-.053.04c.035 0 .08-.004.133-.013s.097-.031.133-.066m-.094-1.075l-.039-.106-.053.026.039.08h.053zm.186-3.689a.643.643 0 0 0-.079-.066.26.26 0 0 1-.08-.093v.159h.159zm.2-.969l-.226-.039a.888.888 0 0 0 .113.046.143.143 0 0 0 .113-.007m-.027 4.605c0 .009-.005.018-.014.026a.111.111 0 0 0-.019.027.12.12 0 0 1-.02.026l-.08-.079h.133zm.093 1.048c-.018 0-.033-.016-.047-.046-.013-.031-.011-.047.007-.047 0 .009.004.018.013.027.018.017.027.04.027.066m.292-7.696a.125.125 0 0 1-.053-.013.384.384 0 0 0-.133-.014l-.067.067v.12a.31.31 0 0 1 .107.019c.035.013.061.02.079.02a.383.383 0 0 0 .067-.199m.504 2.308a1.945 1.945 0 0 0-.159-.185.119.119 0 0 1-.007.086c-.013.032-.029.047-.046.047a1.851 1.851 0 0 1-.12-.093.318.318 0 0 1-.106-.173c-.018 0-.035.009-.053.027a.1.1 0 0 1-.04.013l.073.213a.42.42 0 0 0 .099.159.277.277 0 0 1-.132.08 1.02 1.02 0 0 0-.173.053.19.19 0 0 1 .107.026.18.18 0 0 0-.1.099.343.343 0 0 0-.033.14c0 .044.002.089.006.132.005.045.016.08.034.106a.26.26 0 0 0 .1.1c.039.022.068.029.086.02a2.926 2.926 0 0 0-.074-.133c-.03-.053-.011-.11.06-.172l.047.093c.013.026.015.048.006.066a.17.17 0 0 1 .066-.04.167.167 0 0 0 .067-.04c-.089-.035-.122-.11-.1-.225a.564.564 0 0 1 .087-.239.548.548 0 0 0 .172-.066.634.634 0 0 0 .133-.094m-.518-.742v.159c.018 0 .032-.004.04-.014.009-.008.014-.017.014-.026.043-.044.026-.084-.054-.119m.107 5.135h-.066v.133h.066v-.133zm.158-4.684l-.079-.159-.04.013.067.146h.052zm-.066 4.91h-.053v-.12h.053v.12zm.412-3.384v-.212c.008-.045-.005-.091-.04-.14-.035-.048-.075-.073-.12-.073-.044 0-.055.005-.033.013.022.009.011.014-.033.014s-.068-.016-.073-.047a.587.587 0 0 1-.006-.073 2.398 2.398 0 0 0-.1.106c-.031.036-.047.062-.047.08.018 0 .029-.005.034-.013.004-.009.029-.014.072-.014.062 0 .118.049.167.147a.503.503 0 0 0 .179.212m.04 4.299a1.426 1.426 0 0 0-.16-.053 1.636 1.636 0 0 1-.159-.053.03.03 0 0 1-.006.02c-.005.004-.007.011-.007.02l-.013.013c-.054-.035-.093-.053-.12-.053a.414.414 0 0 1 .086.126c.022.048.042.091.06.126a.778.778 0 0 1 .146-.04c.054-.008.084-.004.093.013 0-.017.009-.037.026-.059a.812.812 0 0 1 .054-.06m-.372-7.271c-.018 0-.029.015-.033.046a.12.12 0 0 0 .006.073c.027-.018.038-.037.034-.06a.347.347 0 0 1-.007-.059m.199 6.528l-.159-.053a.113.113 0 0 1 .107 0c.034.018.052.035.052.053m.106-4.153c-.018-.054-.038-.087-.059-.1a.122.122 0 0 0-.06-.02.163.163 0 0 0-.039.06.2.2 0 0 1-.041.06h.199zm-.027-.292l-.025-.04-.12.066.026.053.119-.079zm.04-.69l-.119-.12-.027.04.106.12.04-.04zm.014 5.559a1.05 1.05 0 0 1-.12-.086c-.026-.022-.035-.054-.026-.099.018 0 .042.007.073.02s.055.029.073.046v.119zm-.054-2.003l-.039-.053-.04.026.054.053.025-.026zm.054 1.048c-.018 0-.033.013-.047.04-.013.027-.028.04-.046.04.018.018.037.013.06-.013.021-.027.033-.049.033-.067m.265.969v.252a.26.26 0 0 1-.093-.08c-.026-.035-.058-.053-.092-.053a.195.195 0 0 0 .039-.119h.146zm-.04-3.092h-.066v.132h.066V5.64zm.572 4.273c-.01 0-.025-.012-.047-.033a.268.268 0 0 0-.06-.047h.107c-.037.052-.037.08 0 .08m.502-.518a.279.279 0 0 0-.145-.039.383.383 0 0 1-.041-.153c-.008-.075-.03-.113-.065-.113h-.147a.872.872 0 0 0-.013.252c.009.08.013.155.013.226h-.172c.044.079.04.137-.013.172a1.778 1.778 0 0 1 .332.252.207.207 0 0 0-.007-.152c-.022-.058.011-.108.099-.153a.082.082 0 0 0 .06.026h.06a.303.303 0 0 1-.033-.099.137.137 0 0 0-.033-.073c.07-.027.105-.076.105-.146m5.163-.835a.22.22 0 0 1-.047-.094c-.013-.044-.041-.066-.087-.066a.383.383 0 0 0-.159.046c-.061.032-.119.06-.172.087-.018.018-.042.045-.073.079a.18.18 0 0 0-.047.12c0 .035.022.073.067.113a.201.201 0 0 0 .132.059.553.553 0 0 1-.072.06.21.21 0 0 0-.074.1c-.053-.062-.106-.087-.159-.074a.27.27 0 0 1-.159-.006c-.018-.018-.024-.031-.02-.04s-.015-.013-.06-.013c-.124 0-.21.007-.258.02a.99.99 0 0 1-.325.047c-.08 0-.212-.014-.398-.04a.387.387 0 0 1-.027-.153c0-.058.008-.108.027-.153l-.054-.053a2.361 2.361 0 0 0-.079.087c-.027.03-.035.068-.027.112.009-.106-.002-.161-.033-.166a1.035 1.035 0 0 0-.126-.006 3.43 3.43 0 0 0-.133.006l-.225.014-.219.013a1.882 1.882 0 0 1-.14.006c-.035 0-.091-.024-.165-.072a.786.786 0 0 0-.206-.1c-.018.018-.027.033-.027.047v.046c-.079 0-.143.011-.192.033s-.081.046-.1.073a.648.648 0 0 0-.053.106c-.044 0-.059-.006-.046-.02.013-.013.011-.02-.007-.02-.018.027-.022.062-.013.107a.265.265 0 0 1 0 .119c-.036 0-.053.026-.053.08h-.12c-.017-.018-.024-.034-.019-.047.004-.013-.016-.019-.06-.019a.78.78 0 0 0-.126.012.7.7 0 0 1-.126.014.127.127 0 0 1-.033-.047c-.005-.013-.029-.019-.074-.019-.043 0-.07.006-.079.019s-.023.029-.04.047l-.079-.066a.137.137 0 0 1-.08-.02.086.086 0 0 0-.053-.02.39.39 0 0 0 .007-.126c-.005-.049-.016-.082-.033-.1h-.12c-.044 0-.075.018-.093.053-.017.035-.049.053-.093.053s-.077-.015-.099-.046-.052-.051-.087-.06a1.266 1.266 0 0 0-.133-.046 2.456 2.456 0 0 1-.172-.06c-.008-.018-.004-.04.014-.066a.692.692 0 0 0 .053-.106.215.215 0 0 1-.033-.1.228.228 0 0 1 .006-.1c.115-.575.237-1.147.365-1.718s.258-1.139.392-1.705c.043-.186.087-.398.132-.637.044-.238.102-.5.173-.783.017-.071.033-.157.047-.259a2.66 2.66 0 0 1 .059-.318c.027-.111.066-.219.119-.325.054-.107.129-.208.226-.305 0-.036-.045-.071-.133-.106v-.106c0-.036.015-.133.046-.293.032-.159.069-.329.113-.51l.127-.505c.039-.154.068-.245.086-.272h1.937c.071.265.137.535.199.81.062.274.119.544.173.809-.045-.027-.089 0-.134.08a.806.806 0 0 0 .101.106c.03.026.054.049.072.066l-.013.04c.018.027.04.049.067.066-.036.071-.039.124-.007.16a.368.368 0 0 1 .072.159.85.85 0 0 1 .014.166c0 .066.005.135.014.205a.538.538 0 0 0 .079.206.86.86 0 0 1 .093.219l.132.577c.045.191.054.352.027.485a.878.878 0 0 1 .079.192 6.668 6.668 0 0 1 .153.544c.022.093.033.179.033.259.009.018.003.033-.02.046-.022.014-.028.029-.02.046.019.018.032.04.04.067.009.027.022.044.041.053a22.149 22.149 0 0 1 .371 1.592.287.287 0 0 1-.074-.013.349.349 0 0 0-.099-.013c-.044 0-.121.018-.232.053s-.188.053-.232.053c-.045 0-.078-.007-.1-.02s-.068-.02-.139-.02l-.053.067c0 .044.044.057.133.039a.124.124 0 0 1-.014.054.114.114 0 0 0-.013.052l.027.027h.066a.222.222 0 0 0 .132-.047.568.568 0 0 1 .146-.072.682.682 0 0 1 .233-.014.472.472 0 0 0 .245-.039.27.27 0 0 1 .007.159.212.212 0 0 0 .02.159.062.062 0 0 1-.047.033c-.022.005-.033.029-.033.073 0 .036.011.073.033.113.022.04.051.082.086.126l.067-.067a.32.32 0 0 0 .027.12.92.92 0 0 1 .04.133v.279zm-5.241.888a.258.258 0 0 0-.08.019.235.235 0 0 1-.079.02c.016-.034.043-.051.078-.046.037.004.063.007.081.007m0-.888a.27.27 0 0 0-.007-.06c-.004-.022-.015-.034-.033-.034s-.02.012-.007.034a.336.336 0 0 0 .047.06m1.419.703l-.107-.04c-.035.018-.055.04-.059.066-.005.027-.016.04-.033.04a.42.42 0 0 0-.093-.073c-.026-.013-.04-.037-.04-.073v.12c-.045 0-.066-.003-.066-.007s-.023-.007-.066-.007c-.036 0-.058-.004-.067-.013-.009 0-.014-.004-.014-.013a.162.162 0 0 1-.005.046c-.005.013-.03.02-.074.02s-.088-.007-.133-.02a.429.429 0 0 0-.119-.02.664.664 0 0 0-.186.027c-.062.018-.124.075-.186.172.089 0 .138.018.146.053-.008.027-.002.053.02.08.022.026.034.062.034.106s-.009.068-.027.073a.138.138 0 0 0-.054.033c-.008.018-.001.038.021.06.021.022.024.042.006.059l-.158-.026c-.054.036-.081.066-.081.093a.349.349 0 0 1 .167-.013c.057.008.108.013.152.013s.097.006.16.02c.061.013.11.02.145.02.044 0 .133-.007.266-.02.133-.014.243-.02.331-.02.009-.15.029-.272.06-.365a.28.28 0 0 0-.02-.246.102.102 0 0 0 .033-.092c-.003-.036.011-.053.047-.053m-1.114-.359h-.119V8.85h.119v.054zm2.628-2.069a38.796 38.796 0 0 1-.133-.751 6.861 6.861 0 0 0-.133-.63.215.215 0 0 1 .007-.119.19.19 0 0 0 .007-.106 5.236 5.236 0 0 0-.094-.465 3.004 3.004 0 0 1-.079-.465c.035-.034.053-.061.053-.079a.344.344 0 0 1-.126-.218 1.197 1.197 0 0 1-.033-.219 1.744 1.744 0 0 0-.199.385.344.344 0 0 0 0 .191.547.547 0 0 1 .013.206 1.422 1.422 0 0 1-.047.22 1.46 1.46 0 0 0-.046.205c-.018.106-.035.225-.053.358s-.049.226-.092.279c.026.088.03.177.012.265a.367.367 0 0 1-.113.14c-.057.048-.104.073-.139.073a.572.572 0 0 1-.126-.014.568.568 0 0 0-.113-.013c0-.088-.004-.148-.013-.179s-.02-.048-.033-.053c-.014-.005-.024-.011-.033-.02s-.013-.035-.013-.08c0-.044.008-.099.026-.165a.749.749 0 0 0 .027-.18c.017 0 .035.007.053.02.017.013.035.02.053.02a.091.091 0 0 0-.026-.066c-.01-.009-.014-.018-.014-.027l-.279-.026a.22.22 0 0 1 .073.232 2.618 2.618 0 0 1-.086.285c.018 0 .048-.022.093-.066a.138.138 0 0 1 .033.046.367.367 0 0 1 .007.087c0 .044-.003.061-.007.053-.005-.009-.015-.004-.033.013a.453.453 0 0 1-.053-.06c-.018-.022-.036-.032-.053-.032-.035.017-.056.037-.06.059-.005.022-.029.033-.073.033-.045 0-.06-.005-.046-.013.013-.009-.002-.014-.047-.014-.044 0-.093.027-.146.08l-.106.106a.317.317 0 0 0 .093.033c.027.005.048.025.066.06a.835.835 0 0 0-.092.053.143.143 0 0 1-.08.026c-.044 0-.067-.004-.067-.013 0-.008-.009-.013-.026-.013v-.199h-.186c-.017.035-.042.071-.073.106s-.055.062-.073.08a.662.662 0 0 0 .1-.06c.031-.022.055-.034.073-.034a.315.315 0 0 1-.066.107.12.12 0 0 0-.04.093.834.834 0 0 0 .119.099c.044.031.084.07.12.114a6.25 6.25 0 0 1-.153.145.25.25 0 0 0-.086.133l.053.053.039.04h.027v.039c-.018.054-.009.085.027.094.035.009.066.039.093.092-.018.018-.041.031-.067.04s-.04.023-.04.04c.036.035.062.071.08.106s.04.071.066.106a.772.772 0 0 0 .14-.119.998.998 0 0 1 .125-.119c.027.088.067.132.12.132v-.054c0-.009.005-.018.013-.026a.299.299 0 0 1-.02-.073.118.118 0 0 0-.033-.073.308.308 0 0 1-.06.046c-.021.014-.042.011-.06-.007l.054-.099c.018-.031.048-.047.093-.047.044 0 .071.005.08.014.008.009.022.013.039.013V6.78c-.017-.017-.039-.033-.066-.046s-.04-.038-.04-.073c.07-.053.135-.075.193-.066a.517.517 0 0 1 .139.039v.212c0 .045-.003.085-.007.12a.755.755 0 0 0-.007.106c.018-.017.025-.035.02-.053a.388.388 0 0 1-.006-.079l.066.026c.035 0 .068-.022.1-.066.03-.044.064-.066.099-.066a.47.47 0 0 1 .179.052.454.454 0 0 0 .179.054.29.29 0 0 1 .093.013.34.34 0 0 0 .106.013.44.44 0 0 0 .153-.033.431.431 0 0 1 .153-.033c.044 0 .064.018.06.053a.258.258 0 0 1-.021.079c.071-.035.144-.066.219-.092a.484.484 0 0 0 .18-.105m-1.792 1.179a1.158 1.158 0 0 0-.099-.046c-.014-.004-.014-.011 0-.02a.154.154 0 0 0 .04-.053.283.283 0 0 0 .02-.12 4.042 4.042 0 0 0-.153-.046 1.079 1.079 0 0 1-.139-.047.644.644 0 0 0 .053-.172.361.361 0 0 0-.08.014.425.425 0 0 1-.08.013v.145l.067.067a1.82 1.82 0 0 1-.127.046.415.415 0 0 1-.139.021c.098 0 .186.008.266.026l.238.053c0 .018-.013.038-.039.06a1.202 1.202 0 0 0-.067.059h.239zm-.107-1.618c-.088.017-.148.061-.179.132a1.046 1.046 0 0 1-.126.212l-.027-.026a.087.087 0 0 0-.066-.026c.035-.018.062-.056.08-.114a.144.144 0 0 0-.04-.152.23.23 0 0 1 .198-.066c.082.01.134.023.16.04m-.185-2.932h-.053v.119h.053v-.119zm.107 4.113l-.054-.013-.039.08.039.026.054-.093zm.344.013v-.12a.14.14 0 0 1-.079-.019c-.018-.014-.049-.02-.093-.02a.15.15 0 0 0-.113.046.568.568 0 0 0-.073.086c.017 0 .035-.011.053-.033.018-.022.048-.033.093-.033.044 0 .082.015.113.047a.14.14 0 0 0 .099.046m-.198.93h-.093v.053h.093V8.52zm-.015.371h-.066v-.12h.066v.12zm.213-.903v-.12c-.053 0-.079-.022-.079-.066-.018.018-.035.038-.053.059-.018.023-.027.043-.027.06a.212.212 0 0 0 .159.067m.16-5.811c-.027 0-.045-.013-.053-.04-.01-.009-.014-.022-.014-.04-.035 0-.057.009-.066.027s-.014.035-.014.053h.147zm.013 4.935c-.018 0-.04.013-.066.04l-.067.066a.09.09 0 0 0 .08-.04.364.364 0 0 1 .053-.066m-.013-.703a1.3 1.3 0 0 1-.053-.052c-.018-.018-.027-.044-.027-.08.044.018.073.04.086.066.012.027.011.049-.006.066m.026-2.123h-.053l-.04.119.04.014.053-.133zm.212-.636a.365.365 0 0 0-.04-.139c-.027-.058-.032-.109-.014-.153l-.066.199-.08.239c-.026.079-.049.15-.066.212a.537.537 0 0 0-.026.133c0 .044.013.069.039.073.027.004.04.016.04.033.035-.079.08-.188.133-.325a.983.983 0 0 0 .08-.272m-.185-1.58l-.053-.053-.027.04.04.039.04-.026zm.292 4.313h-.12c-.08.062-.119.124-.119.186a.3.3 0 0 0 .073.053c.03.018.046.036.046.053a2.573 2.573 0 0 1 .12-.292m0-4.167a.167.167 0 0 0-.08-.04.355.355 0 0 0-.08-.013v.159a.124.124 0 0 1 .08-.067.167.167 0 0 0 .08-.039m.091 5.508a.488.488 0 0 1-.052-.067.136.136 0 0 1-.026-.067c0 .018-.009.029-.027.033-.018.005-.026.028-.026.073 0 .044.013.059.04.046a.203.203 0 0 1 .091-.018m.108-.387a.456.456 0 0 1-.113-.013.54.54 0 0 0-.086-.013v.159c.035-.017.072-.037.112-.059s.069-.046.087-.074m-.108.452h-.093v.053h.093v-.053zm.055-.637l-.08-.12-.053.028.079.119.054-.027zm.013-5.427l-.013-.04-.08.04v.052l.093-.052zm.04 5.322h-.04l-.04.145h.054l.026-.145zm.039-4.844h-.053v.08h.053v-.08zm.12.039h-.093v.068h.093v-.068zm.132 4.936l-.119-.053-.013.053.12.054.012-.054zm-.012-2.799h-.066v-.093h.066v.093zm.105 2.906h-.08v.066h.08v-.066zm.054-4.458c.017-.017.019-.047.006-.086a.232.232 0 0 0-.046-.087l.04.173zm.118-.28h-.093V2.6h.093v-.053zm0 .293h-.093v.066h.093V2.84zm.134-.731v-.052l-.16-.04v.053l.16.039zm.025.373v-.12a.108.108 0 0 1-.086-.039c-.022-.027-.042-.048-.06-.067v.16c.035 0 .06.011.073.033.013.021.039.033.073.033m-.065 4.578h-.08v.053h.08V7.06zm.133-4.366a.127.127 0 0 0 .006-.106.274.274 0 0 1-.02-.093c0 .08-.026.129-.079.146a.09.09 0 0 1 .066.027l.027.026zm.277 1.792c0-.044-.018-.09-.053-.139s-.071-.091-.106-.127c-.018.045-.039.098-.066.16a.406.406 0 0 0-.04.159c0 .062.013.111.04.146a.425.425 0 0 0 .139-.08c.059-.045.086-.084.086-.119m-.065-1.646c-.124 0-.186.018-.186.054.018-.018.029-.023.033-.014s.029.014.073.014a.09.09 0 0 0 .067-.027c.008-.009.013-.018.013-.027m.065 2.88c-.053 0-.079-.018-.079-.053 0 .018-.012.033-.033.046a.312.312 0 0 0-.06.047c.008.017.018.026.026.026.009 0 .017.005.027.013.008.009.017.014.026.014.018 0 .033-.011.047-.034a.3.3 0 0 1 .046-.059m.16-2.574a1.097 1.097 0 0 0-.127-.107.197.197 0 0 1-.086-.119v.159a.21.21 0 0 1 .086.033.266.266 0 0 0 .127.034m.133-.505a.23.23 0 0 1-.093-.093.237.237 0 0 0-.093-.093.641.641 0 0 0-.053.226c0-.035.031-.052.093-.052.044 0 .075.005.093.019.018.012.035.011.053-.007m-.133.173h-.093v.053h.093v-.053zm-.013-1.076h-.066v.08h.066v-.08zm0 .332h-.066v.146h.066V2.07zm.12.305c-.019-.017-.047-.02-.087-.007a.226.226 0 0 0-.086.047c.018 0 .046-.007.086-.02s.067-.02.087-.02m-.068-.12l-.013-.039-.08.039v.055l.093-.055zm.12 3.12v-.12l-.053-.052c-.019-.018-.036-.027-.054-.027-.017 0-.028.024-.033.073a1.463 1.463 0 0 0-.006.099l.079-.066a.053.053 0 0 1 .014.06.161.161 0 0 0-.014.059c.001-.044.023-.053.067-.026m-.039-2.336l-.053-.013-.04.08.04.013.053-.08zm.118-.996l-.092-.08-.053.114c-.018.04-.035.078-.053.114a.166.166 0 0 1 .073-.041c.031-.008.056-.004.073.014 0-.018.009-.038.026-.06a.105.105 0 0 0 .026-.061m.094.717h-.252a.19.19 0 0 1-.04.119c.018 0 .035.009.053.026.009.01.018.014.027.014a.63.63 0 0 0 .139-.08c.048-.034.073-.062.073-.079m-.053 2.787c-.026-.043-.08-.067-.159-.067-.018 0-.029.013-.033.04-.005.026-.016.039-.034.039.035 0 .054.027.054.08h.053c.009 0 .017-.004.026-.013a.652.652 0 0 0 .06-.073c.021-.031.033-.032.033-.006m.053 2.893a.142.142 0 0 1-.099.013c-.031-.009-.056-.004-.073.013-.018-.018-.035-.006-.048.034a.214.214 0 0 1-.046.086 2.84 2.84 0 0 0 .159-.06c.054-.022.089-.051.107-.086m-.147-5.294l-.052-.028-.026.053.053.027.025-.052zm.014 5.213l-.08-.04-.013.04.079.054.014-.054zm2.124 1.619v-.106a.949.949 0 0 0-.04-.292 1.235 1.235 0 0 1-.053-.119.17.17 0 0 0-.08-.093 1.104 1.104 0 0 0-.146-.073.385.385 0 0 0-.146-.033c-.044 0-.071.029-.08.086a.474.474 0 0 1-.039.139c-.018-.018-.016-.033.007-.046.022-.014.01-.02-.034-.02-.044 0-.059.013-.046.04.013.026.01.04-.007.04 0-.044-.015-.074-.046-.086a.197.197 0 0 0-.073-.021c-.027.054-.058.085-.093.093-.026.009-.049.009-.067 0a.469.469 0 0 0-.093.007c-.017.006-.036-.002-.054-.02.018-.017.027-.035.027-.053v-.053a.13.13 0 0 0-.053.013c-.018.009-.049.013-.093.013s-.099-.013-.166-.039a33.254 33.254 0 0 1-.165-.067.98.98 0 0 1-.06.1c-.023.031-.042.046-.06.046-.018-.053-.024-.081-.02-.086.004-.004-.02-.02-.073-.046.018-.018.044-.027.079-.027a.187.187 0 0 1-.072-.02.212.212 0 0 0-.073-.02c0 .018.002.034.006.046.005.014-.002.03-.02.047a.304.304 0 0 1-.04-.047c-.009-.012-.035-.019-.079-.019s-.091.015-.138.047a.27.27 0 0 0-.1.099c0 .098.014.198.039.299.028.102.049.193.067.272.054 0 .113.007.179.02.066.013.117.02.153.02s.042-.011.02-.033c-.023-.022-.012-.034.033-.034.044 0 .073.018.087.054.013.035.041.053.085.053s.056-.012.034-.034c-.023-.021-.012-.033.033-.033.044 0 .07.012.079.033.009.022.036.034.08.034.044 0 .071-.007.08-.02.008-.014.035-.02.08-.02a.32.32 0 0 1 .119.02c.035.013.075.02.12.02.034 0 .059-.018.072-.053.013-.036.042-.054.087-.054.044 0 .086.012.126.034.04.022.081.033.126.033.044 0 .066-.009.066-.027 0-.017.009-.035.026-.052-.044-.045-.062-.093-.053-.146.009-.054.022-.089.04-.107.035 0 .067.011.093.033a.437.437 0 0 0 .093.06c-.035.036-.053.067-.053.093 0 .027-.018.049-.053.067a.331.331 0 0 0 .166.066.261.261 0 0 0 .166-.028M23.725 2.15h-.146v.053h.146V2.15zm-.013.411h-.053v.093h.053v-.093zm.039 2.72h-.066v.159h.066v-.159zm.067.371h-.053l-.039.107.039.013.053-.12zm.186 2.894a.11.11 0 0 1-.059-.02c-.022-.013-.043-.011-.06.007-.018-.018-.035-.025-.054-.02-.017.005-.025.029-.025.073v.106a.335.335 0 0 0 .126-.073c.03-.032.054-.055.072-.073m-.039-5.335a.08.08 0 0 1-.02-.033.097.097 0 0 0-.02-.033c-.009-.009-.014-.019-.014-.027 0 .018-.004.027-.013.027-.008 0-.017.004-.026.013a.098.098 0 0 1-.041.013.122.122 0 0 0 .067.033.283.283 0 0 0 .067.007m-.041 1.262h-.08v.053h.08v-.053zm.093-2.349h-.052l-.04-.08.04-.013.052.093zm.066 6.25l-.053-.014-.04.08.04.026.053-.092zm.026.583l-.079-.16-.04.014.067.146h.052zm.068-.437l-.04-.093-.054.013.039.08h.055zm.106-3.344l-.06.059c-.022.022-.024.038-.007.047.036-.018.061-.037.073-.06.013-.023.01-.037-.006-.046m.026 2.043l-.039-.013-.054.08.054.013.039-.08zm0 1.286l-.053-.053-.026.04.04.04.039-.027zm.187.055a.167.167 0 0 0-.081-.04.354.354 0 0 0-.079-.014v.12c.035 0 .064-.014.086-.04s.047-.035.074-.026m-.042-3.942c-.017 0-.035.008-.053.026a.096.096 0 0 1-.039.013c0 .036.01.071.033.106a.436.436 0 0 0 .059.08c0-.035.005-.072.014-.113a.155.155 0 0 0-.014-.112m-.013.77l-.053-.053-.026.04.039.04.04-.027zm.107 3.132h-.066v-.119h.066v.119zm.517-.227v-.12l-.08-.079c-.017 0-.026.007-.026.02 0 .014-.022.019-.067.019-.035 0-.055-.017-.059-.052-.005-.036-.025-.054-.06-.054a.566.566 0 0 0-.047.054.429.429 0 0 1-.045.052c-.019-.025-.058-.021-.121.014.072.044.111.051.121.02.008-.031.039-.055.092-.073.018.035.035.06.053.073s.035.029.053.046a.486.486 0 0 1 .106.186c.001-.034.028-.071.08-.106m-.277 1.5c.017.017.008.035-.027.053a.168.168 0 0 0-.079.079c-.01-.017-.005-.042.012-.073.018-.03.048-.05.094-.059m.437-1.022c-.088.035-.15.044-.186.026v.12c0-.009.009-.022.027-.04l.013-.013.04.039c.009.009.022.014.04.014 0-.018.006-.042.02-.073a.218.218 0 0 1 .046-.073m12.03-2.375h.86c-.093 1.24-.483 2.18-1.171 2.821-.687.64-1.644.961-2.87.961-1.435 0-2.598-.473-3.488-1.419-.89-.946-1.335-2.181-1.335-3.705 0-.708.125-1.381.374-2.016a4.858 4.858 0 0 1 1.059-1.654A4.704 4.704 0 0 1 32.215.357 4.658 4.658 0 0 1 34.018 0c.527 0 1.035.095 1.525.283.489.189.978.482 1.467.878l.357-.874h.657V4.02h-.727c-.093-.96-.434-1.734-1.02-2.321-.588-.587-1.312-.881-2.174-.881-.951 0-1.738.398-2.36 1.195-.622.798-.933 1.811-.933 3.041 0 1.305.308 2.34.926 3.104.618.764 1.456 1.146 2.513 1.146.858 0 1.543-.248 2.055-.744.513-.497.83-1.218.951-2.164m1.971 3.496v-.763h.587c.415 0 .688-.055.821-.167.134-.112.199-.408.199-.888V2.09c0-.475-.065-.768-.195-.88s-.406-.168-.825-.168h-.587V.287h4.725v.755h-.713c-.419 0-.694.056-.825.168-.13.112-.195.405-.195.88v2.559h5.144V2.09c0-.475-.065-.768-.196-.88-.13-.112-.405-.168-.824-.168h-.699V.287h4.725v.755h-.601c-.42 0-.695.056-.825.168-.131.112-.196.405-.196.88v5.984c0 .48.067.776.2.888.132.112.406.167.821.167h.601v.763h-4.725v-.763h.699c.414 0 .688-.055.821-.167s.199-.408.199-.888V5.411h-5.144v2.663c0 .48.066.776.198.888.134.112.407.167.822.167h.713v.763h-4.725zm11.953 0v-.763h.65c.415 0 .687-.055.818-.167s.196-.408.196-.888V2.09c0-.475-.065-.768-.196-.88s-.403-.168-.818-.168h-.65V.287h4.74v.755h-.644c-.419 0-.693.056-.822.168-.128.112-.191.405-.191.88v5.984c0 .48.065.776.195.888.131.112.403.167.818.167h.644v.763h-4.74zm13.735-3.496h.86c-.094 1.24-.484 2.18-1.172 2.821-.687.64-1.644.961-2.869.961-1.435 0-2.598-.473-3.488-1.419-.89-.946-1.335-2.181-1.335-3.705 0-.708.125-1.381.374-2.016a4.858 4.858 0 0 1 1.059-1.654A4.693 4.693 0 0 1 61.678 0a4.21 4.21 0 0 1 1.523.283c.49.189.979.482 1.468.878l.356-.874h.658V4.02h-.728c-.093-.96-.433-1.734-1.02-2.321-.587-.587-1.312-.881-2.174-.881-.951 0-1.737.398-2.359 1.195-.622.798-.933 1.811-.933 3.041 0 1.305.308 2.34.926 3.104.618.764 1.455 1.146 2.513 1.146.858 0 1.543-.248 2.055-.744.513-.497.829-1.218.951-2.164m4.963 1.678c0 .48.066.776.199.888s.406.167.822.167h.712v.763h-4.725v-.763h.587c.415 0 .689-.055.822-.167.132-.112.199-.408.199-.888V2.09c0-.475-.065-.769-.196-.88-.131-.112-.405-.168-.825-.168h-.587V.287h4.725v.755h-.712c-.42 0-.695.056-.826.168-.13.111-.195.405-.195.88v3.223l4.012-3.565c.084-.08.146-.152.185-.216a.389.389 0 0 0 .06-.204c0-.097-.058-.17-.175-.216-.117-.047-.298-.07-.545-.07h-.713V.287h4.809v.755h-.588c-.335 0-.678.091-1.03.272-.352.182-.742.469-1.171.861l-2.426 2.173 3.614 3.942c.312.345.587.572.825.679.238.107.519.16.846.16h.433v.763h-5.215v-.763h1.105c.186 0 .326-.024.419-.073a.24.24 0 0 0 .14-.227c0-.098-.116-.271-.349-.518-.066-.069-.116-.125-.154-.167l-2.677-2.908-1.405 1.252v1.586z"/><path d="M77.881 9.892v-.763h.587c.414 0 .688-.055.822-.167.133-.112.199-.408.199-.888V2.09c0-.475-.066-.768-.196-.88-.131-.112-.406-.168-.825-.168h-.587V.287h9.108v3.608h-.748c0-1.119-.185-1.874-.555-2.266-.371-.391-1.106-.587-2.206-.587h-2.608v3.425h.993c.676 0 1.102-.114 1.28-.343.177-.228.265-.728.265-1.503h.727v4.706h-.727c-.019-.9-.128-1.476-.328-1.727-.2-.252-.611-.378-1.231-.378h-.979v3.907h2.797c1.011 0 1.689-.206 2.034-.618.345-.412.526-1.255.545-2.527h.741v3.908h-9.108zm20.305.042H96.97l-5.886-8.347v6.487c0 .48.066.776.196.888.131.112.403.167.818.167h.72v.763h-4.271v-.763h.559c.415 0 .689-.055.822-.167.133-.112.199-.408.199-.888V2.105c0-.481-.066-.777-.199-.891-.133-.114-.407-.172-.822-.172h-.559V.287h3.223l5.452 7.717V2.105c0-.481-.065-.777-.196-.891-.13-.114-.403-.172-.818-.172h-.762V.287h4.229v.755H99.2c-.414 0-.688.058-.818.172-.13.114-.196.41-.196.891v7.829z"/></g></svg>