<svg xmlns="http://www.w3.org/2000/svg" viewBox="0 0 38.118 10.177"><g fill="#4c9761"><path d="M5.602 6.396c0 .693-.194 1.371-.582 2.035-.522.893-1.25 1.339-2.185 1.339-.926 0-1.648-.382-2.165-1.145C.223 7.957 0 7.137 0 6.166 0 4.591.257 3.234.77 2.09 1.337.826 2.038.194 2.873.194c.935 0 1.608.757 2.022 2.272.212.776.319 1.462.319 2.059 0 .267-.119.4-.357.4-.234 0-.365-.121-.394-.362a31.587 31.587 0 0 0-.094-.883C4.089 1.835 3.591.914 2.873.914c-.501 0-.973.486-1.414 1.459C.999 3.39.77 4.654.77 6.166c0 .758.152 1.402.457 1.927.371.639.907.957 1.608.957.572 0 1.041-.246 1.409-.738.321-.426.513-.951.575-1.577H2.566c-.258 0-.388-.122-.388-.363 0-.238.13-.357.388-.357h2.648c.259 0 .388.127.388.381M11.441 4.719c0 3.309-.851 4.964-2.554 4.964-1.802 0-2.704-1.847-2.704-5.539 0-1.557.073-2.613.22-3.168.058-.221.181-.332.369-.332.259 0 .388.128.388.383 0-.03-.004-.014-.013.049-.129.94-.194 1.954-.194 3.042 0 3.229.645 4.844 1.934 4.844 1.19 0 1.784-1.41 1.784-4.23 0-1.227-.106-2.479-.319-3.756V.913c0-.25.123-.375.369-.375.201 0 .328.104.382.313.084.292.163.938.238 1.94.067.881.1 1.523.1 1.928M17.513 9.564c0 .258-.129.388-.388.388-.183 0-.302-.094-.356-.282l-.771-2.678-3.01.087-.795 2.829c-.05.18-.171.269-.363.269-.254 0-.382-.123-.382-.369 0-.038.004-.071.013-.1L14.115.281c.054-.187.173-.281.356-.281.196 0 .322.09.376.269L17.5 9.465a.326.326 0 0 1 .013.099m-1.721-3.28l-1.308-4.513-1.29 4.588 2.598-.075zM26.476 6.772c0 1.089-.557 1.907-1.672 2.454-.863.421-1.908.632-3.135.632-.318 0-.476-.128-.476-.382l.05-8.869c0-.259.183-.389.551-.389 1.072 0 1.988.157 2.748.47 1.039.426 1.558 1.094 1.558 2.003 0 .506-.213.939-.638 1.303-.351.304-.812.533-1.384.687.693.088 1.254.301 1.684.639.476.376.714.859.714 1.452m-.77.003c0-.652-.413-1.122-1.239-1.41-.577-.201-1.3-.301-2.172-.301h-.32l-.025 4.074c.973-.016 1.79-.185 2.454-.508.868-.414 1.302-1.032 1.302-1.855m-.363-4.087c0-.629-.412-1.097-1.233-1.405-.614-.23-1.317-.34-2.11-.332l-.025 3.392h.332c.739 0 1.375-.101 1.909-.305.751-.284 1.127-.734 1.127-1.35M32.422 9.564c0 .258-.129.388-.388.388-.183 0-.302-.094-.356-.282l-.77-2.678-3.011.087-.795 2.829c-.05.18-.171.269-.363.269-.254 0-.382-.123-.382-.369 0-.038.005-.071.012-.1L29.024.281c.054-.187.173-.281.356-.281.196 0 .322.09.376.269l2.653 9.196a.326.326 0 0 1 .013.099m-1.721-3.28l-1.308-4.513-1.29 4.588 2.598-.075zM38.118 5.589c0 1.11-.188 2.041-.563 2.791-.489.969-1.232 1.453-2.229 1.453-.976 0-1.727-.445-2.253-1.334-.438-.738-.657-1.63-.657-2.678 0-1.107.196-2.177.588-3.211.513-1.353 1.227-2.029 2.14-2.029.998 0 1.774.621 2.329 1.86.43.968.645 2.017.645 3.148m-.77.012c0-.896-.155-1.764-.463-2.605-.413-1.129-.993-1.694-1.741-1.694-.642 0-1.151.596-1.526 1.787a8.91 8.91 0 0 0-.432 2.705c0 .834.147 1.553.444 2.157.384.775.949 1.162 1.696 1.162.751 0 1.3-.425 1.646-1.275.251-.608.376-1.354.376-2.237"/></g></svg>