<svg xmlns="http://www.w3.org/2000/svg" viewBox="0 0 47.507 9.436"><path d="M0 4.744v-.026C0 2.124 2.02 0 4.782 0c1.642 0 2.633.443 3.584 1.252L7.102 2.776c-.704-.586-1.329-.925-2.385-.925-1.459 0-2.618 1.29-2.618 2.841v.026c0 1.669 1.146 2.893 2.761 2.893.731 0 1.382-.182 1.89-.547V5.761H4.73V4.028h3.962V7.99c-.938.794-2.229 1.446-3.897 1.446C1.954 9.436 0 7.442 0 4.744m12.796.938L9.29.157h2.345l2.177 3.662L16.028.157h2.28l-3.505 5.486v3.636h-2.007zm5.576-.938v-.026C18.372 2.124 20.417 0 23.233 0c2.815 0 4.834 2.098 4.834 4.692v.026c0 2.594-2.046 4.718-4.86 4.718-2.816 0-4.835-2.098-4.835-4.692m7.597 0v-.026c0-1.564-1.147-2.867-2.762-2.867-1.616 0-2.737 1.277-2.737 2.841v.026c0 1.565 1.147 2.867 2.763 2.867 1.616 0 2.736-1.277 2.736-2.841m3.152 3.011l5.018-5.839h-4.862V.157h7.442v1.525L31.702 7.52h5.017v1.76h-7.598zM41.747.092h1.851l3.909 9.188H45.41l-.834-2.046h-3.858l-.834 2.046h-2.046L41.747.092zm2.112 5.369l-1.212-2.958-1.212 2.958h2.424z" fill="#4c9761"/></svg>