<svg xmlns="http://www.w3.org/2000/svg" viewBox="0 0 42.509 9.436"><path d="M.469 5.639a1.303 1.303 0 0 1-.33-.096A.226.226 0 0 1 0 5.32c0-.093.034-.185.101-.278a5.1 5.1 0 0 1 .224-.282 2.93 2.93 0 0 0 .23-.31.825.825 0 0 0 .127-.357 57.794 57.794 0 0 0 .059-1.097c.01-.249.023-.51.037-.784.014-.274.025-.534.032-.783L.831.763C.839.567.842.423.842.331A.884.884 0 0 1 1.05.165a.94.94 0 0 1 .272-.111.436.436 0 0 1 .261.016c.081.031.144.108.186.229l-.064 4.007c.029-.006.129-.01.299-.01.171 0 .38-.002.629-.006.249-.003.524-.012.826-.026.302-.014.595-.038.879-.069.284-.032.544-.073.779-.123.234-.05.416-.117.543-.203L5.703.267c.021-.057.072-.102.154-.133.082-.033.176-.056.283-.069a2.241 2.241 0 0 1 .554-.011c0 .163.004.403.01.719.008.316.019.67.033 1.06.014.391.026.802.037 1.232.011.43.023.84.037 1.231l.038 1.061c.01.316.02.556.026.719.015.235.033.477.054.725.021.249.055.496.101.741s.107.485.181.72c.074.234.169.454.283.66-.207.206-.409.332-.608.379-.199.046-.437-.002-.714-.144a5.756 5.756 0 0 1-.309-.992 10.999 10.999 0 0 1-.182-1.082 16.934 16.934 0 0 1-.09-1.087 32.571 32.571 0 0 1-.037-1.018c-.37-.007-.704-.012-1.002-.016-.299-.004-.59.006-.874.027a6.016 6.016 0 0 0-.88.133 9.402 9.402 0 0 0-1.007.293 17.13 17.13 0 0 0-.048 1.828c.011.331.032.66.063.986.033.327.081.636.145.928l-1.002.106-.48-3.624zm8.143 3.752c-.027.035-.087.05-.175.043a1.021 1.021 0 0 1-.272-.064 1.195 1.195 0 0 1-.24-.123c-.068-.046-.094-.087-.08-.122.057-.142.136-.35.24-.624.103-.274.22-.59.352-.949l.421-1.156a334.078 334.078 0 0 1 .922-2.521c.152-.416.293-.801.421-1.157l.341-.943c.1-.273.177-.485.234-.634.057-.163.096-.315.118-.453.021-.139.055-.258.101-.357a.495.495 0 0 1 .213-.23c.096-.053.247-.08.453-.08.334.264.618.581.853.954s.442.754.623 1.141c.182.388.352.758.512 1.114.16.355.333.643.517.863a.317.317 0 0 0 .24.145c.103.01.219.007.346-.012a3.1 3.1 0 0 0 .39-.079c.131-.036.25-.059.357-.07.106-.01.193 0 .261.032.067.032.101.105.101.218.028.15.018.267-.032.353a.514.514 0 0 1-.224.202c-.099.05-.209.085-.33.107a9.369 9.369 0 0 1-.336.053 1.621 1.621 0 0 0-.256.053c-.068.021-.094.054-.08.096l.283.874c.103.32.218.64.346.96.128.319.267.628.416.927.149.298.312.554.49.767a.473.473 0 0 1-.112.278 1.156 1.156 0 0 1-.565.405c-.096.028-.165.018-.207-.032l-1.877-3.966-3.634.896-.16.624c-.071.273-.157.564-.256.873-.1.31-.21.61-.331.901-.12.291-.248.522-.384.693m2.932-7.824c-.092.363-.199.714-.32 1.055-.121.342-.245.668-.373.981-.128.313-.254.611-.378.896-.125.283-.233.547-.325.788.255 0 .511-.027.767-.08.256-.053.504-.12.746-.202.242-.082.476-.169.704-.262.227-.092.444-.177.65-.255a13.761 13.761 0 0 1-.235-.581 15.57 15.57 0 0 0-.346-.826 12.553 12.553 0 0 0-.426-.853 3.19 3.19 0 0 0-.464-.661m5.117 3.987c0-.796.133-1.532.399-2.207a5.55 5.55 0 0 1 1.093-1.758A4.977 4.977 0 0 1 19.784.422 4.845 4.845 0 0 1 21.798 0c.292 0 .535.018.731.053.195.036.353.11.474.224a.975.975 0 0 1 .261.48c.053.206.08.483.08.832-.412-.384-.851-.622-1.316-.715a2.845 2.845 0 0 0-1.37.059 3.814 3.814 0 0 0-1.274.666 5.015 5.015 0 0 0-1.705 2.478 3.646 3.646 0 0 0-.155 1.466c.093.505.235.929.426 1.274.192.345.428.622.71.831.28.21.6.359.959.448.358.089.748.133 1.167.133a5.04 5.04 0 0 0 1.38-.287c.395-.15.757-.328 1.087-.534a9.29 9.29 0 0 0 .95-.676c.301-.246.619-.485.953-.72.064 0 .129.004.197.011.068.006.13.023.187.048a.321.321 0 0 1 .139.117.373.373 0 0 1 .053.208c-.356.341-.738.682-1.146 1.023a9.44 9.44 0 0 1-1.301.912c-.457.266-.937.479-1.438.639s-1.015.23-1.541.208c-.469 0-.922-.087-1.359-.261-.437-.174-.826-.421-1.167-.741s-.613-.702-.816-1.146a3.523 3.523 0 0 1-.303-1.476m9.327 3.837c-.028.035-.087.05-.176.043a1.005 1.005 0 0 1-.271-.064 1.205 1.205 0 0 1-.241-.123c-.067-.046-.094-.087-.08-.122.057-.142.137-.35.241-.624a251.842 251.842 0 0 0 .772-2.105c.149-.412.302-.832.459-1.258.155-.426.31-.848.463-1.263.153-.416.293-.801.421-1.157l.341-.943c.1-.273.178-.485.235-.634.057-.163.096-.315.117-.453.022-.139.055-.258.101-.357a.495.495 0 0 1 .213-.23c.096-.053.248-.08.454-.08.334.264.618.581.852.954.235.373.443.754.624 1.141.181.388.352.758.511 1.114.161.355.333.643.518.863a.314.314 0 0 0 .239.145c.103.01.219.007.347-.012a3.12 3.12 0 0 0 .389-.079c.131-.036.25-.059.357-.07a.5.5 0 0 1 .261.032c.067.032.101.105.101.218.028.15.018.267-.032.353a.512.512 0 0 1-.223.202c-.1.05-.21.085-.331.107a9.369 9.369 0 0 1-.336.053 1.582 1.582 0 0 0-.255.053c-.068.021-.095.054-.08.096l.282.874c.103.32.219.64.347.96.127.319.266.628.415.927.149.298.313.554.491.767a.475.475 0 0 1-.113.278 1.156 1.156 0 0 1-.565.405c-.095.028-.165.018-.207-.032l-1.877-3.966-3.634.896-.16.624c-.071.273-.156.564-.256.873-.099.31-.209.61-.33.901a2.96 2.96 0 0 1-.384.693m2.931-7.824c-.092.363-.199.714-.32 1.055-.12.342-.244.668-.372.981-.129.313-.255.611-.379.896-.125.283-.233.547-.325.788.256 0 .511-.027.768-.08.255-.053.504-.12.746-.202.241-.082.476-.169.703-.262.228-.092.444-.177.65-.255a15.655 15.655 0 0 1-.234-.581c-.1-.259-.216-.535-.347-.826a11.688 11.688 0 0 0-.426-.853 3.19 3.19 0 0 0-.464-.661m5.127 3.624a5.229 5.229 0 0 1 .235-1.865 5.44 5.44 0 0 1 .836-1.663A4.3 4.3 0 0 1 36.444.485a3.189 3.189 0 0 1 1.717-.41 3.375 3.375 0 0 1 1.54.261c.508.21.967.519 1.375.928.409.408.744.902 1.007 1.481a4.97 4.97 0 0 1 .426 1.924c0 1.464-.35 2.55-1.049 3.257-.7.707-1.765 1.06-3.193 1.06a6.306 6.306 0 0 1-1.679-.213 3.673 3.673 0 0 1-1.338-.666 3.086 3.086 0 0 1-.885-1.173c-.212-.479-.319-1.06-.319-1.743m1.087-.213c0 1.059.265 1.848.794 2.367.53.518 1.32.778 2.372.778.526 0 .989-.081 1.391-.24.401-.16.738-.387 1.007-.682a2.92 2.92 0 0 0 .613-1.055c.139-.409.208-.862.208-1.359a4.772 4.772 0 0 0-.304-1.573 3.824 3.824 0 0 0-.719-1.193 3.13 3.13 0 0 0-1.034-.763 3.014 3.014 0 0 0-1.258-.266 1.892 1.892 0 0 0-.847.154 2.924 2.924 0 0 0-.757.474 3.92 3.92 0 0 0-.634.704 4.741 4.741 0 0 0-.768 1.764 3.211 3.211 0 0 0-.064.89" fill="#4c9761"/></svg>