<svg xmlns="http://www.w3.org/2000/svg" viewBox="0 0 40.7 11.4"><style>.st0{display:none}.st1{display:inline}.st2{fill:#396}</style><g id="miso_miyagi" class="st0"><g class="st1"><path class="st2" d="M-17.8 9.3c-.1.2-.2.4-.5.4-.2 0-.4-.1-.5-.4l-2.4-6.6v8.4c0 .3-.2.4-.4.4h-.3c-.3 0-.4-.2-.4-.4V.1c0-.3.2-.4.4-.4h.4c.3 0 .4.1.5.4l2.6 7.5 2.7-7.5c.1-.2.3-.4.5-.4h.4c.3 0 .4.2.4.4v11c0 .3-.2.4-.4.4h-.2c-.3 0-.4-.2-.4-.4V2.8l-2.4 6.5zM-11.3 11.6h-.3c-.3 0-.4-.2-.4-.4V.2c0-.3.2-.4.4-.4h.3c.3 0 .5.2.5.4v11c-.1.3-.2.4-.5.4M-3.9 3.9h-.3c-.3 0-.4-.2-.4-.4V2.4c0-1.1-.5-1.6-1.5-1.6-1.1 0-1.5.5-1.5 1.6v.8c0 .8.3 1 1.1 1.5l1.5.9c.9.5 1.5 1.1 1.5 2.1v1.6c0 1.7-.9 2.5-2.7 2.5-1.8 0-2.7-.7-2.7-2.5V7.8c0-.3.2-.4.4-.4h.3c.3 0 .4.2.4.4V9c0 1.1.5 1.7 1.5 1.7 1.1 0 1.5-.5 1.5-1.7v-.9c.1-.8-.2-1.1-1-1.6l-1.7-.9C-8.5 5-9 4.5-9 3.5V2.1C-9 .4-7.9-.3-6.3-.3s2.7.8 2.7 2.4v1.4c.1.3-.1.4-.3.4M1.1-.4h.1C3-.4 4 .5 4 2.2v7.1c0 1.7-1 2.5-2.8 2.5h-.1c-1.8 0-2.8-.8-2.8-2.5V2.2c0-1.8 1-2.6 2.8-2.6m0 11.1c1.1 0 1.6-.5 1.6-1.7V2.5C2.7 1.3 2.2.8 1.1.8 0 .7-.5 1.2-.5 2.5V9c0 1.2.5 1.7 1.6 1.7M9.1 0h2.6l2.9 6.1L17.5 0h2.6v11.4h-2.8V6.3l-2.5 5.4h-.5l-2.5-5.5v5.1H9.1V0zm2.1 10.9V4.6L9.8 1.5v9.3h1.4zm6.1-6V2L15 6.9l.6 1.5 1.7-3.5zM21.9 0h2.8v11.4h-2.8V0zM24 6.8h-1.4v4.1H24V6.8zM29.9 5.9l-4-5.9H29l2.3 3.4L33.6 0h3.1l-4 5.9v5.5h-2.8V5.9zM35.6.6H34L31.7 4l.8 1.2L35.6.6zM40.5-.4h.5l5.6 11.7h-3l-.6-1.1h-4.5l-.5 1.2h-3L40.5-.4zm-3 11.3l1.2-2.6h-1.5L36 10.9h1.5zm4.6-2.7l-1.3-2.9-1.3 2.9h2.6zm2 2.7h1.6l-1.2-2.6H43l1.1 2.6zM52.2-.4c2.1 0 3.6.8 4.8 2l-2 1.8c-.8-.7-1.7-1.1-2.8-1.1-2 0-3.3 1.5-3.3 3.4 0 2.1 1.5 3.4 3.4 3.4 2 0 3-1.1 3-2.2H52V4.5h6.2v1.1c0 3.4-2 6.2-6.1 6.2-3.6 0-6.2-2.7-6.2-6.1.1-3.4 2.7-6.1 6.3-6.1m-3.9 4.9c.5-1.6 1.9-2.8 3.9-2.8 1 0 2 .4 2.8.9l1.1-1.1C55.1.6 53.8.1 52.2.1c-2.8 0-4.8 1.8-5.3 4.4h1.4zM60.1 0h2.8v11.4h-2.8V0zm2.1 6.8h-1.4v4.1h1.4V6.8z"/></g></g><g id="yalow_green" class="st0"><g class="st1"><path class="st2" d="M-31.1 6.7L-34.5.4h3.9l1.3 2.3L-28 .4h3.9l-3.4 6.3v4.8H-31V6.7zm2 3.5v-4l2.4-4.5h-.5l-2.1 3.9-2.1-3.9h-.6l2.4 4.5v4h.5zM-22.6.4h2.7l4.2 11.1h-3.5l-.4-1H-23l-.4 1h-3.5L-22.6.4zm-1.8 9.8l.3-.8h5.5l.3.8h.5L-21 1.7h-.6l-3.2 8.4h.4zm3.1-8.1l2.6 6.8h-5.2l2.6-6.8zm.7 5.9l-.7-1.9-.8 1.9h1.5zM-15.5.4h3.7v8.2h3.1v2.9h-6.8V.4zm5.8 9.8v-.4h-3.7v-8h-.4v8.4h4.1zM-8.9 5.9c0-.8.2-1.6.5-2.3.2-.6.7-1.3 1.2-1.8S-6.1.9-5.3.6C-4.6.3-3.8.1-3 .1c.8 0 1.6.2 2.3.5.6.3 1.2.7 1.7 1.2.6.5 1 1.2 1.3 1.9.3.7.5 1.5.5 2.3 0 .8-.2 1.6-.5 2.3-.3.6-.7 1.2-1.3 1.8-.5.5-1.1.9-1.9 1.2-.7.3-1.5.5-2.3.5-.8 0-1.6-.2-2.3-.5-.7-.3-1.3-.7-1.9-1.2-.5-.5-.9-1.1-1.2-1.9-.2-.7-.3-1.5-.3-2.3m1.5 0c0 .6.1 1.1.3 1.7.2.5.5 1 .9 1.4.4.4.8.7 1.4.9.5.2 1.1.3 1.7.3.6 0 1.1-.1 1.7-.3.5-.2 1-.5 1.4-.9.4-.4.7-.8.9-1.4.2-.5.3-1.1.3-1.7 0-.6-.1-1.1-.3-1.7-.2-.5-.5-1-.9-1.4-.5-.3-.9-.6-1.4-.8-.5-.2-1.1-.3-1.7-.3-.6 0-1.1.1-1.7.3-.5.2-1 .5-1.4.9-.3.4-.6.9-.8 1.4-.2.5-.4 1.1-.4 1.6m4.3 3.9c-.5 0-1-.1-1.5-.3-.4-.2-.8-.5-1.2-.9-.3-.3-.6-.8-.8-1.2-.2-.5-.3-1-.3-1.5s.1-1 .3-1.5c.2-.4.5-.8.8-1.2.4-.3.8-.6 1.2-.8.5-.2 1-.3 1.5-.3s1 .1 1.5.3c.5.2.9.5 1.2.8.4.4.6.8.8 1.3.2.5.3 1 .3 1.5S.6 7 .4 7.5c-.2.4-.4.8-.8 1.1s-.8.6-1.2.8c-.5.3-1 .4-1.5.4m-2.3-3.9c0 .3.1.6.2.9.1.3.3.5.5.7s.4.5.7.6c.3.1.6.2.9.2.3 0 .6-.1.9-.2.3-.1.5-.3.8-.5.2-.2.4-.5.5-.7.1-.3.2-.6.2-.9 0-.3-.1-.6-.2-.9-.1-.3-.3-.5-.5-.7-.2-.2-.5-.4-.7-.5-.3-.1-.6-.2-.9-.2-.3 0-.6.1-.9.2-.3.1-.5.3-.7.5-.3.1-.5.4-.6.6-.2.3-.2.6-.2.9M2.2.4H6l1.3 3.9L8.6.4H11l1.3 3.9L13.6.4h3.8l-3.7 11.1h-2.8L9.7 8.1l-1.1 3.4H5.8L2.2.4zm5.3 9.8l2.2-7 2.2 7h.4l2.8-8.4h-.4l-2.5 7.7-2.5-7.8-2.4 7.7-2.6-7.7h-.4l2.8 8.4h.4zM20.8 5.7c0-3.3 2.6-6 6.3-6 1.4 0 2.5.3 3.5.9.4.3.5.7.2 1.1l-.4.5c-.3.4-.6.4-1.1.2-.9-.5-1.5-.5-2.2-.5-2.1 0-3.6 1.6-3.6 3.7 0 2 1.3 3.7 3.7 3.7.7 0 1.4-.1 2-.5V7.1h-2c-.5 0-.8-.3-.8-.8v-.4c0-.5.3-.8.8-.8h3.7c.5 0 .8.3.8.8v3.4c0 .4-.1.7-.5 1-1.2.9-2.7 1.3-4 1.3-3.8.1-6.4-2.7-6.4-5.9M37.9 7.3h-1.5v3.4c0 .5-.3.8-.8.8h-1c-.5 0-.8-.3-.8-.8V.6c0-.5.3-.8.8-.8H39c2.5 0 3.9 1.8 3.9 3.9 0 1.7-.9 3.1-2.6 3.5.1 1.2.8 2.4 1.8 2.4.3 0 .5 0 .8-.1.5-.2.7-.1.9.4l.2.3c.2.4.2.8-.2 1.1-.6.3-1.3.5-2 .5-3-.1-3.7-3.2-3.9-4.5m.8-1.9c.9 0 1.5-.7 1.5-1.7S39.6 2 38.7 2h-2.3v3.4h2.3zM48.1 2.1v2.6h3.8c.5 0 .8.3.8.8v.4c0 .5-.3.8-.8.8h-3.8v2.5h4.4c.5 0 .8.3.8.8v.6c0 .5-.3.8-.8.8h-6.3c-.5 0-.8-.3-.8-.8V.6c0-.5.3-.8.8-.8h6.3c.5 0 .8.3.8.8v.6c0 .5-.3.8-.8.8h-4.4zM58.1 2.1v2.6h3.8c.5 0 .8.3.8.8v.4c0 .5-.3.8-.8.8h-3.8v2.5h4.4c.5 0 .8.3.8.8v.6c0 .5-.3.8-.8.8h-6.3c-.5 0-.8-.3-.8-.8V.6c0-.5.3-.8.8-.8h6.3c.5 0 .8.3.8.8v.6c0 .5-.3.8-.8.8h-4.4zM65.5 10.7V.6c0-.5.3-.8.8-.8h.6c.4 0 .7.1 1 .5l4.7 6.4V.6c0-.5.3-.8.8-.8h1c.5 0 .8.3.8.8v10.1c0 .5-.3.8-.8.8h-.6c-.4 0-.7-.2-1-.5l-4.7-6.5v6.2c0 .5-.3.8-.8.8h-1c-.5 0-.8-.3-.8-.8"/></g></g><g id="Layer_3"><path class="st2" d="M1.6 11.1c0-.1 0-.1 0 0H1.3l-.1-.1H1l-.1-.1H.8s-.1 0-.1-.1c-.1 0-.2-.1-.3-.2h.1v-.1-.1s-.1-.1-.1-.2v-.1-.1-.9V9 8.7v-.4V8v-.1-.5-.1V7c0-.2 0-.4-.1-.8v-.7-.4C0 5 0 5 0 4.9V4v-.1V2c0-.3 0-.4.1-.5v-.4c.1 0 .2 0 .2-.1h.5C.9 1 .9 1 .9.9c0 0 .1 0 .1.1h.5c.1.1.3.1.5.2l.2.2s0 .1.1.2V2c0 .1.1.3.1.4V5.4h.5s.1 0 .2.1h.1c0 .5.1.5.1.5l.2.2v-1-1.3-.6l.1-1V1.1c0-.3.1-.5.1-.5V.5h.2l.3.1h.2l.1.1h.1l.1.1H5c0 .1 0 .1.1.1 0 0 0 .1.1.1v.1s.1 0 .1.1v.3s.1.1.1.2v2.4V4 9.7l-.1.1V10.1l-.1.1-.1.1H5v.1h-.1c-.2 0-.4-.1-.4-.1-.1 0-.1 0-.1-.1 0 0-.1 0-.1-.1h-.2s0-.1-.1-.1c0 0 0-.1-.1-.1l-.1-.1h-.1s0-.1-.1-.2v-.2-.2V8.4v-.2V8 6.7v-.6V6h-.1-.1-.5s-.3-.1-.8-.2V9.2H2h.1v.6s-.1 0-.1.1h-.1V11s-.1 0-.3.1zM11.8 11.1h-.2-.1-.2l-.1-.1c-.1 0-.2-.1-.3-.1h-.1s0-.1-.1-.1h-.1s-.1-.1-.2-.1c-.1-.1-.2-.1-.2-.2 0 0-.1-.1-.1-.2v-.2-.1V9.7c0-.1-.1-.4-.1-.9v-.3c0-.1 0-.1-.1-.1h-.5c-.3 0-.5-.1-.5-.1v-.1h-.1c-.1 0-.1.1-.2.3 0 .2-.1.5-.1.9 0 0 0 .1-.1.2 0 .2-.1.3-.1.3l-.2.2c-.1 0-.2.1-.2.1h-.4s-.1-.1-.2-.1-.1-.1-.2-.1c0 0-.1-.1-.2-.1 0 0-.1-.1-.2-.1 0 0-.1 0-.2-.1 0 0 .1-.1.1-.3v-.1c0-.3.1-.8.3-1.5.1-.3.1-.7.2-1-.1-.3-.1-.5-.1-.5.1-.3.2-.6.2-.9 0 0 0-.1.1-.4.1-.1.1-.3.1-.5l.1-.2c0-.1.1-.2.1-.3 0 0 0-.1.1-.4 0 0 .1-.2.2-.5s.1-.6.2-.9c0-.1.1-.2.1-.2.1-.2.1-.4.2-.4h.1c0-.1.1-.2.2-.2h.2s.1 0 .2-.1H9.9s.1.1.2.1h.1c.1 0 .3.1.5.3 0 0 .1 0 .1.1h.1c0 .1.1.2.1.2.1.1.2.2.2.3.1 0 .1.1.1.3 0 0 .1.1.1.2.1.1.1.2.1.3 0 .1.1.2.1.5l.1.3v.3s0 .2.1.3v.4s.1.1.1.3c0 0 0 .2.1.6v.1s.1.2.1.6v.1c0 .5.1.8.1.9v.1c.1.3.1.4.1.6V9.2s.1.1.1.2V10.2h-.1l-.1.1v.1h-.1v.1H12l-.2.6c0-.1 0-.1 0 0zM9.4 7.6s.1 0 .1-.1h.2s0 .1.1.1h.1c-.1-1-.2-1.9-.2-2.7-.3.4-.3.7-.4.9-.1.5-.1.8-.2.8-.1.7-.2 1-.2 1h.5zM18 10.5c-.1 0-.1 0 0 0-.1-.1-.2-.1-.2-.1l-.1-.1h-.1v-.2l-.1-.1v.1h-.1V10c-.1 0-.1 0-.1-.1v-.2-.1-.1c-.1 0-.1 0-.1-.1l-.1-.1H17c0 .1 0 .1.1.1H17v-.2h.1-.2 0c-.1 0-.2-.1-.2-.2l.1-.1v-.3h.1v-.1h-.2.1c0-.1 0-.1-.1-.1 0 0 0-.1-.1-.1v-.2s-.1 0-.1-.1c0 0 0-.1.1-.1-.1 0-.1 0-.1-.1h.1l-.1-.1h0v-.1l.1-.1h-.1c0-.1 0-.1.1-.1h-.1v-.5h-.1v-.1-.2h.1-.1v-.1h0s0-.1-.1-.1v-.2s-.1-.1-.2-.4c-.1-.1-.1-.2-.1-.2 0-.2-.1-.3-.1-.3V6.7s0 .1.1.3V8.8s-.1.1-.1.2v.5c-.1.2-.2.3-.2.3s-.1 0-.1.1-.1.1-.1.1h-.1v.1c-.1 0-.1 0-.1-.1 0 0-.1 0-.2-.1H15c-.1 0-.1 0-.1-.1-.1 0-.3-.1-.4-.2 0 0-.1 0-.2-.1h-.1v.5-.4-.1-.1c0-.2-.1-.4-.1-.6v-.1c0-.1 0-.2-.1-.4v-.1c0-.3-.1-.5-.1-.5v-.1-.1-.3-1.1c0-.2-.1-.4-.1-.6v-.2s.1-.1.1-.2v-.2-.2V4.4v-.5-.2-.2-.1V2.8v-.2-.1h.1c0-.1.1-.1.1-.1l.1-.1h.1V2c-.1 0-.1 0-.1-.1-.1 0-.1 0-.1.1s0 .1-.1.1c0-.1 0-.1.1-.1 0-.1.1-.1.2-.2H14.5c0-.1-.1-.1-.1-.1h.1c-.1 0-.1-.1-.1-.1h.1l-.1-.1h-.1c0-.1-.1-.1-.2-.2v-.1h.1s0-.1.1-.1h.2v.1h.1v-.1V1v.1h.2V1v.1H15.1s.1.1.1.2v.2s.1 0 .1.1h-.1.1v.2s.1 0 .1.1c.1 0 .1 0 .1.1 0 0 0 .1.1.1 0 0 0 .1.1.2v.1s.1 0 .1.1l.1.1V2.9h.1v.2s.1.1.1.2v.4h.1v.1h.1v.1c.1.1.1.2.2.2 0 0 .1.1.1.3v.1l.1.1.1.1s.1 0 .1.1l.1.1v-.2-.1-.5-.2-.4c0-.1 0-.1-.1-.1V3.1v-.2-.2-.1s0-.1.1-.1v-.1-.2-.1-.2-.2-.2-.1V1H17.3c-.1 0-.2-.1-.2-.2V.6h.1v.1-.3c-.1 0-.1 0-.1-.1 0 0 .1-.1.2-.1s.1-.1.2-.1h.5s0-.1.1-.1h.1l.1.1h.1c.1 0 .1 0 .1.1 0 0 0 .1.1.1s.1.1.1.2c0 0 .1 0 .1.1v.1l-.1.1V1.1h-.1c.1 0 .1 0 .2.1 0 0 0 .1.1.2v.1h-.1l.1.1V1.9l.1.1V2.3h-.1c.1 0 .1 0 .1.1h-.1v.2s0 .1.1.1v.2h-.1.1V3.5h.1V4H19V5c0 .2-.1.2-.1.3V5.6c0 .1 0 .1-.1.1v.4h-.1v.7s0 .1-.1.1c0 .2 0 .2-.1.2h.1v.1c-.1 0-.1.1-.1.1v.1h-.1-.1V7.7h.1v.6h-.1c.1 0 .1 0 .1.1.1 0 .1 0 .1.1 0 0 0 .1-.1.1h.1v.1h-.1-.1c-.1 1.8-.2 1.8-.3 1.8v-.1.1M25.4 11.1h-.2-.1-.2l-.1-.1c-.1 0-.2-.1-.3-.1h-.1s0-.1-.1-.1h-.1s-.1-.1-.2-.1c-.1-.1-.2-.1-.2-.2 0 0-.1-.1-.1-.2v-.2-.1V9.7c0-.1-.1-.4-.1-.9v-.3c0-.1 0-.1-.1-.1h-.4c-.3-.1-.5-.2-.5-.2v-.1h-.1c-.1 0-.1.1-.2.3 0 .2-.1.5-.1.9 0 0 0 .1-.1.2 0 .2-.1.3-.1.3l-.2.2c-.1 0-.2.1-.2.1h-.4s-.1-.1-.2-.1-.1-.1-.2-.1c0 0-.1-.1-.2-.1 0 0-.1-.1-.2-.1 0 0-.1 0-.2-.1 0 0 .1-.1.1-.3v-.1c0-.3.1-.8.3-1.5.1-.3.1-.7.2-1 .1-.4.1-.6.1-.7.1-.3.1-.6.2-.9 0 0 0-.1.1-.4-.2.2-.2.1-.2-.2l.1-.2c0-.1.1-.2.1-.3 0 0 0-.1.1-.4 0 0 .1-.2.2-.5.1-.4.2-.6.2-.9 0-.1.1-.2.1-.2.1-.2.1-.4.2-.4h.1c0-.1.1-.2.2-.2h.2s.1 0 .2-.1H23.5s.1.1.2.1h.1c.1 0 .3.1.5.3 0 0 .1 0 .1.1h.1c0 .1.1.2.1.2.1.1.2.2.2.3.1 0 .1.1.1.3 0 0 .1.1.1.2.1.1.1.2.1.3 0 .1.1.2.1.5l.1.3v.3s0 .2.1.3v.4s.1.1.1.3c0 0 0 .2.1.6v.1s.1.2.1.6v.1c0 .5.1.8.1.9v.1c.1.3.1.4.1.6V9.2s.1.1.1.2V10.2h-.1l-.1.1v.1h-.1v.1h-.1l-.2.6c0-.1 0-.1 0 0zM23 7.6s.1 0 .1-.1h.2s0 .1.1.1h.1c-.1-1-.2-1.9-.2-2.7-.3.4-.3.7-.4.9-.1.5-.2.8-.2.9-.2.6-.2.9-.2 1h.5zM32.3 11.2h-.2-.1-.1c-.1 0-.2-.1-.2-.2v-.1-.1l-.1-.1v-.1-.2c0-.1 0-.3.1-.6v-.6-.4-.5V8v-.2-.1-.2V6v-.1-.2c0-.4 0-.7.1-1.1V4c0 .1 0 .1-.1.2-.1 0-.2.1-.2.1h-.1H31.1s-.1-.1-.3-.1c0 0-.1 0-.2-.1-.3 0-.7-.3-1.1-.8 0 0 0-.1-.1-.1 0 0 0 .1-.1.1v.1h.1V5.8s0 .3-.1.6c0 .2 0 .3-.1.3L29 7v.1s0 .5-.1 1.5v.6c0 .1 0 .3.1.6 0 .1-.1.2-.2.3 0 0-.1.1-.2.1h-.2-.2-.1H27.8s-.2 0-.4-.1h-.1-.2s-.1-.2-.1-.6v-.1.1s0-.2-.1-.6v-.1c0-.1 0-.4.1-.9v-.2-.1V7.3 7c0-.1.1-.4.2-.9v-.3-.6-.5c0-.2 0-.5.1-.8v-.3-.4V2.4 2c0-.2.1-.3.1-.5v-.1s0-.1.1-.2h-.1v-.1h.4V1H28.1s.1 0 .1-.1h.1s0 .1.1.1h.1c.1 0 .1.1.1.1s.1.1.1.2h.1c.1.2.2.3.2.3l.2.2c.1.1.2.1.3.2v.1c.3.3.4.6.5.7.1.2.2.2.2.3 0 0 .1-.2.2-.5.5-.8.6-1 .6-1.1 0 0 .1-.1.2-.3.1-.2.2-.3.2-.4 0-.1.1-.1.2-.2h1c.2.1.4.1.4.1h.1s0 .1.1.1v.1c.1.1.1.2.2.3v.1l.1.2c0 .1 0 .1.1.1 0 .4 0 .5.1.5V6.9c0 .1 0 .1-.1.1v.1l.1.1v.2c0 .2 0 .3-.1.4l.1.4v1.1s-.1 0-.1.1 0 .1-.1.1v.1c0 .2-.1.2-.1.3 0 .1-.1.2-.2.2v.1l-.2.9h-.1v0h-.2l-.4.1zM36.4 11.4h-.2v-.1h-.4s0-.1-.1-.1c0 0-.1 0-.1-.1 0 0-.1-.1-.2-.1v-.4h.1s-.1 0-.1-.1v-.1h.1c-.1 0-.2 0-.2-.1v-.2V9.8v-.1s.1 0 .1-.1h-.1v-.1-.1C35 9 35 9 35 8.9v-.1-.1-.1-.4-.1-.2-.1h.1v-.2s.1 0 .1-.1h-.1v-.1-.1C35 7.1 35 7 35 7v-.6V6v-.1-.1V5.2 5v-.7V4c0-.6.1-.9.1-1v-.1h.2l.1.1c.1 0 .1 0 .1-.1H35.8l.1-.1H36.2s.1 0 .1.1c.5 0 .7.1.7.1.1.1.2.1.2.2v4.2L37 8V9.6l.1.1H37v.1c0 .1 0 .1-.1.1V11.1c-.1 0-.1 0-.1.1h-.1c0 .1 0 .1-.1.1l-.2.1c.1 0 .1 0 0 0m.1-9.4h-.3s-.1-.1-.2-.1h-.1s-.1 0-.2-.1h-.1v-.1h-.1v-.1l-.1-.1s0-.1-.1-.1c-.1-.2-.1-.4-.1-.6V.6h1.1c.1 0 .2 0 .3.1.1.1.2.1.2.2.1 0 .1 0 .1.1 0 0 .1.1.1.3v.2s.1 0 .1.1v.1c0 .1-.1.1-.2.2V2h-.4c.1 0 .1 0 0 0 .1 0 0 0 0 0M39.9 11.4h-.2v-.1h-.4s0-.1-.1-.1c0 0-.1 0-.1-.1 0 0-.1-.1-.2-.1v-.4h.1s-.1 0-.1-.1v-.1h.1c-.1 0-.2 0-.2-.1v-.2V9.8v-.1s.1 0 .1-.1h-.1v-.1-.1s0-.1.1-.2v-.4-.1-.1-.4-.1-.2-.1h.1v-.2s.1 0 .1-.1H39v-.1-.1V7v-.6V6v-.1-.1V5.2 5v-.7V4c0-.6.1-.9.1-1v-.1h.2l.1.1c.1 0 .1 0 .1-.1H39.8l.1-.1H40.2s.1 0 .1.1l.2.1c.1.1.2.1.2.2V7.6c0 .1.1.1.1.2V9.2l.1.1h-.1v.1c0 .1 0 .1-.1.1v1.6c-.1 0-.1 0-.1.1h-.1c0 .1 0 .1-.1.1l-.5.1c.1 0 .1 0 0 0M40 2h-.3s-.1-.1-.2-.1h-.1s-.1 0-.2-.1h-.1v-.1H39v-.1l-.1-.1s0-.1-.1-.1c-.1-.2-.1-.4-.1-.6V.6h1.1c.1 0 .2 0 .3.1.1.1.2.1.2.2.1 0 .1 0 .1.1 0 0 .1.1.1.3v.2s.1 0 .1.1v.1c0 .1-.1.1-.2.2V2H40c.1 0 .1 0 0 0 .1 0 0 0 0 0"/></g></svg>