<svg xmlns="http://www.w3.org/2000/svg" viewBox="0 0 85.1 12.1"><style>.st0{fill:#396}.st1{display:none}.st2{display:inline}</style><g id="miso_miyagi"><path class="st0" d="M4.4 9.7c0 .2-.2.4-.4.4s-.4-.1-.5-.4L1.1 3.1v8.4c0 .3-.1.5-.4.5H.4c-.2 0-.4-.2-.4-.5V.5C0 .2.2.1.4.1h.4c.3 0 .4.1.5.4L3.9 8 6.6.5c.1-.2.3-.4.5-.4h.4c.3 0 .5.2.5.5v11c0 .2-.2.4-.5.4h-.3c-.3 0-.4-.2-.4-.4V3.1L4.4 9.7zM10.9 12h-.3c-.3 0-.4-.2-.4-.4V.6c0-.3.2-.4.4-.4h.3c.3 0 .5.2.5.4v11c0 .2-.2.4-.5.4M18.3 4.3H18c-.3 0-.4-.2-.4-.4V2.7c0-1.1-.5-1.6-1.5-1.6-1.1 0-1.5.5-1.5 1.6v.8c0 .8.3 1 1.1 1.5l1.7.9c.9.5 1.5 1.1 1.5 2.1v1.6c0 1.7-.9 2.5-2.7 2.5-1.8 0-2.7-.7-2.7-2.5V8.1c0-.3.2-.4.4-.4h.1c.3 0 .4.2.4.4v1.3c0 1.1.5 1.7 1.5 1.7 1.1 0 1.5-.5 1.5-1.7v-1c0-.8-.3-1.1-1.1-1.6L14.8 6c-1-.6-1.5-1.1-1.5-2.1V2.4C13.3.8 14.4 0 16 0s2.7.8 2.7 2.4v1.4c0 .3-.1.5-.4.5M23.3 0h.1c1.8 0 2.8.8 2.8 2.5v7.1c0 1.7-1 2.5-2.8 2.5h-.1c-1.8 0-2.8-.8-2.8-2.5V2.5c0-1.7 1-2.5 2.8-2.5m.1 11c1.1 0 1.6-.5 1.6-1.7V2.8c0-1.2-.5-1.7-1.6-1.7s-1.6.5-1.6 1.7v6.5c-.1 1.2.4 1.7 1.6 1.7M31.3.4h2.6l2.9 6.1L39.7.4h2.6v11.4h-2.8V6.7L37 12.1h-.5L34 6.6v5.1h-2.8V.4zm2.1 10.8V5L32 1.9v9.3h1.4zm6.1-6V2.3l-2.3 4.9.6 1.5 1.7-3.5zM44.1.4h2.8v11.4h-2.8V.4zm2.1 6.8h-1.4v4.1h1.4V7.2zM52.1 6.3l-4-5.9h3.1l2.3 3.4L55.8.4h3.1l-4 5.9v5.5h-2.8V6.3zM57.8.9h-1.6L54 4.3l.8 1.2 3-4.6zM62.8 0h.5l5.6 11.7h-3l-.6-1.2h-4.5l-.5 1.2h-3L62.8 0zm-3.1 11.2L61 8.6h-1.5l-1.2 2.6h1.4zm4.6-2.6L63 5.7l-1.3 2.9h2.6zm2 2.6h1.6l-1.2-2.6h-1.5l1.1 2.6zM74.4 0c2.1 0 3.6.8 4.8 2l-1.9 1.8c-.8-.7-1.7-1.1-2.8-1.1-2 0-3.3 1.5-3.3 3.4 0 2.1 1.5 3.4 3.4 3.4 2 0 3-1.1 3-2.2h-3.2V4.9h6.2V6c0 3.4-2 6.2-6.1 6.2-3.6 0-6.2-2.7-6.2-6.1 0-3.4 2.5-6.1 6.1-6.1m-3.9 4.9c.5-1.6 1.9-2.8 3.9-2.8 1 0 2 .4 2.8.9l1.1-1c-1-.9-2.3-1.4-3.9-1.4-2.8 0-4.8 1.8-5.3 4.4h1.4zM82.3.4h2.8v11.4h-2.8V.4zm2.1 6.8H83v4.1h1.4V7.2z"/></g><g id="yalow_green" class="st1"><g class="st2"><path class="st0" d="M-8.9 7.1L-12.3.8h3.9l1.3 2.3L-5.8.8h3.9l-3.4 6.3v4.8h-3.5V7.1zm2 3.4v-4L-4.5 2H-5l-2.1 4-2.1-3.9h-.5l2.4 4.5v4h.4zM-.4.7h2.7l4.2 11.1H3l-.4-1H-.8l-.4 1h-3.5L-.4.7zm-1.7 9.8l.3-.8h5.5l.3.8h.5L1.2 2.1H.6l-3.2 8.4h.5zm3-8l2.6 6.8h-5.2L.9 2.5zm.8 5.9l-.8-2-.7 2h1.5zM6.7.7h3.7v8.2h3.1v2.9H6.7V.7zm5.8 9.8v-.4H8.8v-8h-.4v8.4h4.1zM13.3 6.3c0-.8.2-1.6.5-2.3.3-.7.7-1.3 1.2-1.9s1.1-.9 1.9-1.2c.7-.3 1.5-.5 2.3-.5.8 0 1.6.2 2.3.5.7.3 1.3.7 1.9 1.2.5.5.9 1.1 1.2 1.9.2.7.4 1.5.4 2.3 0 .8-.2 1.6-.5 2.3-.3.7-.7 1.3-1.2 1.9-.5.5-1.1.9-1.9 1.2-.7.3-1.5.5-2.3.5-.8 0-1.6-.2-2.3-.5-.7-.3-1.3-.7-1.9-1.2-.5-.5-.9-1.1-1.2-1.9-.2-.8-.4-1.5-.4-2.3m1.6 0c0 .6.1 1.1.3 1.7.2.5.5 1 .9 1.4.4.4.8.7 1.4.9.5.2 1.1.3 1.7.3.6 0 1.1-.1 1.7-.3.5-.2 1-.5 1.4-.9.4-.4.7-.8.9-1.4.2-.5.3-1.1.3-1.7 0-.6-.1-1.1-.3-1.7-.2-.5-.5-1-.9-1.4-.4-.4-.8-.7-1.4-.9-.6-.2-1.2-.3-1.8-.3-.6 0-1.1.1-1.7.3-.5.2-1 .5-1.4.9-.4.4-.7.8-.9 1.4-.1.6-.2 1.1-.2 1.7m4.2 3.8c-.5 0-1-.1-1.5-.3-.5-.2-.9-.5-1.2-.8-.3-.3-.6-.8-.8-1.2-.2-.5-.3-1-.3-1.5s.1-1 .3-1.5c.2-.5.5-.9.8-1.2.3-.4.8-.6 1.2-.8.5-.2 1-.3 1.5-.3s1 .1 1.5.3c.5.2.9.5 1.2.8.4.3.6.8.8 1.2.2.5.3 1 .3 1.5s-.1 1-.3 1.5c-.2.5-.5.9-.8 1.2s-.8.6-1.2.8c-.4.2-.9.3-1.5.3m-2.3-3.8c0 .3.1.6.2.9.1.3.3.5.5.7s.5.4.7.5c.3.1.6.2.9.2.3 0 .6-.1.9-.2.3-.1.5-.3.7-.5.2-.2.4-.5.5-.7.1-.3.2-.6.2-.9 0-.3-.1-.6-.2-.9-.1-.3-.3-.5-.5-.7-.2-.2-.5-.4-.7-.5-.2-.2-.5-.2-.9-.2-.3 0-.6.1-.9.2-.3.1-.5.3-.7.5-.2.2-.4.5-.5.7-.1.3-.2.6-.2.9M24.4.7h3.8l1.3 3.9L30.8.7h2.4l1.3 3.9L35.8.7h3.8l-3.7 11.1H33l-1.1-3.4-1.1 3.4H28L24.4.7zm5.3 9.8l2.2-7 2.2 7h.4l2.8-8.4h-.4l-2.5 7.7L32 2.1l-2.4 7.7L27 2.1h-.4l2.8 8.4h.3zM43 6c0-3.3 2.6-6 6.3-6 1.4 0 2.5.3 3.5.9.5.3.5.7.2 1.1l-.4.5c-.3.5-.6.5-1.1.3-.9-.5-1.5-.5-2.2-.5-2.1 0-3.6 1.6-3.6 3.7 0 2 1.3 3.7 3.7 3.7.7 0 1.4-.1 2-.5V7.5h-2c-.5 0-.8-.3-.8-.8v-.4c0-.5.3-.8.8-.8h3.7c.5 0 .8.3.8.8v3.4c0 .4-.1.7-.5 1-1.2.9-2.7 1.3-4 1.3-3.8 0-6.4-2.7-6.4-6M60.2 7.7h-1.5V11c0 .5-.3.8-.8.8h-1c-.5 0-.8-.3-.8-.8V1c0-.5.3-.8.8-.8h4.5c2.5 0 3.9 1.8 3.9 3.9 0 1.7-.9 3.1-2.6 3.5.1 1.2.8 2.4 1.8 2.4.3 0 .5 0 .8-.1.5-.2.7-.1.9.4l.2.3c.2.4.2.8-.2 1.1-.6.3-1.3.5-2 .5-3.2-.2-3.9-3.2-4-4.5m.7-1.9c.9 0 1.5-.7 1.5-1.7s-.6-1.7-1.5-1.7h-2.3v3.4h2.3zM70.3 2.4V5h3.8c.5 0 .8.3.8.8v.4c0 .5-.3.8-.8.8h-3.8v2.5h4.4c.5 0 .8.3.8.8v.7c0 .5-.3.8-.8.8h-6.3c-.5 0-.8-.3-.8-.8V1c0-.5.3-.8.8-.8h6.3c.5 0 .8.3.8.8v.6c0 .5-.3.8-.8.8h-4.4zM80.3 2.4V5h3.8c.5 0 .8.3.8.8v.4c0 .5-.3.8-.8.8h-3.8v2.5h4.4c.5 0 .8.3.8.8v.7c0 .5-.3.8-.8.8h-6.3c-.5 0-.8-.3-.8-.8V1c0-.5.3-.8.8-.8h6.3c.5 0 .8.3.8.8v.6c0 .5-.3.8-.8.8h-4.4zM87.7 11V1c0-.5.3-.8.8-.8h.6c.4 0 .7.1 1 .5l4.7 6.4V1c0-.5.3-.8.8-.8h1c.5 0 .8.3.8.8v10c0 .5-.3.8-.8.8H96c-.4 0-.7-.2-1-.5l-4.7-6.5V11c0 .5-.3.8-.8.8h-1c-.5 0-.8-.2-.8-.8"/></g></g><g id="Layer_3" class="st1"><g class="st2"><path class="st0" d="M23.9 11.4h-.2l-.1-.1h-.2l-.1-.1h-.1s-.1 0-.1-.1c-.1 0-.2-.1-.3-.2h.1v0s-.1-.1-.1-.2v-.1-.1-.9-.1V9.2v-.4V8.5v-.1-.5-.1-.3c0-.2 0-.4-.1-.8V6v-.4-1.3-.1V2.4v-.1c0-.3 0-.4.1-.5V1.5c.1 0 .2 0 .2-.1h.5c.1 0 .1 0 .1-.1 0 0 .1 0 .1.1h.5c.1.1.3.1.5.2l.2.2s0 .1.1.2v.4c0 .1.1.3.1.4V5.9h.5s.1 0 .2.1h.1c.2.1.3.1.3.2l.2.2v-1-1.3-.6l.1-1V1.3c0-.3.1-.5.1-.5V.7h.2l.3.1h.2l.1.1h.1l.1.1H27.9c0 .1 0 .1.1.1 0 0 0 .1.1.1v.1s.1 0 .1.1v.3s.1.1.1.2V10.1l-.1.1V10.5l-.1.1-.1.1h-.1v.1h-.1c-.2 0-.4-.1-.4-.1-.1 0-.1 0-.1-.1 0 0-.1 0-.1-.1h-.1s0-.1-.1-.1c0 0 0-.1-.1-.1l-.1-.1h-.1s0-.1-.1-.2v-.2-.2V8.8v-.2-.2-1.3-.6-.1h-.1-.1H26.1s-.3-.1-.8-.2v4.1h-.1.1v.6s-.1 0-.1.1h-.1v.1c-1 .2-1.1.3-1.2.3zM34 11.4h-.2-.1-.2l-.1-.1c-.1 0-.2-.1-.3-.1H33s0-.1-.1-.1h-.1s-.1-.1-.2-.1c-.1-.1-.2-.1-.2-.2 0 0-.1-.1-.1-.2v-.2-.1V10c0-.1-.1-.4-.1-.9v-.2c0-.1 0-.1-.1-.1h-.4c-.3-.1-.5-.2-.5-.2v-.1H31c-.1 0-.1.1-.2.3 0 .2-.1.5-.1.9 0 0 0 .1-.1.2 0 .2-.1.3-.1.3l-.2.2c-.1 0-.2.1-.2.1h-.4s-.1-.1-.2-.1-.1-.1-.2-.1c0 0-.1-.1-.2-.1 0 0-.1-.1-.2-.1 0 0-.1 0-.2-.1 0 0 .1-.1.1-.3v-.1c0-.3.1-.8.3-1.5.1-.3.1-.7.2-1 .1-.4.1-.6.1-.7.1-.3.1-.6.2-.9 0 0 0-.1.1-.4.1-.1.1-.3.1-.5l.1-.2c0-.1.1-.2.1-.3 0 0 0-.1.1-.4 0 0 .1-.2.2-.5.1-.4.2-.6.2-.9 0-.1.1-.2.1-.2-.1 0-.1-.1-.1-.1h.1c0-.1.1-.2.2-.2h.2s.1 0 .2-.1H32s.1.1.2.1h.1c.1 0 .3.1.5.3 0 0 .1 0 .1.1h.1c.2.1.3.2.3.3.1.1.2.2.2.3.1 0 .1.1.1.3 0 0 .1.1.1.2.1.1.1.2.1.3 0 .1.1.2.1.5l.1.3v.3s0 .2.1.3v.4s.1.1.1.3c0 0 0 .2.1.6v.1s.1.2.1.6v.1c0 .5.1.8.1.9v.1c.1.3.1.4.1.6v1.4s.1.1.1.2V11.1h-.1l-.1.1v.1h-.1v.1H34c.1 0 0 0 0 0zM31.6 8s.1 0 .1-.1h.2s0 .1.1.1h.1c-.1-1-.2-1.9-.2-2.7-.1.4-.2.7-.2.9-.1.5-.2.8-.2.9-.2.6-.2.9-.2 1h.4-.1zM40.2 10.9c-.1-.1-.2-.1-.2-.1l-.1-.1h-.1v-.2l-.1-.1v.1h-.1v-.1c-.1 0-.1 0-.1-.1v-.2-.1-.1c-.1 0-.1 0-.1-.1l-.1-.1h.1c0 .1 0 .1.1.1h-.1v-.2h.1-.2 0c-.1 0-.2-.1-.2-.2l.1-.1V9h.1v-.1h-.2.1c0-.1 0-.1-.1-.1 0 0 0-.1-.1-.1v-.3s-.1 0-.1-.1c0 0 0-.1.1-.1-.1 0-.1 0-.1-.1h.1l-.1-.1h0v-.1l.1-.1h-.1c0-.1 0-.1.1-.1h-.1v-.4h-.1v-.1V7h.1-.1v-.2h0s0-.1-.1-.1v-.1s-.1-.1-.2-.4c-.5-.1-.5-.2-.6-.2 0-.2-.1-.3-.1-.3V7.1s0 .1.1.3V9.2s-.1.1-.1.2v.5c-.1.2-.2.3-.2.3s-.1 0-.1.1-.1.1-.1.1h-.1v.1c-.1 0-.1 0-.1-.1 0 0-.1 0-.2-.1h-.1c-.1 0-.1 0-.1-.1-.1 0-.3-.1-.4-.2 0 0-.1 0-.2-.1h-.1v-.2 0c0-.2-.1-.4-.1-.6V9c0-.1 0-.2-.1-.4v-.1c0-.3-.1-.5-.1-.5v-.1-.1-.3V6.5c0-.2-.1-.4-.1-.6v-.2s.1-.1.1-.2v-.2-.2V4.8v-.5-.2-.2-.1V3.2 3v-.1h.1c0-.1.1-.1.1-.1l.1-.1H36v-.3c-.1 0-.1 0-.1-.1v-.1c-.1 0-.1 0-.1.1s0 .1-.1.1c0-.1 0-.1.1-.1 0-.1.1-.1.2-.2H36.2l-.2-.4c-.1 0-.1-.1-.1-.1h.1l-.1-.1h-.1c0-.1-.1-.1-.2-.2v-.1h.1s0-.1.1-.1h.2V1h.1V.9.8v.1h.2V.8v.1H36.6s.1.1.1.2v.2s.1 0 .1.1h-.1.1v.2s.1 0 .1.1c1 .2 1.1.3 1.1.3s0 .1.1.1c0 0 0 .1.1.2v.1s.1 0 .1.1l.1.1V2.9h.1v.2s.1.1.1.2v.4h.1v.1h.1l.2.2c.1.1.1.2.2.2 0 0 .1.1.1.3v.1l.1.1.1.1s.1 0 .1.1l.1.1v-.2-.1-.5V4v-.2c0-.1 0-.1-.1-.1v-.2-.2-.2V3s0-.1.1-.1v-.2-.2-.1-.2V2v-.2-.1-.4H40c-.1 0-.2-.1-.2-.2V.9h.1V1 .7c-.1 0-.1 0-.1-.1 0 0 .1-.1.2-.1s.1-.1.2-.1h.5s0-.1.1-.1h.1l.1.1h.1c.1 0 .1 0 .1.1 0 0 0 .1.1.1s.1.1.1.2c0 0 .1 0 .1.1V1l-.1.1v.2h-.1c.1 0 .1 0 .2.1 0 0 0 .1.1.2v.1h-.1l.1.1V2.1l.1.1V2.5h-.1c.1 0 .1 0 .1.1h-.1v.2s0 .1.1.1v.2h-.1.1V3.7h.1V5.1h-.1V6.1c0 .2-.1.2-.1.3V6.7c0 .1 0 .1-.1.1v.4h-.1v.7s0 .1-.1.1c0 .2 0 .2-.1.2h.1v.1c-.3.5-.3.6-.3.6V9h-.1-.1V9.3h.1V10.1h-.1c.1 0 .1 0 .1.1.1 0 .1 0 .1.1 0 0 0 .1-.1.1h.1v.1h-.1-.1c-.4.3-.4.3-.6.4.1-.1.1-.1 0 0v-.1.1c0-.1 0-.1 0 0M47.6 11.4h-.2-.1-.2l-.1-.1c-.1 0-.2-.1-.3-.1h-.1s0-.1-.1-.1h-.1s-.1-.1-.2-.1c-.1-.1-.2-.1-.2-.2 0 0-.1-.1-.1-.2v-.2-.1V10c0-.1-.1-.4-.1-.9v-.2c0-.1 0-.1-.1-.1h-.4c-.3-.1-.5-.2-.5-.2v-.1h-.1c-.1 0-.1.1-.2.3 0 .2-.1.5-.1.9 0 0 0 .1-.1.2 0 .2-.1.3-.1.3l-.2.2c-.1 0-.2.1-.2.1h-.4s-.1-.1-.2-.1-.1-.1-.2-.1c0 0-.1-.1-.2-.1 0 0-.1-.1-.2-.1 0 0-.1 0-.2-.1 0 0 .1-.1.1-.3v-.1c0-.3.1-.8.3-1.5.1-.3.1-.7.2-1 .1-.4.1-.6.1-.7-.1-.1-.1-.4-.1-.6 0 0 0-.1.1-.4.1-.1.1-.3.1-.5l.1-.2c0-.1.1-.2.1-.3 0 0 0-.1.1-.4 0 0 .1-.2.2-.5.1-.4.2-.6.2-.9l.1-.2c.1-.3.1-.4.2-.4h.1c0-.1.1-.2.2-.2h.2s.1 0 .2-.1H45.7s.1.1.2.1h.1c.1 0 .3.1.5.3 0 0 .1 0 .1.1h.1c.2.1.3.2.3.3v.2c.1 0 .1.1.1.3 0 0 .1.1.1.2.1.1.1.2.1.3 0 .1.1.2.1.5l.1.3v.3s0 .2.1.3v.4s.1.1.1.3c0 0 0 .2.1.6v.1s.1.2.1.6V7c0 .5.1.8.1.9V8c-.1.4 0 .6 0 .8v1.3s.1.1.1.2V11.1H48l-.1.1v.1h-.1v.1h-.2c.1 0 0 0 0 0zM45.2 8s.1 0 .1-.1h.2s0 .1.1.1h.1c-.1-1-.2-1.9-.2-2.7-.1.4-.2.7-.2.9-.2.4-.3.7-.4.8-.2.6-.2.9-.2 1h.5zM54.6 11.5h-.2-.1-.1c-.1 0-.2-.1-.2-.2v-.1-.1l-.1-.1v-.1-.2c0-.1 0-.3.1-.6v-.6-.4-.5-.2-.2-.1-.2V6.4v-.1-.2c0-.4 0-.7.1-1.1v-.6c0 .1 0 .1-.1.2-.1 0-.2.1-.2.1h-.1H53.4s-.1-.1-.3-.1c0 0-.1 0-.2-.1-.3 0-.7-.3-1.1-.8 0 0 0-.1-.1-.1 0 0 0 .1-.1.1v.1h.1V6.1s0 .3-.1.6c0 .2 0 .3-.1.3V7.3s0 .5-.1 1.5v.6c0 .1 0 .3.1.6 0 .1-.1.2-.2.3 0 0-.1.1-.2.1h-.2-.2-.1H50.3s-.2 0-.4-.1h-.1-.2s-.1-.2-.1-.6v-.1.2s0-.2-.1-.6v-.1c0-.1 0-.4.1-.9V8v-.1V7.6v-.3c0-.1.1-.4.2-.9v-.3-.6-.4c0-.2 0-.5.1-.8V4v-.4V2.8v-.4c0-.2.1-.3.1-.5v-.1s0-.1.1-.2h-.1v-.1h.1c-.1-.5 0-.5 0-.5h.2V.9H50.5s.1 0 .1-.1h.1s0 .1.1.1h.1c.1 0 .1.1.1.1s.1.1.1.2h.1c.1.2.2.3.2.3l.2.2c.1.1.2.1.3.2V2c.3.3.4.6.5.7.1.2.2.2.2.3 0 0 .1-.2.2-.5.1-.2.1-.4.2-.5 0 0 .1-.1.2-.3.1-.2.2-.3.2-.4 0-.1.1-.1.2-.2h1c.7-.1.8-.1.8-.1h.1s0 .1.1.1v.1c.1.1.1.2.2.3v.1l.1.2c0 .1 0 .1.1.1 0 .4 0 .5.1.5v.4L56 3v5c0 .1 0 .1-.1.1v.1l.1.1v.2c0 .2 0 .3-.1.4l.1.4v1.1s-.1 0-.1.1 0 .1-.1.1v.1c0 .2-.1.2-.1.3 0 .1-.1.2-.2.2v.1l-.1.1h-.1v0h-.2l-.5.1zM58.6 11.8h-.2v-.1H58s0-.1-.1-.1c0 0-.1 0-.1-.1 0 0-.1-.1-.2-.1V11h.1s-.1 0-.1-.1v-.1h.1c-.1 0-.2 0-.2-.1v-.2V10.2v-.1s.1 0 .1-.1h-.1v-.1-.1s0-.1.1-.2v-.5V9v-.1-.4-.1-.2-.1h.1v-.2s.1 0 .1-.1h-.1v-.1-.1-.3-.6-.4-.1-.1V5.5v-.2V4.7v-.3c0-.6.1-.9.1-1v-.2h.2l.1.1c.1 0 .1 0 .1-.1H58.5l.1-.1H58.9s.1 0 .1.1c.3.1.4.1.4.2.1.1.2.1.2.2V8c0 .1.1.1.1.2V9.6l.1.1h-.1v.1c0 .1 0 .1-.1.1V10.8c-.1 0-.1 0-.1.1h-.1c0 .1 0 .1-.1.1l-.7.8c.1-.1.1-.1 0 0m.1-9.4l-.3-.1s-.1-.1-.2-.1h-.1s-.1 0-.2-.1h-.1V2h-.1v-.1l-.1-.1s0-.1-.1-.1c-.1-.2-.1-.4-.1-.6V.9h1.1c.1 0 .2 0 .3.1.1.1.2.1.2.2.1 0 .1 0 .1.1 0 0 .1.1.1.3v.2s.1 0 .1.1V2c0 .1-.1.1-.2.2v.1H59l-.3.1c.1 0 .1 0 0 0 .1 0 .1 0 0 0M62.1 11.8h-.2v-.1h-.4s0-.1-.1-.1c0 0-.1 0-.1-.1 0 0-.1-.1-.2-.1V11h.1s-.1 0-.1-.1v-.1h.1c-.1 0-.2 0-.2-.1v-.2V10.2v-.1s.1 0 .1-.1H61v-.1-.1s0-.1.1-.2v-.5V9v-.1-.4-.1-.2-.1h.1v-.2s.1 0 .1-.1h-.1v-.1-.1-.3-.6-.4-.1-.1V5.5v-.2V4.7v-.3c0-.6.1-.9.1-1v-.2h.2l.1.1c.1 0 .1 0 .1-.1H62l.1-.1H62.4s.1 0 .1.1c.3.1.4.1.4.2.1.1.2.1.2.2V8c0 .1.1.1.1.2V9.6l.1.1h-.1v.1c0 .1 0 .1-.1.1V10.8c-.1 0-.1 0-.1.1h-.1c0 .1 0 .1-.1.1l-.7.8c.1-.1.1-.1 0 0m.2-9.4l-.3-.1s-.1-.1-.2-.1h-.1s-.1 0-.2-.1h-.1V2h-.1v-.1l-.1-.1s0-.1-.1-.1c-.1-.2-.1-.4-.1-.6V.9h1.1c.1 0 .2 0 .3.1.1.1.2.1.2.2.1 0 .1 0 .1.1 0 0 .1.1.1.3v.2s.1 0 .1.1V2c0 .1-.1.1-.2.2v.1h-.1l-.3.1"/></g></g></svg>