<svg xmlns="http://www.w3.org/2000/svg" viewBox="0 0 29.049 12.657"><g fill="#4c9761"><path d="M0 3.328h3.748c2.188 0 3.511 1.297 3.511 3.17v.027c0 2.123-1.651 3.223-3.708 3.223H2.018V12.5H0V3.328zm3.616 4.625c1.01 0 1.6-.603 1.6-1.389v-.027c0-.904-.629-1.388-1.639-1.388H2.018v2.804h1.598zM8.754 3.328h2.018v3.629h3.721V3.328h2.018V12.5h-2.018V8.819h-3.721V12.5H8.754zM18.307 7.94v-.026c0-2.608 2.057-4.744 4.888-4.744 2.83 0 4.861 2.11 4.861 4.718v.026c0 2.607-2.057 4.743-4.888 4.743-2.83 0-4.861-2.109-4.861-4.717m7.639 0v-.026c0-1.573-1.152-2.883-2.778-2.883-1.624 0-2.751 1.284-2.751 2.857v.026c0 1.572 1.153 2.882 2.778 2.882s2.751-1.284 2.751-2.856"/><path d="M26.685 4.812c.42-.522 1.102-.433 1.32-.931a.478.478 0 0 0-.258-.658c-.296-.13-.599.011-.852.19l-.341-.47c.441-.385 1.027-.626 1.7-.332.647.282.963.917.704 1.51-.329.755-1.137.658-1.711 1.129l-.562-.438zM22.848 2.629c.175-.643.833-.833.833-1.373 0-.307-.22-.495-.498-.495-.32 0-.54.246-.7.509l-.497-.291C22.234.452 22.673 0 23.403 0c.701 0 1.241.452 1.241 1.096 0 .817-.774 1.051-1.11 1.707l-.686-.174z"/></g></svg>