<svg xmlns="http://www.w3.org/2000/svg" viewBox="0 0 97.835 10.177"><path d="M1.066 9.425c-.641-.541-.96-1.264-.96-2.168h1.369c0 .516.198.914.594 1.195.323.223.684.335 1.085.335.5 0 .922-.126 1.267-.378s.517-.615.517-1.09c0-.314-.104-.56-.315-.738-.289-.301-.806-.494-1.55-.576-1.04-.124-1.836-.488-2.385-1.091A2.494 2.494 0 0 1 0 3.173c0-.772.231-1.459.694-2.058C1.268.384 2.069.019 3.098.019c.947 0 1.725.306 2.337.917.615.612.923 1.431.923 2.46H4.995c0-.586-.141-1.051-.422-1.395-.339-.412-.83-.619-1.475-.619-.714 0-1.216.296-1.505.887a2.047 2.047 0 0 0-.224.904c0 .26.09.506.267.738.31.405.843.648 1.599.731 1.148.132 1.977.506 2.485 1.121.392.467.588 1.057.588 1.766 0 .724-.297 1.341-.892 1.857-.595.514-1.349.771-2.262.771-.801 0-1.498-.244-2.088-.732M19.371 1.4v4.71h3.452v1.388h-3.452v1.27h4.474v1.388h-5.862V.018h5.862V1.4zm12.58 7.896c-.273.182-.56.336-.862.465-.305.131-.621.23-.948.297a5.433 5.433 0 0 1-2.051 0 4.919 4.919 0 0 1-.948-.297 5.151 5.151 0 0 1-.867-.465 5.372 5.372 0 0 1-.744-.621 5.15 5.15 0 0 1-1.091-1.611 5.491 5.491 0 0 1-.297-.954 5.195 5.195 0 0 1-.099-1.023c0-.342.032-.684.099-1.021a4.967 4.967 0 0 1 .768-1.81c.182-.269.389-.521.62-.756.227-.227.475-.434.744-.62.272-.182.561-.334.867-.459a5.075 5.075 0 0 1 2.999-.297c.327.067.643.166.948.297.306.125.593.277.862.459.256.178.494.374.712.589l-.923.923a3.775 3.775 0 0 0-1.165-.768 3.24 3.24 0 0 0-.7-.217 3.599 3.599 0 0 0-1.518 0 3.108 3.108 0 0 0-.7.217 3.702 3.702 0 0 0-1.203.805 3.669 3.669 0 0 0-.799 1.197 3.481 3.481 0 0 0-.223.705 3.934 3.934 0 0 0 0 1.52c.049.238.124.472.223.699a3.665 3.665 0 0 0 1.357 1.654c.202.141.417.257.645.348.223.098.456.172.7.217a3.665 3.665 0 0 0 1.518 0c.24-.045.473-.119.7-.217.227-.091.442-.207.645-.348.202-.132.386-.284.551-.458a3.506 3.506 0 0 0 .806-1.196c.099-.227.173-.461.223-.699l.025-.107h-2.652V4.431h4.015v.656c0 .348-.035.688-.106 1.023a5.149 5.149 0 0 1-.291.954 5.142 5.142 0 0 1-1.84 2.232M43.56 1.521C42.564.533 41.37.04 39.978.04c-1.4 0-2.596.493-3.588 1.481-.992.996-1.487 2.189-1.487 3.582 0 1.4.495 2.595 1.487 3.588.992.991 2.188 1.486 3.588 1.486 1.392 0 2.586-.495 3.582-1.486.987-.993 1.481-2.188 1.481-3.588 0-1.393-.494-2.586-1.481-3.582m-.393 6.777c-.887.883-1.95 1.324-3.19 1.324-1.247 0-2.311-.441-3.195-1.324-.883-.883-1.324-1.947-1.324-3.195 0-1.24.441-2.303 1.324-3.189.884-.88 1.948-1.319 3.195-1.319 1.24 0 2.303.439 3.19 1.319.879.886 1.319 1.949 1.319 3.189 0 1.248-.44 2.312-1.319 3.195m10.553.998c-.272.182-.56.336-.861.465-.306.131-.622.23-.949.297a5.415 5.415 0 0 1-2.05 0 5.23 5.23 0 0 1-1.816-.762 5.305 5.305 0 0 1-1.364-1.37 5.113 5.113 0 0 1-.471-.862 5.491 5.491 0 0 1-.297-.954 5.272 5.272 0 0 1 0-2.044 5.36 5.36 0 0 1 .297-.949A5.31 5.31 0 0 1 47.301 1.5c.226-.227.474-.434.743-.62.273-.182.562-.334.867-.459a5.058 5.058 0 0 1 3.948 0c.305.125.592.277.861.459.256.178.494.374.713.589l-.924.923a3.568 3.568 0 0 0-.521-.421 3.72 3.72 0 0 0-.643-.347 3.266 3.266 0 0 0-.701-.217 3.599 3.599 0 0 0-1.518 0 3.108 3.108 0 0 0-.7.217 3.738 3.738 0 0 0-1.661 1.363c-.136.203-.25.415-.341.639a3.546 3.546 0 0 0-.297 1.461c0 .256.025.511.074.764.05.238.124.472.223.699.091.223.205.435.341.639.132.203.285.388.458.557.17.174.356.326.558.458.203.141.417.257.645.348.223.098.456.172.7.217a3.665 3.665 0 0 0 1.518 0c.24-.045.473-.119.701-.217a3.2 3.2 0 0 0 .643-.348c.203-.132.387-.284.552-.458.174-.169.329-.354.465-.557.136-.204.25-.416.341-.639.099-.227.173-.461.223-.699l.025-.107h-2.652V4.431h4.015v.656a5.152 5.152 0 0 1-.397 1.977 5.038 5.038 0 0 1-1.09 1.611 5.31 5.31 0 0 1-.75.621M56.7.018h1.382v10.138H56.7zm18.027.001l-4.022 10.138-2.354-6.222-2.355 6.222L61.974.019h1.512l2.51 6.184L68.351.019l2.354 6.184 2.51-6.184zm5.571 10.137l-1.797-2.261h-1.5v2.261H75.57V.019h2.51c1.086 0 2.014.384 2.782 1.152.768.769 1.153 1.696 1.153 2.783 0 1.09-.385 2.02-1.153 2.788a4.3 4.3 0 0 1-.892.675l2.15 2.739h-1.822zM78.08 6.464c.69 0 1.28-.246 1.772-.738.492-.487.737-1.078.737-1.772s-.245-1.285-.737-1.773a2.418 2.418 0 0 0-1.772-.737h-1.079v5.02h1.079zm10.683 2.435H84.66l-.501 1.257h-1.512L86.706 0l4.065 10.156h-1.506l-.502-1.257zm-.564-1.401l-1.493-3.724-1.482 3.724h2.975zm4.684 2.658h-1.431V.019H93.9c1.086 0 2.013.384 2.782 1.152.768.769 1.153 1.696 1.153 2.783 0 1.09-.385 2.02-1.153 2.788A3.79 3.79 0 0 1 93.9 7.895h-1.017v2.261zm0-3.692H93.9c.693 0 1.284-.244 1.771-.733.492-.49.738-1.083.738-1.777 0-.69-.246-1.279-.738-1.766A2.4 2.4 0 0 0 93.9 1.45h-1.017v5.014zM15.759 1.5C14.763.512 13.569.018 12.177.018 10.776.018 9.58.512 8.589 1.5c-.992.995-1.487 2.189-1.487 3.581 0 1.4.495 2.597 1.487 3.588.991.992 2.187 1.487 3.588 1.487 1.392 0 2.586-.495 3.582-1.487.987-.991 1.481-2.188 1.481-3.588 0-1.392-.494-2.586-1.481-3.581m-.393 6.777c-.887.883-1.95 1.324-3.19 1.324-1.247 0-2.312-.441-3.195-1.324S7.657 6.329 7.657 5.082c0-1.24.441-2.303 1.324-3.189.883-.881 1.948-1.32 3.195-1.32 1.24 0 2.303.439 3.19 1.32.879.886 1.319 1.949 1.319 3.189 0 1.247-.44 2.312-1.319 3.195" fill="#4c9761"/></svg>