<svg xmlns="http://www.w3.org/2000/svg" viewBox="0 0 88.11 12.4"><g fill="#4c9761"><path d="M39.759 10.893c0-.092.033-.182.097-.27a1.78 1.78 0 0 1 .224-.246 2.21 2.21 0 0 1 .246-.194 5.15 5.15 0 0 0 .166-.114c.039.351.173.616.402.796.229.179.515.294.859.344.344.049.73.043 1.157-.017a8.678 8.678 0 0 0 1.284-.287c.428-.13.841-.284 1.238-.465a6.718 6.718 0 0 0 1.02-.555c.283-.191.493-.377.63-.556.138-.179.16-.334.069-.464L41.18 6.493a2.355 2.355 0 0 1-.596-.316c-.099-.072-.183-.152-.252-.24s-.103-.178-.103-.27c0-.358.132-.687.395-.985a3.909 3.909 0 0 1 1.014-.797 8.547 8.547 0 0 1 1.376-.613 16.66 16.66 0 0 1 2.768-.71c.393-.062.685-.099.876-.114.122-.039.254-.054.395-.047.142.008.268.037.378.086a.578.578 0 0 1 .253.207c.057.088.063.193.017.314-.046.115-.172.219-.378.31-.206.093-.46.177-.762.253-.302.076-.638.15-1.008.222-.372.073-.746.149-1.124.225-.378.076-.741.158-1.088.246-.348.088-.654.19-.917.303-.264.115-.465.246-.602.396a.555.555 0 0 0-.149.51c.183.061.462.154.836.281.375.125.794.273 1.255.441.463.168.942.347 1.439.538.497.191.956.383 1.381.573.424.192.788.372 1.094.544.306.173.5.32.585.441.176.276.246.541.212.797a1.528 1.528 0 0 1-.333.74c-.187.237-.433.46-.739.67a7.95 7.95 0 0 1-1.009.584c-.366.18-.748.34-1.145.483-.397.14-.778.261-1.141.359-.363.1-.695.174-.997.225a3.75 3.75 0 0 1-.727.062 1.801 1.801 0 0 1-.418 0 3.85 3.85 0 0 1-.551-.091 4.534 4.534 0 0 1-.59-.184 2.947 2.947 0 0 1-.539-.269 1.488 1.488 0 0 1-.389-.349.628.628 0 0 1-.138-.425M49.764 12.323c-.031.038-.094.054-.19.046a1.048 1.048 0 0 1-.291-.068 1.278 1.278 0 0 1-.259-.132c-.072-.05-.101-.094-.086-.132a102.287 102.287 0 0 0 .636-1.691c.142-.385.293-.799.453-1.243a480.111 480.111 0 0 1 .991-2.711c.165-.447.315-.861.453-1.243.137-.382.26-.719.367-1.014.107-.293.191-.522.252-.682a2.82 2.82 0 0 0 .126-.486c.023-.15.059-.278.109-.385a.53.53 0 0 1 .229-.246c.103-.057.266-.086.487-.086.359.283.665.625.917 1.025.252.402.475.811.67 1.227s.379.815.55 1.197c.172.383.358.692.556.928a.339.339 0 0 0 .258.156c.111.011.236.007.373-.012s.277-.048.418-.086c.141-.039.269-.063.384-.075.114-.01.208 0 .281.034.072.036.109.114.109.236.03.161.019.286-.035.378a.545.545 0 0 1-.241.217 1.233 1.233 0 0 1-.355.115 7.5 7.5 0 0 1-.361.057 1.779 1.779 0 0 0-.275.058c-.073.023-.101.057-.086.103l.304.94c.111.344.235.687.372 1.031.138.344.287.676.447.997.161.322.337.596.527.825a.5.5 0 0 1-.12.298c-.08.107-.176.199-.286.275-.111.077-.218.131-.321.161s-.178.018-.224-.034l-2.017-4.264L50.979 9l-.172.67c-.077.295-.168.607-.276.94-.107.332-.225.656-.355.969s-.267.562-.412.744m3.151-8.411c-.099.389-.213.768-.344 1.134-.13.367-.263.718-.401 1.054-.137.336-.273.658-.406.962-.134.307-.251.589-.35.849.275 0 .55-.028.825-.086.275-.058.542-.13.802-.218s.512-.181.756-.281c.245-.099.478-.19.699-.274-.06-.138-.145-.346-.251-.624-.107-.28-.231-.576-.373-.889a13.279 13.279 0 0 0-.458-.917 3.446 3.446 0 0 0-.499-.71M68.536 12.004a124.7 124.7 0 0 0-.098-.813l-.172-1.421a595.03 595.03 0 0 0-.206-1.719l-.206-1.719c-.065-.543-.124-1.016-.178-1.422a50.776 50.776 0 0 1-.103-.813.833.833 0 0 0-.114.223l-.138.39c-.061.171-.149.399-.263.682-.115.282-.281.643-.499 1.083-.218.439-.497.972-.837 1.598a81.506 81.506 0 0 1-1.266 2.236.405.405 0 0 1-.224.212c-.095.034-.198.018-.309-.046-.111-.066-.225-.188-.344-.367-.118-.18-.223-.43-.315-.75l-2.636-5.605c-.061.114-.118.298-.172.55-.053.252-.103.541-.148.865a29.68 29.68 0 0 0-.127 1.043 73.009 73.009 0 0 0-.183 2.098l-.057.807a4.53 4.53 0 0 0-.046 1.117c.031.378.04.719.029 1.021-.012.301-.081.542-.207.722-.126.178-.376.25-.75.212-.161 0-.283-.04-.367-.121-.085-.08-.118-.204-.104-.372.031-.298.077-.693.138-1.186.062-.493.124-1.025.189-1.593.065-.569.134-1.148.207-1.736.072-.588.137-1.133.194-1.633l.149-1.267c.042-.343.071-.557.086-.641.031-.215.065-.398.103-.551a1.04 1.04 0 0 1 .172-.378.625.625 0 0 1 .31-.212c.13-.042.302-.062.515-.062.291.144.56.37.809.675.248.306.479.652.693 1.038.214.385.416.791.607 1.214.191.424.372.825.545 1.204.171.378.34.71.504.996.164.287.326.488.487.602l2.934-5.661c.259-.191.485-.24.676-.15.191.093.361.289.51.591.148.301.275.686.378 1.152.103.466.195.973.275 1.524.081.55.151 1.121.212 1.713l.178 1.714c.057.55.116 1.061.177 1.535.061.474.131.867.207 1.181.023.176-.024.307-.138.395a.747.747 0 0 1-.401.15.98.98 0 0 1-.435-.065c-.138-.053-.218-.133-.241-.24M70.221 8.026a5.63 5.63 0 0 1 .252-2.006c.206-.664.506-1.26.9-1.787.394-.528.869-.95 1.427-1.267a3.42 3.42 0 0 1 1.845-.441 3.637 3.637 0 0 1 1.656.28 4.513 4.513 0 0 1 1.478.998 5.35 5.35 0 0 1 1.541 3.661c0 1.574-.376 2.741-1.128 3.501-.753.76-1.897 1.141-3.432 1.141-.65 0-1.252-.077-1.806-.23-.554-.153-1.033-.391-1.438-.716s-.722-.745-.951-1.26c-.229-.517-.344-1.141-.344-1.874m1.169-.229c0 1.138.285 1.985.854 2.543.569.559 1.419.837 2.55.837.565 0 1.064-.086 1.495-.258a2.903 2.903 0 0 0 1.083-.733c.29-.317.51-.696.659-1.135.149-.44.224-.926.224-1.461a5.156 5.156 0 0 0-.327-1.69 4.136 4.136 0 0 0-.773-1.284 3.365 3.365 0 0 0-1.112-.819 3.229 3.229 0 0 0-1.352-.287 2.035 2.035 0 0 0-.911.166 3.18 3.18 0 0 0-.814.51 4.23 4.23 0 0 0-.682.757 5.138 5.138 0 0 0-.826 1.897c-.068.332-.091.65-.068.957M86.849 12.135a17.465 17.465 0 0 0-1.249-1.873 85.666 85.666 0 0 0-1.461-1.868c-.5-.622-.997-1.245-1.49-1.868a21.213 21.213 0 0 1-1.335-1.885 26.884 26.884 0 0 0-.08 1.851c-.008.668-.013 1.338-.017 2.01a96.657 96.657 0 0 1-.029 1.932 15.073 15.073 0 0 1-.114 1.599 1 1 0 0 1-.35.217 1.308 1.308 0 0 1-.372.046.712.712 0 0 1-.344-.075c-.092-.049-.13-.188-.115-.418.046-.389.082-.83.109-1.324a57.439 57.439 0 0 0 .069-3.225 203.098 203.098 0 0 0-.046-3.226 82.15 82.15 0 0 0-.04-1.325c.13-.174.256-.291.378-.349.122-.057.277-.029.464.086.187.115.424.329.711.642.286.313.657.752 1.111 1.319.455.564 1.012 1.271 1.673 2.119.661.847 1.458 1.861 2.39 3.037l-.023-6.635c.099-.191.203-.323.309-.396a.74.74 0 0 1 .424-.108c.161 0 .276.059.345.177.068.118.114.258.137.418.023.161.028.321.017.481a5.935 5.935 0 0 0-.017.368c0 .304.011.697.034 1.173l.075 1.554c.026.558.049 1.13.068 1.719.02.588.029 1.141.029 1.661s-.015.98-.046 1.381c-.03.402-.088.693-.172.877l-1.043-.092zM0 10.351l.823-.494c.58 1.067 1.25 1.6 2.009 1.6.326 0 .63-.075.917-.226a1.608 1.608 0 0 0 .875-1.42c0-.325-.109-.643-.329-.955-.303-.431-.857-.949-1.66-1.555-.808-.61-1.311-1.052-1.509-1.324C.784 5.52.612 5.026.612 4.496c0-.422.101-.806.303-1.154.202-.346.487-.62.853-.82a2.47 2.47 0 0 1 1.196-.299c.457 0 .884.112 1.282.339.396.226.817.642 1.261 1.248l-.791.6c-.364-.484-.675-.802-.932-.955a1.605 1.605 0 0 0-.84-.232c-.39 0-.71.119-.958.357a1.163 1.163 0 0 0-.372.875c0 .211.044.416.132.614.087.197.248.412.481.644.127.123.544.447 1.251.969.839.619 1.414 1.17 1.726 1.653.312.484.467.968.467 1.456 0 .704-.266 1.313-.8 1.831-.534.519-1.182.778-1.946.778a2.849 2.849 0 0 1-1.601-.472c-.479-.312-.92-.84-1.324-1.577M12.334 2.223c1.468 0 2.696.489 3.685 1.468.989.979 1.483 2.185 1.483 3.617 0 1.418-.493 2.621-1.479 3.609-.987.988-2.19 1.482-3.609 1.482-1.437 0-2.65-.492-3.639-1.475-.988-.985-1.483-2.174-1.483-3.571 0-.931.225-1.793.676-2.588A4.925 4.925 0 0 1 9.81 2.897a4.954 4.954 0 0 1 2.524-.674m.043.941c-.717 0-1.396.187-2.038.561a4.022 4.022 0 0 0-1.505 1.509 4.204 4.204 0 0 0-.541 2.116c0 1.152.399 2.124 1.198 2.918a3.95 3.95 0 0 0 2.886 1.189c.753 0 1.449-.182 2.088-.547a3.908 3.908 0 0 0 1.498-1.496 4.2 4.2 0 0 0 .538-2.11c0-.769-.179-1.465-.538-2.086a4.006 4.006 0 0 0-1.514-1.493 4.096 4.096 0 0 0-2.072-.561M19.498 2.466h1.929c1.077 0 1.806.044 2.187.132a2.49 2.49 0 0 1 1.404.847c.36.434.54.967.54 1.6 0 .527-.124.992-.372 1.392a2.332 2.332 0 0 1-1.064.907c-.461.204-1.098.308-1.91.312l3.484 4.5h-1.198l-3.485-4.5h-.547v4.5h-.968v-9.69zm.968.948v3.294l1.669.013c.647 0 1.125-.061 1.435-.184s.552-.32.726-.59c.174-.269.261-.572.261-.906 0-.324-.089-.619-.264-.886a1.472 1.472 0 0 0-.693-.569c-.286-.115-.761-.172-1.425-.172h-1.709zM31.593 2.466l4.518 9.691h-1.046l-1.524-3.19h-4.174l-1.509 3.19h-1.081l4.578-9.691h.238zm-.123 2.059l-1.66 3.508h3.312L31.47 4.525zM51.667 1.425c-.251-.107-.396-.237-.437-.39a.573.573 0 0 1 .054-.436c.076-.14.186-.26.329-.363s.274-.155.39-.155c.233 0 .408.085.524.255a.92.92 0 0 1 .175.525.514.514 0 0 1-.108.335.717.717 0 0 1-.262.208.84.84 0 0 1-.335.082.724.724 0 0 1-.33-.061M53.751 1.344c-.251-.107-.397-.236-.437-.389a.576.576 0 0 1 .054-.437c.076-.139.186-.26.329-.363S53.97 0 54.087 0c.232 0 .408.086.524.256.117.17.175.345.175.524a.514.514 0 0 1-.108.335.728.728 0 0 1-.262.209c-.103.049-.215.077-.336.081s-.231-.016-.329-.061"/></g></svg>