<svg xmlns="http://www.w3.org/2000/svg" viewBox="0 0 84.681 9.437"><path d="M.992 8.755C.396 8.251.097 7.578.097 6.736h1.275c0 .481.184.852.554 1.113.3.208.636.312 1.009.312.466 0 .858-.118 1.18-.352.32-.235.481-.573.481-1.015 0-.292-.098-.521-.294-.686-.269-.281-.749-.459-1.442-.537-.969-.115-1.709-.454-2.22-1.015A2.323 2.323 0 0 1 0 2.936c0-.719.215-1.357.646-1.915C1.18.341 1.926 0 2.883 0c.881 0 1.606.285 2.174.854.573.569.86 1.332.86 2.289H4.648c0-.545-.131-.978-.392-1.297-.315-.385-.773-.577-1.373-.577-.665 0-1.132.275-1.401.825a1.921 1.921 0 0 0-.208.842c0 .242.083.471.249.686.287.377.784.604 1.487.681 1.069.123 1.84.47 2.313 1.044.365.433.548.982.548 1.643 0 .673-.277 1.248-.831 1.727-.553.479-1.255.719-2.105.719-.745 0-1.394-.227-1.943-.681m6.655-.357c-.692-.696-1.039-1.533-1.039-2.509V0H7.9v5.889c0 .623.22 1.153.658 1.592a2.18 2.18 0 0 0 1.597.663c.623 0 1.156-.221 1.597-.663.439-.439.658-.969.658-1.592V0h1.293v5.889c0 .976-.347 1.813-1.039 2.509a3.42 3.42 0 0 1-2.509 1.038 3.42 3.42 0 0 1-2.508-1.038m11.182 1.038l-3.166-4.908v4.908h-1.269V.001l4.435 6.788L23.257.001v9.435h-1.268V4.528zm9.556 0l-3.166-4.908v4.908H23.95V.001l4.435 6.788L32.814.001v9.435h-1.269V4.528zm6.412-8.149V5.67h3.213v1.291h-3.213v1.183h4.163v1.292h-5.455V0h5.455v1.287zm9.349 8.15l-1.672-2.105h-1.395v2.105h-1.333V0h2.335a3.53 3.53 0 0 1 2.59 1.073 3.525 3.525 0 0 1 1.073 2.59c0 1.015-.357 1.879-1.073 2.594-.25.247-.526.456-.831.629l2.002 2.55h-1.696zm-2.065-3.439c.643 0 1.192-.229 1.65-.686a2.242 2.242 0 0 0 .687-1.649c0-.646-.23-1.196-.687-1.65a2.248 2.248 0 0 0-1.65-.686h-1.002v4.671h1.002zm11.816 3.439l-1.671-2.105H50.83v2.105h-1.332V0h2.336c1.011 0 1.874.358 2.589 1.073a3.528 3.528 0 0 1 1.072 2.59c0 1.015-.357 1.879-1.072 2.594-.25.247-.528.456-.831.629l2.002 2.55h-1.697zm-2.063-3.439c.642 0 1.191-.229 1.648-.686a2.238 2.238 0 0 0 .687-1.649c0-.646-.229-1.196-.687-1.65a2.243 2.243 0 0 0-1.648-.686H50.83v4.671h1.004zm5.779 2.054c-.924-.923-1.385-2.036-1.385-3.339 0-1.296.461-2.407 1.385-3.334C58.534.46 59.648.001 60.951.001c1.296 0 2.407.459 3.334 1.378.918.927 1.377 2.038 1.377 3.334 0 1.303-.459 2.416-1.377 3.339-.927.922-2.038 1.384-3.334 1.384-1.303 0-2.417-.462-3.338-1.384m.875-5.796a3.36 3.36 0 0 0-1.014 2.457c0 .961.338 1.782 1.014 2.462a3.367 3.367 0 0 0 2.463 1.016c.957 0 1.777-.339 2.457-1.016a3.356 3.356 0 0 0 1.021-2.462c0-.958-.341-1.776-1.021-2.457a3.348 3.348 0 0 0-2.457-1.021c-.961 0-1.782.34-2.463 1.021m13.379 7.18h-5.479V.001h1.287v8.143h4.192zm6.206 0h-5.48V.001h1.288v8.143h4.192zm1.683-.681c-.596-.504-.894-1.177-.894-2.019h1.275c0 .481.184.852.554 1.113.3.208.635.312 1.009.312.465 0 .858-.118 1.18-.352.32-.235.481-.573.481-1.015 0-.292-.098-.521-.294-.686-.27-.281-.749-.459-1.442-.537-.969-.115-1.709-.454-2.22-1.015a2.324 2.324 0 0 1-.641-1.62c0-.719.216-1.357.646-1.915C79.944.341 80.691 0 81.648 0c.88 0 1.606.285 2.174.854.573.569.859 1.332.859 2.289h-1.268c0-.545-.132-.978-.392-1.297-.316-.385-.774-.577-1.373-.577-.665 0-1.132.275-1.401.825a1.921 1.921 0 0 0-.208.842c0 .242.083.471.248.686.288.377.784.604 1.488.681 1.069.123 1.839.47 2.312 1.044.366.433.548.982.548 1.643 0 .673-.276 1.248-.831 1.727-.553.479-1.254.719-2.104.719-.746 0-1.394-.227-1.944-.681" fill="#4c9761"/></svg>