<?xml version="1.0" encoding="iso-8859-1"?>
<!-- Generator: Adobe Illustrator 19.1.0, SVG Export Plug-In . SVG Version: 6.00 Build 0)  -->
<!DOCTYPE svg PUBLIC "-//W3C//DTD SVG 1.1//EN" "http://www.w3.org/Graphics/SVG/1.1/DTD/svg11.dtd">
<svg version="1.1" id="Layer_1" xmlns="http://www.w3.org/2000/svg" xmlns:xlink="http://www.w3.org/1999/xlink" x="0px" y="0px"
	 viewBox="0 0 200 200" style="enable-background:new 0 0 200 200;" xml:space="preserve">
<polygon style="fill:#4C9862;" points="132.414,10.943 139.126,7.823 141.545,14.819 148.548,12.418 150.223,19.628 157.437,17.972 
	158.349,25.318 165.696,24.425 165.835,31.826 173.235,31.706 172.6,39.081 179.973,39.736 178.57,47.004 185.835,48.426 
	183.679,55.507 190.755,57.68 187.872,64.497 194.682,67.398 191.102,73.877 197.571,77.474 193.333,83.543 199.39,87.797 
	194.542,93.389 200.122,98.253 194.715,103.308 199.756,108.727 193.85,113.189 198.297,119.107 191.958,122.928 195.762,129.277 
	189.058,132.414 192.177,139.126 185.182,141.546 187.582,148.548 180.371,150.222 182.027,157.437 174.682,158.349 
	175.575,165.696 168.174,165.835 168.293,173.235 160.919,172.601 160.264,179.974 152.996,178.57 151.574,185.835 144.493,183.68 
	142.32,190.755 135.502,187.871 132.602,194.682 126.123,191.102 122.526,197.571 116.457,193.334 112.203,199.39 106.61,194.542 
	101.747,200.122 96.693,194.716 91.273,199.757 86.81,193.85 80.893,198.297 77.072,191.958 70.722,195.762 67.586,189.058 
	60.873,192.177 58.454,185.181 51.452,187.582 49.778,180.371 42.563,182.028 41.652,174.683 34.304,175.575 34.165,168.174 
	26.764,168.293 27.4,160.919 20.027,160.264 21.43,152.996 14.165,151.574 16.321,144.493 9.245,142.32 12.128,135.503 
	5.318,132.602 8.898,126.123 2.429,122.526 6.667,116.457 0.609,112.203 5.458,106.611 -0.122,101.747 5.285,96.693 0.243,91.273 
	6.15,86.81 1.703,80.893 8.043,77.072 4.238,70.722 10.943,67.586 7.823,60.873 14.819,58.454 12.418,51.452 19.628,49.778 
	17.972,42.563 25.318,41.652 24.425,34.304 31.826,34.165 31.706,26.764 39.081,27.4 39.736,20.027 47.004,21.43 48.426,14.165 
	55.507,16.321 57.68,9.245 64.498,12.129 67.398,5.318 73.877,8.898 77.474,2.43 83.543,6.667 87.796,0.609 93.389,5.458 
	98.253,-0.122 103.308,5.285 108.728,0.243 113.19,6.15 119.107,1.703 122.928,8.043 129.277,4.238 "/>
<path style="fill:#FFFFFF;" d="M131.15,14.415C83.883-2.788,31.619,21.582,14.415,68.85s7.167,99.531,54.435,116.735
	s99.532-7.167,116.736-54.434S178.418,31.619,131.15,14.415z M69.122,184.837C22.268,167.783-1.89,115.976,15.164,69.123
	C32.217,22.268,84.024-1.89,130.878,15.164c46.854,17.054,71.012,68.86,53.959,115.715
	C167.783,177.732,115.976,201.89,69.122,184.837z"/>
<g>
	<g>
		<path style="fill:#FFFFFF;" d="M69.95,60.097c0,0,1.219-1.535,0.715-3.235c0,0-2.302-3.279-6.714-1.85
			c0,0-1.595,0.211-4.117,4.967l-1.943-0.642c0,0-1.362,1.747-1.664,2.759l2.075,0.821c0,0-6.03,11.856-6.221,12.381
			c0,0,1.594,1.239,3.437,1.251l6.184-12.46l3.669,1.336c0,0,1.288-1.18,1.235-2.849l-3.474-1.33c0,0,1.203-3.85,3.618-3.235
			C66.751,58.01,68.827,58.107,69.95,60.097z"/>
		<path style="fill:#FFFFFF;" d="M79.447,70.794c-0.682-5.739-7.259-5.611-7.259-5.611c-6.232,0.404-8.319,7.362-8.319,7.362
			c-1.164,2.793-0.121,5.497-0.121,5.497c3.537,5.641,9.79,3.415,9.79,3.415C79.783,77.892,79.447,70.794,79.447,70.794z
			 M72.23,78.367c0,0-3.362,1.68-4.955-1.707c0,0-0.423-1.654,0.31-3.462c0,0,1.402-4.469,4.671-5.002c0,0,3.438-0.377,3.535,3.201
			C75.792,71.397,75.648,75.845,72.23,78.367z"/>
		<path style="fill:#FFFFFF;" d="M95.698,76.709c-0.681-5.739-7.259-5.611-7.259-5.611c-6.232,0.404-8.319,7.362-8.319,7.362
			c-1.165,2.792-0.121,5.497-0.121,5.497c3.537,5.641,9.789,3.415,9.789,3.415C96.034,83.807,95.698,76.709,95.698,76.709z
			 M88.481,84.282c0,0-3.362,1.68-4.955-1.707c0,0-0.423-1.654,0.31-3.462c0,0,1.402-4.469,4.671-5.002c0,0,3.438-0.377,3.535,3.201
			C92.043,77.312,91.899,81.76,88.481,84.282z"/>
		<path style="fill:#FFFFFF;" d="M129.074,88.857c-0.682-5.739-7.259-5.611-7.259-5.611c-6.232,0.404-8.318,7.362-8.318,7.362
			c-1.166,2.792-0.122,5.497-0.122,5.497c3.538,5.641,9.79,3.415,9.79,3.415C129.41,95.955,129.074,88.857,129.074,88.857z
			 M121.858,96.43c0,0-3.363,1.68-4.955-1.707c0,0-0.423-1.654,0.31-3.462c0,0,1.402-4.469,4.671-5.002c0,0,3.437-0.377,3.535,3.201
			C125.419,89.46,125.276,93.908,121.858,96.43z"/>
		<path style="fill:#FFFFFF;" d="M110.231,92.966c-0.26,0.169-0.905,0.132-0.905,0.132l-1.029-0.44
			c-0.433-0.62-0.019-1.392-0.019-1.392l8.929-18.189c-2.113-0.901-3.321-0.483-3.321-0.483l-3.448,6.529
			c-1.164-1.38-3.813-1.85-3.813-1.85c-4.648-1.048-7.495,2.516-7.495,2.516c-3.485,3.729-3.626,8.015-3.626,8.015
			c-0.121,2.281,1.088,3.447,1.088,3.447c0.815,1.022,2.887,1.628,2.887,1.628c2.82,0.862,4.766-1.086,4.766-1.086
			c0.109-0.075,0.114,0.092,0.114,0.092c-0.8,4.195,4.114,3.74,4.114,3.74C110.214,94.279,110.231,92.966,110.231,92.966z
			 M105.25,89.339c0,0-1.771,1.335-3.546,0.771c0,0-1.202-0.141-2.068-1.429c0,0-0.578-1.085-0.054-2.527
			c0,0,0.82-3.296,3.162-5.017c0,0,1.894-1.306,3.957-0.588c0,0,1.472,0.305,2.359,1.403L105.25,89.339z"/>
		<path style="fill:#FFFFFF;" d="M154.223,108.977c-0.26,0.169-0.906,0.132-0.906,0.132l-1.027-0.44
			c-0.435-0.62-0.021-1.393-0.021-1.393l4.903-9.89c-1.636-3.301-6.555-4.102-6.555-4.102c-4.648-1.049-7.496,2.516-7.496,2.516
			c-3.483,3.729-3.626,8.014-3.626,8.014c-0.121,2.281,1.087,3.446,1.087,3.446c0.816,1.022,2.888,1.628,2.888,1.628
			c2.819,0.861,4.765-1.086,4.765-1.086c0.11-0.075,0.116,0.091,0.116,0.091c-0.801,4.195,4.113,3.74,4.113,3.74
			C154.207,110.29,154.223,108.977,154.223,108.977z M149.33,105.25c0,0-1.772,1.334-3.547,0.77c0,0-1.201-0.14-2.069-1.429
			c0,0-0.578-1.084-0.053-2.527c0,0,0.819-3.296,3.161-5.016c0,0,1.894-1.306,3.958-0.588c0,0,1.472,0.305,2.358,1.403
			L149.33,105.25z"/>
		<path style="fill:#FFFFFF;" d="M134.765,88.356c0,0,0.54-0.216,1.926,0.19l0.918,0.334l-1.26,3.103c0,0,0.065,0.09,0.183,0.083
			c0,0,1.411-2.472,3.664-2.41c0,0,1.751-0.055,2.905,1.173c0,0,0.264,1.448-1.233,3.476c0,0-0.92-1.142-2.195-1.26
			c0,0-2.346-0.624-4.76,2.703l-4.094,8.256c0,0-1.633,0.18-3.436-1.25L134.765,88.356z"/>
	</g>
	<g>
		<circle style="fill:#FFFFFF;" cx="119.888" cy="45.358" r="1.922"/>
		<g>
			<g>
				<path style="fill:#FFFFFF;" d="M131.714,71.678l-2.246-0.818c3.184-9.09-1.573-19.092-10.703-22.415
					c-9.132-3.324-19.203,1.281-22.608,10.291l-2.246-0.817c-0.386-0.141-0.844,0.143-1.022,0.634l-0.484,1.331
					c-0.016,0.043-0.026,0.086-0.036,0.129l39.181,14.261c0.021-0.039,0.04-0.079,0.056-0.122l0.484-1.331
					C132.268,72.33,132.1,71.818,131.714,71.678z M102.451,59.658l-3.087-1.124c0,0,4.372-9.293,15.191-8.389
					C114.554,50.145,106.393,51.001,102.451,59.658z"/>
			</g>
		</g>
	</g>
	
		<rect x="43.614" y="99.591" transform="matrix(0.9397 0.342 -0.342 0.9397 37.8477 -14.9377)" style="fill:#FFFFFF;" width="35.335" height="0.526"/>
	
		<rect x="112.086" y="124.512" transform="matrix(0.9397 0.342 -0.342 0.9397 50.5009 -36.8537)" style="fill:#FFFFFF;" width="35.336" height="0.526"/>
	<g>
		<polygon style="fill:#FFFFFF;" points="85.483,104.593 85.615,107.501 88.261,108.714 85.536,109.736 85.202,112.628 
			83.387,110.353 80.533,110.929 82.137,108.499 80.706,105.964 83.514,106.736 		"/>
		<polygon style="fill:#FFFFFF;" points="96.826,108.722 96.958,111.63 99.603,112.842 96.879,113.864 96.546,116.757 
			94.73,114.481 91.876,115.057 93.48,112.627 92.049,110.092 94.857,110.865 		"/>
		<polygon style="fill:#FFFFFF;" points="108.168,112.85 108.3,115.758 110.946,116.97 108.222,117.993 107.887,120.885 
			106.072,118.609 103.218,119.185 104.822,116.755 103.392,114.221 106.199,114.993 		"/>
	</g>
	<g>
		
			<rect x="39.746" y="142.795" transform="matrix(0.9397 0.342 -0.342 0.9397 52.1505 -9.7446)" style="fill:#FFFFFF;" width="27.923" height="0.426"/>
		
			<rect x="93.856" y="162.49" transform="matrix(0.9397 0.342 -0.342 0.9397 62.1497 -27.0638)" style="fill:#FFFFFF;" width="27.924" height="0.426"/>
		<g>
			<polygon style="fill:#FFFFFF;" points="72.472,145.769 72.604,148.677 75.251,149.889 72.525,150.912 72.191,153.804 
				70.376,151.528 67.523,152.105 69.126,149.675 67.696,147.139 70.503,147.912 			"/>
			<polygon style="fill:#FFFFFF;" points="82.07,149.262 82.202,152.17 84.848,153.382 82.123,154.405 81.789,157.297 
				79.974,155.022 77.121,155.598 78.724,153.168 77.293,150.632 80.101,151.405 			"/>
			<polygon style="fill:#FFFFFF;" points="91.668,152.756 91.799,155.663 94.447,156.875 91.722,157.899 91.387,160.791 
				89.572,158.515 86.718,159.091 88.321,156.661 86.892,154.126 89.699,154.899 			"/>
		</g>
	</g>
	<g>
		<path style="fill:#FFFFFF;" d="M39.127,109.271l4.437,1.615c0.552,0.201,1.042,0.455,1.47,0.759
			c0.426,0.306,0.764,0.65,1.012,1.034c0.249,0.384,0.399,0.812,0.451,1.287c0.051,0.476-0.021,0.984-0.218,1.525
			c-0.267,0.733-0.689,1.257-1.267,1.571c-0.577,0.315-1.23,0.462-1.958,0.442l-0.013,0.036c0.376,0.164,0.7,0.395,0.974,0.691
			c0.273,0.298,0.482,0.631,0.625,1.004c0.144,0.372,0.22,0.771,0.228,1.197c0.009,0.425-0.065,0.853-0.223,1.286
			c-0.21,0.578-0.512,1.042-0.907,1.396c-0.394,0.354-0.851,0.606-1.369,0.758c-0.518,0.151-1.076,0.208-1.674,0.166
			c-0.598-0.04-1.21-0.174-1.835-0.402l-4.383-1.595L39.127,109.271z M38.928,115.205l2.363,0.86
			c0.324,0.118,0.643,0.197,0.956,0.235c0.312,0.04,0.606,0.02,0.879-0.057c0.273-0.077,0.517-0.214,0.731-0.408
			c0.213-0.195,0.384-0.466,0.511-0.815c0.184-0.506,0.182-1.003-0.008-1.494c-0.189-0.491-0.633-0.863-1.33-1.117l-2.724-0.991
			L38.928,115.205z M36.762,121.157l2.543,0.926c0.265,0.096,0.566,0.175,0.905,0.236c0.337,0.062,0.675,0.063,1.011,0.001
			c0.335-0.062,0.649-0.196,0.943-0.403c0.293-0.206,0.522-0.537,0.689-0.995c0.275-0.756,0.235-1.415-0.119-1.973
			c-0.356-0.558-0.954-0.991-1.796-1.297l-2.561-0.932L36.762,121.157z"/>
		<path style="fill:#FFFFFF;" d="M50.49,113.406l8.243,3l-0.591,1.623l-6.511-2.37l-1.385,3.807l6.06,2.206l-0.591,1.623
			l-6.06-2.206l-1.49,4.095L55,127.673l-0.591,1.622l-8.568-3.118L50.49,113.406z"/>
		<path style="fill:#FFFFFF;" d="M58.213,127.657c0.142,0.582,0.416,1.073,0.822,1.474c0.406,0.399,0.868,0.693,1.385,0.881
			c0.289,0.105,0.6,0.167,0.933,0.187c0.333,0.019,0.656-0.017,0.969-0.107c0.312-0.091,0.595-0.241,0.847-0.448
			c0.253-0.207,0.442-0.485,0.569-0.834c0.18-0.494,0.16-0.925-0.058-1.298c-0.219-0.372-0.528-0.729-0.927-1.072
			c-0.399-0.343-0.843-0.696-1.331-1.057c-0.488-0.362-0.912-0.77-1.269-1.228c-0.358-0.457-0.604-0.985-0.74-1.587
			c-0.136-0.6-0.052-1.316,0.25-2.146c0.136-0.373,0.361-0.739,0.677-1.102c0.315-0.361,0.71-0.653,1.186-0.875
			c0.476-0.223,1.03-0.35,1.662-0.387c0.633-0.036,1.334,0.087,2.103,0.368c0.697,0.254,1.329,0.593,1.897,1.017
			c0.567,0.424,0.983,1.02,1.251,1.782l-1.873,0.77c-0.094-0.415-0.302-0.798-0.624-1.147c-0.322-0.348-0.736-0.615-1.241-0.799
			c-0.481-0.175-0.904-0.257-1.268-0.247c-0.365,0.011-0.68,0.079-0.944,0.208c-0.265,0.128-0.478,0.293-0.639,0.492
			c-0.161,0.201-0.277,0.397-0.347,0.589c-0.197,0.541-0.193,1.013,0.016,1.416c0.207,0.403,0.51,0.778,0.908,1.127
			c0.396,0.349,0.842,0.695,1.337,1.039c0.495,0.343,0.926,0.729,1.295,1.155c0.369,0.427,0.63,0.917,0.782,1.47
			c0.153,0.553,0.089,1.214-0.191,1.983c-0.223,0.614-0.542,1.124-0.956,1.532c-0.414,0.408-0.881,0.708-1.399,0.9
			c-0.52,0.191-1.083,0.279-1.69,0.264c-0.607-0.017-1.216-0.137-1.83-0.36c-0.818-0.298-1.541-0.725-2.169-1.28
			c-0.628-0.555-1.05-1.213-1.264-1.971L58.213,127.657z"/>
		<path style="fill:#FFFFFF;" d="M73.617,123.662l-4.112-1.497l0.591-1.623l9.956,3.624l-0.591,1.623l-4.112-1.497l-4.057,11.147
			l-1.732-0.63L73.617,123.662z"/>
		<path style="fill:#FFFFFF;" d="M84.236,125.689l1.569,0.571l0.817,14.759l-2.021-0.735l-0.131-3.623l-6.078-2.212l-2.412,2.697
			l-2.02-0.735L84.236,125.689z M84.347,121.849c0.276,0.101,0.497,0.29,0.661,0.568c0.165,0.277,0.192,0.568,0.083,0.867
			c-0.118,0.325-0.323,0.558-0.612,0.697c-0.289,0.139-0.596,0.151-0.92,0.033c-0.325-0.118-0.553-0.325-0.685-0.617
			c-0.132-0.292-0.138-0.602-0.02-0.927c0.109-0.299,0.316-0.504,0.62-0.611C83.78,121.751,84.07,121.748,84.347,121.849z
			 M84.39,134.917l-0.247-6.728l-0.035-0.013l-4.551,4.982L84.39,134.917z M88.027,123.188c0.276,0.101,0.497,0.29,0.661,0.568
			c0.164,0.277,0.191,0.568,0.083,0.867c-0.118,0.325-0.322,0.558-0.611,0.697c-0.289,0.139-0.596,0.151-0.921,0.033
			c-0.324-0.118-0.553-0.325-0.685-0.617c-0.132-0.292-0.138-0.602-0.02-0.927c0.109-0.299,0.317-0.504,0.621-0.61
			C87.46,123.091,87.75,123.087,88.027,123.188z"/>
		<path style="fill:#FFFFFF;" d="M92.93,128.853l1.732,0.63l-4.057,11.148l5.861,2.133l-0.591,1.622l-7.593-2.764L92.93,128.853z"/>
		<path style="fill:#FFFFFF;" d="M102.291,132.26l1.732,0.63l-4.057,11.148l5.861,2.133l-0.591,1.622l-7.593-2.764L102.291,132.26z"
			/>
		<path style="fill:#FFFFFF;" d="M116.666,137.493l2.272,0.827l3.213,13.058l0.037,0.013l3.821-10.498l1.732,0.63l-4.648,12.77
			l-2.201-0.801l-3.286-13.084l-0.037-0.013l-3.821,10.497l-1.731-0.63L116.666,137.493z"/>
		<path style="fill:#FFFFFF;" d="M132.52,143.263l-2.849,7.828c-0.145,0.398-0.241,0.829-0.288,1.296
			c-0.048,0.465-0.01,0.925,0.111,1.377c0.122,0.454,0.345,0.869,0.67,1.246c0.326,0.376,0.789,0.675,1.39,0.894
			c0.602,0.219,1.148,0.288,1.64,0.209c0.492-0.08,0.93-0.254,1.314-0.524c0.384-0.268,0.708-0.597,0.971-0.983
			c0.264-0.388,0.467-0.78,0.612-1.178l2.849-7.828l1.733,0.631l-2.948,8.099c-0.271,0.745-0.644,1.375-1.118,1.89
			c-0.473,0.516-1.013,0.916-1.621,1.198c-0.606,0.283-1.254,0.436-1.942,0.457c-0.689,0.023-1.382-0.094-2.08-0.347
			c-0.697-0.254-1.303-0.611-1.816-1.07c-0.515-0.459-0.913-0.992-1.195-1.599c-0.284-0.607-0.441-1.26-0.472-1.959
			c-0.032-0.698,0.088-1.421,0.359-2.166l2.948-8.099L132.52,143.263z"/>
	</g>
</g>
</svg>
