<svg xmlns="http://www.w3.org/2000/svg" viewBox="0 0 198.43 198.43"><path d="M191.523 84.73c-3.797-4.51-6.037-12.945-4.978-18.744s-2.356-12.764-7.59-15.478c-5.234-2.714-10.532-9.649-11.773-15.412s-7.062-10.891-12.935-11.395c-5.873-.504-13.423-4.885-16.776-9.734S126.778 6.608 121.16 8.39s-14.267.624-19.222-2.574c-4.955-3.198-12.699-2.707-17.209 1.09s-12.943 6.038-18.741 4.979c-5.798-1.059-12.763 2.357-15.479 7.591s-9.652 10.532-15.415 11.773c-5.763 1.241-10.89 7.062-11.393 12.936-.504 5.874-4.884 13.422-9.734 16.775-4.85 3.352-7.36 10.693-5.578 16.313 1.782 5.62.624 14.271-2.573 19.224s-2.707 12.696 1.09 17.206 6.037 12.944 4.978 18.742c-1.06 5.798 2.356 12.763 7.591 15.478s10.533 9.652 11.774 15.414c1.242 5.762 7.062 10.889 12.935 11.393 5.873.504 13.421 4.884 16.773 9.734s10.692 7.36 16.311 5.578c5.618-1.782 14.269-.624 19.224 2.574 4.955 3.197 12.699 2.707 17.209-1.091s12.944-6.038 18.742-4.978c5.798 1.06 12.762-2.356 15.477-7.591s9.651-10.533 15.415-11.775c5.764-1.241 10.891-7.062 11.395-12.935.503-5.873 4.883-13.421 9.734-16.773 4.85-3.353 7.36-10.694 5.578-16.313-1.782-5.62-.624-14.27 2.573-19.224 3.197-4.954 2.706-12.696-1.092-17.206z" fill="#4c9862"/><path d="M191.982 105.014c-2.717-5.197-3.077-13.871-.8-19.276s.46-12.904-4.039-16.665c-4.499-3.761-8.152-11.637-8.117-17.501.035-5.864-4.515-12.097-10.111-13.851s-11.985-7.633-14.198-13.064c-2.213-5.432-8.803-9.449-14.645-8.927-5.842.522-13.994-2.465-18.115-6.637s-11.743-5.362-16.939-2.645c-5.195 2.718-13.87 3.078-19.277.801-5.407-2.277-12.908-.459-16.669 4.04-3.761 4.499-11.637 8.151-17.502 8.117-5.865-.035-12.097 4.516-13.85 10.112s-7.631 11.984-13.063 14.196c-5.432 2.212-9.45 8.801-8.929 14.642s-2.465 13.993-6.637 18.116C4.919 80.595 3.729 88.22 6.446 93.417c2.717 5.197 3.078 13.872.801 19.276s-.459 12.904 4.04 16.665 8.152 11.637 8.117 17.502 4.515 12.097 10.111 13.85 11.984 7.631 14.197 13.063 8.803 9.45 14.646 8.928c5.842-.522 13.994 2.465 18.115 6.637 4.121 4.172 11.743 5.363 16.939 2.645 5.196-2.718 13.87-3.078 19.276-.8s12.907.459 16.668-4.04 11.637-8.152 17.502-8.118c5.865.035 12.097-4.515 13.85-10.11 1.753-5.595 7.632-11.984 13.064-14.197s9.45-8.803 8.928-14.644c-.522-5.841 2.464-13.993 6.636-18.116 4.174-4.122 5.364-11.747 2.646-16.944zm-9.922 34.743c.519 5.797-3.466 12.336-8.857 14.531-5.391 2.196-11.226 8.537-12.967 14.093-1.741 5.555-7.927 10.071-13.746 10.034-5.819-.037-13.634 3.587-17.365 8.052-3.731 4.465-11.173 6.27-16.537 4.011s-13.971-1.902-19.127.795c-5.156 2.696-12.723 1.514-16.816-2.627-4.093-4.141-12.183-7.104-17.978-6.583-5.795.52-12.333-3.466-14.528-8.857-2.195-5.392-8.536-11.227-14.09-12.967-5.554-1.74-10.071-7.927-10.037-13.748.034-5.821-3.591-13.634-8.055-17.363-4.464-3.728-6.267-11.169-4.008-16.535 2.26-5.366 1.902-13.975-.794-19.132S5.641 80.736 9.78 76.644s7.103-12.181 6.586-17.977 3.47-12.333 8.86-14.529 11.224-8.535 12.965-14.089 7.925-10.07 13.742-10.036c5.818.034 13.634-3.59 17.37-8.054s11.179-6.268 16.541-4.008 13.97 1.902 19.129-.795 12.724-1.517 16.812 2.623 12.175 7.103 17.972 6.587c5.797-.517 12.336 3.471 14.532 8.861 2.196 5.39 8.535 11.225 14.089 12.965 5.553 1.74 10.068 7.924 10.032 13.742-.036 5.818 3.59 13.634 8.058 17.369 4.468 3.735 6.274 11.179 4.014 16.541s-1.903 13.971.794 19.13 1.514 12.724-2.628 16.812c-4.144 4.087-7.107 12.174-6.588 17.971z" fill="#4c9862"/><g fill="#fff"><path d="M71.478 99.926c-1.115-.958-2.526-1.438-4.202-1.438-1.83 0-3.299.523-4.416 1.578-1.047.991-1.578 2.228-1.578 3.718 0 2.209.461 4.216 1.369 6.016.556 1.08 1.543 2.512 2.937 4.293 1.402 1.782 2.344 3.142 2.849 4.09.856 1.656 1.3 3.378 1.3 5.157 0 .418-.183.813-.537 1.183-.467.511-1.103.769-1.923.769-.758 0-1.401-.229-1.906-.679-.416-.374-.625-.723-.625-1.052v-2.124h-3.464v2.114c0 1.453.574 2.661 1.716 3.62.131.107.265.208.4.304h-.49l-5.505 14.077v-14.077h-3.707v30.669h3.707v-7.223l1.953-5.05 3.552 12.273h3.751l-5.16-17.544 4.694-12.063a8.537 8.537 0 0 0 2.389-.023v29.63h3.633v-30.669h-1.029c.174-.131.34-.268.491-.42.997-.974 1.488-2.221 1.488-3.737 0-2.354-.467-4.492-1.392-6.427-.563-1.174-1.539-2.641-2.931-4.4-1.408-1.754-2.358-3.089-2.849-4.004-.832-1.533-1.249-3.096-1.249-4.711 0-.385.19-.79.575-1.205.495-.511 1.147-.762 1.955-.762.744 0 1.362.233 1.854.692.404.372.606.719.606 1.049v2.321h3.43v-2.321c.002-1.461-.556-2.665-1.686-3.624zM81.083 102.222h3.589v-3.248H73.929v3.248h3.621v25.252h-3.483v3.415h3.812v27.255h3.706v-27.255h3.779v-3.415h-4.281zM111.474 124.825h-7.227v-13.436h7.12v-3.319h-7.12v-5.848h7.12v-3.248h-8.887c-.467 0-.869.177-1.203.537-.335.354-.495.725-.495 1.109v25.877c0 .372.16.74.495 1.103.171.178.341.308.536.399v30.145h3.634v-17.62h5.249v17.62h3.614v-30.669h-2.836v-2.65zm-6.027 12.205v-8.886h5.249v8.886h-5.249zM97.444 128.474a7.219 7.219 0 0 0-.419-.33h1.695L94.7 114.8c2.448-4.086 3.672-7.595 3.672-10.536 0-3.524-1.956-5.291-5.855-5.291h-4.384c-.467 0-.868.177-1.203.537-.321.354-.494.725-.494 1.109v27.525h2.512c-.145.104-.287.214-.435.33-1.201 1.009-1.806 2.278-1.806 3.806v21.033c0 1.534.605 2.795 1.806 3.806 1.204 1.012 2.702 1.511 4.488 1.511 1.787 0 3.271-.499 4.441-1.511 1.17-1.011 1.761-2.272 1.761-3.806v-2.219H95.61v2.234c0 .361-.21.724-.63 1.107-.526.474-1.175.706-1.977.706-.776 0-1.439-.232-1.978-.703-.433-.394-.649-.757-.649-1.098v-21.058c0-.343.216-.708.649-1.099.539-.489 1.203-.731 1.978-.731.79 0 1.438.242 1.977.729.42.392.63.757.63 1.099v2.442h3.595v-2.442c0-1.528-.591-2.797-1.761-3.806zm-7.543-26.252h2.617c1.047 0 1.748.202 2.063.607.202.245.31.725.31 1.436 0 2.72-1.673 6.522-4.99 11.393v-13.436zm0 25.379v-5.976a54.92 54.92 0 0 0 2.253-2.925l2.612 8.449a8.269 8.269 0 0 0-1.763-.185c-1.161-.001-2.193.212-3.102.637zM121.523 140.524h7.497v-3.485h-7.497v-6.15h7.497v-3.415h-3.894v-2.65h-7.242v-13.436h7.122v-3.319h-7.122v-5.848h7.122v-3.248h-8.888c-.456 0-.852.177-1.187.537-.336.354-.499.725-.499 1.109v25.877c0 .372.162.74.499 1.103.335.363.732.545 1.187.545h2.218c-.295.342-.445.695-.445 1.061v27.21c0 .386.181.773.53 1.157.348.377.765.572 1.251.572h9.475v-3.489h-7.623v-14.131zM141.121 127.474v14.567l-5.393-14.567h-2.182v-25.252h3.603v-3.248h-10.743v3.248h3.621v25.922h2.212v30h3.633v-20.498l5.249 14.203v6.295h3.614v-30.67zM140.94 41.021v27.514l-18.579-27.514h-7.398v34.005H91.311V64.369h21.366v-7.007H91.311v-9.278h21.366v-7.062H83.51v7.002a12.962 12.962 0 0 0-3.511-4.406c-1.517-1.23-3.331-2.176-5.417-2.833-2.099-.657-4.414-.987-6.944-.987-2.436 0-4.648.307-6.633.918-1.986.61-3.695 1.459-5.129 2.542-1.432 1.086-2.535 2.372-3.316 3.864-.78 1.49-1.17 3.125-1.17 4.903 0 1.649.286 3.108.851 4.378.562 1.269 1.437 2.388 2.612 3.363 1.176.969 2.68 1.814 4.514 2.527 1.835.712 4.017 1.34 6.549 1.876 2.212.424 4.092.836 5.608 1.237 1.517.397 2.745.836 3.684 1.319.926.481 1.603 1.028 2.03 1.64.423.611.631 1.353.631 2.221 0 .853-.218 1.624-.652 2.308-.424.686-1.034 1.265-1.815 1.738-.797.472-1.748.836-2.854 1.099-1.106.256-2.335.385-3.684.385-1.424 0-2.756-.171-4.02-.513a10.04 10.04 0 0 1-3.347-1.598 8.825 8.825 0 0 1-2.406-2.737c-.63-1.101-1.019-2.404-1.156-3.904h-8.031c.079 2.334.526 4.478 1.359 6.433a13.725 13.725 0 0 0 3.639 5.046c1.592 1.408 3.575 2.503 5.947 3.289 2.358.788 5.134 1.185 8.304 1.185 2.44 0 4.691-.328 6.753-.977 2.061-.649 3.84-1.549 5.332-2.708a12.69 12.69 0 0 0 2.272-2.259v4.718H122.499V54.628l18.671 27.461h7.355V41.021h-7.585zm-57.848 21.59a13.25 13.25 0 0 0-3.104-2.321 24.37 24.37 0 0 0-3.767-1.624 44.134 44.134 0 0 0-4.092-1.139 150.886 150.886 0 0 0-4.082-.863c-1.516-.296-2.812-.602-3.889-.916-1.066-.314-1.94-.662-2.623-1.042-.682-.379-1.184-.796-1.492-1.25-.317-.455-.47-.987-.47-1.598 0-1.5.712-2.682 2.13-3.542 1.424-.863 3.478-1.295 6.167-1.295 5.514 0 8.567 2.401 9.144 7.199h6.497v8.845a16.312 16.312 0 0 0-.419-.454z"/><g><path d="M67.806 87.968c-.031.042-.055.069-.113.079a13.448 13.448 0 0 1-1.963 3.036c1.082.782 2.716 2.119 3.611 3.037l-.417.318c-.88-.91-2.463-2.26-3.499-3.01-.821.943-2.348 2.287-3.792 3.025a2.124 2.124 0 0 0-.351-.355c2.732-1.364 4.867-3.967 5.739-5.879h-4.82v-.429h5.081l.09-.039.434.217zM76.036 91.638a40.383 40.383 0 0 0-3.476-1.45v4.452h-.513v-7.532l.758.041c-.019.092-.097.139-.245.167v2.581l.11-.155c1.133.388 2.627.999 3.643 1.483l-.277.413zM78.835 91.881v-4.188l.701.04c-.007.064-.075.128-.209.138v4.01h-.492zm5.201-4.53c-.008.086-.075.133-.208.148v2.786c0 1.808-.697 3.458-3.472 4.409a1.63 1.63 0 0 0-.344-.339c2.696-.91 3.303-2.417 3.303-4.085v-2.958l.721.039zM85.917 90.501h7.971v.45h-7.632c-.042.089-.168.152-.287.158l-.052-.608zM100.768 91.638a42.079 42.079 0 0 0-3.478-1.45v4.452h-.521v-7.532l.751.041c-.006.092-.081.139-.23.167v2.581l.099-.155c1.148.388 2.641.999 3.653 1.483l-.274.413zM107.095 91.797l.367 2.801-.507.048-.344-2.803-3.649.432-.076-.415 3.663-.432-.245-2.102-3.083.364-.067-.425 3.089-.367-.214-1.766.724-.023c0 .077-.082.145-.209.175l.191 1.552 2.996-.353.06.436-2.994.355.26 2.095 3.666-.426.058.426-3.686.428zM112.836 89.439c.299.548.61 1.394.73 1.884l-.404.097a9.413 9.413 0 0 0-.708-1.848l.382-.133zm5.736.026c-.012.061-.08.077-.173.077-.738 2.53-2.101 4.099-4.476 4.966a2.954 2.954 0 0 0-.268-.308c2.364-.851 3.621-2.3 4.35-4.891l.567.156zm-3.408-.454c.203.601.38 1.434.448 1.995l-.411.063a10.914 10.914 0 0 0-.455-1.97l.418-.088zM128.075 90.735h-3.418c-.202 1.714-.815 2.989-2.694 3.945a2.55 2.55 0 0 0-.381-.295c1.77-.897 2.38-2.04 2.59-3.65h-3.984v-.427h4.028a38.75 38.75 0 0 0 .064-2.02c-1.02.221-2.348.421-3.414.541-.047-.133-.105-.259-.163-.388 1.364-.154 2.596-.342 3.654-.581.957-.225 1.833-.469 2.292-.647l.395.399c-.023.017-.059.017-.096.017s-.065 0-.112-.007c-.529.174-1.371.414-2.152.59l.286.027c-.013.07-.074.116-.195.131-.006.699-.014 1.344-.066 1.937h3.366v.428zM129.768 87.86c1.008.283 2.157.734 2.865 1.197l-.269.381c-.694-.45-1.829-.901-2.813-1.211l.217-.367zm.067 6.073c3.434-.972 5.707-2.713 6.869-5.134.133.105.302.196.445.258-1.197 2.383-3.546 4.241-6.801 5.206a.466.466 0 0 1-.118.195l-.395-.525z"/></g></g></svg>